<?xml version="1.0" standalone="no"?>
<!DOCTYPE svg PUBLIC "-//W3C//DTD SVG 1.1//EN" "http://www.w3.org/Graphics/SVG/1.1/DTD/svg11.dtd" >
<svg xmlns="http://www.w3.org/2000/svg" xmlns:xlink="http://www.w3.org/1999/xlink" version="1.1">
<metadata>
Created by FontForge 20170731 at Mon Dec 17 17:13:22 2018
 By Aleksey,,,
Copyright (c) 2018 Tikkurila Oy. All rights reserved.
</metadata>
<defs>
<font id="TikkurilaConsumerSerif" horiz-adv-x="536" >
  <font-face 
    font-family="Tikkurila Consumer Serif"
    font-weight="400"
    font-stretch="normal"
    units-per-em="1000"
    panose-1="0 0 0 0 0 0 0 0 0 0"
    ascent="800"
    descent="-200"
    x-height="500"
    cap-height="700"
    bbox="-66 -215 1063 905"
    underline-thickness="0"
    underline-position="0"
    unicode-range="U+000D-FB03"
  />
<missing-glyph horiz-adv-x="0" 
 />
    <glyph glyph-name="f_i" unicode="fi" horiz-adv-x="573" 
d="M510 500v-420q0 -24 15 -45t38 -31v-4h-246v4q23 10 38 31t15 45v380h-160v-380q0 -24 15 -45t38 -31v-4h-246v4q23 10 38 31t15 45v380h-60v40h60v20q0 190 172 190q47 0 95 -10v-4q-75 -14 -101 -49t-26 -127v-20h300zM365 640q0 31 22 53t53 22t53 -22t22 -53t-22 -53
t-53 -22t-53 22t-22 53z" />
    <glyph glyph-name="f_f_i" unicode="ffi" horiz-adv-x="873" 
d="M810 500v-420q0 -24 15 -45t38 -31v-4h-246v4q23 10 38 31t15 45v380h-160v-380q0 -24 15 -45t38 -31v-4h-246v4q23 10 38 31t15 45v380h-160v-380q0 -24 15 -45t38 -31v-4h-246v4q23 10 38 31t15 45v380h-60v40h60v20q0 190 172 190q47 0 95 -10v-4q-75 -14 -101 -49
t-26 -127v-20h160v20q0 190 172 190q47 0 95 -10v-4q-75 -14 -101 -49t-26 -127v-20h300zM665 640q0 31 22 53t53 22t53 -22t22 -53t-22 -53t-53 -22t-53 22t-22 53z" />
    <glyph glyph-name="f_j" unicode="fj" horiz-adv-x="575" 
d="M510 500v-520q0 -190 -172 -190q-47 0 -95 10v4q75 14 101 49t26 127v480h-160v-380q0 -24 15 -45t38 -31v-4h-246v4q23 10 38 31t15 45v380h-60v40h60v20q0 190 172 190q47 0 95 -10v-4q-75 -14 -101 -49t-26 -127v-20h300zM365 640q0 31 22 53t53 22t53 -22t22 -53
t-22 -53t-53 -22t-53 22t-22 53z" />
    <glyph glyph-name="f_f_j" unicode="ffj" horiz-adv-x="875" 
d="M810 500v-520q0 -190 -172 -190q-47 0 -95 10v4q75 14 101 49t26 127v480h-160v-380q0 -24 15 -45t38 -31v-4h-246v4q23 10 38 31t15 45v380h-160v-380q0 -24 15 -45t38 -31v-4h-246v4q23 10 38 31t15 45v380h-60v40h60v20q0 190 172 190q47 0 95 -10v-4
q-75 -14 -101 -49t-26 -127v-20h160v20q0 190 172 190q47 0 95 -10v-4q-75 -14 -101 -49t-26 -127v-20h300zM665 640q0 31 22 53t53 22t53 -22t22 -53t-22 -53t-53 -22t-53 22t-22 53z" />
    <glyph glyph-name=".notdef" horiz-adv-x="0" 
 />
    <glyph glyph-name=".null" horiz-adv-x="0" 
 />
    <glyph glyph-name=".null" horiz-adv-x="0" 
 />
    <glyph glyph-name="nonmarkingreturn" horiz-adv-x="333" 
 />
    <glyph glyph-name="CR" unicode="&#xd;" horiz-adv-x="220" 
 />
    <glyph glyph-name="space" unicode=" " horiz-adv-x="200" 
 />
    <glyph glyph-name="exclam" unicode="!" horiz-adv-x="263" 
d="M213 715l-30 -525h-80l-30 428q0 24 -15.5 46.5t-37.5 31.5v4q97 2 193 15zM75 68q0 28 19.5 48t48.5 20t48.5 -20t19.5 -48t-19.5 -48t-48.5 -20t-48.5 20t-19.5 48z" />
    <glyph glyph-name="quotedbl" unicode="&#x22;" horiz-adv-x="330" 
d="M110 430h-60l-20 270h100zM280 430h-60l-20 270h100z" />
    <glyph glyph-name="numbersign" unicode="#" horiz-adv-x="527" 
d="M451 200h-110l-45 -200h-45l45 200h-145l-45 -200h-45l45 200h-100l10 40h99l41 180h-100l10 40h99l46 200h45l-46 -200h145l46 200h45l-46 -200h111l-10 -40h-110l-41 -180h111zM201 420l-41 -180h145l41 180h-145z" />
    <glyph glyph-name="dollar" unicode="$" horiz-adv-x="540" 
d="M281 795v-85q101 0 174 -42l18 -178h-3q-36 88 -79.5 132.5t-109.5 47.5v-241l32 -13q44 -19 69 -33t56.5 -39t46.5 -59.5t15 -79.5q0 -91 -58.5 -150t-160.5 -64v-86h-40v86q-113 3 -183 51l-18 178h4q34 -89 86.5 -137t110.5 -53v241l-49 20q-69 29 -103 80t-34 134
q0 70 48 129.5t138 72.5v88h40zM369 138q0 73 -88 115v-222q88 13 88 107zM160 562q0 -74 81 -115v220q-39 -9 -60 -37t-21 -68z" />
    <glyph glyph-name="percent" unicode="%" horiz-adv-x="660" 
d="M560 700l-410 -700h-50l410 700h50zM60 575q0 58 41 99t99 41t99 -41t41 -99t-41 -99t-99 -41t-99 41t-41 99zM105 575q0 -39 28 -67t67 -28t67 28t28 67t-28 67t-67 28t-67 -28t-28 -67zM320 125q0 58 41 99t99 41t99 -41t41 -99t-41 -99t-99 -41t-99 41t-41 99z
M365 125q0 -39 28 -67t67 -28t67 28t28 67t-28 67t-67 28t-67 -28t-28 -67z" />
    <glyph glyph-name="ampersand" unicode="&#x26;" horiz-adv-x="700" 
d="M493 184q31 48 31 107q0 38 -57 56v4h203v-4q-22 -6 -29.5 -8.5t-21.5 -9t-22 -16.5t-15 -26q-41 -93 -67 -131l68 -83q45 -56 87 -69v-4q-40 -10 -114 -10q-76 0 -122 59h-2q-60 -59 -160 -59q-103 0 -172.5 50.5t-69.5 149.5q0 119 137 190v2q-43 48 -64 84.5t-21 83.5
q0 71 55 115.5t135 44.5q79 0 135 -45t56 -115q0 -92 -128 -167v-2q0 -1 158 -197zM210 325q-51 -51 -51 -145q0 -54 38.5 -102t88.5 -48q73 0 121 50zM195 593q0 -24 23 -60.5t82 -107.5q57 49 57 128q0 53 -25 85t-64 32q-36 0 -54.5 -23t-18.5 -54z" />
    <glyph glyph-name="quotesingle" unicode="'" horiz-adv-x="160" 
d="M110 430h-60l-20 270h100z" />
    <glyph glyph-name="parenleft" unicode="(" horiz-adv-x="342" 
d="M151 250q0 -173 57.5 -294t133.5 -148v-8q-125 21 -218.5 145.5t-93.5 304.5t93.5 304.5t218.5 145.5v-8q-76 -27 -133.5 -148t-57.5 -294z" />
    <glyph glyph-name="parenright" unicode=")" horiz-adv-x="342" 
d="M191 250q0 173 -57.5 294t-133.5 148v8q125 -21 218.5 -145.5t93.5 -304.5t-93.5 -304.5t-218.5 -145.5v8q76 27 133.5 148t57.5 294z" />
    <glyph glyph-name="asterisk" unicode="*" horiz-adv-x="323" 
d="M20 586l21 64l96 -38q-1 18 -4.5 53.5t-4.5 49.5h67l-8 -103l94 39l22 -64l-99 -24q36 -43 67 -77l-56 -39l-53 85q-31 -49 -54 -87l-53 40l65 78z" />
    <glyph glyph-name="plus" unicode="+" horiz-adv-x="460" 
d="M410 265h-148v-150h-64v150h-148v60h148v150h64v-150h148v-60z" />
    <glyph glyph-name="comma" unicode="," horiz-adv-x="196" 
d="M155 160q11 -35 11 -64q0 -71 -45 -126t-121 -70v4q25 23 43.5 70t18.5 94q0 26 -7 47z" />
    <glyph glyph-name="hyphen" unicode="-" horiz-adv-x="340" 
d="M320 310h-300v80h300v-80z" />
    <glyph glyph-name="period" unicode="." horiz-adv-x="196" 
d="M30 68q0 28 20 48t48 20t48 -20t20 -48t-20 -48t-48 -20t-48 20t-20 48z" />
    <glyph glyph-name="slash" unicode="/" horiz-adv-x="400" 
d="M400 700l-350 -700h-50l350 700h50z" />
    <glyph glyph-name="zero" unicode="0" horiz-adv-x="537" 
d="M268 710q108 0 173.5 -99.5t65.5 -260.5q0 -167 -67 -263.5t-172 -96.5q-109 0 -173.5 95.5t-64.5 264.5q0 159 67 259.5t171 100.5zM281 25q29 0 47.5 20.5t26.5 64.5t10.5 87t2.5 114q0 79 -14 162t-41 142.5t-60 59.5q-20 0 -34.5 -10t-24 -30.5t-15.5 -43.5t-8.5 -59
t-3.5 -66.5t-1 -75.5q0 -130 33.5 -247.5t81.5 -117.5z" />
    <glyph glyph-name="one" unicode="1" horiz-adv-x="342" 
d="M259 715v-635q0 -24 15 -45t38 -31v-4h-246v4q23 10 38 31t15 45v426q0 42 -23.5 59t-85.5 17v8q133 34 247 125h2z" />
    <glyph glyph-name="two" unicode="2" horiz-adv-x="472" 
d="M435 500q0 -51 -23 -92.5t-57.5 -67t-77 -51.5t-80.5 -47t-68.5 -53t-39.5 -69l-5 -20h222q58 0 83 17t49 73h4l-20 -190h-402l5 40q11 86 43 151.5t69.5 103t73.5 69t60 67t24 79.5q0 69 -29 117t-80 48q-45 0 -78.5 -36.5t-67.5 -128.5h-4l20 160q79 40 144 40
q124 0 179.5 -58.5t55.5 -151.5z" />
    <glyph glyph-name="three" unicode="3" horiz-adv-x="483" 
d="M191 675q-45 0 -78.5 -36.5t-67.5 -128.5h-4l20 160q79 40 144 40q100 0 155.5 -41t55.5 -119q0 -55 -36 -102t-89 -68v-2q63 -11 112.5 -62.5t49.5 -115.5q0 -95 -59 -152.5t-186 -57.5q-53 0 -89 11t-79 39l-20 160h4q41 -95 82 -135t92 -40q48 0 74 41t26 114
q0 78 -42 124t-103 46h-20v40h20q57 0 89.5 39.5t32.5 100.5q0 145 -84 145z" />
    <glyph glyph-name="four" unicode="4" horiz-adv-x="520" 
d="M262 200h-252v4l272 496h120v-460h4q75 1 90 25h4l-20 -65h-78v-120q0 -24 15 -45t38 -31v-4h-246v4q23 10 38 31t15 45v120zM262 240l-1 327h-2l-178 -325v-2h181z" />
    <glyph glyph-name="five" unicode="5" horiz-adv-x="465" 
d="M189 25q102 0 102 185q0 87 -37.5 146t-95.5 59q-64 0 -119 -105h-4l49 390h195q67 0 94 4t38 21h4l-20 -125h-274l-19 -154h2q34 14 81 14q107 0 178.5 -62t71.5 -178q0 -110 -70 -170t-166 -60q-53 0 -90 11t-79 39l-20 160h4q41 -95 82.5 -135t92.5 -40z" />
    <glyph glyph-name="six" unicode="6" horiz-adv-x="518" 
d="M291 710q65 0 144 -40l20 -160h-4q-34 92 -67.5 128.5t-78.5 36.5q-49 0 -80.5 -67t-41.5 -176h2q10 11 34 19.5t45 8.5q94 0 159 -61.5t65 -178.5q0 -112 -63 -171t-157 -59q-106 0 -172 70.5t-66 219.5q0 119 29.5 215.5t90 155.5t141.5 59zM280 25q73 0 73 175
q0 78 -29.5 151.5t-69.5 73.5t-60 -48.5t-20 -126.5q0 -79 32.5 -152t73.5 -73z" />
    <glyph glyph-name="seven" unicode="7" horiz-adv-x="447" 
d="M437 698l-201 -626q-14 -44 36 -68v-4h-249v4q61 28 79 69l243 527h-189q-58 0 -83 -17t-49 -73h-4l20 190h397v-2z" />
    <glyph glyph-name="eight" unicode="8" horiz-adv-x="511" 
d="M481 200q0 -100 -64 -155t-155 -55q-100 0 -166 54.5t-66 155.5q0 64 33.5 106t95.5 74v2q-39 24 -63 70.5t-24 97.5q0 70 54 115t126 45q79 0 135 -45t56 -115q0 -102 -78 -152v-2q116 -70 116 -196zM185 593q0 -69 85 -129l44 -31q33 49 33 120q0 52 -29.5 87t-69.5 35
q-63 0 -63 -82zM344 145q0 46 -26.5 94.5t-67.5 76.5l-41 28q-50 -50 -50 -154q0 -65 31 -115t76 -50q78 0 78 120z" />
    <glyph glyph-name="nine" unicode="9" horiz-adv-x="518" 
d="M227 -10q-65 0 -144 40l-20 160h4q34 -92 67.5 -128.5t78.5 -36.5q49 0 80.5 67t41.5 176h-2q-10 -11 -34 -19.5t-45 -8.5q-94 0 -159 61.5t-65 178.5q0 112 63 171t157 59q106 0 172 -70.5t66 -219.5q0 -119 -29.5 -215.5t-90 -155.5t-141.5 -59zM238 675
q-73 0 -73 -175q0 -78 29.5 -151.5t69.5 -73.5t60 48.5t20 126.5q0 79 -32.5 152t-73.5 73z" />
    <glyph glyph-name="colon" unicode=":" horiz-adv-x="196" 
d="M30 68q0 28 20 48t48 20t48 -20t20 -48t-20 -48t-48 -20t-48 20t-20 48zM30 458q0 28 20 48t48 20t48 -20t20 -48t-20 -48t-48 -20t-48 20t-20 48z" />
    <glyph glyph-name="semicolon" unicode=";" horiz-adv-x="196" 
d="M155 157q11 -35 11 -65q0 -71 -45 -126t-121 -70v4q25 23 43.5 70t18.5 94q0 26 -7 47zM28 458q0 28 20 48t48 20t48 -20t20 -48t-20 -48t-48 -20t-48 20t-20 48z" />
    <glyph glyph-name="less" unicode="&#x3c;" horiz-adv-x="460" 
d="M179 296v-2l231 -114v-65l-360 178v4l360 178v-65z" />
    <glyph glyph-name="equal" unicode="=" horiz-adv-x="460" 
d="M410 350h-360v60h360v-60zM410 180h-360v60h360v-60z" />
    <glyph glyph-name="greater" unicode="&#x3e;" horiz-adv-x="460" 
d="M281 294v2l-231 114v65l360 -178v-4l-360 -178v65z" />
    <glyph glyph-name="question" unicode="?" horiz-adv-x="449" 
d="M109 68q0 28 19.5 48t48.5 20t48.5 -20t19.5 -48t-19.5 -48t-48.5 -20t-48.5 20t-19.5 48zM180 670q-46 0 -79 -34.5t-67 -125.5h-4l20 160q79 40 144 40q225 0 225 -180q0 -41 -32 -87t-70.5 -79.5t-72 -68.5t-36.5 -55l-5 -50h-65l-5 68q-3 31 10.5 60t35.5 53t45 47.5
t39 52.5t16 59q0 62 -29 101t-70 39z" />
    <glyph glyph-name="at" unicode="@" horiz-adv-x="926" 
d="M846 69q-76 -117 -169 -174.5t-228 -57.5q-170 0 -269.5 99.5t-99.5 266.5q0 200 126 328.5t315 128.5q148 0 236 -91.5t88 -241.5q0 -127 -85 -214t-182 -87q-45 0 -69.5 40t-13.5 96q-28 -57 -75.5 -97t-98.5 -40q-36 0 -56 28.5t-20 74.5q0 137 80.5 233.5t221.5 96.5
h112l-62 -266q-11 -50 -11 -72q0 -17 9 -28.5t21 -11.5q60 0 120 78t60 168q0 132 -72.5 211.5t-205.5 79.5q-165 0 -275 -118t-110 -293q0 -153 86 -239.5t234 -86.5q118 0 204 50.5t159 157.5zM530 384l8 35h-17q-50 0 -100 -91.5t-50 -179.5q0 -38 23 -38q73 0 136 274z
" />
    <glyph glyph-name="A" unicode="A" horiz-adv-x="677" 
d="M324 715h8l266 -642q16 -40 79 -69v-4h-280v4q54 26 36 68l-53 128h-224l-53 -127q-9 -21 5.5 -41t42.5 -28v-4h-151v4q35 12 58 69zM363 240l-95 225h-2l-94 -225h191z" />
    <glyph glyph-name="B" unicode="B" horiz-adv-x="603" 
d="M353 0h-343v4q27 12 50 33t23 43v538q0 22 -24 44.5t-49 33.5v4h317q101 0 160 -41.5t59 -118.5q0 -54 -35.5 -96t-89.5 -64q63 -10 112.5 -62.5t49.5 -117.5q0 -91 -57.5 -145.5t-172.5 -54.5zM263 660h-30v-270h50q64 0 91 33.5t27 96.5q0 57 -42 98.5t-96 41.5z
M273 350h-40v-310h60q70 0 102.5 28.5t32.5 111.5q0 68 -47.5 119t-107.5 51z" />
    <glyph glyph-name="C" unicode="C" horiz-adv-x="638" 
d="M410 25q121 0 204 195h4l-20 -183q-79 -52 -208 -52q-73 0 -138.5 22.5t-117.5 66t-83 115t-31 161.5q0 86 30.5 156.5t81 115t112 69t126.5 24.5q123 0 205 -42l20 -183h-4q-83 185 -231 185q-79 0 -127 -70.5t-48 -214.5q0 -162 61 -263.5t164 -101.5z" />
    <glyph glyph-name="D" unicode="D" horiz-adv-x="682" 
d="M263 660h-31v-620h71q190 0 190 291q0 136 -73.5 232.5t-156.5 96.5zM10 700h271q164 0 272.5 -92.5t108.5 -257.5q0 -166 -92 -258t-251 -92h-309v4q27 12 50 33t23 43v538q0 22 -24 44.5t-49 33.5v4z" />
    <glyph glyph-name="E" unicode="E" horiz-adv-x="563" 
d="M549 180h4l-23 -180h-520v4q27 12 50 33t23 43v538q0 22 -24 44.5t-49 33.5v4h503l20 -180h-4q-25 75 -60 107.5t-92 32.5h-144v-270h66q74 0 106 93h4v-221h-4q-30 88 -106 88h-66v-310h148q108 0 168 140z" />
    <glyph glyph-name="F" unicode="F" horiz-adv-x="533" 
d="M306 0h-296v4q27 12 50 33t23 43v538q0 22 -24 44.5t-49 33.5v4h503l20 -180h-4q-25 75 -60 107.5t-92 32.5h-144v-290h66q75 0 106 90h4v-220h-4q-31 90 -106 90h-66v-250q0 -22 23 -43t50 -33v-4z" />
    <glyph glyph-name="G" unicode="G" horiz-adv-x="712" 
d="M615 270v-220q-83 -65 -225 -65q-73 0 -138.5 22.5t-117.5 66t-83 115t-31 161.5q0 86 30.5 156.5t81 115t112 69t126.5 24.5q123 0 215 -47l20 -178h-4q-40 88 -101 136.5t-140 48.5t-127 -70.5t-48 -214.5q0 -162 61 -263.5t164 -101.5q33 0 60 10v235q0 22 -23.5 43
t-50.5 33v4h296v-4q-28 -12 -52.5 -33t-24.5 -43z" />
    <glyph glyph-name="H" unicode="H" horiz-adv-x="724" 
d="M641 618v-538q0 -22 23 -43t50 -33v-4h-296v4q27 12 50 33t23 43v270h-258v-270q0 -22 23 -43t50 -33v-4h-296v4q27 12 50 33t23 43v538q0 22 -24 44.5t-49 33.5v4h296v-4q-27 -12 -50 -33.5t-23 -44.5v-228h258v228q0 22 -24 44.5t-49 33.5v4h296v-4q-27 -12 -50 -33.5
t-23 -44.5z" />
    <glyph glyph-name="I" unicode="I" horiz-adv-x="336" 
d="M243 618v-538q0 -22 23 -43t50 -33v-4h-296v4q27 12 50 33t23 43v538q0 22 -24 44.5t-49 33.5v4h296v-4q-27 -12 -50 -33.5t-23 -44.5z" />
    <glyph glyph-name="J" unicode="J" horiz-adv-x="471" 
d="M388 618v-469q0 -72 -66.5 -118t-143.5 -46q-89 0 -168 52l-20 183h4q40 -93 88.5 -144t85.5 -51q36 0 53 19.5t17 66.5v507q0 22 -24 44.5t-49 33.5v4h296v-4q-27 -12 -50 -33.5t-23 -44.5z" />
    <glyph glyph-name="K" unicode="K" horiz-adv-x="718" 
d="M347 442l281 -369q40 -53 90 -69v-4q-40 -10 -115 -10q-100 0 -164 82l-204 278h-2v-270q0 -22 23 -43t50 -33v-4h-296v4q27 12 50 33t23 43v538q0 22 -24 44.5t-49 33.5v4h296v-4q-27 -12 -50 -33.5t-23 -44.5v-228h2l238 202q32 26 32 48q0 35 -67 56v4h246v-4
q-55 -15 -108 -60z" />
    <glyph glyph-name="L" unicode="L" horiz-adv-x="553" 
d="M10 700h296v-4q-27 -12 -50 -33t-23 -43v-580h164q57 0 92 32.5t60 107.5h4l-20 -180h-523v4q25 11 49 33.5t24 44.5v538q0 22 -23 43t-50 33v4z" />
    <glyph glyph-name="M" unicode="M" horiz-adv-x="878" 
d="M626 540l-235 -540h-8l-235 540h-2l-18 -460q-1 -22 22.5 -43t50.5 -33v-4h-191v4q27 12 49.5 33t23.5 43l20 538q1 22 -23 44.5t-50 33.5v4h223l196 -456h2l197 456h200v-4q-28 -12 -51 -33.5t-22 -44.5l20 -538q1 -22 23.5 -43t49.5 -33v-4h-296v4q27 12 50.5 33
t22.5 43l-17 460h-2z" />
    <glyph glyph-name="N" unicode="N" horiz-adv-x="694" 
d="M128 530v-450q0 -22 23 -43t50 -33v-4h-191v4q27 12 50 33t23 43v538q0 22 -24 44.5t-49 33.5v4h191l363 -417h2v335q0 22 -24 44.5t-49 33.5v4h191v-4q-27 -12 -50 -33.5t-23 -44.5v-633h-8l-473 545h-2z" />
    <glyph glyph-name="O" unicode="O" horiz-adv-x="720" 
d="M370 -15q-152 0 -251 93.5t-99 271.5q0 86 27.5 156.5t74 115.5t105 69t123.5 24q152 0 251 -93.5t99 -271.5q0 -86 -27.5 -156.5t-74 -115.5t-105 -69t-123.5 -24zM335 675q-68 0 -109 -71t-41 -214q0 -94 26.5 -178t72.5 -135.5t101 -51.5q67 0 108.5 71t41.5 214
q0 98 -21.5 179t-68 133.5t-110.5 52.5z" />
    <glyph glyph-name="P" unicode="P" horiz-adv-x="566" 
d="M327 310h-94v-230q0 -22 23 -43t50 -33v-4h-296v4q27 12 50 33t23 43v538q0 22 -24 44.5t-49 33.5v4h317q99 0 164 -50.5t65 -129.5q0 -91 -59.5 -150.5t-169.5 -59.5zM253 660h-20v-310h50q63 0 95.5 43t32.5 107q0 60 -48 110t-110 50z" />
    <glyph glyph-name="Q" unicode="Q" horiz-adv-x="720" 
d="M370 -15q-152 0 -251 93.5t-99 271.5q0 86 27.5 156.5t74 115.5t105 69t123.5 24q152 0 251 -93.5t99 -271.5q0 -112 -45 -194.5t-121 -126.5q43 -27 98.5 -51.5t91.5 -24.5q20 0 46 7v-4q-58 -46 -128 -46q-36 0 -107.5 28.5t-110.5 51.5q-30 -5 -54 -5zM335 675
q-68 0 -109 -71t-41 -214q0 -94 26.5 -178t72.5 -135.5t101 -51.5q67 0 108.5 71t41.5 214q0 98 -21.5 179t-68 133.5t-110.5 52.5z" />
    <glyph glyph-name="R" unicode="R" horiz-adv-x="685" 
d="M566 520q0 -73 -39.5 -127.5t-114.5 -73.5l183 -246q40 -53 90 -69v-4q-40 -10 -115 -10q-106 0 -164 82l-166 238h-7v-230q0 -22 23 -43t50 -33v-4h-296v4q27 12 50 33t23 43v538q0 22 -24 44.5t-49 33.5v4h327q99 0 164 -50.5t65 -129.5zM263 660h-30v-310h60
q63 0 95.5 43t32.5 107q0 60 -48 110t-110 50z" />
    <glyph glyph-name="S" unicode="S" horiz-adv-x="553" 
d="M268 -15q-141 0 -228 52l-20 183h4q41 -95 103.5 -145t130.5 -50q128 0 128 108q0 17 -5 31.5t-11 25.5t-20.5 22t-24 17.5t-31.5 16t-32.5 13.5t-37 13.5t-36.5 13.5q-154 57 -154 224q0 36 15.5 71t45 65.5t80 49.5t113.5 19q113 0 195 -42l20 -183h-4
q-41 92 -92.5 138.5t-128.5 46.5q-60 0 -93 -30t-33 -78q0 -22 8.5 -41t17.5 -30.5t32 -25t33.5 -18t41.5 -16.5t38 -15q45 -18 77 -34.5t65 -43t50.5 -62.5t17.5 -81q0 -95 -71 -155t-194 -60z" />
    <glyph glyph-name="T" unicode="T" horiz-adv-x="630" 
d="M20 700h590l20 -181h-4q-25 75 -60 108t-92 33h-84v-580q0 -22 23 -43t50 -33v-4h-296v4q27 12 50 33t23 43v580h-84q-57 0 -92 -33t-60 -108h-4z" />
    <glyph glyph-name="U" unicode="U" horiz-adv-x="674" 
d="M591 618v-386q0 -118 -49 -182.5t-172 -64.5q-287 0 -287 248v385q0 22 -24 44.5t-49 33.5v4h296v-4q-27 -12 -50 -33.5t-23 -44.5v-421q0 -78 41 -125t111 -47q82 0 121.5 51t39.5 141v401q0 22 -24 44.5t-49 33.5v4h191v-4q-27 -12 -50 -33.5t-23 -44.5z" />
    <glyph glyph-name="V" unicode="V" horiz-adv-x="677" 
d="M411 235l163 392q9 21 -5.5 41t-42.5 28v4h151v-4q-35 -12 -58 -69l-266 -642h-8l-266 642q-16 40 -79 69v4h280v-4q-54 -26 -36 -68l165 -393h2z" />
    <glyph glyph-name="W" unicode="W" horiz-adv-x="969" 
d="M495 429l-167 -444h-8l-241 642q-16 40 -79 69v4h280v-4q-54 -26 -36 -68l144 -382h2l161 454h8l171 -454h2l134 381q8 21 -6.5 41t-41.5 28v4h151v-4q-37 -13 -58 -69l-241 -642h-8l-165 444h-2z" />
    <glyph glyph-name="X" unicode="X" horiz-adv-x="684" 
d="M88 64l180 264l-189 299q-29 46 -79 69v4h279v-4q-26 -13 -36.5 -30.5t0.5 -37.5l126 -200h2l112 164q22 30 22 48q0 38 -57 56v4h203v-4q-32 -9 -50.5 -21t-37.5 -39l-169 -248l200 -315q32 -51 90 -69v-4q-40 -10 -114 -10q-51 0 -83 21t-57 61l-137 217h-2l-123 -181
q-22 -30 -22 -48q0 -38 57 -56v-4h-203v4q32 9 50.5 21t37.5 39z" />
    <glyph glyph-name="Y" unicode="Y" horiz-adv-x="637" 
d="M381 372l138 255q12 20 0.5 40.5t-38.5 28.5v4h156v-4q-42 -25 -68 -69l-173 -317v-230q0 -22 23 -43t50 -33v-4h-296v4q27 12 50 33t23 43v230l-167 317q-24 44 -79 69v4h280v-4q-26 -12 -35.5 -30t0.5 -39l134 -255h2z" />
    <glyph glyph-name="Z" unicode="Z" horiz-adv-x="613" 
d="M212 40h224q57 0 92 33t60 108h4l-20 -181h-552v2l381 658h-189q-57 0 -92 -33t-60 -108h-4l20 181h517v-2z" />
    <glyph glyph-name="bracketleft" unicode="[" horiz-adv-x="313" 
d="M160 608v-678q0 -21 7.5 -39.5t17 -30t26 -22.5t26.5 -15.5t27 -11t19 -7.5v-4h-223v940h223v-4q-2 -1 -19 -7.5t-26.5 -11t-26.5 -15.5t-26.5 -23t-17 -30.5t-7.5 -40.5z" />
    <glyph glyph-name="backslash" unicode="\" horiz-adv-x="400" 
d="M350 0l-350 700h50l350 -700h-50z" />
    <glyph glyph-name="bracketright" unicode="]" horiz-adv-x="313" 
d="M183 -70v678q0 22 -7.5 40.5t-17 30.5t-26.5 23t-26.5 15.5t-26.5 11t-19 7.5v4h223v-940h-223v4q2 1 19 7.5t27 11t26.5 15.5t26 22.5t17 30t7.5 39.5z" />
    <glyph glyph-name="underscore" unicode="_" horiz-adv-x="500" 
d="M505 -75h-510v60h510v-60z" />
    <glyph glyph-name="grave" unicode="`" horiz-adv-x="282" 
d="M30 700h106q15 -51 48 -96.5t68 -61.5v-2q-67 2 -136.5 60.5t-85.5 99.5z" />
    <glyph glyph-name="a" unicode="a" horiz-adv-x="473" 
d="M280 90v200l-41 -12q-41 -12 -65 -46.5t-24 -81.5q0 -78 77 -78q34 0 53 18zM285 50h-2q-24 -24 -63 -42t-72 -18q-56 0 -92 33.5t-36 86.5q0 142 171 193l89 27v60q0 39 -12 59.5t-43 20.5q-35 0 -77.5 -31.5t-76.5 -88.5h-4l20 130q79 30 183 30q150 0 150 -120v-310
q0 -24 15 -45t38 -31v-4h-100q-70 0 -88 50z" />
    <glyph glyph-name="b" unicode="b" horiz-adv-x="496" 
d="M193 715v-215h37q109 0 177.5 -59.5t68.5 -190.5q0 -121 -64.5 -185.5t-181.5 -64.5h-177v618q0 24 -15.5 46.5t-37.5 31.5v4q97 2 193 15zM200 460h-7v-420h17q67 0 95.5 40.5t28.5 140.5q0 118 -34.5 178.5t-99.5 60.5z" />
    <glyph glyph-name="c" unicode="c" horiz-adv-x="456" 
d="M290 30q40 0 79 34t63 86h4l-20 -130q-57 -30 -146 -30q-107 0 -178.5 67t-71.5 193q0 120 70.5 190t165.5 70q89 0 146 -30l20 -130h-4q-23 50 -67 85t-85 35q-46 0 -74 -45.5t-28 -144.5q0 -125 34.5 -187.5t91.5 -62.5z" />
    <glyph glyph-name="d" unicode="d" horiz-adv-x="506" 
d="M296 40h7v420h-17q-67 0 -95.5 -40t-28.5 -140q0 -119 34.5 -179.5t99.5 -60.5zM443 715v-635q0 -24 15 -45t38 -31v-4h-230q-117 0 -181.5 64.5t-64.5 185.5q0 131 68.5 190.5t177.5 59.5h37v118q0 24 -15.5 46.5t-37.5 31.5v4q97 2 193 15z" />
    <glyph glyph-name="e" unicode="e" horiz-adv-x="459" 
d="M290 30q40 0 79 34t63 86h4l-20 -130q-57 -30 -146 -30q-107 0 -178.5 67t-71.5 193q0 120 70.5 190t165.5 70q71 0 127 -56.5t56 -163.5v-20h-275q1 -121 35 -180.5t91 -59.5zM234 480q-26 0 -40.5 -19.5t-20 -53t-9.5 -97.5h144q-9 89 -25.5 129.5t-48.5 40.5z" />
    <glyph glyph-name="f" unicode="f" horiz-adv-x="317" 
d="M300 460h-90v-380q0 -24 15 -45t38 -31v-4h-246v4q23 10 38 31t15 45v380h-60v40h60v20q0 190 172 190q47 0 95 -10v-4q-75 -14 -101 -49t-26 -127v-20h90v-40z" />
    <glyph glyph-name="g" unicode="g" horiz-adv-x="502" 
d="M512 490l-90 -55q39 -47 39 -115q0 -88 -63 -139t-149 -51q-43 0 -82 11q-29 -12 -29 -27q0 -10 8.5 -17t22.5 -7h249q54 0 54 -50q0 -49 -51 -107.5t-133.5 -100.5t-161.5 -42q-57 0 -86.5 22t-29.5 62q0 67 92 116q-78 8 -78 63q0 28 28 54.5t79 46.5q-107 49 -107 166
q0 88 63.5 139t148.5 51q68 0 121 -25l155 15v-10zM222 480q-69 0 -69 -138q0 -77 35 -129.5t76 -52.5q36 0 52.5 32t16.5 108q0 78 -31.5 129t-79.5 51zM391 -30q0 20 -33 20h-216q-39 -21 -39 -60q0 -50 89 -50q70 0 134.5 31t64.5 59z" />
    <glyph glyph-name="h" unicode="h" 
d="M333 80v280q0 50 -11 65t-36 15q-50 0 -83 -30v-330q0 -24 15 -45t38 -31v-4h-246v4q23 10 38 31t15 45v538q0 24 -15.5 46.5t-37.5 31.5v4q97 2 193 15v-265h2q28 23 74 41.5t86 18.5q56 0 82 -24t26 -76v-330q0 -24 15 -45t38 -31v-4h-100q-43 0 -68 24t-25 56z" />
    <glyph glyph-name="i" unicode="i" horiz-adv-x="266" 
d="M203 515v-435q0 -24 15 -45t38 -31v-4h-246v4q23 10 38 31t15 45v338q0 24 -15.5 46.5t-37.5 31.5v4q99 2 193 15zM58 640q0 31 22 53t53 22t53 -22t22 -53t-22 -53t-53 -22t-53 22t-22 53z" />
    <glyph glyph-name="j" unicode="j" horiz-adv-x="266" 
d="M201 515v-535q0 -190 -172 -190q-47 0 -95 10v4q75 14 101 49t26 127v438q0 24 -15.5 46.5t-37.5 31.5v4q97 2 193 15zM56 640q0 31 22 53t53 22t53 -22t22 -53t-22 -53t-53 -22t-53 22t-22 53z" />
    <glyph glyph-name="k" unicode="k" horiz-adv-x="573" 
d="M203 270v-190q0 -24 15 -45t38 -31v-4h-246v4q23 10 38 31t15 45v538q0 24 -15.5 46.5t-37.5 31.5v4q97 2 193 15v-405h2l112 87q37 29 37 52q0 18 -15 27.5t-46 19.5v4h246v-4q-68 -16 -109 -47l-121 -94l184 -283q35 -54 80 -68v-4q-40 -10 -95 -10q-92 0 -144 81
l-129 199h-2z" />
    <glyph glyph-name="l" unicode="l" horiz-adv-x="266" 
d="M203 715v-635q0 -24 15 -45t38 -31v-4h-246v4q23 10 38 31t15 45v538q0 24 -15.5 46.5t-37.5 31.5v4q97 2 193 15z" />
    <glyph glyph-name="m" unicode="m" horiz-adv-x="786" 
d="M280 0v4q43 19 43 76v280q0 46 -9 63t-28 17q-50 0 -83 -30v-330q0 -57 43 -76v-4h-236v4q23 10 38 31t15 45v338q0 24 -15.5 46.5t-37.5 31.5v4q97 2 193 15v-65h2q73 60 150 60q46 0 71 -14t33 -46h2q28 23 71.5 41.5t82.5 18.5q56 0 82 -24t26 -76v-330q0 -24 15 -45
t38 -31v-4h-100q-43 0 -68 24t-25 56v280q0 80 -47 80q-39 0 -73 -30v-330q0 -23 19 -44t44 -32v-4h-246z" />
    <glyph glyph-name="n" unicode="n" 
d="M333 80v280q0 50 -11 65t-36 15q-50 0 -83 -30v-330q0 -24 15 -45t38 -31v-4h-246v4q23 10 38 31t15 45v338q0 24 -15.5 46.5t-37.5 31.5v4q99 2 193 15v-65h2q28 23 74 41.5t86 18.5q56 0 82 -24t26 -76v-330q0 -24 15 -45t38 -31v-4h-100q-43 0 -68 24t-25 56z" />
    <glyph glyph-name="o" unicode="o" horiz-adv-x="516" 
d="M265 -10q-106 0 -175.5 66.5t-69.5 193.5q0 121 68 190.5t163 69.5q106 0 175.5 -66.5t69.5 -193.5q0 -121 -68 -190.5t-163 -69.5zM236 480q-72 0 -72 -201q0 -107 37 -183t81 -76q38 0 55 47t17 154q0 109 -32.5 184t-85.5 75z" />
    <glyph glyph-name="p" unicode="p" horiz-adv-x="506" 
d="M10 500h230q117 0 181.5 -64.5t64.5 -185.5q0 -131 -68.5 -190.5t-177.5 -59.5h-37v-120q0 -24 15 -45t38 -31v-4h-246v4q23 10 38 31t15 45v538q0 24 -15.5 46.5t-37.5 31.5v4zM210 460h-7v-420h17q67 0 95.5 40t28.5 140q0 119 -34.5 179.5t-99.5 60.5z" />
    <glyph glyph-name="q" unicode="q" horiz-adv-x="496" 
d="M303 -215v215h-37q-109 0 -177.5 59.5t-68.5 190.5q0 121 64.5 185.5t181.5 64.5h177v-618q0 -24 15.5 -46.5t37.5 -31.5v-4q-97 -2 -193 -15zM296 40h7v420h-17q-67 0 -95.5 -40t-28.5 -140q0 -119 34.5 -179.5t99.5 -60.5z" />
    <glyph glyph-name="r" unicode="r" horiz-adv-x="433" 
d="M433 390l-120 -40q-23 69 -32 80q-9 10 -25 10q-28 0 -53 -34v-326q0 -24 15 -45t38 -31v-4h-246v4q23 10 38 31t15 45v338q0 24 -15.5 46.5t-37.5 31.5v4q97 2 193 15v-69h2q62 64 130 64q36 0 58 -28.5t40 -91.5z" />
    <glyph glyph-name="s" unicode="s" horiz-adv-x="422" 
d="M200 -10q-88 0 -160 37l-20 133h4q32 -59 78 -94.5t90 -35.5q46 0 72 18t26 47q0 37 -28.5 55.5t-124.5 54.5q-104 39 -104 155q0 68 48 109t136 41q69 0 134 -30l20 -130h-4q-29 55 -71.5 87.5t-85.5 32.5q-40 0 -63.5 -17.5t-23.5 -43.5q0 -30 21.5 -43.5t99.5 -40.5
q15 -5 23 -8q71 -25 103 -67t32 -110q0 -67 -54 -108.5t-148 -41.5z" />
    <glyph glyph-name="t" unicode="t" horiz-adv-x="337" 
d="M210 460v-280q0 -92 26 -127t101 -49v-4q-48 -10 -95 -10q-172 0 -172 190v280h-60v40h8q51 0 102.5 47t81.5 113h8v-160h90v-40h-90z" />
    <glyph glyph-name="u" unicode="u" 
d="M338 50h-2q-27 -22 -76 -41t-89 -19q-56 0 -82 24t-26 76v330q0 24 -15 45t-38 31v4q97 2 193 15v-375q0 -50 11 -65t36 -15q50 0 83 30v330q0 24 -15 45t-38 31v4q97 2 193 15v-435q0 -24 15 -45t38 -31v-4h-100q-70 0 -88 50z" />
    <glyph glyph-name="v" unicode="v" horiz-adv-x="496" 
d="M315 216l88 211q9 22 -1.5 42t-36.5 27v4h131v-4q-29 -10 -53 -69l-183 -437h-8l-183 437q-19 46 -69 69v4h250v-4q-46 -22 -26 -68l89 -212h2z" />
    <glyph glyph-name="w" unicode="w" horiz-adv-x="714" 
d="M362 294l-127 -304h-6l-173 458q-10 27 -56 49v3h220v-3q-37 -18 -25 -49l89 -248h1l124 300h6l116 -300h1l90 248q6 15 -4.5 29.5t-29.5 19.5v3h126v-3q-15 -5 -30.5 -19.5t-21.5 -29.5l-172 -458h-6l-120 304h-2z" />
    <glyph glyph-name="x" unicode="x" horiz-adv-x="500" 
d="M63 46l125 180l-131 222q-18 30 -57 48v4h230v-4q-42 -19 -26 -47l72 -126h1l69 100q16 22 16 34q0 26 -41 39v4h155v-4q-42 -11 -63 -42l-116 -167l138 -235q20 -34 65 -48v-4q-43 -10 -92 -10q-38 0 -71.5 17.5t-48.5 44.5l-79 137h-2l-77 -112q-15 -19 -15 -34
q0 -26 40 -39v-4h-155v4q23 6 36 14.5t27 27.5z" />
    <glyph glyph-name="y" unicode="y" horiz-adv-x="496" 
d="M235 29l-166 398q-19 46 -69 69v4h250v-4q-46 -22 -26 -68l89 -212h2l88 211q9 22 -1.5 42t-36.5 27v4h131v-4q-29 -10 -53 -69l-263 -627h-127v4q53 17 83 38.5t46 59.5z" />
    <glyph glyph-name="z" unicode="z" horiz-adv-x="460" 
d="M182 40h114q61 0 93.5 24.5t56.5 95.5h4l-18 -160h-422v2l260 456v2h-78q-59 0 -92.5 -28.5t-57.5 -101.5h-4l18 170h387v-2l-261 -456v-2z" />
    <glyph glyph-name="bar" unicode="|" horiz-adv-x="240" 
d="M140 815v-950h-40v950h40z" />
    <glyph glyph-name="uni00A0" unicode="&#xa0;" horiz-adv-x="200" 
 />
    <glyph glyph-name="exclamdown" unicode="&#xa1;" horiz-adv-x="263" 
d="M20 -205l30 525h80l30 -428q0 -24 15.5 -46.5t37.5 -31.5v-4q-97 -2 -193 -15zM158 442q0 -28 -20 -48t-48 -20t-48 20t-20 48t20 48t48 20t48 -20t20 -48z" />
    <glyph glyph-name="cent" unicode="&#xa2;" horiz-adv-x="460" 
d="M300 600v-92q67 -5 112 -28l20 -130h-4q-20 42 -55.5 74.5t-72.5 42.5v-437q40 0 79 34t63 86h4l-20 -130q-48 -26 -126 -29v-91h-40v91q-101 6 -165.5 72.5t-64.5 186.5q0 118 68.5 188t161.5 72v90h40zM174 280q0 -201 86 -241v429q-86 -16 -86 -188z" />
    <glyph glyph-name="sterling" unicode="&#xa3;" horiz-adv-x="540" 
d="M233 40h111q57 0 92 32.5t60 107.5h4l-20 -180h-460v4q25 11 49 33.5t24 44.5v268h-73v40h73v130q0 190 172 190q47 0 95 -10v-4q-75 -14 -101 -49t-26 -127v-130h130v-40h-130v-310z" />
    <glyph glyph-name="yen" unicode="&#xa5;" horiz-adv-x="540" 
d="M472 200h-137v-120q0 -22 19.5 -43t42.5 -33v-4h-251v4q23 12 42.5 33t19.5 43v120h-136v40h136v70h-136v40h118l-123 277q-21 43 -67 69v4h237v-4q-48 -28 -30 -69l114 -255h2l117 255q10 20 0 41t-33 28v4h133v-4q-37 -26 -58 -69l-129 -277h119v-40h-137v-70h137v-40z
" />
    <glyph glyph-name="section" unicode="&#xa7;" horiz-adv-x="442" 
d="M43 360q0 63 41 102q-41 38 -41 108q0 67 47.5 103.5t136.5 36.5q69 0 134 -30l20 -130h-4q-29 55 -71.5 87.5t-85.5 32.5q-40 0 -63.5 -17.5t-23.5 -43.5q0 -30 21.5 -43.5t99.5 -40.5q15 -5 23 -8q71 -25 103 -67t32 -110q0 -66 -51 -106q51 -43 51 -104
q0 -66 -53 -103t-149 -37q-88 0 -160 37l-20 133h4q32 -59 78 -94.5t90 -35.5q46 0 72 18t26 47q0 37 -28.5 55.5t-124.5 54.5q-104 39 -104 155zM237 297q58 -20 96 -43q17 19 17 51q0 18 -12.5 33t-42 29.5t-57.5 25.5t-79 28q-2 1 -3.5 1.5t-4 1t-4.5 1.5q-10 3 -34 15
q-20 -17 -20 -41q0 -33 28 -52.5t116 -49.5z" />
    <glyph glyph-name="dieresis" unicode="&#xa8;" horiz-adv-x="396" 
d="M30 632q0 28 20 48t48 20t48 -20t20 -48t-20 -48t-48 -20t-48 20t-20 48zM230 632q0 28 20 48t48 20t48 -20t20 -48t-20 -48t-48 -20t-48 20t-20 48z" />
    <glyph glyph-name="copyright" unicode="&#xa9;" horiz-adv-x="820" 
d="M50 350q0 149 105.5 254.5t254.5 105.5t254.5 -105.5t105.5 -254.5t-105.5 -254.5t-254.5 -105.5t-254.5 105.5t-105.5 254.5zM444 143q78 0 131 124h2l-13 -117q-49 -32 -132 -32q-99 0 -167.5 60t-68.5 172q0 107 67.5 169.5t155.5 62.5q77 0 131 -26l12 -117h-3
q-52 118 -146 118q-51 0 -81.5 -45t-30.5 -137q0 -103 39 -167.5t104 -64.5zM90 350q0 -133 93.5 -226.5t226.5 -93.5t226.5 93.5t93.5 226.5t-93.5 226.5t-226.5 93.5t-226.5 -93.5t-93.5 -226.5z" />
    <glyph glyph-name="ordfeminine" unicode="&#xaa;" horiz-adv-x="272" 
d="M147 521v85l-15 -5q-17 -5 -28 -19.5t-11 -34.5q0 -33 33 -33q10 0 21 7zM190 478q-28 0 -38 21h-2q-28 -26 -60 -26q-26 0 -43 16t-17 40q0 33 23 56t55 32l39 11v26q0 34 -22 34q-34 0 -69 -54l-4 1l9 62q32 13 84 13q68 0 68 -56v-138q0 -20 29 -38h-52z" />
    <glyph glyph-name="guillemotleft" unicode="&#xab;" horiz-adv-x="528" 
d="M149 271v-2l149 -179h-8l-240 178v4l240 178h8zM329 271v-2l149 -179h-8l-240 178v4l240 178h8z" />
    <glyph glyph-name="registered" unicode="&#xae;" horiz-adv-x="420" 
d="M287 584q0 -49 -45 -58l54 -74q10 -14 26 -20v-1q-10 -3 -37 -3q-34 0 -51 24l-49 71h-2v-68q0 -14 22 -23v-1h-92v1q22 10 22 23v158q0 14 -22 24v1h106q30 0 49 -15t19 -39zM192 627h-9v-93h17q19 0 29 13t10 32q0 18 -14.5 33t-32.5 15zM25 530q0 77 54 131t131 54
q76 0 130.5 -54.5t54.5 -130.5q0 -77 -54 -131t-131 -54t-131 54t-54 131zM56 530q0 -64 45 -109t109 -45t109 45t45 109t-45 109t-109 45t-109 -45t-45 -109z" />
    <glyph glyph-name="macron" unicode="&#xaf;" horiz-adv-x="356" 
d="M326 600h-296v60h296v-60z" />
    <glyph glyph-name="degree" unicode="&#xb0;" horiz-adv-x="340" 
d="M30 575q0 58 41 99t99 41t99 -41t41 -99t-41 -99t-99 -41t-99 41t-41 99zM85 575q0 -35 25 -60t60 -25t60 25t25 60t-25 60t-60 25t-60 -25t-25 -60z" />
    <glyph glyph-name="plusminus" unicode="&#xb1;" horiz-adv-x="460" 
d="M410 265h-148v-150h-64v150h-148v60h148v150h64v-150h148v-60zM410 0h-360v60h360v-60z" />
    <glyph glyph-name="twosuperior" unicode="&#xb2;" horiz-adv-x="321" 
d="M291 592q0 -41 -28.5 -69.5t-64.5 -42.5t-72 -36.5t-46 -51.5l-4 -11h128h7q35 0 48.5 6t27.5 34h4l-11 -101h-250l3 22q7 47 26 83t40.5 56t42.5 36.5t34.5 36t13.5 43.5q0 87 -60 87q-28 0 -45.5 -18t-40.5 -70h-4l11 90q42 24 86 24q80 0 117 -33t37 -85z" />
    <glyph glyph-name="threesuperior" unicode="&#xb3;" horiz-adv-x="321" 
d="M143 710q58 0 93 -24t35 -67q0 -27 -19.5 -52.5t-48.5 -39.5q35 -9 61.5 -37t26.5 -62q0 -52 -36.5 -85t-110.5 -33q-58 0 -103 28l-11 90h4q40 -92 100 -92q46 0 46 81q0 42 -20.5 67.5t-50.5 25.5h-19v25h19q27 0 42 20.5t15 52.5q0 76 -36 76q-28 0 -45.5 -18
t-40.5 -70h-4l11 90q41 24 92 24z" />
    <glyph glyph-name="acute" unicode="&#xb4;" horiz-adv-x="282" 
d="M252 700q-16 -41 -85.5 -99.5t-136.5 -60.5v2q35 16 68 61.5t48 96.5h106z" />
    <glyph glyph-name="mu" unicode="&#xb5;" 
d="M338 50h-2q-27 -22 -76 -41t-89 -19q-12 0 -18 1l-20 -191h-70v620q0 24 -15 45t-38 31v4q97 2 193 15v-375q0 -50 11 -65t36 -15q50 0 83 30v330q0 24 -15 45t-38 31v4q97 2 193 15v-435q0 -24 15 -45t38 -31v-4h-100q-70 0 -88 50z" />
    <glyph glyph-name="paragraph" unicode="&#xb6;" horiz-adv-x="574" 
d="M278 700h256v-4q-27 -12 -50 -33.5t-23 -44.5v-818h-50v861h-79v-861h-49v447q-128 -1 -195.5 63t-67.5 164q0 43 12.5 80.5t40 71.5t80 54t125.5 20z" />
    <glyph glyph-name="periodcentered" unicode="&#xb7;" horiz-adv-x="256" 
d="M60 295q0 29 20 48.5t48 19.5t48 -19.5t20 -48.5t-20 -48.5t-48 -19.5t-48 19.5t-20 48.5z" />
    <glyph glyph-name="cedilla" unicode="&#xb8;" horiz-adv-x="255" 
d="M30 -181v4q118 6 118 57q0 35 -68 45v2l58 73h40l-35 -45q37 -7 59.5 -28.5t22.5 -46.5q0 -31 -27.5 -55.5t-76.5 -24.5q-64 0 -91 19z" />
    <glyph glyph-name="onesuperior" unicode="&#xb9;" horiz-adv-x="241" 
d="M182 715v-349q0 -13 8.5 -25.5t20.5 -18.5v-2h-148v2q12 4 19.5 17.5t7.5 26.5v218q0 22 -13 30.5t-47 8.5v8q65 17 150 84h2z" />
    <glyph glyph-name="ordmasculine" unicode="&#xba;" horiz-adv-x="258" 
d="M133 473q-49 0 -81 30.5t-32 87.5q0 56 31.5 87.5t74.5 31.5q48 0 80 -30.5t32 -88.5q0 -54 -31.5 -86t-73.5 -32zM120 693q-31 0 -31 -88q0 -47 16 -80.5t35 -33.5q30 0 30 87q0 49 -13.5 82t-36.5 33z" />
    <glyph glyph-name="guillemotright" unicode="&#xbb;" horiz-adv-x="528" 
d="M379 269v2l-149 179h8l240 -178v-4l-240 -178h-8zM199 269v2l-149 179h8l240 -178v-4l-240 -178h-8z" />
    <glyph glyph-name="onequarter" unicode="&#xbc;" horiz-adv-x="683" 
d="M502 109h-140l156 281h82v-256q34 0 45 14h8l-13 -39h-42v-63q0 -28 28 -44v-2h-151v2q11 5 19 18t8 26v63zM502 134v152h-2l-83 -150v-2h85zM182 715v-349q0 -13 8.5 -25.5t20.5 -18.5v-2h-148v2q12 4 19.5 17.5t7.5 26.5v218q0 22 -13 30.5t-47 8.5v8q65 17 150 84h2z
M540 700l-350 -700h-50l350 700h50z" />
    <glyph glyph-name="onehalf" unicode="&#xbd;" horiz-adv-x="683" 
d="M182 715v-349q0 -13 8.5 -25.5t20.5 -18.5v-2h-148v2q12 4 19.5 17.5t7.5 26.5v218q0 22 -13 30.5t-47 8.5v8q65 17 150 84h2zM520 700l-350 -700h-50l350 700h50zM653 275q0 -41 -28.5 -69.5t-64.5 -42.5t-72 -36.5t-46 -51.5l-4 -11h128h7q35 0 48.5 6t27.5 34h4
l-11 -101h-250l3 22q7 47 26 83t40.5 56t42.5 36.5t34.5 36t13.5 43.5q0 87 -60 87q-28 0 -45.5 -18t-40.5 -70h-4l11 90q42 24 86 24q80 0 117 -33t37 -85z" />
    <glyph glyph-name="threequarters" unicode="&#xbe;" horiz-adv-x="683" 
d="M502 109h-140l156 281h82v-256q38 0 49 14h4l-13 -39h-42v-63q0 -28 28 -44v-2h-151v2q11 5 19 18t8 26v63zM502 134v152h-2l-83 -150v-2h85zM570 700l-350 -700h-50l350 700h50zM143 710q58 0 93 -24t35 -67q0 -27 -19.5 -52.5t-48.5 -39.5q35 -9 61.5 -37t26.5 -62
q0 -52 -36.5 -85t-110.5 -33q-58 0 -103 28l-11 90h4q40 -92 100 -92q46 0 46 81q0 42 -20.5 67.5t-50.5 25.5h-19v25h19q27 0 42 20.5t15 52.5q0 76 -36 76q-28 0 -45.5 -18t-40.5 -70h-4l11 90q41 24 92 24z" />
    <glyph glyph-name="questiondown" unicode="&#xbf;" horiz-adv-x="449" 
d="M340 442q0 -28 -20 -48t-48 -20t-48 20t-20 48t20 48t48 20t48 -20t20 -48zM269 -160q46 0 79 34.5t67 125.5h4l-20 -160q-79 -40 -144 -40q-225 0 -225 180q0 41 32 87t70.5 79.5t72 68.5t36.5 55l5 50h65l5 -68q3 -31 -10.5 -60t-35.5 -53t-45 -47.5t-39 -52.5t-16 -59
q0 -62 29 -101t70 -39z" />
    <glyph glyph-name="Agrave" unicode="&#xc0;" horiz-adv-x="677" 
d="M213 895h106q15 -51 48 -96.5t68 -61.5v-2q-67 2 -136.5 60.5t-85.5 99.5zM324 715h8l266 -642q16 -40 79 -69v-4h-280v4q54 26 36 68l-53 128h-224l-53 -127q-9 -21 5.5 -41t42.5 -28v-4h-151v4q35 12 58 69zM363 240l-95 225h-2l-94 -225h191z" />
    <glyph glyph-name="Aacute" unicode="&#xc1;" horiz-adv-x="677" 
d="M443 895q-16 -41 -85.5 -99.5t-136.5 -60.5v2q35 16 68 61.5t48 96.5h106zM324 715h8l266 -642q16 -40 79 -69v-4h-280v4q54 26 36 68l-53 128h-224l-53 -127q-9 -21 5.5 -41t42.5 -28v-4h-151v4q35 12 58 69zM363 240l-95 225h-2l-94 -225h191z" />
    <glyph glyph-name="Acircumflex" unicode="&#xc2;" horiz-adv-x="677" 
d="M275 895h106q15 -51 48 -96.5t68 -61.5v-2q-80 3 -168 91h-2q-91 -88 -168 -91v2q35 16 68 61.5t48 96.5zM324 715h8l266 -642q16 -40 79 -69v-4h-280v4q54 26 36 68l-53 128h-224l-53 -127q-9 -21 5.5 -41t42.5 -28v-4h-151v4q35 12 58 69zM363 240l-95 225h-2l-94 -225
h191z" />
    <glyph glyph-name="Atilde" unicode="&#xc3;" horiz-adv-x="677" 
d="M476 875h8q-7 -130 -100 -130q-34 0 -83 22t-64 22q-47 0 -57 -54h-8q6 72 31 101t69 29q32 0 82 -23t68 -23q39 0 54 56zM324 715h8l266 -642q16 -40 79 -69v-4h-280v4q54 26 36 68l-53 128h-224l-53 -127q-9 -21 5.5 -41t42.5 -28v-4h-151v4q35 12 58 69zM363 240
l-95 225h-2l-94 -225h191z" />
    <glyph glyph-name="Adieresis" unicode="&#xc4;" horiz-adv-x="677" 
d="M160 813q0 29 20 48.5t48 19.5t48 -19.5t20 -48.5t-20 -48.5t-48 -19.5t-48 19.5t-20 48.5zM360 813q0 29 20 48.5t48 19.5t48 -19.5t20 -48.5t-20 -48.5t-48 -19.5t-48 19.5t-20 48.5zM324 715h8l266 -642q16 -40 79 -69v-4h-280v4q54 26 36 68l-53 128h-224l-53 -127
q-9 -21 5.5 -41t42.5 -28v-4h-151v4q35 12 58 69zM363 240l-95 225h-2l-94 -225h191z" />
    <glyph glyph-name="Aring" unicode="&#xc5;" horiz-adv-x="677" 
d="M324 715h8l266 -642q16 -40 79 -69v-4h-280v4q54 26 36 68l-53 128h-224l-53 -127q-9 -21 5.5 -41t42.5 -28v-4h-151v4q35 12 58 69zM363 240l-95 225h-2l-94 -225h191zM238 815q0 37 26 63.5t64 26.5t64 -26.5t26 -63.5t-26 -63.5t-64 -26.5t-64 26.5t-26 63.5zM278 815
q0 -21 14.5 -35.5t35.5 -14.5t35.5 14.5t14.5 35.5t-14.5 35.5t-35.5 14.5t-35.5 -14.5t-14.5 -35.5z" />
    <glyph glyph-name="AE" unicode="&#xc6;" horiz-adv-x="927" 
d="M913 180h4l-23 -180h-500v4q27 12 50 33t23 43v200h-227l-120 -207q-12 -22 -1 -41.5t37 -27.5v-4h-156v4q37 12 70 69l367 627h440l20 -180h-4q-25 75 -60 107.5t-92 32.5h-124v-270h46q74 0 106 93h4v-221h-4q-30 88 -106 88h-46v-310h128q108 0 168 140zM463 660
l-200 -340h204v340h-4z" />
    <glyph glyph-name="Ccedilla" unicode="&#xc7;" horiz-adv-x="638" 
d="M261 -181v4q118 6 118 57q0 35 -68 45v2l47 59q-68 5 -128 30t-107.5 68.5t-75 112t-27.5 153.5q0 86 30.5 156.5t81 115t112 69t126.5 24.5q123 0 205 -42l20 -183h-4q-83 185 -231 185q-79 0 -127 -70.5t-48 -214.5q0 -162 61 -263.5t164 -101.5q121 0 204 195h4
l-20 -183q-77 -51 -201 -52l-23 -30q37 -7 59.5 -28.5t22.5 -46.5q0 -31 -27.5 -55.5t-76.5 -24.5q-64 0 -91 19z" />
    <glyph glyph-name="Egrave" unicode="&#xc8;" horiz-adv-x="563" 
d="M154 895h106q15 -51 48 -96.5t68 -61.5v-2q-67 2 -136.5 60.5t-85.5 99.5zM549 180h4l-23 -180h-520v4q27 12 50 33t23 43v538q0 22 -24 44.5t-49 33.5v4h503l20 -180h-4q-25 75 -60 107.5t-92 32.5h-144v-270h66q74 0 106 93h4v-221h-4q-30 88 -106 88h-66v-310h148
q108 0 168 140z" />
    <glyph glyph-name="Eacute" unicode="&#xc9;" horiz-adv-x="563" 
d="M549 180h4l-23 -180h-520v4q27 12 50 33t23 43v538q0 22 -24 44.5t-49 33.5v4h503l20 -180h-4q-25 75 -60 107.5t-92 32.5h-144v-270h66q74 0 106 93h4v-221h-4q-30 88 -106 88h-66v-310h148q108 0 168 140zM455 895q-16 -41 -85.5 -99.5t-136.5 -60.5v2q35 16 68 61.5
t48 96.5h106z" />
    <glyph glyph-name="Ecircumflex" unicode="&#xca;" horiz-adv-x="563" 
d="M239 895h106q15 -51 48 -96.5t68 -61.5v-2q-80 3 -168 91h-2q-91 -88 -168 -91v2q35 16 68 61.5t48 96.5zM549 180h4l-23 -180h-520v4q27 12 50 33t23 43v538q0 22 -24 44.5t-49 33.5v4h503l20 -180h-4q-25 75 -60 107.5t-92 32.5h-144v-270h66q74 0 106 93h4v-221h-4
q-30 88 -106 88h-66v-310h148q108 0 168 140z" />
    <glyph glyph-name="Edieresis" unicode="&#xcb;" horiz-adv-x="563" 
d="M130 813q0 29 20 48.5t48 19.5t48 -19.5t20 -48.5t-20 -48.5t-48 -19.5t-48 19.5t-20 48.5zM330 813q0 29 20 48.5t48 19.5t48 -19.5t20 -48.5t-20 -48.5t-48 -19.5t-48 19.5t-20 48.5zM549 180h4l-23 -180h-520v4q27 12 50 33t23 43v538q0 22 -24 44.5t-49 33.5v4h503
l20 -180h-4q-25 75 -60 107.5t-92 32.5h-144v-270h66q74 0 106 93h4v-221h-4q-30 88 -106 88h-66v-310h148q108 0 168 140z" />
    <glyph glyph-name="Igrave" unicode="&#xcc;" horiz-adv-x="336" 
d="M20 895h106q15 -51 48 -96.5t68 -61.5v-2q-67 2 -136.5 60.5t-85.5 99.5zM243 618v-538q0 -22 23 -43t50 -33v-4h-296v4q27 12 50 33t23 43v538q0 22 -24 44.5t-49 33.5v4h296v-4q-27 -12 -50 -33.5t-23 -44.5z" />
    <glyph glyph-name="Iacute" unicode="&#xcd;" horiz-adv-x="336" 
d="M316 895q-16 -41 -85.5 -99.5t-136.5 -60.5v2q35 16 68 61.5t48 96.5h106zM243 618v-538q0 -22 23 -43t50 -33v-4h-296v4q27 12 50 33t23 43v538q0 22 -24 44.5t-49 33.5v4h296v-4q-27 -12 -50 -33.5t-23 -44.5z" />
    <glyph glyph-name="Icircumflex" unicode="&#xce;" horiz-adv-x="336" 
d="M115 895h106q15 -51 48 -96.5t68 -61.5v-2q-80 3 -168 91h-2q-91 -88 -168 -91v2q35 16 68 61.5t48 96.5zM243 618v-538q0 -22 23 -43t50 -33v-4h-296v4q27 12 50 33t23 43v538q0 22 -24 44.5t-49 33.5v4h296v-4q-27 -12 -50 -33.5t-23 -44.5z" />
    <glyph glyph-name="Idieresis" unicode="&#xcf;" horiz-adv-x="336" 
d="M0 813q0 29 20 48.5t48 19.5t48 -19.5t20 -48.5t-20 -48.5t-48 -19.5t-48 19.5t-20 48.5zM200 813q0 29 20 48.5t48 19.5t48 -19.5t20 -48.5t-20 -48.5t-48 -19.5t-48 19.5t-20 48.5zM243 618v-538q0 -22 23 -43t50 -33v-4h-296v4q27 12 50 33t23 43v538q0 22 -24 44.5
t-49 33.5v4h296v-4q-27 -12 -50 -33.5t-23 -44.5z" />
    <glyph glyph-name="Eth" unicode="&#xd0;" horiz-adv-x="682" 
d="M10 700h271q164 0 272.5 -92.5t108.5 -257.5q0 -166 -92 -258t-251 -92h-309v4q27 12 50 33t23 43v270h-73v40h73v228q0 22 -24 44.5t-49 33.5v4zM346 350h-114v-310h71q190 0 190 291q0 136 -73.5 232.5t-156.5 96.5h-31v-270h114v-40z" />
    <glyph glyph-name="Ntilde" unicode="&#xd1;" horiz-adv-x="694" 
d="M514 875h8q-7 -130 -100 -130q-34 0 -83 22t-64 22q-47 0 -57 -54h-8q6 72 31 101t69 29q32 0 82 -23t68 -23q39 0 54 56zM128 530v-450q0 -22 23 -43t50 -33v-4h-191v4q27 12 50 33t23 43v538q0 22 -24 44.5t-49 33.5v4h191l363 -417h2v335q0 22 -24 44.5t-49 33.5v4
h191v-4q-27 -12 -50 -33.5t-23 -44.5v-633h-8l-473 545h-2z" />
    <glyph glyph-name="Ograve" unicode="&#xd2;" horiz-adv-x="720" 
d="M230 895h106q15 -51 48 -96.5t68 -61.5v-2q-67 2 -136.5 60.5t-85.5 99.5zM370 -15q-152 0 -251 93.5t-99 271.5q0 86 27.5 156.5t74 115.5t105 69t123.5 24q152 0 251 -93.5t99 -271.5q0 -86 -27.5 -156.5t-74 -115.5t-105 -69t-123.5 -24zM335 675q-68 0 -109 -71
t-41 -214q0 -94 26.5 -178t72.5 -135.5t101 -51.5q67 0 108.5 71t41.5 214q0 98 -21.5 179t-68 133.5t-110.5 52.5z" />
    <glyph glyph-name="Oacute" unicode="&#xd3;" horiz-adv-x="720" 
d="M486 895q-16 -41 -85.5 -99.5t-136.5 -60.5v2q35 16 68 61.5t48 96.5h106zM370 -15q-152 0 -251 93.5t-99 271.5q0 86 27.5 156.5t74 115.5t105 69t123.5 24q152 0 251 -93.5t99 -271.5q0 -86 -27.5 -156.5t-74 -115.5t-105 -69t-123.5 -24zM335 675q-68 0 -109 -71
t-41 -214q0 -94 26.5 -178t72.5 -135.5t101 -51.5q67 0 108.5 71t41.5 214q0 98 -21.5 179t-68 133.5t-110.5 52.5z" />
    <glyph glyph-name="Ocircumflex" unicode="&#xd4;" horiz-adv-x="720" 
d="M299 895h106q15 -51 48 -96.5t68 -61.5v-2q-80 3 -168 91h-2q-91 -88 -168 -91v2q35 16 68 61.5t48 96.5zM370 -15q-152 0 -251 93.5t-99 271.5q0 86 27.5 156.5t74 115.5t105 69t123.5 24q152 0 251 -93.5t99 -271.5q0 -86 -27.5 -156.5t-74 -115.5t-105 -69t-123.5 -24
zM335 675q-68 0 -109 -71t-41 -214q0 -94 26.5 -178t72.5 -135.5t101 -51.5q67 0 108.5 71t41.5 214q0 98 -21.5 179t-68 133.5t-110.5 52.5z" />
    <glyph glyph-name="Otilde" unicode="&#xd5;" horiz-adv-x="720" 
d="M506 875h8q-7 -130 -100 -130q-34 0 -83 22t-64 22q-47 0 -57 -54h-8q6 72 31 101t69 29q32 0 82 -23t68 -23q39 0 54 56zM370 -15q-152 0 -251 93.5t-99 271.5q0 86 27.5 156.5t74 115.5t105 69t123.5 24q152 0 251 -93.5t99 -271.5q0 -86 -27.5 -156.5t-74 -115.5
t-105 -69t-123.5 -24zM335 675q-68 0 -109 -71t-41 -214q0 -94 26.5 -178t72.5 -135.5t101 -51.5q67 0 108.5 71t41.5 214q0 98 -21.5 179t-68 133.5t-110.5 52.5z" />
    <glyph glyph-name="Odieresis" unicode="&#xd6;" horiz-adv-x="720" 
d="M142 813q0 29 20 48.5t48 19.5t48 -19.5t20 -48.5t-20 -48.5t-48 -19.5t-48 19.5t-20 48.5zM422 813q0 29 20 48.5t48 19.5t48 -19.5t20 -48.5t-20 -48.5t-48 -19.5t-48 19.5t-20 48.5zM370 -15q-152 0 -251 93.5t-99 271.5q0 86 27.5 156.5t74 115.5t105 69t123.5 24
q152 0 251 -93.5t99 -271.5q0 -86 -27.5 -156.5t-74 -115.5t-105 -69t-123.5 -24zM335 675q-68 0 -109 -71t-41 -214q0 -94 26.5 -178t72.5 -135.5t101 -51.5q67 0 108.5 71t41.5 214q0 98 -21.5 179t-68 133.5t-110.5 52.5z" />
    <glyph glyph-name="multiply" unicode="&#xd7;" horiz-adv-x="460" 
d="M104 466l126 -127l127 127l44 -44l-127 -127l127 -126l-44 -44l-127 126l-126 -126l-44 44l126 126l-126 127z" />
    <glyph glyph-name="Oslash" unicode="&#xd8;" horiz-adv-x="720" 
d="M370 -15q-134 0 -225 70l-45 -55l-30 25l46 57q-96 98 -96 268q0 86 27.5 156.5t74 115.5t105 69t123.5 24q134 0 224 -71l46 56l31 -24l-47 -58q96 -98 96 -268q0 -86 -27.5 -156.5t-74 -115.5t-105 -69t-123.5 -24zM335 675q-68 0 -109 -71t-41 -214q0 -102 29 -187
l279 342q-55 130 -158 130zM535 310q0 105 -26 192l-278 -342q28 -63 68 -99t86 -36q67 0 108.5 71t41.5 214z" />
    <glyph glyph-name="Ugrave" unicode="&#xd9;" horiz-adv-x="674" 
d="M261 895h106q15 -51 48 -96.5t68 -61.5v-2q-67 2 -136.5 60.5t-85.5 99.5zM591 618v-386q0 -118 -49 -182.5t-172 -64.5q-287 0 -287 248v385q0 22 -24 44.5t-49 33.5v4h296v-4q-27 -12 -50 -33.5t-23 -44.5v-421q0 -78 41 -125t111 -47q82 0 121.5 51t39.5 141v401
q0 22 -24 44.5t-49 33.5v4h191v-4q-27 -12 -50 -33.5t-23 -44.5z" />
    <glyph glyph-name="Uacute" unicode="&#xda;" horiz-adv-x="674" 
d="M538 895q-16 -41 -85.5 -99.5t-136.5 -60.5v2q35 16 68 61.5t48 96.5h106zM591 618v-386q0 -118 -49 -182.5t-172 -64.5q-287 0 -287 248v385q0 22 -24 44.5t-49 33.5v4h296v-4q-27 -12 -50 -33.5t-23 -44.5v-421q0 -78 41 -125t111 -47q82 0 121.5 51t39.5 141v401
q0 22 -24 44.5t-49 33.5v4h191v-4q-27 -12 -50 -33.5t-23 -44.5z" />
    <glyph glyph-name="Ucircumflex" unicode="&#xdb;" horiz-adv-x="674" 
d="M333 895h106q15 -51 48 -96.5t68 -61.5v-2q-80 3 -168 91h-2q-91 -88 -168 -91v2q35 16 68 61.5t48 96.5zM591 618v-386q0 -118 -49 -182.5t-172 -64.5q-287 0 -287 248v385q0 22 -24 44.5t-49 33.5v4h296v-4q-27 -12 -50 -33.5t-23 -44.5v-421q0 -78 41 -125t111 -47
q82 0 121.5 51t39.5 141v401q0 22 -24 44.5t-49 33.5v4h191v-4q-27 -12 -50 -33.5t-23 -44.5z" />
    <glyph glyph-name="Udieresis" unicode="&#xdc;" horiz-adv-x="674" 
d="M222 813q0 29 20 48.5t48 19.5t48 -19.5t20 -48.5t-20 -48.5t-48 -19.5t-48 19.5t-20 48.5zM422 813q0 29 20 48.5t48 19.5t48 -19.5t20 -48.5t-20 -48.5t-48 -19.5t-48 19.5t-20 48.5zM591 618v-386q0 -118 -49 -182.5t-172 -64.5q-287 0 -287 248v385q0 22 -24 44.5
t-49 33.5v4h296v-4q-27 -12 -50 -33.5t-23 -44.5v-421q0 -78 41 -125t111 -47q82 0 121.5 51t39.5 141v401q0 22 -24 44.5t-49 33.5v4h191v-4q-27 -12 -50 -33.5t-23 -44.5z" />
    <glyph glyph-name="Yacute" unicode="&#xdd;" horiz-adv-x="637" 
d="M522 895q-16 -41 -85.5 -99.5t-136.5 -60.5v2q35 16 68 61.5t48 96.5h106zM381 372l138 255q12 20 0.5 40.5t-38.5 28.5v4h156v-4q-42 -25 -68 -69l-173 -317v-230q0 -22 23 -43t50 -33v-4h-296v4q27 12 50 33t23 43v230l-167 317q-24 44 -79 69v4h280v-4
q-26 -12 -35.5 -30t0.5 -39l134 -255h2z" />
    <glyph glyph-name="Thorn" unicode="&#xde;" horiz-adv-x="566" 
d="M327 200h-94v-120q0 -22 23 -43t50 -33v-4h-296v4q27 12 50 33t23 43v538q0 22 -24 44.5t-49 33.5v4h223v-110h94q99 0 164 -50.5t65 -129.5q0 -91 -59.5 -150.5t-169.5 -59.5zM253 550h-20v-310h50q63 0 95.5 43t32.5 107q0 60 -48 110t-110 50z" />
    <glyph glyph-name="germandbls" unicode="&#xdf;" horiz-adv-x="550" 
d="M235 710q96 0 166 -49.5t70 -140.5q0 -96 -98 -128v-2q54 -12 100.5 -63.5t46.5 -126.5q0 -91 -57 -141t-189 -59v4q56 10 80 49.5t24 126.5q0 82 -29.5 140.5t-74.5 65.5v4q52 7 67.5 28.5t15.5 81.5q0 83 -25.5 129.5t-68.5 46.5q-35 0 -47.5 -40t-12.5 -116v-440
q0 -24 15 -45t38 -31v-4h-246v4q23 10 38 31t15 45v440q0 190 172 190z" />
    <glyph glyph-name="agrave" unicode="&#xe0;" horiz-adv-x="473" 
d="M280 90v200l-41 -12q-41 -12 -65 -46.5t-24 -81.5q0 -78 77 -78q34 0 53 18zM285 50h-2q-24 -24 -63 -42t-72 -18q-56 0 -92 33.5t-36 86.5q0 142 171 193l89 27v60q0 39 -12 59.5t-43 20.5q-35 0 -77.5 -31.5t-76.5 -88.5h-4l20 130q79 30 183 30q150 0 150 -120v-310
q0 -24 15 -45t38 -31v-4h-100q-70 0 -88 50zM120 700h106q15 -51 48 -96.5t68 -61.5v-2q-67 2 -136.5 60.5t-85.5 99.5z" />
    <glyph glyph-name="aacute" unicode="&#xe1;" horiz-adv-x="473" 
d="M280 90v200l-41 -12q-41 -12 -65 -46.5t-24 -81.5q0 -78 77 -78q34 0 53 18zM285 50h-2q-24 -24 -63 -42t-72 -18q-56 0 -92 33.5t-36 86.5q0 142 171 193l89 27v60q0 39 -12 59.5t-43 20.5q-35 0 -77.5 -31.5t-76.5 -88.5h-4l20 130q79 30 183 30q150 0 150 -120v-310
q0 -24 15 -45t38 -31v-4h-100q-70 0 -88 50zM362 700q-16 -41 -85.5 -99.5t-136.5 -60.5v2q35 16 68 61.5t48 96.5h106z" />
    <glyph glyph-name="acircumflex" unicode="&#xe2;" horiz-adv-x="473" 
d="M280 90v200l-41 -12q-41 -12 -65 -46.5t-24 -81.5q0 -78 77 -78q34 0 53 18zM285 50h-2q-24 -24 -63 -42t-72 -18q-56 0 -92 33.5t-36 86.5q0 142 171 193l89 27v60q0 39 -12 59.5t-43 20.5q-35 0 -77.5 -31.5t-76.5 -88.5h-4l20 130q79 30 183 30q150 0 150 -120v-310
q0 -24 15 -45t38 -31v-4h-100q-70 0 -88 50zM188 700h106q15 -51 48 -96.5t68 -61.5v-2q-80 3 -168 91h-2q-91 -88 -168 -91v2q35 16 68 61.5t48 96.5z" />
    <glyph glyph-name="atilde" unicode="&#xe3;" horiz-adv-x="473" 
d="M280 90v200l-41 -12q-41 -12 -65 -46.5t-24 -81.5q0 -78 77 -78q34 0 53 18zM285 50h-2q-24 -24 -63 -42t-72 -18q-56 0 -92 33.5t-36 86.5q0 142 171 193l89 27v60q0 39 -12 59.5t-43 20.5q-35 0 -77.5 -31.5t-76.5 -88.5h-4l20 130q79 30 183 30q150 0 150 -120v-310
q0 -24 15 -45t38 -31v-4h-100q-70 0 -88 50zM385 700h8q-7 -130 -100 -130q-34 0 -83 22t-64 22q-47 0 -57 -54h-8q6 72 31 101t69 29q32 0 82 -23t68 -23q39 0 54 56z" />
    <glyph glyph-name="adieresis" unicode="&#xe4;" horiz-adv-x="473" 
d="M280 90v200l-41 -12q-41 -12 -65 -46.5t-24 -81.5q0 -78 77 -78q34 0 53 18zM285 50h-2q-24 -24 -63 -42t-72 -18q-56 0 -92 33.5t-36 86.5q0 142 171 193l89 27v60q0 39 -12 59.5t-43 20.5q-35 0 -77.5 -31.5t-76.5 -88.5h-4l20 130q79 30 183 30q150 0 150 -120v-310
q0 -24 15 -45t38 -31v-4h-100q-70 0 -88 50zM72 632q0 28 20 48t48 20t48 -20t20 -48t-20 -48t-48 -20t-48 20t-20 48zM272 632q0 28 20 48t48 20t48 -20t20 -48t-20 -48t-48 -20t-48 20t-20 48z" />
    <glyph glyph-name="aring" unicode="&#xe5;" horiz-adv-x="473" 
d="M280 90v200l-41 -12q-41 -12 -65 -46.5t-24 -81.5q0 -78 77 -78q34 0 53 18zM285 50h-2q-24 -24 -63 -42t-72 -18q-56 0 -92 33.5t-36 86.5q0 142 171 193l89 27v60q0 39 -12 59.5t-43 20.5q-35 0 -77.5 -31.5t-76.5 -88.5h-4l20 130q79 30 183 30q150 0 150 -120v-310
q0 -24 15 -45t38 -31v-4h-100q-70 0 -88 50zM156 635q0 37 26 63.5t64 26.5t64 -26.5t26 -63.5t-26 -63.5t-64 -26.5t-64 26.5t-26 63.5zM196 635q0 -21 14.5 -35.5t35.5 -14.5t35.5 14.5t14.5 35.5t-14.5 35.5t-35.5 14.5t-35.5 -14.5t-14.5 -35.5z" />
    <glyph glyph-name="ae" unicode="&#xe6;" horiz-adv-x="715" 
d="M536 30q40 0 79 34t63 86h4l-20 -130q-57 -30 -146 -30q-131 0 -195 85q-34 -45 -74.5 -65t-98.5 -20q-56 0 -92 33.5t-36 86.5q0 86 66 143t175 57h19v80q0 39 -12 59.5t-43 20.5q-35 0 -77.5 -31.5t-76.5 -88.5h-4l20 130q79 30 183 30q74 0 103 -46q58 46 139 46
q71 0 127 -56.5t56 -163.5v-20h-275q3 -240 116 -240zM280 130v140h-11q-48 0 -83.5 -36t-35.5 -84q0 -40 20.5 -59t46.5 -19q22 0 42.5 17t20.5 41zM490 480q-26 0 -40.5 -19.5t-20 -53t-9.5 -97.5h144q-9 89 -25.5 129.5t-48.5 40.5z" />
    <glyph glyph-name="ccedilla" unicode="&#xe7;" horiz-adv-x="456" 
d="M142 -181v4q118 6 118 57q0 35 -68 45v2l51 64q-98 8 -160.5 74.5t-62.5 184.5q0 120 70.5 190t165.5 70q89 0 146 -30l20 -130h-4q-23 50 -67 85t-85 35q-46 0 -74 -45.5t-28 -144.5q0 -125 34.5 -187.5t91.5 -62.5q40 0 79 34t63 86h4l-20 -130q-50 -27 -134 -30
l-27 -35q37 -7 59.5 -28.5t22.5 -46.5q0 -31 -27.5 -55.5t-76.5 -24.5q-64 0 -91 19z" />
    <glyph glyph-name="egrave" unicode="&#xe8;" horiz-adv-x="459" 
d="M290 30q40 0 79 34t63 86h4l-20 -130q-57 -30 -146 -30q-107 0 -178.5 67t-71.5 193q0 120 70.5 190t165.5 70q71 0 127 -56.5t56 -163.5v-20h-275q1 -121 35 -180.5t91 -59.5zM234 480q-26 0 -40.5 -19.5t-20 -53t-9.5 -97.5h144q-9 89 -25.5 129.5t-48.5 40.5zM98 700
h106q15 -51 48 -96.5t68 -61.5v-2q-67 2 -136.5 60.5t-85.5 99.5z" />
    <glyph glyph-name="eacute" unicode="&#xe9;" horiz-adv-x="459" 
d="M290 30q40 0 79 34t63 86h4l-20 -130q-57 -30 -146 -30q-107 0 -178.5 67t-71.5 193q0 120 70.5 190t165.5 70q71 0 127 -56.5t56 -163.5v-20h-275q1 -121 35 -180.5t91 -59.5zM234 480q-26 0 -40.5 -19.5t-20 -53t-9.5 -97.5h144q-9 89 -25.5 129.5t-48.5 40.5zM377 700
q-16 -41 -85.5 -99.5t-136.5 -60.5v2q35 16 68 61.5t48 96.5h106z" />
    <glyph glyph-name="ecircumflex" unicode="&#xea;" horiz-adv-x="459" 
d="M290 30q40 0 79 34t63 86h4l-20 -130q-57 -30 -146 -30q-107 0 -178.5 67t-71.5 193q0 120 70.5 190t165.5 70q71 0 127 -56.5t56 -163.5v-20h-275q1 -121 35 -180.5t91 -59.5zM234 480q-26 0 -40.5 -19.5t-20 -53t-9.5 -97.5h144q-9 89 -25.5 129.5t-48.5 40.5zM186 700
h106q15 -51 48 -96.5t68 -61.5v-2q-80 3 -168 91h-2q-91 -88 -168 -91v2q35 16 68 61.5t48 96.5z" />
    <glyph glyph-name="edieresis" unicode="&#xeb;" horiz-adv-x="459" 
d="M290 30q40 0 79 34t63 86h4l-20 -130q-57 -30 -146 -30q-107 0 -178.5 67t-71.5 193q0 120 70.5 190t165.5 70q71 0 127 -56.5t56 -163.5v-20h-275q1 -121 35 -180.5t91 -59.5zM234 480q-26 0 -40.5 -19.5t-20 -53t-9.5 -97.5h144q-9 89 -25.5 129.5t-48.5 40.5zM71 632
q0 28 19.5 48t48.5 20t48.5 -20t19.5 -48t-19.5 -48t-48.5 -20t-48.5 20t-19.5 48zM271 632q0 28 19.5 48t48.5 20t48.5 -20t19.5 -48t-19.5 -48t-48.5 -20t-48.5 20t-19.5 48z" />
    <glyph glyph-name="igrave" unicode="&#xec;" horiz-adv-x="266" 
d="M203 515v-435q0 -24 15 -45t38 -31v-4h-246v4q23 10 38 31t15 45v338q0 24 -15.5 46.5t-37.5 31.5v4q99 2 193 15zM10 700h106q15 -51 48 -96.5t68 -61.5v-2q-67 2 -136.5 60.5t-85.5 99.5z" />
    <glyph glyph-name="iacute" unicode="&#xed;" horiz-adv-x="266" 
d="M203 515v-435q0 -24 15 -45t38 -31v-4h-246v4q23 10 38 31t15 45v338q0 24 -15.5 46.5t-37.5 31.5v4q99 2 193 15zM232 700q-16 -41 -85.5 -99.5t-136.5 -60.5v2q35 16 68 61.5t48 96.5h106z" />
    <glyph glyph-name="icircumflex" unicode="&#xee;" horiz-adv-x="266" 
d="M80 700h106q15 -51 48 -96.5t68 -61.5v-2q-80 3 -168 91h-2q-91 -88 -168 -91v2q35 16 68 61.5t48 96.5zM203 515v-435q0 -24 15 -45t38 -31v-4h-246v4q23 10 38 31t15 45v338q0 24 -15.5 46.5t-37.5 31.5v4q99 2 193 15z" />
    <glyph glyph-name="idieresis" unicode="&#xef;" horiz-adv-x="266" 
d="M-40 632q0 28 20 48t48 20t48 -20t20 -48t-20 -48t-48 -20t-48 20t-20 48zM160 632q0 28 20 48t48 20t48 -20t20 -48t-20 -48t-48 -20t-48 20t-20 48zM203 515v-435q0 -24 15 -45t38 -31v-4h-246v4q23 10 38 31t15 45v338q0 24 -15.5 46.5t-37.5 31.5v4q99 2 193 15z" />
    <glyph glyph-name="eth" unicode="&#xf0;" horiz-adv-x="498" 
d="M198 549l-14 38l85 31q-25 36 -60 51t-97 27v4q48 10 95 10q78 0 142 -62l87 32l14 -37l-72 -27q51 -68 75.5 -164t24.5 -192q0 -123 -68.5 -196.5t-169.5 -73.5q-94 0 -157 59t-63 171q0 117 65 178.5t159 61.5q21 0 45 -8.5t34 -19.5h2q-8 88 -36 151zM255 30
q80 0 80 170q0 76 -32.5 148t-73.5 72t-61 -46.5t-20 -123.5q0 -78 33 -149t74 -71z" />
    <glyph glyph-name="ntilde" unicode="&#xf1;" 
d="M333 80v280q0 50 -11 65t-36 15q-50 0 -83 -30v-330q0 -24 15 -45t38 -31v-4h-246v4q23 10 38 31t15 45v338q0 24 -15.5 46.5t-37.5 31.5v4q99 2 193 15v-65h2q28 23 74 41.5t86 18.5q56 0 82 -24t26 -76v-330q0 -24 15 -45t38 -31v-4h-100q-43 0 -68 24t-25 56zM414 700
h8q-7 -130 -100 -130q-34 0 -83 22t-64 22q-47 0 -57 -54h-8q6 72 31 101t69 29q32 0 82 -23t68 -23q39 0 54 56z" />
    <glyph glyph-name="ograve" unicode="&#xf2;" horiz-adv-x="516" 
d="M265 -10q-106 0 -175.5 66.5t-69.5 193.5q0 121 68 190.5t163 69.5q106 0 175.5 -66.5t69.5 -193.5q0 -121 -68 -190.5t-163 -69.5zM236 480q-72 0 -72 -201q0 -107 37 -183t81 -76q38 0 55 47t17 154q0 109 -32.5 184t-85.5 75zM132 700h106q15 -51 48 -96.5t68 -61.5
v-2q-67 2 -136.5 60.5t-85.5 99.5z" />
    <glyph glyph-name="oacute" unicode="&#xf3;" horiz-adv-x="516" 
d="M265 -10q-106 0 -175.5 66.5t-69.5 193.5q0 121 68 190.5t163 69.5q106 0 175.5 -66.5t69.5 -193.5q0 -121 -68 -190.5t-163 -69.5zM236 480q-72 0 -72 -201q0 -107 37 -183t81 -76q38 0 55 47t17 154q0 109 -32.5 184t-85.5 75zM394 700q-16 -41 -85.5 -99.5
t-136.5 -60.5v2q35 16 68 61.5t48 96.5h106z" />
    <glyph glyph-name="ocircumflex" unicode="&#xf4;" horiz-adv-x="516" 
d="M265 -10q-106 0 -175.5 66.5t-69.5 193.5q0 121 68 190.5t163 69.5q106 0 175.5 -66.5t69.5 -193.5q0 -121 -68 -190.5t-163 -69.5zM236 480q-72 0 -72 -201q0 -107 37 -183t81 -76q38 0 55 47t17 154q0 109 -32.5 184t-85.5 75zM210 700h106q15 -51 48 -96.5t68 -61.5
v-2q-80 3 -168 91h-2q-91 -88 -168 -91v2q35 16 68 61.5t48 96.5z" />
    <glyph glyph-name="otilde" unicode="&#xf5;" horiz-adv-x="516" 
d="M265 -10q-106 0 -175.5 66.5t-69.5 193.5q0 121 68 190.5t163 69.5q106 0 175.5 -66.5t69.5 -193.5q0 -121 -68 -190.5t-163 -69.5zM236 480q-72 0 -72 -201q0 -107 37 -183t81 -76q38 0 55 47t17 154q0 109 -32.5 184t-85.5 75zM412 700h8q-7 -130 -100 -130
q-34 0 -83 22t-64 22q-47 0 -57 -54h-8q6 72 31 101t69 29q32 0 82 -23t68 -23q39 0 54 56z" />
    <glyph glyph-name="odieresis" unicode="&#xf6;" horiz-adv-x="516" 
d="M265 -10q-106 0 -175.5 66.5t-69.5 193.5q0 121 68 190.5t163 69.5q106 0 175.5 -66.5t69.5 -193.5q0 -121 -68 -190.5t-163 -69.5zM236 480q-72 0 -72 -201q0 -107 37 -183t81 -76q38 0 55 47t17 154q0 109 -32.5 184t-85.5 75zM97 632q0 28 19.5 48t48.5 20t48.5 -20
t19.5 -48t-19.5 -48t-48.5 -20t-48.5 20t-19.5 48zM297 632q0 28 19.5 48t48.5 20t48.5 -20t19.5 -48t-19.5 -48t-48.5 -20t-48.5 20t-19.5 48z" />
    <glyph glyph-name="divide" unicode="&#xf7;" horiz-adv-x="460" 
d="M170 440q0 25 17.5 42.5t42.5 17.5t42.5 -17.5t17.5 -42.5t-17.5 -42.5t-42.5 -17.5t-42.5 17.5t-17.5 42.5zM410 265h-360v60h360v-60zM170 150q0 25 17.5 42.5t42.5 17.5t42.5 -17.5t17.5 -42.5t-17.5 -42.5t-42.5 -17.5t-42.5 17.5t-17.5 42.5z" />
    <glyph glyph-name="oslash" unicode="&#xf8;" horiz-adv-x="526" 
d="M270 -10q-91 0 -156 47l-30 -37l-30 25l31 38q-65 70 -65 187q0 121 70.5 190.5t165.5 69.5q90 0 155 -47l30 37l31 -24l-32 -39q66 -69 66 -187q0 -121 -70.5 -190.5t-165.5 -69.5zM364 221q0 57 -11 109l-164 -201q18 -50 45 -79.5t53 -29.5q77 0 77 201zM241 480
q-77 0 -77 -201q0 -57 12 -104l164 201q-16 48 -42 76t-57 28z" />
    <glyph glyph-name="ugrave" unicode="&#xf9;" 
d="M338 50h-2q-27 -22 -76 -41t-89 -19q-56 0 -82 24t-26 76v330q0 24 -15 45t-38 31v4q97 2 193 15v-375q0 -50 11 -65t36 -15q50 0 83 30v330q0 24 -15 45t-38 31v4q97 2 193 15v-435q0 -24 15 -45t38 -31v-4h-100q-70 0 -88 50zM137 700h106q15 -51 48 -96.5t68 -61.5v-2
q-67 2 -136.5 60.5t-85.5 99.5z" />
    <glyph glyph-name="uacute" unicode="&#xfa;" 
d="M338 50h-2q-27 -22 -76 -41t-89 -19q-56 0 -82 24t-26 76v330q0 24 -15 45t-38 31v4q97 2 193 15v-375q0 -50 11 -65t36 -15q50 0 83 30v330q0 24 -15 45t-38 31v4q97 2 193 15v-435q0 -24 15 -45t38 -31v-4h-100q-70 0 -88 50zM425 700q-16 -41 -85.5 -99.5
t-136.5 -60.5v2q35 16 68 61.5t48 96.5h106z" />
    <glyph glyph-name="ucircumflex" unicode="&#xfb;" 
d="M338 50h-2q-27 -22 -76 -41t-89 -19q-56 0 -82 24t-26 76v330q0 24 -15 45t-38 31v4q97 2 193 15v-375q0 -50 11 -65t36 -15q50 0 83 30v330q0 24 -15 45t-38 31v4q97 2 193 15v-435q0 -24 15 -45t38 -31v-4h-100q-70 0 -88 50zM215 700h106q15 -51 48 -96.5t68 -61.5v-2
q-80 3 -168 91h-2q-91 -88 -168 -91v2q35 16 68 61.5t48 96.5z" />
    <glyph glyph-name="udieresis" unicode="&#xfc;" 
d="M338 50h-2q-27 -22 -76 -41t-89 -19q-56 0 -82 24t-26 76v330q0 24 -15 45t-38 31v4q97 2 193 15v-375q0 -50 11 -65t36 -15q50 0 83 30v330q0 24 -15 45t-38 31v4q97 2 193 15v-435q0 -24 15 -45t38 -31v-4h-100q-70 0 -88 50zM97 632q0 28 19.5 48t48.5 20t48.5 -20
t19.5 -48t-19.5 -48t-48.5 -20t-48.5 20t-19.5 48zM297 632q0 28 19.5 48t48.5 20t48.5 -20t19.5 -48t-19.5 -48t-48.5 -20t-48.5 20t-19.5 48z" />
    <glyph glyph-name="yacute" unicode="&#xfd;" horiz-adv-x="496" 
d="M235 29l-166 398q-19 46 -69 69v4h250v-4q-46 -22 -26 -68l89 -212h2l88 211q9 22 -1.5 42t-36.5 27v4h131v-4q-29 -10 -53 -69l-263 -627h-127v4q53 17 83 38.5t46 59.5zM425 700q-16 -41 -85.5 -99.5t-136.5 -60.5v2q35 16 68 61.5t48 96.5h106z" />
    <glyph glyph-name="thorn" unicode="&#xfe;" horiz-adv-x="496" 
d="M0 696v4q99 2 193 15v-215h37q117 0 181.5 -64.5t64.5 -185.5q0 -131 -68.5 -190.5t-177.5 -59.5h-37v-120q0 -24 15 -45t38 -31v-4h-246v4q23 10 38 31t15 45v738q0 24 -15.5 46.5t-37.5 31.5zM200 460h-7v-420h17q67 0 95.5 40t28.5 140q0 119 -34.5 179.5t-99.5 60.5z
" />
    <glyph glyph-name="ydieresis" unicode="&#xff;" horiz-adv-x="496" 
d="M235 29l-166 398q-19 46 -69 69v4h250v-4q-46 -22 -26 -68l89 -212h2l88 211q9 22 -1.5 42t-36.5 27v4h131v-4q-29 -10 -53 -69l-263 -627h-127v4q53 17 83 38.5t46 59.5zM110 632q0 28 20 48t48 20t48 -20t20 -48t-20 -48t-48 -20t-48 20t-20 48zM310 632q0 28 20 48
t48 20t48 -20t20 -48t-20 -48t-48 -20t-48 20t-20 48z" />
    <glyph glyph-name="Amacron" unicode="&#x100;" horiz-adv-x="677" 
d="M324 715h8l266 -642q16 -40 79 -69v-4h-280v4q54 26 36 68l-53 128h-224l-53 -127q-9 -21 5.5 -41t42.5 -28v-4h-151v4q35 12 58 69zM363 240l-95 225h-2l-94 -225h191zM488 765h-320v60h320v-60z" />
    <glyph glyph-name="amacron" unicode="&#x101;" horiz-adv-x="473" 
d="M280 90v200l-41 -12q-41 -12 -65 -46.5t-24 -81.5q0 -78 77 -78q34 0 53 18zM285 50h-2q-24 -24 -63 -42t-72 -18q-56 0 -92 33.5t-36 86.5q0 142 171 193l89 27v60q0 39 -12 59.5t-43 20.5q-35 0 -77.5 -31.5t-76.5 -88.5h-4l20 130q79 30 183 30q150 0 150 -120v-310
q0 -24 15 -45t38 -31v-4h-100q-70 0 -88 50zM391 600h-296v60h296v-60z" />
    <glyph glyph-name="Abreve" unicode="&#x102;" horiz-adv-x="677" 
d="M324 715h8l266 -642q16 -40 79 -69v-4h-280v4q54 26 36 68l-53 128h-224l-53 -127q-9 -21 5.5 -41t42.5 -28v-4h-151v4q35 12 58 69zM363 240l-95 225h-2l-94 -225h191zM182 895h4q37 -80 142 -80q97 0 142 80h4q-22 -150 -146 -150q-125 0 -146 150z" />
    <glyph glyph-name="abreve" unicode="&#x103;" horiz-adv-x="473" 
d="M280 90v200l-41 -12q-41 -12 -65 -46.5t-24 -81.5q0 -78 77 -78q34 0 53 18zM285 50h-2q-24 -24 -63 -42t-72 -18q-56 0 -92 33.5t-36 86.5q0 142 171 193l89 27v60q0 39 -12 59.5t-43 20.5q-35 0 -77.5 -31.5t-76.5 -88.5h-4l20 130q79 30 183 30q150 0 150 -120v-310
q0 -24 15 -45t38 -31v-4h-100q-70 0 -88 50zM95 715h4q37 -80 142 -80q97 0 142 80h4q-22 -150 -146 -150q-125 0 -146 150z" />
    <glyph glyph-name="Aogonek" unicode="&#x104;" horiz-adv-x="677" 
d="M0 4q35 12 58 69l266 642h8l266 -642q16 -40 79 -69v-4h-90q-30 -18 -50 -48t-20 -62q0 -30 26.5 -46.5t91.5 -20.5v-4q-27 -19 -91 -19q-49 0 -76.5 24.5t-27.5 55.5q0 74 107 120h-150v4q54 26 36 68l-53 128h-224l-53 -127q-9 -21 5.5 -41t42.5 -28v-4h-151v4z
M172 240h191l-95 225h-2z" />
    <glyph glyph-name="aogonek" unicode="&#x105;" horiz-adv-x="473" 
d="M373 0q-70 0 -88 50h-2q-24 -24 -63 -42t-72 -18q-56 0 -92 33.5t-36 86.5q0 142 171 193l89 27v60q0 39 -12 59.5t-43 20.5q-35 0 -77.5 -31.5t-76.5 -88.5h-4l20 130q79 30 183 30q150 0 150 -120v-310q0 -24 15 -45t38 -31v-4h-53q-30 -18 -50 -48t-20 -62
q0 -30 26.5 -46.5t91.5 -20.5v-4q-27 -19 -91 -19q-49 0 -76.5 24.5t-27.5 55.5q0 74 107 120h-7zM227 72q34 0 53 18v200l-41 -12q-41 -12 -65 -46.5t-24 -81.5q0 -78 77 -78z" />
    <glyph glyph-name="Cacute" unicode="&#x106;" horiz-adv-x="638" 
d="M410 25q121 0 204 195h4l-20 -183q-79 -52 -208 -52q-73 0 -138.5 22.5t-117.5 66t-83 115t-31 161.5q0 86 30.5 156.5t81 115t112 69t126.5 24.5q123 0 205 -42l20 -183h-4q-83 185 -231 185q-79 0 -127 -70.5t-48 -214.5q0 -162 61 -263.5t164 -101.5zM512 895
q-16 -41 -85.5 -99.5t-136.5 -60.5v2q35 16 68 61.5t48 96.5h106z" />
    <glyph glyph-name="cacute" unicode="&#x107;" horiz-adv-x="456" 
d="M290 30q40 0 79 34t63 86h4l-20 -130q-57 -30 -146 -30q-107 0 -178.5 67t-71.5 193q0 120 70.5 190t165.5 70q89 0 146 -30l20 -130h-4q-23 50 -67 85t-85 35q-46 0 -74 -45.5t-28 -144.5q0 -125 34.5 -187.5t91.5 -62.5zM382 700q-16 -41 -85.5 -99.5t-136.5 -60.5v2
q35 16 68 61.5t48 96.5h106z" />
    <glyph glyph-name="Ccaron" unicode="&#x10c;" horiz-adv-x="638" 
d="M410 25q121 0 204 195h4l-20 -183q-79 -52 -208 -52q-73 0 -138.5 22.5t-117.5 66t-83 115t-31 161.5q0 86 30.5 156.5t81 115t112 69t126.5 24.5q123 0 205 -42l20 -183h-4q-83 185 -231 185q-79 0 -127 -70.5t-48 -214.5q0 -162 61 -263.5t164 -101.5zM422 745h-106
q-15 51 -48 96.5t-68 61.5v2q77 -3 168 -91h2q88 88 168 91v-2q-35 -16 -68 -61.5t-48 -96.5z" />
    <glyph glyph-name="ccaron" unicode="&#x10d;" horiz-adv-x="456" 
d="M290 30q40 0 79 34t63 86h4l-20 -130q-57 -30 -146 -30q-107 0 -178.5 67t-71.5 193q0 120 70.5 190t165.5 70q89 0 146 -30l20 -130h-4q-23 50 -67 85t-85 35q-46 0 -74 -45.5t-28 -144.5q0 -125 34.5 -187.5t91.5 -62.5zM312 555h-106q-15 51 -48 96.5t-68 61.5v2
q77 -3 168 -91h2q88 88 168 91v-2q-35 -16 -68 -61.5t-48 -96.5z" />
    <glyph glyph-name="Dcaron" unicode="&#x10e;" horiz-adv-x="682" 
d="M263 660h-31v-620h71q190 0 190 291q0 136 -73.5 232.5t-156.5 96.5zM10 700h271q164 0 272.5 -92.5t108.5 -257.5q0 -166 -92 -258t-251 -92h-309v4q27 12 50 33t23 43v538q0 22 -24 44.5t-49 33.5v4zM372 745h-106q-15 51 -48 96.5t-68 61.5v2q77 -3 168 -91h2
q88 88 168 91v-2q-35 -16 -68 -61.5t-48 -96.5z" />
    <glyph glyph-name="dcaron" unicode="&#x10f;" horiz-adv-x="570" 
d="M296 40h7v420h-17q-67 0 -95.5 -40t-28.5 -140q0 -119 34.5 -179.5t99.5 -60.5zM443 715v-635q0 -24 15 -45t38 -31v-4h-230q-117 0 -181.5 64.5t-64.5 185.5q0 131 68.5 190.5t177.5 59.5h37v118q0 24 -15.5 46.5t-37.5 31.5v4q97 2 193 15zM563 715q17 -20 17 -47
q0 -40 -33.5 -69.5t-83.5 -38.5v2q43 41 43 89q0 21 -14 37z" />
    <glyph glyph-name="Dcroat" unicode="&#x110;" horiz-adv-x="682" 
d="M10 700h271q164 0 272.5 -92.5t108.5 -257.5q0 -166 -92 -258t-251 -92h-309v4q27 12 50 33t23 43v270h-73v40h73v228q0 22 -24 44.5t-49 33.5v4zM346 350h-114v-310h71q190 0 190 291q0 136 -73.5 232.5t-156.5 96.5h-31v-270h114v-40z" />
    <glyph glyph-name="dcroat" unicode="&#x111;" horiz-adv-x="506" 
d="M443 715v-105h63v-40h-63v-490q0 -24 15 -45t38 -31v-4h-230q-117 0 -181.5 64.5t-64.5 185.5q0 131 68.5 190.5t177.5 59.5h37v70h-93v40h93v8q0 24 -15.5 46.5t-37.5 31.5v4q97 2 193 15zM296 40h7v420h-17q-67 0 -95.5 -40t-28.5 -140q0 -119 34.5 -179.5t99.5 -60.5z
" />
    <glyph glyph-name="Emacron" unicode="&#x112;" horiz-adv-x="563" 
d="M549 180h4l-23 -180h-520v4q27 12 50 33t23 43v538q0 22 -24 44.5t-49 33.5v4h503l20 -180h-4q-25 75 -60 107.5t-92 32.5h-144v-270h66q74 0 106 93h4v-221h-4q-30 88 -106 88h-66v-310h148q108 0 168 140zM450 765h-320v60h320v-60z" />
    <glyph glyph-name="emacron" unicode="&#x113;" horiz-adv-x="459" 
d="M290 30q40 0 79 34t63 86h4l-20 -130q-57 -30 -146 -30q-107 0 -178.5 67t-71.5 193q0 120 70.5 190t165.5 70q71 0 127 -56.5t56 -163.5v-20h-275q1 -121 35 -180.5t91 -59.5zM234 480q-26 0 -40.5 -19.5t-20 -53t-9.5 -97.5h144q-9 89 -25.5 129.5t-48.5 40.5zM386 600
h-296v60h296v-60z" />
    <glyph glyph-name="Edotaccent" unicode="&#x116;" horiz-adv-x="563" 
d="M549 180h4l-23 -180h-520v4q27 12 50 33t23 43v538q0 22 -24 44.5t-49 33.5v4h503l20 -180h-4q-25 75 -60 107.5t-92 32.5h-144v-270h66q74 0 106 93h4v-221h-4q-30 88 -106 88h-66v-310h148q108 0 168 140zM230 820q0 31 22 53t53 22t53 -22t22 -53t-22 -53t-53 -22
t-53 22t-22 53z" />
    <glyph glyph-name="edotaccent" unicode="&#x117;" horiz-adv-x="459" 
d="M290 30q40 0 79 34t63 86h4l-20 -130q-57 -30 -146 -30q-107 0 -178.5 67t-71.5 193q0 120 70.5 190t165.5 70q71 0 127 -56.5t56 -163.5v-20h-275q1 -121 35 -180.5t91 -59.5zM234 480q-26 0 -40.5 -19.5t-20 -53t-9.5 -97.5h144q-9 89 -25.5 129.5t-48.5 40.5zM170 640
q0 31 22 53t53 22t53 -22t22 -53t-22 -53t-53 -22t-53 22t-22 53z" />
    <glyph glyph-name="Eogonek" unicode="&#x118;" horiz-adv-x="563" 
d="M381 40q108 0 168 140h4l-23 -180h-40q-30 -18 -50 -48t-20 -62q0 -30 26.5 -46.5t91.5 -20.5v-4q-27 -19 -91 -19q-49 0 -76.5 24.5t-27.5 55.5q0 74 107 120h-440v4q27 12 50 33t23 43v538q0 22 -24 44.5t-49 33.5v4h503l20 -180h-4q-25 75 -60 107.5t-92 32.5h-144
v-270h66q74 0 106 93h4v-221h-4q-30 88 -106 88h-66v-310h148z" />
    <glyph glyph-name="eogonek" unicode="&#x119;" horiz-adv-x="459" 
d="M355 -177v-4q-27 -19 -91 -19q-49 0 -76.5 24.5t-27.5 55.5q0 69 87 111q-99 7 -163 73.5t-64 185.5q0 120 70.5 190t165.5 70q71 0 127 -56.5t56 -163.5v-20h-275q1 -121 35 -180.5t91 -59.5q40 0 79 34t63 86h4l-20 -130q-47 -26 -123 -29q-56 -42 -56 -101
q0 -30 26.5 -46.5t91.5 -20.5zM234 480q-26 0 -40.5 -19.5t-20 -53t-9.5 -97.5h144q-9 89 -25.5 129.5t-48.5 40.5z" />
    <glyph glyph-name="Ecaron" unicode="&#x11a;" horiz-adv-x="563" 
d="M549 180h4l-23 -180h-520v4q27 12 50 33t23 43v538q0 22 -24 44.5t-49 33.5v4h503l20 -180h-4q-25 75 -60 107.5t-92 32.5h-144v-270h66q74 0 106 93h4v-221h-4q-30 88 -106 88h-66v-310h148q108 0 168 140zM352 745h-106q-15 51 -48 96.5t-68 61.5v2q77 -3 168 -91h2
q88 88 168 91v-2q-35 -16 -68 -61.5t-48 -96.5z" />
    <glyph glyph-name="ecaron" unicode="&#x11b;" horiz-adv-x="459" 
d="M290 30q40 0 79 34t63 86h4l-20 -130q-57 -30 -146 -30q-107 0 -178.5 67t-71.5 193q0 120 70.5 190t165.5 70q71 0 127 -56.5t56 -163.5v-20h-275q1 -121 35 -180.5t91 -59.5zM234 480q-26 0 -40.5 -19.5t-20 -53t-9.5 -97.5h144q-9 89 -25.5 129.5t-48.5 40.5zM302 555
h-106q-15 51 -48 96.5t-68 61.5v2q77 -3 168 -91h2q88 88 168 91v-2q-35 -16 -68 -61.5t-48 -96.5z" />
    <glyph glyph-name="Gbreve" unicode="&#x11e;" horiz-adv-x="712" 
d="M615 270v-220q-83 -65 -225 -65q-73 0 -138.5 22.5t-117.5 66t-83 115t-31 161.5q0 86 30.5 156.5t81 115t112 69t126.5 24.5q123 0 215 -47l20 -178h-4q-40 88 -101 136.5t-140 48.5t-127 -70.5t-48 -214.5q0 -162 61 -263.5t164 -101.5q33 0 60 10v235q0 22 -23.5 43
t-50.5 33v4h296v-4q-28 -12 -52.5 -33t-24.5 -43zM220 895h4q37 -80 142 -80q97 0 142 80h4q-22 -150 -146 -150q-125 0 -146 150z" />
    <glyph glyph-name="gbreve" unicode="&#x11f;" horiz-adv-x="502" 
d="M512 490l-90 -55q39 -47 39 -115q0 -88 -63 -139t-149 -51q-43 0 -82 11q-29 -12 -29 -27q0 -10 8.5 -17t22.5 -7h249q54 0 54 -50q0 -49 -51 -107.5t-133.5 -100.5t-161.5 -42q-57 0 -86.5 22t-29.5 62q0 67 92 116q-78 8 -78 63q0 28 28 54.5t79 46.5q-107 49 -107 166
q0 88 63.5 139t148.5 51q68 0 121 -25l155 15v-10zM222 480q-69 0 -69 -138q0 -77 35 -129.5t76 -52.5q36 0 52.5 32t16.5 108q0 78 -31.5 129t-79.5 51zM391 -30q0 20 -33 20h-216q-39 -21 -39 -60q0 -50 89 -50q70 0 134.5 31t64.5 59zM100 715h4q37 -80 142 -80
q97 0 142 80h4q-22 -150 -146 -150q-125 0 -146 150z" />
    <glyph glyph-name="Gcommaaccent" unicode="&#x122;" horiz-adv-x="712" 
d="M615 270v-220q-83 -65 -225 -65q-73 0 -138.5 22.5t-117.5 66t-83 115t-31 161.5q0 86 30.5 156.5t81 115t112 69t126.5 24.5q123 0 215 -47l20 -178h-4q-40 88 -101 136.5t-140 48.5t-127 -70.5t-48 -214.5q0 -162 61 -263.5t164 -101.5q33 0 60 10v235q0 22 -23.5 43
t-50.5 33v4h296v-4q-28 -12 -52.5 -33t-24.5 -43zM430 -55q17 -20 17 -47q0 -40 -33.5 -69.5t-83.5 -38.5v2q43 41 43 89q0 21 -14 37z" />
    <glyph glyph-name="gcommaaccent" unicode="&#x123;" horiz-adv-x="502" 
d="M512 490l-90 -55q39 -47 39 -115q0 -88 -63 -139t-149 -51q-43 0 -82 11q-29 -12 -29 -27q0 -10 8.5 -17t22.5 -7h249q54 0 54 -50q0 -49 -51 -107.5t-133.5 -100.5t-161.5 -42q-57 0 -86.5 22t-29.5 62q0 67 92 116q-78 8 -78 63q0 28 28 54.5t79 46.5q-107 49 -107 166
q0 88 63.5 139t148.5 51q68 0 121 -25l155 15v-10zM222 480q-69 0 -69 -138q0 -77 35 -129.5t76 -52.5q36 0 52.5 32t16.5 108q0 78 -31.5 129t-79.5 51zM391 -30q0 20 -33 20h-216q-39 -21 -39 -60q0 -50 89 -50q70 0 134.5 31t64.5 59zM217 560q-17 20 -17 47
q0 40 33.5 69.5t83.5 38.5v-2q-43 -41 -43 -89q0 -21 14 -37z" />
    <glyph glyph-name="Imacron" unicode="&#x12a;" horiz-adv-x="336" 
d="M243 618v-538q0 -22 23 -43t50 -33v-4h-296v4q27 12 50 33t23 43v538q0 22 -24 44.5t-49 33.5v4h296v-4q-27 -12 -50 -33.5t-23 -44.5zM316 765h-296v60h296v-60z" />
    <glyph glyph-name="imacron" unicode="&#x12b;" horiz-adv-x="266" 
d="M213 515v-435q0 -24 15 -45t38 -31v-4h-246v4q23 10 38 31t15 45v338q0 24 -15.5 46.5t-37.5 31.5v4q99 2 193 15zM281 600h-296v60h296v-60z" />
    <glyph glyph-name="Iogonek" unicode="&#x12e;" horiz-adv-x="336" 
d="M316 696q-27 -12 -50 -33.5t-23 -44.5v-538q0 -22 23 -43t50 -33v-4h-89q-30 -18 -50 -48t-20 -62q0 -30 26.5 -46.5t91.5 -20.5v-4q-27 -19 -91 -19q-49 0 -76.5 24.5t-27.5 55.5q0 74 107 120h-167v4q27 12 50 33t23 43v538q0 22 -24 44.5t-49 33.5v4h296v-4z" />
    <glyph glyph-name="iogonek" unicode="&#x12f;" horiz-adv-x="266" 
d="M10 500q99 2 193 15v-435q0 -24 15 -45t38 -31v-4h-69q-30 -18 -50 -48t-20 -62q0 -30 26.5 -46.5t91.5 -20.5v-4q-27 -19 -91 -19q-49 0 -76.5 24.5t-27.5 55.5q0 74 107 120h-137v4q23 10 38 31t15 45v338q0 24 -15.5 46.5t-37.5 31.5v4zM133 565q-31 0 -53 22t-22 53
t22 53t53 22t53 -22t22 -53t-22 -53t-53 -22z" />
    <glyph glyph-name="Idot" unicode="&#x130;" horiz-adv-x="336" 
d="M243 618v-538q0 -22 23 -43t50 -33v-4h-296v4q27 12 50 33t23 43v538q0 22 -24 44.5t-49 33.5v4h296v-4q-27 -12 -50 -33.5t-23 -44.5zM95 820q0 31 22 53t53 22t53 -22t22 -53t-22 -53t-53 -22t-53 22t-22 53z" />
    <glyph glyph-name="dotlessi" unicode="&#x131;" horiz-adv-x="266" 
d="M203 515v-435q0 -24 15 -45t38 -31v-4h-246v4q23 10 38 31t15 45v338q0 24 -15.5 46.5t-37.5 31.5v4q99 2 193 15z" />
    <glyph glyph-name="Kcommaaccent" unicode="&#x136;" horiz-adv-x="718" 
d="M347 442l281 -369q40 -53 90 -69v-4q-40 -10 -115 -10q-100 0 -164 82l-204 278h-2v-270q0 -22 23 -43t50 -33v-4h-296v4q27 12 50 33t23 43v538q0 22 -24 44.5t-49 33.5v4h296v-4q-27 -12 -50 -33.5t-23 -44.5v-228h2l238 202q32 26 32 48q0 35 -67 56v4h246v-4
q-55 -15 -108 -60zM420 -55q17 -20 17 -47q0 -40 -33.5 -69.5t-83.5 -38.5v2q43 41 43 89q0 21 -14 37z" />
    <glyph glyph-name="kcommaaccent" unicode="&#x137;" horiz-adv-x="573" 
d="M203 270v-190q0 -24 15 -45t38 -31v-4h-246v4q23 10 38 31t15 45v538q0 24 -15.5 46.5t-37.5 31.5v4q97 2 193 15v-405h2l112 87q37 29 37 52q0 18 -15 27.5t-46 19.5v4h246v-4q-68 -16 -109 -47l-121 -94l184 -283q35 -54 80 -68v-4q-40 -10 -95 -10q-92 0 -144 81
l-129 199h-2zM320 -55q17 -20 17 -47q0 -40 -33.5 -69.5t-83.5 -38.5v2q43 41 43 89q0 21 -14 37z" />
    <glyph glyph-name="Lacute" unicode="&#x139;" horiz-adv-x="553" 
d="M10 700h296v-4q-27 -12 -50 -33t-23 -43v-580h164q57 0 92 32.5t60 107.5h4l-20 -180h-523v4q25 11 49 33.5t24 44.5v538q0 22 -23 43t-50 33v4zM333 895q-16 -41 -85.5 -99.5t-136.5 -60.5v2q35 16 68 61.5t48 96.5h106z" />
    <glyph glyph-name="lacute" unicode="&#x13a;" horiz-adv-x="266" 
d="M203 715v-635q0 -24 15 -45t38 -31v-4h-246v4q23 10 38 31t15 45v538q0 24 -15.5 46.5t-37.5 31.5v4q97 2 193 15zM262 895q-16 -41 -85.5 -99.5t-136.5 -60.5v2q35 16 68 61.5t48 96.5h106z" />
    <glyph glyph-name="Lcommaaccent" unicode="&#x13b;" horiz-adv-x="553" 
d="M10 700h296v-4q-27 -12 -50 -33t-23 -43v-580h164q57 0 92 32.5t60 107.5h4l-20 -180h-523v4q25 11 49 33.5t24 44.5v538q0 22 -23 43t-50 33v4zM340 -55q17 -20 17 -47q0 -40 -33.5 -69.5t-83.5 -38.5v2q43 41 43 89q0 21 -14 37z" />
    <glyph glyph-name="lcommaaccent" unicode="&#x13c;" horiz-adv-x="266" 
d="M203 715v-635q0 -24 15 -45t38 -31v-4h-246v4q23 10 38 31t15 45v538q0 24 -15.5 46.5t-37.5 31.5v4q97 2 193 15zM160 -55q17 -20 17 -47q0 -40 -33.5 -69.5t-83.5 -38.5v2q43 41 43 89q0 21 -14 37z" />
    <glyph glyph-name="Lcaron" unicode="&#x13d;" horiz-adv-x="553" 
d="M10 700h296v-4q-27 -12 -50 -33t-23 -43v-580h164q57 0 92 32.5t60 107.5h4l-20 -180h-523v4q25 11 49 33.5t24 44.5v538q0 22 -23 43t-50 33v4zM430 715q17 -20 17 -47q0 -40 -33.5 -69.5t-83.5 -38.5v2q43 41 43 89q0 21 -14 37z" />
    <glyph glyph-name="lcaron" unicode="&#x13e;" horiz-adv-x="330" 
d="M203 715v-635q0 -24 15 -45t38 -31v-4h-246v4q23 10 38 31t15 45v538q0 24 -15.5 46.5t-37.5 31.5v4q97 2 193 15zM323 715q17 -20 17 -47q0 -40 -33.5 -69.5t-83.5 -38.5v2q43 41 43 89q0 21 -14 37z" />
    <glyph glyph-name="Lslash" unicode="&#x141;" horiz-adv-x="553" 
d="M10 700h296v-4q-27 -12 -50 -33t-23 -43v-278l129 48l14 -37l-143 -54v-259h164q57 0 92 32.5t60 107.5h4l-20 -180h-523v4q25 11 49 33.5t24 44.5v161l-59 -22l-14 38l73 27v334q0 22 -23 43t-50 33v4z" />
    <glyph glyph-name="lslash" unicode="&#x142;" horiz-adv-x="286" 
d="M213 715v-343l49 18l14 -37l-63 -24v-249q0 -24 15 -45t38 -31v-4h-246v4q23 10 38 31t15 45v197l-49 -18l-14 38l63 23v298q0 24 -15.5 46.5t-37.5 31.5v4q97 2 193 15z" />
    <glyph glyph-name="Nacute" unicode="&#x143;" horiz-adv-x="694" 
d="M128 530v-450q0 -22 23 -43t50 -33v-4h-191v4q27 12 50 33t23 43v538q0 22 -24 44.5t-49 33.5v4h191l363 -417h2v335q0 22 -24 44.5t-49 33.5v4h191v-4q-27 -12 -50 -33.5t-23 -44.5v-633h-8l-473 545h-2zM513 895q-16 -41 -85.5 -99.5t-136.5 -60.5v2q35 16 68 61.5
t48 96.5h106z" />
    <glyph glyph-name="nacute" unicode="&#x144;" 
d="M333 80v280q0 50 -11 65t-36 15q-50 0 -83 -30v-330q0 -24 15 -45t38 -31v-4h-246v4q23 10 38 31t15 45v338q0 24 -15.5 46.5t-37.5 31.5v4q99 2 193 15v-65h2q28 23 74 41.5t86 18.5q56 0 82 -24t26 -76v-330q0 -24 15 -45t38 -31v-4h-100q-43 0 -68 24t-25 56zM402 700
q-16 -41 -85.5 -99.5t-136.5 -60.5v2q35 16 68 61.5t48 96.5h106z" />
    <glyph glyph-name="Ncommaaccent" unicode="&#x145;" horiz-adv-x="694" 
d="M128 530v-450q0 -22 23 -43t50 -33v-4h-191v4q27 12 50 33t23 43v538q0 22 -24 44.5t-49 33.5v4h191l363 -417h2v335q0 22 -24 44.5t-49 33.5v4h191v-4q-27 -12 -50 -33.5t-23 -44.5v-633h-8l-473 545h-2zM390 -55q17 -20 17 -47q0 -40 -33.5 -69.5t-83.5 -38.5v2
q43 41 43 89q0 21 -14 37z" />
    <glyph glyph-name="ncommaaccent" unicode="&#x146;" 
d="M333 80v280q0 50 -11 65t-36 15q-50 0 -83 -30v-330q0 -24 15 -45t38 -31v-4h-246v4q23 10 38 31t15 45v338q0 24 -15.5 46.5t-37.5 31.5v4q99 2 193 15v-65h2q28 23 74 41.5t86 18.5q56 0 82 -24t26 -76v-330q0 -24 15 -45t38 -31v-4h-100q-43 0 -68 24t-25 56zM310 -55
q17 -20 17 -47q0 -40 -33.5 -69.5t-83.5 -38.5v2q43 41 43 89q0 21 -14 37z" />
    <glyph glyph-name="Ncaron" unicode="&#x147;" horiz-adv-x="694" 
d="M128 530v-450q0 -22 23 -43t50 -33v-4h-191v4q27 12 50 33t23 43v538q0 22 -24 44.5t-49 33.5v4h191l363 -417h2v335q0 22 -24 44.5t-49 33.5v4h191v-4q-27 -12 -50 -33.5t-23 -44.5v-633h-8l-473 545h-2zM422 745h-106q-15 51 -48 96.5t-68 61.5v2q77 -3 168 -91h2
q88 88 168 91v-2q-35 -16 -68 -61.5t-48 -96.5z" />
    <glyph glyph-name="ncaron" unicode="&#x148;" 
d="M333 80v280q0 50 -11 65t-36 15q-50 0 -83 -30v-330q0 -24 15 -45t38 -31v-4h-246v4q23 10 38 31t15 45v338q0 24 -15.5 46.5t-37.5 31.5v4q99 2 193 15v-65h2q28 23 74 41.5t86 18.5q56 0 82 -24t26 -76v-330q0 -24 15 -45t38 -31v-4h-100q-43 0 -68 24t-25 56zM312 555
h-106q-15 51 -48 96.5t-68 61.5v2q77 -3 168 -91h2q88 88 168 91v-2q-35 -16 -68 -61.5t-48 -96.5z" />
    <glyph glyph-name="Omacron" unicode="&#x14c;" horiz-adv-x="720" 
d="M370 -15q-152 0 -251 93.5t-99 271.5q0 86 27.5 156.5t74 115.5t105 69t123.5 24q152 0 251 -93.5t99 -271.5q0 -86 -27.5 -156.5t-74 -115.5t-105 -69t-123.5 -24zM335 675q-68 0 -109 -71t-41 -214q0 -94 26.5 -178t72.5 -135.5t101 -51.5q67 0 108.5 71t41.5 214
q0 98 -21.5 179t-68 133.5t-110.5 52.5zM515 765h-320v60h320v-60z" />
    <glyph glyph-name="omacron" unicode="&#x14d;" horiz-adv-x="516" 
d="M265 -10q-106 0 -175.5 66.5t-69.5 193.5q0 121 68 190.5t163 69.5q106 0 175.5 -66.5t69.5 -193.5q0 -121 -68 -190.5t-163 -69.5zM236 480q-72 0 -72 -201q0 -107 37 -183t81 -76q38 0 55 47t17 154q0 109 -32.5 184t-85.5 75zM406 600h-296v60h296v-60z" />
    <glyph glyph-name="Ohungarumlaut" unicode="&#x150;" horiz-adv-x="720" 
d="M370 -15q-152 0 -251 93.5t-99 271.5q0 86 27.5 156.5t74 115.5t105 69t123.5 24q152 0 251 -93.5t99 -271.5q0 -86 -27.5 -156.5t-74 -115.5t-105 -69t-123.5 -24zM335 675q-68 0 -109 -71t-41 -214q0 -94 26.5 -178t72.5 -135.5t101 -51.5q67 0 108.5 71t41.5 214
q0 98 -21.5 179t-68 133.5t-110.5 52.5zM412 895q-16 -41 -85.5 -99.5t-136.5 -60.5v2q35 16 68 61.5t48 96.5h106zM572 895q-16 -41 -85.5 -99.5t-136.5 -60.5v2q35 16 68 61.5t48 96.5h106z" />
    <glyph glyph-name="ohungarumlaut" unicode="&#x151;" horiz-adv-x="516" 
d="M265 -10q-106 0 -175.5 66.5t-69.5 193.5q0 121 68 190.5t163 69.5q106 0 175.5 -66.5t69.5 -193.5q0 -121 -68 -190.5t-163 -69.5zM236 480q-72 0 -72 -201q0 -107 37 -183t81 -76q38 0 55 47t17 154q0 109 -32.5 184t-85.5 75zM302 700q-16 -41 -85.5 -99.5
t-136.5 -60.5v2q35 16 68 61.5t48 96.5h106zM462 700q-16 -41 -85.5 -99.5t-136.5 -60.5v2q35 16 68 61.5t48 96.5h106z" />
    <glyph glyph-name="OE" unicode="&#x152;" horiz-adv-x="865" 
d="M851 180h4l-23 -180h-442q-74 0 -138.5 20t-117.5 61t-83.5 110t-30.5 159q0 85 30.5 154t81 110.5t112 63.5t126.5 22h445l20 -180h-4q-25 75 -60 107.5t-92 32.5h-124v-270h46q74 0 106 93h4v-221h-4q-30 88 -106 88h-46v-310h128q108 0 168 140zM355 660
q-72 0 -121 -65.5t-49 -204.5q0 -131 66 -240.5t135 -109.5q19 0 19 40v538q0 42 -50 42z" />
    <glyph glyph-name="oe" unicode="&#x153;" horiz-adv-x="793" 
d="M624 30q40 0 79 34t63 86h4l-20 -130q-57 -30 -146 -30q-111 0 -179 68h-2q-70 -68 -158 -68q-106 0 -175.5 66.5t-69.5 193.5q0 121 68 190.5t163 69.5q105 0 174 -69h2q69 69 163 69q71 0 127 -56.5t56 -163.5v-20h-275q1 -121 35 -180.5t91 -59.5zM236 480
q-72 0 -72 -201q0 -107 37 -183t81 -76q38 0 55 47t17 154q0 109 -32.5 184t-85.5 75zM568 480q-26 0 -40.5 -19.5t-20 -53t-9.5 -97.5h144q-9 89 -25.5 129.5t-48.5 40.5z" />
    <glyph glyph-name="Racute" unicode="&#x154;" horiz-adv-x="685" 
d="M566 520q0 -73 -39.5 -127.5t-114.5 -73.5l183 -246q40 -53 90 -69v-4q-40 -10 -115 -10q-106 0 -164 82l-166 238h-7v-230q0 -22 23 -43t50 -33v-4h-296v4q27 12 50 33t23 43v538q0 22 -24 44.5t-49 33.5v4h327q99 0 164 -50.5t65 -129.5zM263 660h-30v-310h60
q63 0 95.5 43t32.5 107q0 60 -48 110t-110 50zM427 895q-16 -41 -85.5 -99.5t-136.5 -60.5v2q35 16 68 61.5t48 96.5h106z" />
    <glyph glyph-name="racute" unicode="&#x155;" horiz-adv-x="433" 
d="M433 390l-120 -40q-23 69 -32 80q-9 10 -25 10q-28 0 -53 -34v-326q0 -24 15 -45t38 -31v-4h-246v4q23 10 38 31t15 45v338q0 24 -15.5 46.5t-37.5 31.5v4q97 2 193 15v-69h2q62 64 130 64q36 0 58 -28.5t40 -91.5zM334 700q-16 -41 -85.5 -99.5t-136.5 -60.5v2
q35 16 68 61.5t48 96.5h106z" />
    <glyph glyph-name="Rcommaaccent" unicode="&#x156;" horiz-adv-x="685" 
d="M566 520q0 -73 -39.5 -127.5t-114.5 -73.5l183 -246q40 -53 90 -69v-4q-40 -10 -115 -10q-106 0 -164 82l-166 238h-7v-230q0 -22 23 -43t50 -33v-4h-296v4q27 12 50 33t23 43v538q0 22 -24 44.5t-49 33.5v4h327q99 0 164 -50.5t65 -129.5zM263 660h-30v-310h60
q63 0 95.5 43t32.5 107q0 60 -48 110t-110 50zM380 -55q17 -20 17 -47q0 -40 -33.5 -69.5t-83.5 -38.5v2q43 41 43 89q0 21 -14 37z" />
    <glyph glyph-name="rcommaaccent" unicode="&#x157;" horiz-adv-x="433" 
d="M433 390l-120 -40q-23 69 -32 80q-9 10 -25 10q-28 0 -53 -34v-326q0 -24 15 -45t38 -31v-4h-246v4q23 10 38 31t15 45v338q0 24 -15.5 46.5t-37.5 31.5v4q97 2 193 15v-69h2q62 64 130 64q36 0 58 -28.5t40 -91.5zM170 -55q17 -20 17 -47q0 -40 -33.5 -69.5t-83.5 -38.5
v2q43 41 43 89q0 21 -14 37z" />
    <glyph glyph-name="Rcaron" unicode="&#x158;" horiz-adv-x="685" 
d="M566 520q0 -73 -39.5 -127.5t-114.5 -73.5l183 -246q40 -53 90 -69v-4q-40 -10 -115 -10q-106 0 -164 82l-166 238h-7v-230q0 -22 23 -43t50 -33v-4h-296v4q27 12 50 33t23 43v538q0 22 -24 44.5t-49 33.5v4h327q99 0 164 -50.5t65 -129.5zM263 660h-30v-310h60
q63 0 95.5 43t32.5 107q0 60 -48 110t-110 50zM342 745h-106q-15 51 -48 96.5t-68 61.5v2q77 -3 168 -91h2q88 88 168 91v-2q-35 -16 -68 -61.5t-48 -96.5z" />
    <glyph glyph-name="rcaron" unicode="&#x159;" horiz-adv-x="433" 
d="M433 390l-120 -40q-23 69 -32 80q-9 10 -25 10q-28 0 -53 -34v-326q0 -24 15 -45t38 -31v-4h-246v4q23 10 38 31t15 45v338q0 24 -15.5 46.5t-37.5 31.5v4q97 2 193 15v-69h2q62 64 130 64q36 0 58 -28.5t40 -91.5zM256 555h-106q-15 51 -48 96.5t-68 61.5v2
q77 -3 168 -91h2q88 88 168 91v-2q-35 -16 -68 -61.5t-48 -96.5z" />
    <glyph glyph-name="Sacute" unicode="&#x15a;" horiz-adv-x="553" 
d="M268 -15q-141 0 -228 52l-20 183h4q41 -95 103.5 -145t130.5 -50q128 0 128 108q0 17 -5 31.5t-11 25.5t-20.5 22t-24 17.5t-31.5 16t-32.5 13.5t-37 13.5t-36.5 13.5q-154 57 -154 224q0 36 15.5 71t45 65.5t80 49.5t113.5 19q113 0 195 -42l20 -183h-4
q-41 92 -92.5 138.5t-128.5 46.5q-60 0 -93 -30t-33 -78q0 -22 8.5 -41t17.5 -30.5t32 -25t33.5 -18t41.5 -16.5t38 -15q45 -18 77 -34.5t65 -43t50.5 -62.5t17.5 -81q0 -95 -71 -155t-194 -60zM413 895q-16 -41 -85.5 -99.5t-136.5 -60.5v2q35 16 68 61.5t48 96.5h106z" />
    <glyph glyph-name="sacute" unicode="&#x15b;" horiz-adv-x="422" 
d="M200 -10q-88 0 -160 37l-20 133h4q32 -59 78 -94.5t90 -35.5q46 0 72 18t26 47q0 37 -28.5 55.5t-124.5 54.5q-104 39 -104 155q0 68 48 109t136 41q69 0 134 -30l20 -130h-4q-29 55 -71.5 87.5t-85.5 32.5q-40 0 -63.5 -17.5t-23.5 -43.5q0 -30 21.5 -43.5t99.5 -40.5
q15 -5 23 -8q71 -25 103 -67t32 -110q0 -67 -54 -108.5t-148 -41.5zM352 700q-16 -41 -85.5 -99.5t-136.5 -60.5v2q35 16 68 61.5t48 96.5h106z" />
    <glyph glyph-name="Scedilla" unicode="&#x15e;" horiz-adv-x="553" 
d="M161 -181v4q118 6 118 57q0 35 -68 45v2l46 58q-134 2 -217 52l-20 183h4q41 -95 103.5 -145t130.5 -50q128 0 128 108q0 17 -5 31.5t-11 25.5t-20.5 22t-24 17.5t-31.5 16t-32.5 13.5t-37 13.5t-36.5 13.5q-154 57 -154 224q0 36 15.5 71t45 65.5t80 49.5t113.5 19
q113 0 195 -42l20 -183h-4q-41 92 -92.5 138.5t-128.5 46.5q-60 0 -93 -30t-33 -78q0 -22 8.5 -41t17.5 -30.5t32 -25t33.5 -18t41.5 -16.5t38 -15q45 -18 77 -34.5t65 -43t50.5 -62.5t17.5 -81q0 -89 -62.5 -147.5t-172.5 -66.5l-24 -31q37 -7 59.5 -28.5t22.5 -46.5
q0 -31 -27.5 -55.5t-76.5 -24.5q-64 0 -91 19z" />
    <glyph glyph-name="scedilla" unicode="&#x15f;" horiz-adv-x="422" 
d="M90 -181v4q118 6 118 57q0 35 -68 45v2l50 63q-83 3 -150 37l-20 133h4q32 -59 78 -94.5t90 -35.5q46 0 72 18t26 47q0 37 -28.5 55.5t-124.5 54.5q-104 39 -104 155q0 68 48 109t136 41q69 0 134 -30l20 -130h-4q-29 55 -71.5 87.5t-85.5 32.5q-40 0 -63.5 -17.5
t-23.5 -43.5q0 -30 21.5 -43.5t99.5 -40.5q15 -5 23 -8q71 -25 103 -67t32 -110q0 -62 -45 -101.5t-126 -46.5l-28 -37q37 -7 59.5 -28.5t22.5 -46.5q0 -31 -27.5 -55.5t-76.5 -24.5q-64 0 -91 19z" />
    <glyph glyph-name="Scaron" unicode="&#x160;" horiz-adv-x="553" 
d="M339 745h-106q-15 51 -48 96.5t-68 61.5v2q77 -3 168 -91h2q88 88 168 91v-2q-35 -16 -68 -61.5t-48 -96.5zM268 -15q-141 0 -228 52l-20 183h4q41 -95 103.5 -145t130.5 -50q128 0 128 108q0 17 -5 31.5t-11 25.5t-20.5 22t-24 17.5t-31.5 16t-32.5 13.5t-37 13.5
t-36.5 13.5q-154 57 -154 224q0 36 15.5 71t45 65.5t80 49.5t113.5 19q113 0 195 -42l20 -183h-4q-41 92 -92.5 138.5t-128.5 46.5q-60 0 -93 -30t-33 -78q0 -22 8.5 -41t17.5 -30.5t32 -25t33.5 -18t41.5 -16.5t38 -15q45 -18 77 -34.5t65 -43t50.5 -62.5t17.5 -81
q0 -95 -71 -155t-194 -60z" />
    <glyph glyph-name="scaron" unicode="&#x161;" horiz-adv-x="422" 
d="M200 -10q-88 0 -160 37l-20 133h4q32 -59 78 -94.5t90 -35.5q46 0 72 18t26 47q0 37 -28.5 55.5t-124.5 54.5q-104 39 -104 155q0 68 48 109t136 41q69 0 134 -30l20 -130h-4q-29 55 -71.5 87.5t-85.5 32.5q-40 0 -63.5 -17.5t-23.5 -43.5q0 -30 21.5 -43.5t99.5 -40.5
q15 -5 23 -8q71 -25 103 -67t32 -110q0 -67 -54 -108.5t-148 -41.5zM264 555h-106q-15 51 -48 96.5t-68 61.5v2q77 -3 168 -91h2q88 88 168 91v-2q-35 -16 -68 -61.5t-48 -96.5z" />
    <glyph glyph-name="Tcedilla" unicode="&#x162;" horiz-adv-x="630" 
d="M156 660q-57 0 -92 -33t-60 -108h-4l20 181h590l20 -181h-4q-25 75 -60 108t-92 33h-84v-580q0 -22 23 -43t50 -33v-4h-124l-35 -45q37 -7 59.5 -28.5t22.5 -46.5q0 -31 -27.5 -55.5t-76.5 -24.5q-64 0 -91 19v4q118 6 118 57q0 35 -68 45v2l58 73h-132v4q27 12 50 33
t23 43v580h-84z" />
    <glyph glyph-name="tcedilla" unicode="&#x163;" horiz-adv-x="337" 
d="M64 -181v4q118 6 118 57q0 35 -68 45v2l58 73q-102 32 -102 180v280h-60v40h8q51 0 102.5 47t81.5 113h8v-160h90v-40h-90v-280q0 -92 26 -127t101 -49v-4q-48 -10 -95 -10q-20 0 -36 3l-29 -38q37 -7 59.5 -28.5t22.5 -46.5q0 -31 -27.5 -55.5t-76.5 -24.5q-64 0 -91 19
z" />
    <glyph glyph-name="Tcaron" unicode="&#x164;" horiz-adv-x="630" 
d="M20 700h590l20 -181h-4q-25 75 -60 108t-92 33h-84v-580q0 -22 23 -43t50 -33v-4h-296v4q27 12 50 33t23 43v580h-84q-57 0 -92 -33t-60 -108h-4zM368 745h-106q-15 51 -48 96.5t-68 61.5v2q77 -3 168 -91h2q88 88 168 91v-2q-35 -16 -68 -61.5t-48 -96.5z" />
    <glyph glyph-name="tcaron" unicode="&#x165;" horiz-adv-x="337" 
d="M210 460v-280q0 -92 26 -127t101 -49v-4q-48 -10 -95 -10q-172 0 -172 190v280h-60v40h8q51 0 102.5 47t81.5 113h8v-160h90v-40h-90zM330 715q17 -20 17 -47q0 -40 -33.5 -69.5t-83.5 -38.5v2q43 41 43 89q0 21 -14 37z" />
    <glyph glyph-name="Umacron" unicode="&#x16a;" horiz-adv-x="674" 
d="M591 618v-386q0 -118 -49 -182.5t-172 -64.5q-287 0 -287 248v385q0 22 -24 44.5t-49 33.5v4h296v-4q-27 -12 -50 -33.5t-23 -44.5v-421q0 -78 41 -125t111 -47q82 0 121.5 51t39.5 141v401q0 22 -24 44.5t-49 33.5v4h191v-4q-27 -12 -50 -33.5t-23 -44.5zM540 765h-320
v60h320v-60z" />
    <glyph glyph-name="umacron" unicode="&#x16b;" 
d="M338 50h-2q-27 -22 -76 -41t-89 -19q-56 0 -82 24t-26 76v330q0 24 -15 45t-38 31v4q97 2 193 15v-375q0 -50 11 -65t36 -15q50 0 83 30v330q0 24 -15 45t-38 31v4q97 2 193 15v-435q0 -24 15 -45t38 -31v-4h-100q-70 0 -88 50zM406 600h-296v60h296v-60z" />
    <glyph glyph-name="Uring" unicode="&#x16e;" horiz-adv-x="674" 
d="M591 618v-386q0 -118 -49 -182.5t-172 -64.5q-287 0 -287 248v385q0 22 -24 44.5t-49 33.5v4h296v-4q-27 -12 -50 -33.5t-23 -44.5v-421q0 -78 41 -125t111 -47q82 0 121.5 51t39.5 141v401q0 22 -24 44.5t-49 33.5v4h191v-4q-27 -12 -50 -33.5t-23 -44.5zM300 815
q0 37 26 63.5t64 26.5t64 -26.5t26 -63.5t-26 -63.5t-64 -26.5t-64 26.5t-26 63.5zM340 815q0 -21 14.5 -35.5t35.5 -14.5t35.5 14.5t14.5 35.5t-14.5 35.5t-35.5 14.5t-35.5 -14.5t-14.5 -35.5z" />
    <glyph glyph-name="uring" unicode="&#x16f;" 
d="M338 50h-2q-27 -22 -76 -41t-89 -19q-56 0 -82 24t-26 76v330q0 24 -15 45t-38 31v4q97 2 193 15v-375q0 -50 11 -65t36 -15q50 0 83 30v330q0 24 -15 45t-38 31v4q97 2 193 15v-435q0 -24 15 -45t38 -31v-4h-100q-70 0 -88 50zM170 635q0 37 26 63.5t64 26.5t64 -26.5
t26 -63.5t-26 -63.5t-64 -26.5t-64 26.5t-26 63.5zM210 635q0 -21 14.5 -35.5t35.5 -14.5t35.5 14.5t14.5 35.5t-14.5 35.5t-35.5 14.5t-35.5 -14.5t-14.5 -35.5z" />
    <glyph glyph-name="Uhungarumlaut" unicode="&#x170;" horiz-adv-x="674" 
d="M591 618v-386q0 -118 -49 -182.5t-172 -64.5q-287 0 -287 248v385q0 22 -24 44.5t-49 33.5v4h296v-4q-27 -12 -50 -33.5t-23 -44.5v-421q0 -78 41 -125t111 -47q82 0 121.5 51t39.5 141v401q0 22 -24 44.5t-49 33.5v4h191v-4q-27 -12 -50 -33.5t-23 -44.5zM432 895
q-16 -41 -85.5 -99.5t-136.5 -60.5v2q35 16 68 61.5t48 96.5h106zM592 895q-16 -41 -85.5 -99.5t-136.5 -60.5v2q35 16 68 61.5t48 96.5h106z" />
    <glyph glyph-name="uhungarumlaut" unicode="&#x171;" 
d="M338 50h-2q-27 -22 -76 -41t-89 -19q-56 0 -82 24t-26 76v330q0 24 -15 45t-38 31v4q97 2 193 15v-375q0 -50 11 -65t36 -15q50 0 83 30v330q0 24 -15 45t-38 31v4q97 2 193 15v-435q0 -24 15 -45t38 -31v-4h-100q-70 0 -88 50zM312 700q-16 -41 -85.5 -99.5
t-136.5 -60.5v2q35 16 68 61.5t48 96.5h106zM472 700q-16 -41 -85.5 -99.5t-136.5 -60.5v2q35 16 68 61.5t48 96.5h106z" />
    <glyph glyph-name="Uogonek" unicode="&#x172;" horiz-adv-x="674" 
d="M489 -177v-4q-27 -19 -91 -19q-49 0 -76.5 24.5t-27.5 55.5q0 64 76 105q-287 0 -287 248v385q0 22 -24 44.5t-49 33.5v4h296v-4q-27 -12 -50 -33.5t-23 -44.5v-421q0 -78 41 -125t111 -47q82 0 121.5 51t39.5 141v401q0 22 -24 44.5t-49 33.5v4h191v-4
q-27 -12 -50 -33.5t-23 -44.5v-386q0 -50 -8 -89t-26 -72t-51.5 -54t-80.5 -28q-54 -43 -54 -99q0 -30 26.5 -46.5t91.5 -20.5z" />
    <glyph glyph-name="uogonek" unicode="&#x173;" 
d="M426 0q-70 0 -88 50h-2q-27 -22 -76 -41t-89 -19q-56 0 -82 24t-26 76v330q0 24 -15 45t-38 31v4q97 2 193 15v-375q0 -50 11 -65t36 -15q50 0 83 30v330q0 24 -15 45t-38 31v4q97 2 193 15v-435q0 -24 15 -45t38 -31v-4h-48q-30 -18 -50 -48t-20 -62q0 -30 26.5 -46.5
t91.5 -20.5v-4q-27 -19 -91 -19q-49 0 -76.5 24.5t-27.5 55.5q0 74 107 120h-12z" />
    <glyph glyph-name="Ydieresis" unicode="&#x178;" horiz-adv-x="637" 
d="M180 813q0 29 20 48.5t48 19.5t48 -19.5t20 -48.5t-20 -48.5t-48 -19.5t-48 19.5t-20 48.5zM380 813q0 29 20 48.5t48 19.5t48 -19.5t20 -48.5t-20 -48.5t-48 -19.5t-48 19.5t-20 48.5zM381 372l138 255q12 20 0.5 40.5t-38.5 28.5v4h156v-4q-42 -25 -68 -69l-173 -317
v-230q0 -22 23 -43t50 -33v-4h-296v4q27 12 50 33t23 43v230l-167 317q-24 44 -79 69v4h280v-4q-26 -12 -35.5 -30t0.5 -39l134 -255h2z" />
    <glyph glyph-name="Zacute" unicode="&#x179;" horiz-adv-x="613" 
d="M212 40h224q57 0 92 33t60 108h4l-20 -181h-552v2l381 658h-189q-57 0 -92 -33t-60 -108h-4l20 181h517v-2zM473 895q-16 -41 -85.5 -99.5t-136.5 -60.5v2q35 16 68 61.5t48 96.5h106z" />
    <glyph glyph-name="zacute" unicode="&#x17a;" horiz-adv-x="460" 
d="M182 40h114q61 0 93.5 24.5t56.5 95.5h4l-18 -160h-422v2l260 456v2h-78q-59 0 -92.5 -28.5t-57.5 -101.5h-4l18 170h387v-2l-261 -456v-2zM382 700q-16 -41 -85.5 -99.5t-136.5 -60.5v2q35 16 68 61.5t48 96.5h106z" />
    <glyph glyph-name="Zdotaccent" unicode="&#x17b;" horiz-adv-x="613" 
d="M212 40h224q57 0 92 33t60 108h4l-20 -181h-552v2l381 658h-189q-57 0 -92 -33t-60 -108h-4l20 181h517v-2zM260 820q0 31 22 53t53 22t53 -22t22 -53t-22 -53t-53 -22t-53 22t-22 53z" />
    <glyph glyph-name="zdotaccent" unicode="&#x17c;" horiz-adv-x="460" 
d="M182 40h114q61 0 93.5 24.5t56.5 95.5h4l-18 -160h-422v2l260 456v2h-78q-59 0 -92.5 -28.5t-57.5 -101.5h-4l18 170h387v-2l-261 -456v-2zM170 640q0 31 22 53t53 22t53 -22t22 -53t-22 -53t-53 -22t-53 22t-22 53z" />
    <glyph glyph-name="Zcaron" unicode="&#x17d;" horiz-adv-x="613" 
d="M380 745h-106q-15 51 -48 96.5t-68 61.5v2q77 -3 168 -91h2q88 88 168 91v-2q-35 -16 -68 -61.5t-48 -96.5zM212 40h224q57 0 92 33t60 108h4l-20 -181h-552v2l381 658h-189q-57 0 -92 -33t-60 -108h-4l20 181h517v-2z" />
    <glyph glyph-name="zcaron" unicode="&#x17e;" horiz-adv-x="460" 
d="M182 40h114q61 0 93.5 24.5t56.5 95.5h4l-18 -160h-422v2l260 456v2h-78q-59 0 -92.5 -28.5t-57.5 -101.5h-4l18 170h387v-2l-261 -456v-2zM293 555h-106q-15 51 -48 96.5t-68 61.5v2q77 -3 168 -91h2q88 88 168 91v-2q-35 -16 -68 -61.5t-48 -96.5z" />
    <glyph glyph-name="Scommaaccent" unicode="&#x218;" horiz-adv-x="553" 
d="M268 -15q-141 0 -228 52l-20 183h4q41 -95 103.5 -145t130.5 -50q128 0 128 108q0 17 -5 31.5t-11 25.5t-20.5 22t-24 17.5t-31.5 16t-32.5 13.5t-37 13.5t-36.5 13.5q-154 57 -154 224q0 36 15.5 71t45 65.5t80 49.5t113.5 19q113 0 195 -42l20 -183h-4
q-41 92 -92.5 138.5t-128.5 46.5q-60 0 -93 -30t-33 -78q0 -22 8.5 -41t17.5 -30.5t32 -25t33.5 -18t41.5 -16.5t38 -15q45 -18 77 -34.5t65 -43t50.5 -62.5t17.5 -81q0 -95 -71 -155t-194 -60zM310 -55q17 -20 17 -47q0 -40 -33.5 -69.5t-83.5 -38.5v2q43 41 43 89
q0 21 -14 37z" />
    <glyph glyph-name="scommaaccent" unicode="&#x219;" horiz-adv-x="422" 
d="M200 -10q-88 0 -160 37l-20 133h4q32 -59 78 -94.5t90 -35.5q46 0 72 18t26 47q0 37 -28.5 55.5t-124.5 54.5q-104 39 -104 155q0 68 48 109t136 41q69 0 134 -30l20 -130h-4q-29 55 -71.5 87.5t-85.5 32.5q-40 0 -63.5 -17.5t-23.5 -43.5q0 -30 21.5 -43.5t99.5 -40.5
q15 -5 23 -8q71 -25 103 -67t32 -110q0 -67 -54 -108.5t-148 -41.5zM240 -55q17 -20 17 -47q0 -40 -33.5 -69.5t-83.5 -38.5v2q43 41 43 89q0 21 -14 37z" />
    <glyph glyph-name="uni021A" unicode="&#x21a;" horiz-adv-x="630" 
d="M20 700h590l20 -181h-4q-25 75 -60 108t-92 33h-84v-580q0 -22 23 -43t50 -33v-4h-296v4q27 12 50 33t23 43v580h-84q-57 0 -92 -33t-60 -108h-4zM350 -55q17 -20 17 -47q0 -40 -33.5 -69.5t-83.5 -38.5v2q43 41 43 89q0 21 -14 37z" />
    <glyph glyph-name="uni021B" unicode="&#x21b;" horiz-adv-x="337" 
d="M210 460v-280q0 -92 26 -127t101 -49v-4q-48 -10 -95 -10q-172 0 -172 190v280h-60v40h8q51 0 102.5 47t81.5 113h8v-160h90v-40h-90zM210 -55q17 -20 17 -47q0 -40 -33.5 -69.5t-83.5 -38.5v2q43 41 43 89q0 21 -14 37z" />
    <glyph glyph-name="circumflex" unicode="&#x2c6;" horiz-adv-x="398" 
d="M146 700h106q15 -51 48 -96.5t68 -61.5v-2q-80 3 -168 91h-2q-91 -88 -168 -91v2q35 16 68 61.5t48 96.5z" />
    <glyph glyph-name="caron" unicode="&#x2c7;" horiz-adv-x="398" 
d="M252 555h-106q-15 51 -48 96.5t-68 61.5v2q77 -3 168 -91h2q88 88 168 91v-2q-35 -16 -68 -61.5t-48 -96.5z" />
    <glyph glyph-name="breve" unicode="&#x2d8;" horiz-adv-x="352" 
d="M30 715h4q37 -80 142 -80q97 0 142 80h4q-22 -150 -146 -150q-125 0 -146 150z" />
    <glyph glyph-name="dotaccent" unicode="&#x2d9;" horiz-adv-x="210" 
d="M30 640q0 31 22 53t53 22t53 -22t22 -53t-22 -53t-53 -22t-53 22t-22 53z" />
    <glyph glyph-name="ring" unicode="&#x2da;" horiz-adv-x="240" 
d="M30 635q0 37 26 63.5t64 26.5t64 -26.5t26 -63.5t-26 -63.5t-64 -26.5t-64 26.5t-26 63.5zM70 635q0 -21 14.5 -35.5t35.5 -14.5t35.5 14.5t14.5 35.5t-14.5 35.5t-35.5 14.5t-35.5 -14.5t-14.5 -35.5z" />
    <glyph glyph-name="ogonek" unicode="&#x2db;" horiz-adv-x="255" 
d="M225 -177v-4q-27 -19 -91 -19q-49 0 -76.5 24.5t-27.5 55.5q0 74 107 120h40q-30 -18 -50 -48t-20 -62q0 -30 26.5 -46.5t91.5 -20.5z" />
    <glyph glyph-name="tilde" unicode="&#x2dc;" horiz-adv-x="372" 
d="M334 700h8q-7 -130 -100 -130q-34 0 -83 22t-64 22q-47 0 -57 -54h-8q6 72 31 101t69 29q32 0 82 -23t68 -23q39 0 54 56z" />
    <glyph glyph-name="hungarumlaut" unicode="&#x2dd;" horiz-adv-x="442" 
d="M252 700q-16 -41 -85.5 -99.5t-136.5 -60.5v2q35 16 68 61.5t48 96.5h106zM412 700q-16 -41 -85.5 -99.5t-136.5 -60.5v2q35 16 68 61.5t48 96.5h106z" />
    <glyph glyph-name="uni0400" unicode="&#x400;" horiz-adv-x="563" 
d="M549 180h4l-23 -180h-520v4q27 12 50 33t23 43v538q0 22 -24 44.5t-49 33.5v4h503l20 -180h-4q-25 75 -60 107.5t-92 32.5h-144v-270h66q74 0 106 93h4v-221h-4q-30 88 -106 88h-66v-310h148q108 0 168 140zM154 895h106q15 -51 48 -96.5t68 -61.5v-2q-67 2 -136.5 60.5
t-85.5 99.5z" />
    <glyph glyph-name="afii10023" unicode="&#x401;" horiz-adv-x="563" 
d="M549 180h4l-23 -180h-520v4q27 12 50 33t23 43v538q0 22 -24 44.5t-49 33.5v4h503l20 -180h-4q-25 75 -60 107.5t-92 32.5h-144v-270h66q74 0 106 93h4v-221h-4q-30 88 -106 88h-66v-310h148q108 0 168 140zM130 813q0 29 20 48.5t48 19.5t48 -19.5t20 -48.5t-20 -48.5
t-48 -19.5t-48 19.5t-20 48.5zM330 813q0 29 20 48.5t48 19.5t48 -19.5t20 -48.5t-20 -48.5t-48 -19.5t-48 19.5t-20 48.5z" />
    <glyph glyph-name="afii10051" unicode="&#x402;" horiz-adv-x="793" 
d="M567 500q99 0 152.5 -61t53.5 -149q0 -46 -13 -89t-41.5 -84t-81 -72t-123.5 -45v4q53 26 80 95t27 161q0 78 -40.5 124t-97.5 46q-50 0 -93 -40v-310q0 -22 23 -43t50 -33v-4h-296v4q27 12 50 33t23 43v580h-84q-57 0 -92 -33t-60 -108h-4l20 181h590l20 -181h-4
q-25 75 -60 108t-92 33h-84v-230h2q31 25 80.5 47.5t94.5 22.5z" />
    <glyph glyph-name="afii10052" unicode="&#x403;" horiz-adv-x="553" 
d="M412 895q-16 -41 -85.5 -99.5t-136.5 -60.5v2q35 16 68 61.5t48 96.5h106zM306 0h-296v4q27 12 50 33t23 43v538q0 22 -24 44.5t-49 33.5v4h523l20 -180h-4q-25 75 -60 107.5t-92 32.5h-164v-580q0 -22 23 -43t50 -33v-4z" />
    <glyph glyph-name="afii10053" unicode="&#x404;" horiz-adv-x="638" 
d="M410 25q121 0 204 195h4l-20 -183q-79 -52 -208 -52q-73 0 -138.5 22.5t-117.5 66t-83 115t-31 161.5q0 86 30.5 156.5t81 115t112 69t126.5 24.5q123 0 205 -42l20 -183h-4q-83 185 -231 185q-79 0 -127 -70.5t-48 -214.5h245v-40h-244q8 -146 68 -235.5t156 -89.5z" />
    <glyph glyph-name="afii10054" unicode="&#x405;" horiz-adv-x="553" 
d="M268 -15q-141 0 -228 52l-20 183h4q41 -95 103.5 -145t130.5 -50q128 0 128 108q0 17 -5 31.5t-11 25.5t-20.5 22t-24 17.5t-31.5 16t-32.5 13.5t-37 13.5t-36.5 13.5q-154 57 -154 224q0 36 15.5 71t45 65.5t80 49.5t113.5 19q113 0 195 -42l20 -183h-4
q-41 92 -92.5 138.5t-128.5 46.5q-60 0 -93 -30t-33 -78q0 -22 8.5 -41t17.5 -30.5t32 -25t33.5 -18t41.5 -16.5t38 -15q45 -18 77 -34.5t65 -43t50.5 -62.5t17.5 -81q0 -95 -71 -155t-194 -60z" />
    <glyph glyph-name="afii10055" unicode="&#x406;" horiz-adv-x="336" 
d="M243 618v-538q0 -22 23 -43t50 -33v-4h-296v4q27 12 50 33t23 43v538q0 22 -24 44.5t-49 33.5v4h296v-4q-27 -12 -50 -33.5t-23 -44.5z" />
    <glyph glyph-name="afii10056" unicode="&#x407;" horiz-adv-x="336" 
d="M243 618v-538q0 -22 23 -43t50 -33v-4h-296v4q27 12 50 33t23 43v538q0 22 -24 44.5t-49 33.5v4h296v-4q-27 -12 -50 -33.5t-23 -44.5zM0 813q0 29 20 48.5t48 19.5t48 -19.5t20 -48.5t-20 -48.5t-48 -19.5t-48 19.5t-20 48.5zM200 813q0 29 20 48.5t48 19.5t48 -19.5
t20 -48.5t-20 -48.5t-48 -19.5t-48 19.5t-20 48.5z" />
    <glyph glyph-name="afii10057" unicode="&#x408;" horiz-adv-x="471" 
d="M388 618v-469q0 -72 -66.5 -118t-143.5 -46q-89 0 -168 52l-20 183h4q40 -93 88.5 -144t85.5 -51q36 0 53 19.5t17 66.5v507q0 22 -24 44.5t-49 33.5v4h296v-4q-27 -12 -50 -33.5t-23 -44.5z" />
    <glyph glyph-name="afii10058" unicode="&#x409;" horiz-adv-x="944" 
d="M93 180v438q0 22 -24 44.5t-49 33.5v4h654v-4q-27 -12 -50 -33.5t-23 -44.5v-228h94q110 0 169.5 -59.5t59.5 -150.5q0 -79 -65 -129.5t-164 -50.5h-317v4q27 12 50 33t23 43v580h-208v-480q0 -100 -49 -145t-133 -45q-47 0 -95 10v4q75 14 101 49t26 127zM621 350h-20
v-310h50q63 0 95.5 43t32.5 107q0 60 -48 110t-110 50z" />
    <glyph glyph-name="afii10059" unicode="&#x40a;" horiz-adv-x="934" 
d="M591 618v-228h94q110 0 169.5 -59.5t59.5 -150.5q0 -79 -65 -129.5t-164 -50.5h-317v4q27 12 50 33t23 43v270h-208v-270q0 -22 23 -43t50 -33v-4h-296v4q27 12 50 33t23 43v538q0 22 -24 44.5t-49 33.5v4h296v-4q-27 -12 -50 -33.5t-23 -44.5v-228h208v230
q-1 21 -24.5 43t-48.5 33v4h296v-4q-27 -12 -49.5 -32.5t-23.5 -43.5v-2zM611 350h-20v-310h50q63 0 95.5 43t32.5 107q0 60 -48 110t-110 50z" />
    <glyph glyph-name="afii10060" unicode="&#x40b;" horiz-adv-x="793" 
d="M20 700h590l20 -181h-4q-25 75 -60 108t-92 33h-84v-230h2q27 22 91 46t104 24q61 0 102 -25.5t41 -74.5v-320q0 -24 15 -45t38 -31v-4h-105q-43 0 -70.5 24t-27.5 56v270q0 80 -77 80q-19 0 -57.5 -12t-55.5 -28v-310q0 -22 23 -43t50 -33v-4h-296v4q27 12 50 33t23 43
v580h-84q-57 0 -92 -33t-60 -108h-4z" />
    <glyph glyph-name="afii10061" unicode="&#x40c;" horiz-adv-x="718" 
d="M532 895q-16 -41 -85.5 -99.5t-136.5 -60.5v2q35 16 68 61.5t48 96.5h106zM347 442l281 -369q40 -53 90 -69v-4q-40 -10 -115 -10q-100 0 -164 82l-204 278h-2v-270q0 -22 23 -43t50 -33v-4h-296v4q27 12 50 33t23 43v538q0 22 -24 44.5t-49 33.5v4h296v-4
q-27 -12 -50 -33.5t-23 -44.5v-228h2l238 202q32 26 32 48q0 35 -67 56v4h246v-4q-55 -15 -108 -60z" />
    <glyph glyph-name="uni040D" unicode="&#x40d;" horiz-adv-x="724" 
d="M225 895h106q15 -51 48 -96.5t68 -61.5v-2q-67 2 -136.5 60.5t-85.5 99.5zM641 618v-538q0 -22 23 -43t50 -33v-4h-296v4q27 12 50 33t23 43v438h-2l-256 -428v-10q0 -22 23 -43t50 -33v-4h-296v4q27 12 50 33t23 43v538q0 22 -24 44.5t-49 33.5v4h296v-4
q-27 -12 -50 -33.5t-23 -44.5v-438h2l256 428v10q0 22 -24 44.5t-49 33.5v4h296v-4q-27 -12 -50 -33.5t-23 -44.5z" />
    <glyph glyph-name="afii10062" unicode="&#x40e;" horiz-adv-x="617" 
d="M214 895h4q37 -80 142 -80q97 0 142 80h4q-22 -150 -146 -150q-125 0 -146 150zM278 102l19 43l-218 482q-18 41 -79 69v4h280v-4q-55 -27 -36 -68l135 -298h2l133 297q9 21 -5.5 41t-42.5 28v4h151v-4q-32 -12 -58 -69l-282 -627h-137v4q109 34 138 98z" />
    <glyph glyph-name="afii10145" unicode="&#x40f;" horiz-adv-x="724" 
d="M714 696q-27 -12 -50 -33t-23 -43v-538q0 -23 23 -44.5t50 -33.5v-4h-292l-40 -200h-20l-40 200h-312v4q25 11 49 33.5t24 44.5v538q0 22 -23 43t-50 33v4h296v-4q-27 -12 -50 -33t-23 -43v-580h258v580q0 22 -23 43t-50 33v4h296v-4z" />
    <glyph glyph-name="afii10017" unicode="&#x410;" horiz-adv-x="677" 
d="M324 715h8l266 -642q16 -40 79 -69v-4h-280v4q54 26 36 68l-53 128h-224l-53 -127q-9 -21 5.5 -41t42.5 -28v-4h-151v4q35 12 58 69zM363 240l-95 225h-2l-94 -225h191z" />
    <glyph glyph-name="afii10018" unicode="&#x411;" horiz-adv-x="576" 
d="M253 350h-20v-310h50q63 0 95.5 43t32.5 107q0 60 -48 110t-110 50zM10 700h443l20 -181h-4q-25 75 -60 108t-92 33h-84v-270h94q110 0 169.5 -59.5t59.5 -150.5q0 -79 -65 -129.5t-164 -50.5h-317v4q25 11 49 33.5t24 44.5v538q0 22 -23 43t-50 33v4z" />
    <glyph glyph-name="afii10019" unicode="&#x412;" horiz-adv-x="603" 
d="M353 0h-343v4q27 12 50 33t23 43v538q0 22 -24 44.5t-49 33.5v4h317q101 0 160 -41.5t59 -118.5q0 -54 -35.5 -96t-89.5 -64q63 -10 112.5 -62.5t49.5 -117.5q0 -91 -57.5 -145.5t-172.5 -54.5zM263 660h-30v-270h50q64 0 91 33.5t27 96.5q0 57 -42 98.5t-96 41.5z
M273 350h-40v-310h60q70 0 102.5 28.5t32.5 111.5q0 68 -47.5 119t-107.5 51z" />
    <glyph glyph-name="afii10020" unicode="&#x413;" horiz-adv-x="553" 
d="M306 0h-296v4q27 12 50 33t23 43v538q0 22 -24 44.5t-49 33.5v4h523l20 -180h-4q-25 75 -60 107.5t-92 32.5h-164v-580q0 -22 23 -43t50 -33v-4z" />
    <glyph glyph-name="afii10021" unicode="&#x414;" horiz-adv-x="674" 
d="M70 -200h-20l-40 200v4q43 18 73 76q150 285 150 540q0 45 -73 76v4h504v-4q-27 -12 -50 -33t-23 -43v-540q0 -23 23 -44t50 -32v-4l-40 -200h-20l-40 200h-454zM112 40h329v620h-158q0 -184 -45.5 -329.5t-125.5 -290.5z" />
    <glyph glyph-name="afii10022" unicode="&#x415;" horiz-adv-x="563" 
d="M549 180h4l-23 -180h-520v4q27 12 50 33t23 43v538q0 22 -24 44.5t-49 33.5v4h503l20 -180h-4q-25 75 -60 107.5t-92 32.5h-144v-270h66q74 0 106 93h4v-221h-4q-30 88 -106 88h-66v-310h148q108 0 168 140z" />
    <glyph glyph-name="afii10024" unicode="&#x416;" horiz-adv-x="1060" 
d="M455 350l-22 20l-154 -298q-21 -41 -51.5 -61.5t-82.5 -20.5q-105 0 -145 10v4q61 19 90 69l233 397l-181 166q-48 44 -108 60v4h246v-4q-67 -21 -67 -56q0 -18 32 -48l208 -202h2v228q0 22 -24 44.5t-49 33.5v4h296v-4q-27 -12 -50 -33.5t-23 -44.5v-228h2l208 202
q32 30 32 48q0 35 -67 56v4h246v-4q-60 -16 -108 -60l-181 -166l233 -397q29 -50 90 -69v-4q-40 -10 -145 -10q-52 0 -82.5 20.5t-51.5 61.5l-154 298l-22 -20v-270q0 -22 23 -43t50 -33v-4h-296v4q27 12 50 33t23 43v270z" />
    <glyph glyph-name="afii10025" unicode="&#x417;" horiz-adv-x="542" 
d="M217 675q-87 0 -170 -185h-4l20 183q82 42 174 42q110 0 176 -50.5t66 -124.5q0 -110 -147 -160v-2q74 -11 132 -63.5t58 -124.5q0 -205 -275 -205q-128 0 -207 52l-20 183h4q83 -195 204 -195q59 0 94 37.5t35 107.5q0 78 -56 129t-127 51h-24v40h24q67 0 108.5 40
t41.5 100q0 145 -107 145z" />
    <glyph glyph-name="afii10026" unicode="&#x418;" horiz-adv-x="724" 
d="M641 618v-538q0 -22 23 -43t50 -33v-4h-296v4q27 12 50 33t23 43v438h-2l-256 -428v-10q0 -22 23 -43t50 -33v-4h-296v4q27 12 50 33t23 43v538q0 22 -24 44.5t-49 33.5v4h296v-4q-27 -12 -50 -33.5t-23 -44.5v-438h2l256 428v10q0 22 -24 44.5t-49 33.5v4h296v-4
q-27 -12 -50 -33.5t-23 -44.5z" />
    <glyph glyph-name="afii10027" unicode="&#x419;" horiz-adv-x="724" 
d="M227 895h4q37 -80 142 -80q97 0 142 80h4q-22 -150 -146 -150q-125 0 -146 150zM641 618v-538q0 -22 23 -43t50 -33v-4h-296v4q27 12 50 33t23 43v438h-2l-256 -428v-10q0 -22 23 -43t50 -33v-4h-296v4q27 12 50 33t23 43v538q0 22 -24 44.5t-49 33.5v4h296v-4
q-27 -12 -50 -33.5t-23 -44.5v-438h2l256 428v10q0 22 -24 44.5t-49 33.5v4h296v-4q-27 -12 -50 -33.5t-23 -44.5z" />
    <glyph glyph-name="afii10028" unicode="&#x41a;" horiz-adv-x="718" 
d="M347 442l281 -369q40 -53 90 -69v-4q-40 -10 -115 -10q-100 0 -164 82l-204 278h-2v-270q0 -22 23 -43t50 -33v-4h-296v4q27 12 50 33t23 43v538q0 22 -24 44.5t-49 33.5v4h296v-4q-27 -12 -50 -33.5t-23 -44.5v-228h2l238 202q32 26 32 48q0 35 -67 56v4h246v-4
q-55 -15 -108 -60z" />
    <glyph glyph-name="afii10029" unicode="&#x41b;" horiz-adv-x="684" 
d="M93 180v438q0 22 -24 44.5t-49 33.5v4h654v-4q-27 -12 -50 -33.5t-23 -44.5v-538q0 -22 23 -43t50 -33v-4h-296v4q27 12 50 33t23 43v580h-208v-480q0 -100 -49 -145t-133 -45q-47 0 -95 10v4q75 14 101 49t26 127z" />
    <glyph glyph-name="afii10030" unicode="&#x41c;" horiz-adv-x="878" 
d="M626 540l-235 -540h-8l-235 540h-2l-18 -460q-1 -22 22.5 -43t50.5 -33v-4h-191v4q27 12 49.5 33t23.5 43l20 538q1 22 -23 44.5t-50 33.5v4h223l196 -456h2l197 456h200v-4q-28 -12 -51 -33.5t-22 -44.5l20 -538q1 -22 23.5 -43t49.5 -33v-4h-296v4q27 12 50.5 33
t22.5 43l-17 460h-2z" />
    <glyph glyph-name="afii10031" unicode="&#x41d;" horiz-adv-x="724" 
d="M641 618v-538q0 -22 23 -43t50 -33v-4h-296v4q27 12 50 33t23 43v270h-258v-270q0 -22 23 -43t50 -33v-4h-296v4q27 12 50 33t23 43v538q0 22 -24 44.5t-49 33.5v4h296v-4q-27 -12 -50 -33.5t-23 -44.5v-228h258v228q0 22 -24 44.5t-49 33.5v4h296v-4q-27 -12 -50 -33.5
t-23 -44.5z" />
    <glyph glyph-name="afii10032" unicode="&#x41e;" horiz-adv-x="720" 
d="M370 -15q-152 0 -251 93.5t-99 271.5q0 86 27.5 156.5t74 115.5t105 69t123.5 24q152 0 251 -93.5t99 -271.5q0 -86 -27.5 -156.5t-74 -115.5t-105 -69t-123.5 -24zM335 675q-68 0 -109 -71t-41 -214q0 -94 26.5 -178t72.5 -135.5t101 -51.5q67 0 108.5 71t41.5 214
q0 98 -21.5 179t-68 133.5t-110.5 52.5z" />
    <glyph glyph-name="afii10033" unicode="&#x41f;" horiz-adv-x="724" 
d="M641 618v-538q0 -22 23 -43t50 -33v-4h-296v4q27 12 50 33t23 43v580h-258v-580q0 -22 23 -43t50 -33v-4h-296v4q27 12 50 33t23 43v538q0 22 -24 44.5t-49 33.5v4h704v-4q-27 -12 -50 -33.5t-23 -44.5z" />
    <glyph glyph-name="afii10034" unicode="&#x420;" horiz-adv-x="566" 
d="M327 310h-94v-230q0 -22 23 -43t50 -33v-4h-296v4q27 12 50 33t23 43v538q0 22 -24 44.5t-49 33.5v4h317q99 0 164 -50.5t65 -129.5q0 -91 -59.5 -150.5t-169.5 -59.5zM253 660h-20v-310h50q63 0 95.5 43t32.5 107q0 60 -48 110t-110 50z" />
    <glyph glyph-name="afii10035" unicode="&#x421;" horiz-adv-x="638" 
d="M410 25q121 0 204 195h4l-20 -183q-79 -52 -208 -52q-73 0 -138.5 22.5t-117.5 66t-83 115t-31 161.5q0 86 30.5 156.5t81 115t112 69t126.5 24.5q123 0 205 -42l20 -183h-4q-83 185 -231 185q-79 0 -127 -70.5t-48 -214.5q0 -162 61 -263.5t164 -101.5z" />
    <glyph glyph-name="afii10036" unicode="&#x422;" horiz-adv-x="630" 
d="M20 700h590l20 -181h-4q-25 75 -60 108t-92 33h-84v-580q0 -22 23 -43t50 -33v-4h-296v4q27 12 50 33t23 43v580h-84q-57 0 -92 -33t-60 -108h-4z" />
    <glyph glyph-name="afii10037" unicode="&#x423;" horiz-adv-x="617" 
d="M278 102l19 43l-218 482q-18 41 -79 69v4h280v-4q-55 -27 -36 -68l135 -298h2l133 297q9 21 -5.5 41t-42.5 28v4h151v-4q-32 -12 -58 -69l-282 -627h-137v4q109 34 138 98z" />
    <glyph glyph-name="afii10038" unicode="&#x424;" horiz-adv-x="756" 
d="M527 160h-74v-80q0 -22 23 -43t50 -33v-4h-296v4q27 12 50 33t23 43v80h-74q-110 0 -164.5 54.5t-54.5 145.5q0 80 61 135t158 55h74v68q0 22 -24 44.5t-49 33.5v4h296v-4q-27 -12 -50 -33.5t-23 -44.5v-68h74q97 0 158 -55t61 -135q0 -91 -54.5 -145.5t-164.5 -54.5z
M303 510h-10q-61 0 -99.5 -46.5t-38.5 -108.5q0 -67 28 -111t90 -44h30v310zM463 510h-10v-310h30q62 0 90 44t28 111q0 62 -38.5 108.5t-99.5 46.5z" />
    <glyph glyph-name="afii10039" unicode="&#x425;" horiz-adv-x="684" 
d="M88 64l180 264l-189 299q-29 46 -79 69v4h279v-4q-26 -13 -36.5 -30.5t0.5 -37.5l126 -200h2l112 164q22 30 22 48q0 38 -57 56v4h203v-4q-32 -9 -50.5 -21t-37.5 -39l-169 -248l200 -315q32 -51 90 -69v-4q-40 -10 -114 -10q-51 0 -83 21t-57 61l-137 217h-2l-123 -181
q-22 -30 -22 -48q0 -38 57 -56v-4h-203v4q32 9 50.5 21t37.5 39z" />
    <glyph glyph-name="afii10040" unicode="&#x426;" horiz-adv-x="734" 
d="M714 696q-27 -12 -50 -33t-23 -43v-538q0 -23 23 -44.5t50 -33.5v-4h10l-40 -200h-20l-40 200h-614v4q25 11 49 33.5t24 44.5v538q0 22 -23 43t-50 33v4h296v-4q-27 -12 -50 -33t-23 -43v-580h258v580q0 22 -23 43t-50 33v4h296v-4z" />
    <glyph glyph-name="afii10041" unicode="&#x427;" horiz-adv-x="656" 
d="M646 696q-27 -12 -50 -33t-23 -43v-538q0 -22 24 -44.5t49 -33.5v-4h-296v4q27 12 50 33t23 43v180h-2q-27 -22 -91 -46t-104 -24q-61 0 -102 25.5t-41 74.5v330q0 22 -23 43t-50 33v4h125q43 0 70.5 -24t27.5 -56v-280q0 -80 77 -80q19 0 57.5 12t55.5 28v320
q0 22 -23 43t-50 33v4h296v-4z" />
    <glyph glyph-name="afii10042" unicode="&#x428;" horiz-adv-x="948" 
d="M549 618v-578h166v580q0 23 -19 44t-44 32v4h286v-4q-27 -12 -50 -33t-23 -43v-538q0 -23 23 -44.5t50 -33.5v-4h-928v4q25 11 49 33.5t24 44.5v538q0 22 -23 43t-50 33v4h286v-4q-25 -11 -44 -32t-19 -44v-580h166v578q0 23 -19.5 45.5t-43.5 32.5v4h276v-4
q-25 -11 -44 -32.5t-19 -45.5z" />
    <glyph glyph-name="afii10043" unicode="&#x429;" horiz-adv-x="958" 
d="M612 696q-25 -11 -44 -32.5t-19 -45.5v-578h166v580q0 23 -19 44t-44 32v4h286v-4q-27 -12 -50 -33t-23 -43v-538q0 -23 23 -44.5t50 -33.5v-4h10l-40 -200h-20l-40 200h-838v4q25 11 49 33.5t24 44.5v538q0 22 -23 43t-50 33v4h286v-4q-25 -11 -44 -32t-19 -44v-580h166
v578q0 23 -19.5 45.5t-43.5 32.5v4h276v-4z" />
    <glyph glyph-name="afii10044" unicode="&#x42a;" horiz-adv-x="733" 
d="M240 660h-84q-57 0 -92 -33t-60 -108h-4l20 181h443v-4q-27 -12 -50 -33t-23 -43v-230h94q110 0 169.5 -59.5t59.5 -150.5q0 -79 -65 -129.5t-164 -50.5h-317v4q25 11 49 33.5t24 44.5v578zM410 350h-20v-310h50q63 0 95.5 43t32.5 107q0 60 -48 110t-110 50z" />
    <glyph glyph-name="afii10045" unicode="&#x42b;" horiz-adv-x="912" 
d="M253 350h-20v-310h50q63 0 95.5 43t32.5 107q0 60 -48 110t-110 50zM233 390h94q110 0 169.5 -59.5t59.5 -150.5q0 -79 -65 -129.5t-164 -50.5h-317v4q25 11 49 33.5t24 44.5v538q0 22 -23 43t-50 33v4h296v-4q-27 -12 -50 -33t-23 -43v-230zM829 618v-538q0 -22 23 -43
t50 -33v-4h-296v4q27 12 50 33t23 43v538q0 22 -24 44.5t-49 33.5v4h296v-4q-27 -12 -50 -33.5t-23 -44.5z" />
    <glyph glyph-name="afii10046" unicode="&#x42c;" horiz-adv-x="576" 
d="M253 350h-20v-310h50q63 0 95.5 43t32.5 107q0 60 -48 110t-110 50zM233 390h94q110 0 169.5 -59.5t59.5 -150.5q0 -79 -65 -129.5t-164 -50.5h-317v4q25 11 49 33.5t24 44.5v538q0 22 -23 43t-50 33v4h296v-4q-27 -12 -50 -33t-23 -43v-230z" />
    <glyph glyph-name="afii10047" unicode="&#x42d;" horiz-adv-x="638" 
d="M228 25q96 0 156 89.5t68 235.5h-244v40h245q0 144 -48 214.5t-127 70.5q-148 0 -231 -185h-4l20 183q82 42 205 42q65 0 126.5 -24.5t112 -69t81 -115t30.5 -156.5q0 -90 -31 -161.5t-83 -115t-117.5 -66t-138.5 -22.5q-129 0 -208 52l-20 183h4q83 -195 204 -195z" />
    <glyph glyph-name="afii10048" unicode="&#x42e;" horiz-adv-x="1083" 
d="M733 -15q-152 0 -251 93.5t-99 271.5h-150v-270q0 -22 23 -43t50 -33v-4h-296v4q27 12 50 33t23 43v538q0 22 -24 44.5t-49 33.5v4h296v-4q-27 -12 -50 -33.5t-23 -44.5v-228h151q8 102 57 177t119.5 111.5t152.5 36.5q152 0 251 -93.5t99 -271.5q0 -86 -27.5 -156.5
t-74 -115.5t-105 -69t-123.5 -24zM698 675q-68 0 -109 -71t-41 -214q0 -94 26.5 -178t72.5 -135.5t101 -51.5q67 0 108.5 71t41.5 214q0 98 -21.5 179t-68 133.5t-110.5 52.5z" />
    <glyph glyph-name="afii10049" unicode="&#x42f;" horiz-adv-x="685" 
d="M119 520q0 79 65 129.5t164 50.5h327v-4q-25 -11 -49 -33.5t-24 -44.5v-538q0 -22 23 -43t50 -33v-4h-296v4q27 12 50 33t23 43v230h-7l-166 -238q-58 -82 -164 -82q-75 0 -115 10v4q50 16 90 69l183 246q-75 19 -114.5 73.5t-39.5 127.5zM452 660h-30q-62 0 -110 -50
t-48 -110q0 -64 32.5 -107t95.5 -43h60v310z" />
    <glyph glyph-name="afii10065" unicode="&#x430;" horiz-adv-x="473" 
d="M280 90v200l-41 -12q-41 -12 -65 -46.5t-24 -81.5q0 -78 77 -78q34 0 53 18zM285 50h-2q-24 -24 -63 -42t-72 -18q-56 0 -92 33.5t-36 86.5q0 142 171 193l89 27v60q0 39 -12 59.5t-43 20.5q-35 0 -77.5 -31.5t-76.5 -88.5h-4l20 130q79 30 183 30q150 0 150 -120v-310
q0 -24 15 -45t38 -31v-4h-100q-70 0 -88 50z" />
    <glyph glyph-name="afii10066" unicode="&#x431;" horiz-adv-x="516" 
d="M76 390q55 120 175 120q106 0 175.5 -66.5t69.5 -193.5q0 -121 -68 -190.5t-163 -69.5q-106 0 -175.5 66.5t-69.5 193.5q0 161 45 270q44 106 102.5 143t192.5 37q104 0 132 26h4l-10 -26q-21 -56 -50.5 -70.5t-122.5 -14.5q-79 0 -126.5 -23.5t-75.5 -81.5
q-27 -57 -37 -120h2zM236 480q-72 0 -72 -201q0 -107 37 -183t81 -76q38 0 55 47t17 154q0 109 -32.5 184t-85.5 75z" />
    <glyph glyph-name="afii10067" unicode="&#x432;" horiz-adv-x="489" 
d="M439 368q0 -29 -22.5 -55t-52.5 -39v-2q105 -32 105 -140q0 -58 -48 -95t-121 -37h-290v4q22 9 37.5 31.5t15.5 46.5v338q0 24 -15 45t-38 31v4h260q73 0 121 -37t48 -95zM218 245h-15v-205h27q47 0 70.5 27t23.5 72q0 44 -30 75t-76 31zM216 460h-13v-175h23
q39 0 59 23.5t20 61.5q0 37 -25.5 63.5t-63.5 26.5z" />
    <glyph glyph-name="afii10068" unicode="&#x433;" horiz-adv-x="450" 
d="M430 500l20 -161h-4q-24 71 -58 96t-95 25h-81v-338q0 -95 54 -120v-2h-256v2q32 14 43.5 44t11.5 76v256q0 46 -11.5 76t-43.5 44v2h420z" />
    <glyph glyph-name="afii10069" unicode="&#x434;" horiz-adv-x="564" 
d="M70 -200h-20l-40 200v4q43 18 73 76q62 117 81 194t19 146q0 45 -73 76v4h444v-4q-27 -12 -50 -33t-23 -43v-340q0 -23 23 -44t50 -32v-4l-40 -200h-20l-40 200h-344zM107 40h234v420h-113q0 -117 -26.5 -207t-94.5 -213z" />
    <glyph glyph-name="afii10070" unicode="&#x435;" horiz-adv-x="459" 
d="M290 30q40 0 79 34t63 86h4l-20 -130q-57 -30 -146 -30q-107 0 -178.5 67t-71.5 193q0 120 70.5 190t165.5 70q71 0 127 -56.5t56 -163.5v-20h-275q1 -121 35 -180.5t91 -59.5zM234 480q-26 0 -40.5 -19.5t-20 -53t-9.5 -97.5h144q-9 89 -25.5 129.5t-48.5 40.5z" />
    <glyph glyph-name="afii10072" unicode="&#x436;" horiz-adv-x="824" 
d="M90 77l135 273l-104 91q-46 40 -102 55v4h206v-4q-26 -8 -36.5 -18t-10.5 -28q0 -24 42 -58l120 -102h2v128q0 24 -15.5 46.5t-37.5 31.5v4h246v-4q-23 -10 -38 -31.5t-15 -46.5v-128h2l120 102q42 34 42 58q0 18 -10.5 28t-36.5 18v4h206v-4q-56 -15 -102 -55l-104 -91
l135 -273q27 -53 90 -73v-4q-40 -10 -125 -10q-52 0 -80.5 22t-45.5 65l-69 193l-22 -20v-170q0 -24 15 -45t38 -31v-4h-246v4q23 10 38 31t15 45v170l-22 20l-69 -193q-17 -43 -45.5 -65t-80.5 -22q-85 0 -125 10v4q64 20 90 73z" />
    <glyph glyph-name="afii10073" unicode="&#x437;" horiz-adv-x="441" 
d="M190 30q36 0 58 25t22 70q0 51 -37 85t-83 34h-32v40h32q43 0 69 26t26 65q0 95 -64 95q-40 0 -81.5 -34.5t-65.5 -85.5h-4l20 130q57 30 146 30q87 0 139.5 -36.5t52.5 -91.5q0 -39 -24.5 -64.5t-70.5 -44.5v-2q53 -14 90.5 -49t37.5 -83q0 -149 -217 -149
q-107 0 -164 30l-20 130h4q27 -57 64.5 -88.5t101.5 -31.5z" />
    <glyph glyph-name="afii10074" unicode="&#x438;" horiz-adv-x="574" 
d="M511 418v-338q0 -24 15 -45t38 -31v-4h-246v4q23 10 38 31t15 45v258h-2l-166 -248v-10q0 -24 15 -45t38 -31v-4h-246v4q23 10 38 31t15 45v338q0 24 -15.5 46.5t-37.5 31.5v4h246v-4q-23 -10 -38 -31.5t-15 -46.5v-258h2l166 248v10q0 24 -15.5 46.5t-37.5 31.5v4h246
v-4q-23 -10 -38 -31.5t-15 -46.5z" />
    <glyph glyph-name="afii10075" unicode="&#x439;" horiz-adv-x="574" 
d="M511 418v-338q0 -24 15 -45t38 -31v-4h-246v4q23 10 38 31t15 45v258h-2l-166 -248v-10q0 -24 15 -45t38 -31v-4h-246v4q23 10 38 31t15 45v338q0 24 -15.5 46.5t-37.5 31.5v4h246v-4q-23 -10 -38 -31.5t-15 -46.5v-258h2l166 248v10q0 24 -15.5 46.5t-37.5 31.5v4h246
v-4q-23 -10 -38 -31.5t-15 -46.5zM142 715h4q37 -80 142 -80q97 0 142 80h4q-22 -150 -146 -150q-125 0 -146 150z" />
    <glyph glyph-name="afii10076" unicode="&#x43a;" horiz-adv-x="587" 
d="M299 335l198 -259q45 -58 90 -72v-4q-40 -10 -105 -10q-53 0 -94 23.5t-65 61.5l-118 175h-2v-170q0 -24 15 -45t38 -31v-4h-246v4q23 10 38 31t15 45v338q0 24 -15.5 46.5t-37.5 31.5v4h246v-4q-23 -10 -38 -31.5t-15 -46.5v-128h2l120 102q42 34 42 58q0 18 -10.5 28
t-36.5 18v4h206v-4q-54 -14 -102 -55z" />
    <glyph glyph-name="afii10077" unicode="&#x43b;" horiz-adv-x="598" 
d="M127 180v238q0 24 -15.5 46.5t-37.5 31.5v4h514v-4q-23 -10 -38 -31.5t-15 -46.5v-338q0 -24 15 -45t38 -31v-4h-246v4q23 10 38 31t15 45v380h-128v-280q0 -190 -172 -190q-47 0 -95 10v4q75 14 101 49t26 127z" />
    <glyph glyph-name="afii10078" unicode="&#x43c;" horiz-adv-x="648" 
d="M433 340l-167 -340h-8l-143 340h-2l-10 -260q-1 -23 14.5 -44.5t38.5 -31.5v-4h-146v4q23 10 37.5 31t15.5 45l12 338q1 24 -15 46.5t-38 31.5v4h178l121 -289h2l142 289h160v-4q-23 -10 -38.5 -31.5t-14.5 -46.5l13 -338q1 -24 15.5 -45t37.5 -31v-4h-246v4
q23 10 38.5 31.5t14.5 44.5l-10 260h-2z" />
    <glyph glyph-name="afii10079" unicode="&#x43d;" horiz-adv-x="574" 
d="M511 418v-338q0 -24 15 -45t38 -31v-4h-246v4q23 10 38 31t15 45v165h-168v-165q0 -24 15 -45t38 -31v-4h-246v4q23 10 38 31t15 45v338q0 24 -15.5 46.5t-37.5 31.5v4h246v-4q-23 -10 -38 -31.5t-15 -46.5v-138h168v138q0 24 -15.5 46.5t-37.5 31.5v4h246v-4
q-23 -10 -38 -31.5t-15 -46.5z" />
    <glyph glyph-name="afii10080" unicode="&#x43e;" horiz-adv-x="516" 
d="M265 -10q-106 0 -175.5 66.5t-69.5 193.5q0 121 68 190.5t163 69.5q106 0 175.5 -66.5t69.5 -193.5q0 -121 -68 -190.5t-163 -69.5zM236 480q-72 0 -72 -201q0 -107 37 -183t81 -76q38 0 55 47t17 154q0 109 -32.5 184t-85.5 75z" />
    <glyph glyph-name="afii10081" unicode="&#x43f;" horiz-adv-x="574" 
d="M511 418v-338q0 -24 15 -45t38 -31v-4h-246v4q23 10 38 31t15 45v380h-168v-380q0 -24 15 -45t38 -31v-4h-246v4q23 10 38 31t15 45v338q0 24 -15.5 46.5t-37.5 31.5v4h554v-4q-23 -10 -38 -31.5t-15 -46.5z" />
    <glyph glyph-name="afii10082" unicode="&#x440;" horiz-adv-x="506" 
d="M10 500h230q117 0 181.5 -64.5t64.5 -185.5q0 -131 -68.5 -190.5t-177.5 -59.5h-37v-120q0 -24 15 -45t38 -31v-4h-246v4q23 10 38 31t15 45v538q0 24 -15.5 46.5t-37.5 31.5v4zM210 460h-7v-420h17q67 0 95.5 40t28.5 140q0 119 -34.5 179.5t-99.5 60.5z" />
    <glyph glyph-name="afii10083" unicode="&#x441;" horiz-adv-x="456" 
d="M290 30q40 0 79 34t63 86h4l-20 -130q-57 -30 -146 -30q-107 0 -178.5 67t-71.5 193q0 120 70.5 190t165.5 70q89 0 146 -30l20 -130h-4q-23 50 -67 85t-85 35q-46 0 -74 -45.5t-28 -144.5q0 -125 34.5 -187.5t91.5 -62.5z" />
    <glyph glyph-name="afii10084" unicode="&#x442;" horiz-adv-x="502" 
d="M20 500h462l20 -161h-4q-24 71 -58 96t-95 25h-24v-380q0 -24 15 -45t38 -31v-4h-246v4q23 10 38 31t15 45v380h-25q-61 0 -94.5 -25t-57.5 -96h-4z" />
    <glyph glyph-name="afii10085" unicode="&#x443;" horiz-adv-x="496" 
d="M235 29l-166 398q-19 46 -69 69v4h250v-4q-46 -22 -26 -68l89 -212h2l88 211q9 22 -1.5 42t-36.5 27v4h131v-4q-29 -10 -53 -69l-263 -627h-127v4q53 17 83 38.5t46 59.5z" />
    <glyph glyph-name="afii10086" unicode="&#x444;" horiz-adv-x="726" 
d="M240 696v4q99 2 193 15v-215h27q117 0 181.5 -64.5t64.5 -185.5q0 -131 -68.5 -190.5t-177.5 -59.5h-27v-120q0 -24 15 -45t38 -31v-4h-246v4q23 10 38 31t15 45v120h-27q-109 0 -177.5 59.5t-68.5 190.5q0 121 64.5 185.5t181.5 64.5h27v118q0 24 -15.5 46.5t-37.5 31.5
zM440 460h-7v-420h17q66 0 90 39t24 141q0 240 -124 240zM293 460h-7q-124 0 -124 -240q0 -102 24 -141t90 -39h17v420z" />
    <glyph glyph-name="afii10087" unicode="&#x445;" horiz-adv-x="500" 
d="M63 46l125 180l-131 222q-18 30 -57 48v4h230v-4q-42 -19 -26 -47l72 -126h1l69 100q16 22 16 34q0 26 -41 39v4h155v-4q-42 -11 -63 -42l-116 -167l138 -235q20 -34 65 -48v-4q-43 -10 -92 -10q-38 0 -71.5 17.5t-48.5 44.5l-79 137h-2l-77 -112q-15 -19 -15 -34
q0 -26 40 -39v-4h-155v4q23 6 36 14.5t27 27.5z" />
    <glyph glyph-name="afii10088" unicode="&#x446;" horiz-adv-x="574" 
d="M564 496q-23 -10 -38 -31t-15 -45v-338q0 -25 15 -46.5t38 -31.5v-4l-40 -200h-20l-40 200h-454v4q22 9 37.5 31.5t15.5 46.5v338q0 24 -15 45t-38 31v4h246v-4q-23 -10 -38 -31t-15 -45v-380h168v380q0 24 -15 45t-38 31v4h246v-4z" />
    <glyph glyph-name="afii10089" unicode="&#x447;" horiz-adv-x="546" 
d="M536 500v-4q-23 -10 -38 -31t-15 -45v-338q0 -24 15.5 -46.5t37.5 -31.5v-4h-246v4q23 10 38 31t15 45v120h-2q-30 -25 -78 -47.5t-87 -22.5q-113 0 -113 100v190q0 24 -15 45t-38 31v4h95q43 0 70.5 -24t27.5 -56v-140q0 -48 15 -64t42 -16q15 0 40 11.5t43 28.5v180
q0 24 -15 45t-38 31v4h246z" />
    <glyph glyph-name="afii10090" unicode="&#x448;" horiz-adv-x="764" 
d="M452 420v-380h109v380q0 62 -33 76v4h226v-4q-23 -10 -38 -31t-15 -45v-338q0 -25 15 -46.5t38 -31.5v-4h-744v4q22 9 37.5 31.5t15.5 46.5v338q0 24 -15 45t-38 31v4h226v-4q-33 -14 -33 -76v-380h109v380q0 62 -33 76v4h206v-4q-33 -14 -33 -76z" />
    <glyph glyph-name="afii10091" unicode="&#x449;" horiz-adv-x="764" 
d="M485 496q-33 -14 -33 -76v-380h109v380q0 62 -33 76v4h226v-4q-23 -10 -38 -31t-15 -45v-338q0 -25 15 -46.5t38 -31.5v-4l-40 -200h-20l-40 200h-644v4q22 9 37.5 31.5t15.5 46.5v338q0 24 -15 45t-38 31v4h226v-4q-33 -14 -33 -76v-380h109v380q0 62 -33 76v4h206v-4z
" />
    <glyph glyph-name="afii10092" unicode="&#x44a;" horiz-adv-x="607" 
d="M336 266h-15v-226h27q46 0 70 31t24 78q0 45 -30.5 81t-75.5 36zM181 460h-25q-61 0 -94.5 -25t-57.5 -96h-4l20 161h354v-4q-23 -10 -38 -31t-15 -45v-114h97q81 0 125 -48t44 -116q0 -59 -48.5 -100.5t-120.5 -41.5h-290v4q22 9 37.5 31.5t15.5 46.5v378z" />
    <glyph glyph-name="afii10093" unicode="&#x44b;" horiz-adv-x="755" 
d="M692 418v-338q0 -24 15 -45t38 -31v-4h-246v4q23 10 38 31t15 45v338q0 24 -15.5 46.5t-37.5 31.5v4h246v-4q-23 -10 -38 -31.5t-15 -46.5zM218 266h-15v-226h27q46 0 70 31t24 78q0 45 -30.5 81t-75.5 36zM203 306h97q81 0 125 -48t44 -116q0 -59 -48.5 -100.5
t-120.5 -41.5h-290v4q22 9 37.5 31.5t15.5 46.5v338q0 24 -15 45t-38 31v4h246v-4q-23 -10 -38 -31t-15 -45v-114z" />
    <glyph glyph-name="afii10094" unicode="&#x44c;" horiz-adv-x="489" 
d="M218 266h-15v-226h27q46 0 70 31t24 78q0 45 -30.5 81t-75.5 36zM203 306h97q81 0 125 -48t44 -116q0 -59 -48.5 -100.5t-120.5 -41.5h-290v4q22 9 37.5 31.5t15.5 46.5v338q0 24 -15 45t-38 31v4h246v-4q-23 -10 -38 -31t-15 -45v-114z" />
    <glyph glyph-name="afii10095" unicode="&#x44d;" horiz-adv-x="456" 
d="M186 30q53 0 86.5 52.5t38.5 157.5h-149v40h150q0 99 -28 144.5t-74 45.5q-41 0 -85 -35t-67 -85h-4l20 130q57 30 146 30q95 0 165.5 -70t70.5 -190q0 -126 -71.5 -193t-178.5 -67q-89 0 -146 30l-20 130h4q24 -52 63 -86t79 -34z" />
    <glyph glyph-name="afii10096" unicode="&#x44e;" horiz-adv-x="792" 
d="M541 -10q-101 0 -170 61.5t-75 178.5h-93v-150q0 -24 15 -45t38 -31v-4h-246v4q23 10 38 31t15 45v338q0 24 -15.5 46.5t-37.5 31.5v4h246v-4q-23 -10 -38 -31.5t-15 -46.5v-148h93q6 112 73 176t158 64q106 0 175.5 -66.5t69.5 -193.5q0 -121 -68 -190.5t-163 -69.5z
M512 480q-72 0 -72 -201q0 -107 37 -183t81 -76q38 0 55 47t17 154q0 109 -32.5 184t-85.5 75z" />
    <glyph glyph-name="afii10097" unicode="&#x44f;" horiz-adv-x="545" 
d="M88 370q0 60 54.5 95t134.5 35h258v-4q-22 -9 -37.5 -31.5t-15.5 -46.5v-338q0 -24 15 -45t38 -31v-4h-246v4q23 10 38 31t15 45v145h-2l-135 -181q-17 -22 -50 -38t-67 -16q-50 0 -88 10v2q32 10 57 42l143 183v2q-49 15 -80.5 55t-31.5 86zM342 460h-19
q-39 0 -69.5 -31.5t-30.5 -68.5q0 -40 20.5 -67.5t60.5 -27.5h38v195z" />
    <glyph glyph-name="uni0450" unicode="&#x450;" horiz-adv-x="459" 
d="M290 30q40 0 79 34t63 86h4l-20 -130q-57 -30 -146 -30q-107 0 -178.5 67t-71.5 193q0 120 70.5 190t165.5 70q71 0 127 -56.5t56 -163.5v-20h-275q1 -121 35 -180.5t91 -59.5zM234 480q-26 0 -40.5 -19.5t-20 -53t-9.5 -97.5h144q-9 89 -25.5 129.5t-48.5 40.5zM98 700
h106q15 -51 48 -96.5t68 -61.5v-2q-67 2 -136.5 60.5t-85.5 99.5z" />
    <glyph glyph-name="afii10071" unicode="&#x451;" horiz-adv-x="459" 
d="M290 30q40 0 79 34t63 86h4l-20 -130q-57 -30 -146 -30q-107 0 -178.5 67t-71.5 193q0 120 70.5 190t165.5 70q71 0 127 -56.5t56 -163.5v-20h-275q1 -121 35 -180.5t91 -59.5zM234 480q-26 0 -40.5 -19.5t-20 -53t-9.5 -97.5h144q-9 89 -25.5 129.5t-48.5 40.5zM71 632
q0 28 19.5 48t48.5 20t48.5 -20t19.5 -48t-19.5 -48t-48.5 -20t-48.5 20t-19.5 48zM271 632q0 28 19.5 48t48.5 20t48.5 -20t19.5 -48t-19.5 -48t-48.5 -20t-48.5 20t-19.5 48z" />
    <glyph glyph-name="afii10099" unicode="&#x452;" horiz-adv-x="543" 
d="M10 610h63v8q0 24 -15.5 46.5t-37.5 31.5v4q97 2 193 15v-105h93v-40h-93v-120h2q28 23 74 41.5t86 18.5q56 0 82 -24t26 -76v-210q0 -61 -10 -116.5t-33.5 -112.5t-67.5 -104t-106 -77v4q26 32 43 82t23.5 113.5t8.5 106.5t2 104v160q0 50 -11 65t-36 15q-50 0 -83 -30
v-330q0 -24 15 -45t38 -31v-4h-246v4q23 10 38 31t15 45v490h-63v40z" />
    <glyph glyph-name="afii10100" unicode="&#x453;" horiz-adv-x="450" 
d="M430 500l20 -161h-4q-24 71 -58 96t-95 25h-81v-338q0 -95 54 -120v-2h-256v2q32 14 43.5 44t11.5 76v256q0 46 -11.5 76t-43.5 44v2h420zM342 700q-16 -41 -85.5 -99.5t-136.5 -60.5v2q35 16 68 61.5t48 96.5h106z" />
    <glyph glyph-name="afii10101" unicode="&#x454;" horiz-adv-x="456" 
d="M290 30q40 0 79 34t63 86h4l-20 -130q-57 -30 -146 -30q-107 0 -178.5 67t-71.5 193q0 120 70.5 190t165.5 70q89 0 146 -30l20 -130h-4q-23 50 -67 85t-85 35q-46 0 -74 -45.5t-28 -144.5h150v-40h-149q5 -105 38.5 -157.5t86.5 -52.5z" />
    <glyph glyph-name="afii10102" unicode="&#x455;" horiz-adv-x="422" 
d="M200 -10q-88 0 -160 37l-20 133h4q32 -59 78 -94.5t90 -35.5q46 0 72 18t26 47q0 37 -28.5 55.5t-124.5 54.5q-104 39 -104 155q0 68 48 109t136 41q69 0 134 -30l20 -130h-4q-29 55 -71.5 87.5t-85.5 32.5q-40 0 -63.5 -17.5t-23.5 -43.5q0 -30 21.5 -43.5t99.5 -40.5
q15 -5 23 -8q71 -25 103 -67t32 -110q0 -67 -54 -108.5t-148 -41.5z" />
    <glyph glyph-name="afii10103" unicode="&#x456;" horiz-adv-x="266" 
d="M203 515v-435q0 -24 15 -45t38 -31v-4h-246v4q23 10 38 31t15 45v338q0 24 -15.5 46.5t-37.5 31.5v4q99 2 193 15zM58 640q0 31 22 53t53 22t53 -22t22 -53t-22 -53t-53 -22t-53 22t-22 53z" />
    <glyph glyph-name="afii10104" unicode="&#x457;" horiz-adv-x="266" 
d="M-35 632q0 28 19.5 48t48.5 20t48.5 -20t19.5 -48t-19.5 -48t-48.5 -20t-48.5 20t-19.5 48zM165 632q0 28 19.5 48t48.5 20t48.5 -20t19.5 -48t-19.5 -48t-48.5 -20t-48.5 20t-19.5 48zM208 515v-435q0 -24 15 -45t38 -31v-4h-246v4q23 10 38 31t15 45v338
q0 24 -15.5 46.5t-37.5 31.5v4q99 2 193 15z" />
    <glyph glyph-name="afii10105" unicode="&#x458;" horiz-adv-x="266" 
d="M201 515v-535q0 -190 -172 -190q-47 0 -95 10v4q75 14 101 49t26 127v438q0 24 -15.5 46.5t-37.5 31.5v4q97 2 193 15zM56 640q0 31 22 53t53 22t53 -22t22 -53t-22 -53t-53 -22t-53 22t-22 53z" />
    <glyph glyph-name="afii10106" unicode="&#x459;" horiz-adv-x="821" 
d="M127 180v238q0 24 -15.5 46.5t-37.5 31.5v4h514v-4q-23 -10 -38 -31t-15 -45v-114h97q81 0 125 -48t44 -116q0 -59 -48.5 -100.5t-120.5 -41.5h-290v4q22 9 37.5 31t15.5 45v380h-128v-280q0 -190 -172 -190q-47 0 -95 10v4q75 14 101 49t26 127zM550 266h-15v-226h27
q46 0 70 31t24 78q0 45 -30.5 81t-75.5 36z" />
    <glyph glyph-name="afii10107" unicode="&#x45a;" horiz-adv-x="777" 
d="M491 306h97q81 0 125 -48t44 -116q0 -59 -48.5 -100.5t-120.5 -41.5h-290v4q22 9 37.5 31.5t15.5 46.5v183h-148v-185q0 -24 15 -45t38 -31v-4h-246v4q23 10 38 31t15 45v338q0 24 -15.5 46.5t-37.5 31.5v4h246v-4q-23 -10 -38 -31.5t-15 -46.5v-118h148v120q0 24 -15 45
t-38 31v4h246v-4q-23 -10 -38 -31t-15 -45v-114zM506 266h-15v-226h27q46 0 70 31t24 78q0 45 -30.5 81t-75.5 36z" />
    <glyph glyph-name="afii10108" unicode="&#x45b;" 
d="M0 610h63v8q0 24 -15.5 46.5t-37.5 31.5v4q97 2 193 15v-105h93v-40h-93v-120h2q28 23 74 41.5t86 18.5q56 0 82 -24t26 -76v-330q0 -24 15 -45t38 -31v-4h-100q-43 0 -68 24t-25 56v280q0 50 -11 65t-36 15q-50 0 -83 -30v-330q0 -24 15 -45t38 -31v-4h-246v4
q23 10 38 31t15 45v490h-63v40z" />
    <glyph glyph-name="afii10109" unicode="&#x45c;" horiz-adv-x="587" 
d="M299 335l198 -259q45 -58 90 -72v-4q-40 -10 -105 -10q-53 0 -94 23.5t-65 61.5l-118 175h-2v-170q0 -24 15 -45t38 -31v-4h-246v4q23 10 38 31t15 45v338q0 24 -15.5 46.5t-37.5 31.5v4h246v-4q-23 -10 -38 -31.5t-15 -46.5v-128h2l120 102q42 34 42 58q0 18 -10.5 28
t-36.5 18v4h206v-4q-54 -14 -102 -55zM422 700q-16 -41 -85.5 -99.5t-136.5 -60.5v2q35 16 68 61.5t48 96.5h106z" />
    <glyph glyph-name="uni045D" unicode="&#x45d;" horiz-adv-x="574" 
d="M511 418v-338q0 -24 15 -45t38 -31v-4h-246v4q23 10 38 31t15 45v258h-2l-166 -248v-10q0 -24 15 -45t38 -31v-4h-246v4q23 10 38 31t15 45v338q0 24 -15.5 46.5t-37.5 31.5v4h246v-4q-23 -10 -38 -31.5t-15 -46.5v-258h2l166 248v10q0 24 -15.5 46.5t-37.5 31.5v4h246
v-4q-23 -10 -38 -31.5t-15 -46.5zM150 700h106q15 -51 48 -96.5t68 -61.5v-2q-67 2 -136.5 60.5t-85.5 99.5z" />
    <glyph glyph-name="afii10110" unicode="&#x45e;" horiz-adv-x="496" 
d="M235 29l-166 398q-19 46 -69 69v4h250v-4q-46 -22 -26 -68l89 -212h2l88 211q9 22 -1.5 42t-36.5 27v4h131v-4q-29 -10 -53 -69l-263 -627h-127v4q53 17 83 38.5t46 59.5zM148 715h4q37 -80 142 -80q97 0 142 80h4q-22 -150 -146 -150q-125 0 -146 150z" />
    <glyph glyph-name="afii10193" unicode="&#x45f;" horiz-adv-x="574" 
d="M564 496q-23 -10 -38 -31t-15 -45v-338q0 -25 15 -46.5t38 -31.5v-4h-227l-40 -200h-20l-40 200h-227v4q22 9 37.5 31.5t15.5 46.5v338q0 24 -15 45t-38 31v4h246v-4q-23 -10 -38 -31t-15 -45v-380h168v380q0 24 -15 45t-38 31v4h246v-4z" />
    <glyph glyph-name="afii10050" unicode="&#x490;" horiz-adv-x="553" 
d="M533 660h-300v-580q0 -22 23 -43t50 -33v-4h-296v4q27 12 50 33t23 43v538q0 22 -24 44.5t-49 33.5v4h387q57 0 92 32.5t60 107.5h4z" />
    <glyph glyph-name="afii10098" unicode="&#x491;" horiz-adv-x="450" 
d="M212 460v-338q0 -95 54 -120v-2h-256v2q32 14 43.5 44t11.5 76v256q0 46 -11.5 76t-43.5 44v2h283q61 0 95 25t58 96h4l-20 -161h-218z" />
    <glyph glyph-name="uni0492" unicode="&#x492;" horiz-adv-x="553" 
d="M10 350v40h73v228q0 22 -24 44.5t-49 33.5v4h523l20 -180h-4q-25 75 -60 107.5t-92 32.5h-164v-270h100v-40h-100v-270q0 -22 23 -43t50 -33v-4h-296v4q27 12 50 33t23 43v270h-73z" />
    <glyph glyph-name="uni0493" unicode="&#x493;" horiz-adv-x="450" 
d="M10 240v40h55v98q0 46 -11.5 76t-43.5 44v2h420l20 -161h-4q-24 71 -58 96t-95 25h-81v-180h101v-40h-101v-118q0 -95 54 -120v-2h-256v2q32 14 43.5 44t11.5 76v118h-55z" />
    <glyph glyph-name="uni049A" unicode="&#x49a;" horiz-adv-x="718" 
d="M678 -200h-20l-38 190h-17q-100 0 -164 82l-204 278h-2v-270q0 -22 23 -43t50 -33v-4h-296v4q27 12 50 33t23 43v538q0 22 -24 44.5t-49 33.5v4h296v-4q-27 -12 -50 -33.5t-23 -44.5v-228h2l238 202q32 26 32 48q0 35 -67 56v4h246v-4q-55 -15 -108 -60l-229 -194
l281 -369q40 -53 90 -69v-4z" />
    <glyph glyph-name="uni049B" unicode="&#x49b;" horiz-adv-x="587" 
d="M310 345l187 -269q39 -56 90 -72v-4l-40 -200h-20l-38 190h-7q-53 0 -94 23.5t-65 61.5l-118 175h-2v-170q0 -24 15 -45t38 -31v-4h-246v4q23 10 38 31t15 45v338q0 24 -15.5 46.5t-37.5 31.5v4h246v-4q-23 -10 -38 -31.5t-15 -46.5v-128h2l120 102q42 34 42 58
q0 18 -10.5 28t-36.5 18v4h206v-4q-54 -14 -102 -55z" />
    <glyph glyph-name="uni04A2" unicode="&#x4a2;" horiz-adv-x="734" 
d="M714 696q-27 -12 -50 -33.5t-23 -44.5v-538q0 -22 23 -43t50 -33v-4h10l-40 -200h-20l-40 200h-206v4q27 12 50 33t23 43v270h-258v-270q0 -22 23 -43t50 -33v-4h-296v4q27 12 50 33t23 43v538q0 22 -24 44.5t-49 33.5v4h296v-4q-27 -12 -50 -33.5t-23 -44.5v-228h258
v228q0 22 -24 44.5t-49 33.5v4h296v-4z" />
    <glyph glyph-name="uni04A3" unicode="&#x4a3;" horiz-adv-x="574" 
d="M564 496q-23 -10 -38 -31.5t-15 -46.5v-338q0 -24 15 -45t38 -31v-4l-40 -200h-20l-40 200h-146v4q23 10 38 31t15 45v165h-168v-165q0 -24 15 -45t38 -31v-4h-246v4q23 10 38 31t15 45v338q0 24 -15.5 46.5t-37.5 31.5v4h246v-4q-23 -10 -38 -31.5t-15 -46.5v-138h168
v138q0 24 -15.5 46.5t-37.5 31.5v4h246v-4z" />
    <glyph glyph-name="uni04AE" unicode="&#x4ae;" horiz-adv-x="637" 
d="M381 372l138 255q12 20 0.5 40.5t-38.5 28.5v4h156v-4q-42 -25 -68 -69l-173 -317v-230q0 -22 23 -43t50 -33v-4h-296v4q27 12 50 33t23 43v230l-167 317q-24 44 -79 69v4h280v-4q-26 -12 -35.5 -30t0.5 -39l134 -255h2z" />
    <glyph glyph-name="uni04AF" unicode="&#x4af;" horiz-adv-x="496" 
d="M315 216l88 211q9 22 -1.5 42t-36.5 27v4h131v-4q-29 -10 -53 -69l-117 -280v-267q0 -24 15 -45t38 -31v-4h-246v4q23 10 38 31t15 45v267l-117 280q-19 46 -69 69v4h250v-4q-46 -22 -26 -68l89 -212h2z" />
    <glyph glyph-name="uni04B0" unicode="&#x4b0;" horiz-adv-x="637" 
d="M100 200v40h146v70l-167 317q-22 43 -79 69v4h280v-4q-25 -12 -35 -30t0 -39l134 -255h2l138 255q11 21 0 41.5t-38 27.5v4h156v-4q-46 -27 -68 -69l-173 -317v-70h141v-40h-141v-120q0 -22 23 -43t50 -33v-4h-296v4q27 12 50 33t23 43v120h-146z" />
    <glyph glyph-name="uni04B1" unicode="&#x4b1;" horiz-adv-x="496" 
d="M315 216l88 211q9 22 -1.5 42t-36.5 27v4h131v-4q-29 -10 -53 -69l-117 -280v-67h121v-40h-121v-160q0 -24 15 -45t38 -31v-4h-246v4q23 10 38 31t15 45v160h-120v40h120v67l-117 280q-19 46 -69 69v4h250v-4q-46 -22 -26 -68l89 -212h2z" />
    <glyph glyph-name="uni04B2" unicode="&#x4b2;" horiz-adv-x="684" 
d="M644 -200h-20l-38 190h-16q-51 0 -83 21t-57 61l-137 217h-2l-123 -181q-22 -30 -22 -48q0 -38 57 -56v-4h-203v4q32 9 50.5 21t37.5 39l180 264l-189 299q-29 46 -79 69v4h279v-4q-26 -13 -36.5 -30.5t0.5 -37.5l126 -200h2l112 164q22 30 22 48q0 38 -57 56v4h203v-4
q-32 -9 -50.5 -21t-37.5 -39l-169 -248l200 -315q32 -51 90 -69v-4z" />
    <glyph glyph-name="uni04B3" unicode="&#x4b3;" horiz-adv-x="500" 
d="M63 46l125 180l-131 222q-18 30 -57 48v4h230v-4q-42 -19 -26 -47l72 -126h1l69 100q16 22 16 34q0 26 -41 39v4h155v-4q-42 -11 -63 -42l-116 -167l138 -235q20 -34 65 -48v-4l-40 -200h-20l-38 190q-37 1 -68.5 18.5t-45.5 43.5l-79 137h-2l-77 -112q-15 -19 -15 -34
q0 -26 40 -39v-4h-155v4q23 6 36 14.5t27 27.5z" />
    <glyph glyph-name="uni04B6" unicode="&#x4b6;" horiz-adv-x="656" 
d="M423 620q0 22 -23 43t-50 33v4h296v-4q-27 -12 -50 -33t-23 -43v-538q0 -22 24 -44.5t49 -33.5v-4l-40 -200h-20l-40 200h-196v4q27 12 50 33t23 43v180h-2q-27 -22 -91 -46t-104 -24q-61 0 -102 25.5t-41 74.5v330q0 22 -23 43t-50 33v4h125q43 0 70.5 -24t27.5 -56
v-280q0 -80 77 -80q19 0 57.5 12t55.5 28v320z" />
    <glyph glyph-name="uni04B7" unicode="&#x4b7;" horiz-adv-x="546" 
d="M343 420q0 24 -15 45t-38 31v4h246v-4q-23 -10 -38 -31t-15 -45v-338q0 -24 15.5 -46.5t37.5 -31.5v-4l-40 -200h-20l-40 200h-146v4q23 10 38 31t15 45v120h-2q-30 -25 -78 -47.5t-87 -22.5q-113 0 -113 100v190q0 24 -15 45t-38 31v4h95q43 0 70.5 -24t27.5 -56v-140
q0 -48 15 -64t42 -16q15 0 40 11.5t43 28.5v180z" />
    <glyph glyph-name="uni04D8" unicode="&#x4d8;" horiz-adv-x="628" 
d="M229 675q-54 0 -105 -53.5t-87 -131.5h-4l20 183q79 42 204 42q97 0 174.5 -38t127 -122.5t49.5 -204.5q0 -86 -28 -156.5t-75 -115.5t-106 -69t-122 -24q-46 0 -90 18t-82 54t-61.5 97.5t-23.5 139.5v28h421q-2 166 -65.5 259.5t-146.5 93.5zM308 25q118 0 133 241h-262
q11 -118 46 -179.5t83 -61.5z" />
    <glyph glyph-name="uni04D9" unicode="&#x4d9;" horiz-adv-x="459" 
d="M169 470q-40 0 -79 -34t-63 -86h-4l20 130q57 30 146 30q107 0 178.5 -67t71.5 -193q0 -120 -70.5 -190t-165.5 -70q-71 0 -127 56.5t-56 163.5v20h275q-1 121 -35 180.5t-91 59.5zM225 20q26 0 40.5 19.5t20 53t9.5 97.5h-144q9 -89 25.5 -129.5t48.5 -40.5z" />
    <glyph glyph-name="uni04E2" unicode="&#x4e2;" horiz-adv-x="724" 
d="M535 765h-320v60h320v-60zM641 618v-538q0 -22 23 -43t50 -33v-4h-296v4q27 12 50 33t23 43v438h-2l-256 -428v-10q0 -22 23 -43t50 -33v-4h-296v4q27 12 50 33t23 43v538q0 22 -24 44.5t-49 33.5v4h296v-4q-27 -12 -50 -33.5t-23 -44.5v-438h2l256 428v10q0 22 -24 44.5
t-49 33.5v4h296v-4q-27 -12 -50 -33.5t-23 -44.5z" />
    <glyph glyph-name="uni04E3" unicode="&#x4e3;" horiz-adv-x="574" 
d="M511 418v-338q0 -24 15 -45t38 -31v-4h-246v4q23 10 38 31t15 45v258h-2l-166 -248v-10q0 -24 15 -45t38 -31v-4h-246v4q23 10 38 31t15 45v338q0 24 -15.5 46.5t-37.5 31.5v4h246v-4q-23 -10 -38 -31.5t-15 -46.5v-258h2l166 248v10q0 24 -15.5 46.5t-37.5 31.5v4h246
v-4q-23 -10 -38 -31.5t-15 -46.5zM435 600h-296v60h296v-60z" />
    <glyph glyph-name="uni04E8" unicode="&#x4e8;" horiz-adv-x="720" 
d="M370 -15q-152 0 -251 93.5t-99 271.5q0 86 27.5 156.5t74 115.5t105 69t123.5 24q152 0 251 -93.5t99 -271.5q0 -86 -27.5 -156.5t-74 -115.5t-105 -69t-123.5 -24zM535 310q0 6 -0.5 20t-0.5 20h-348q8 -133 65 -229t134 -96q67 0 108.5 71t41.5 214zM335 675
q-68 0 -109 -71t-41 -214h346q-14 125 -64.5 205t-131.5 80z" />
    <glyph glyph-name="uni04E9" unicode="&#x4e9;" horiz-adv-x="516" 
d="M265 -10q-106 0 -175.5 66.5t-69.5 193.5q0 121 68 190.5t163 69.5q106 0 175.5 -66.5t69.5 -193.5q0 -121 -68 -190.5t-163 -69.5zM236 480q-72 0 -72 -201v-8h188q-8 91 -39 150t-77 59zM282 20q38 0 55 47t17 154v10h-188q9 -91 43 -151t73 -60z" />
    <glyph glyph-name="uni04EE" unicode="&#x4ee;" horiz-adv-x="617" 
d="M278 102l19 43l-218 482q-18 41 -79 69v4h280v-4q-55 -27 -36 -68l135 -298h2l133 297q9 21 -5.5 41t-42.5 28v4h151v-4q-32 -12 -58 -69l-282 -627h-137v4q109 34 138 98zM520 765h-320v60h320v-60z" />
    <glyph glyph-name="uni04EF" unicode="&#x4ef;" horiz-adv-x="496" 
d="M235 29l-166 398q-19 46 -69 69v4h250v-4q-46 -22 -26 -68l89 -212h2l88 211q9 22 -1.5 42t-36.5 27v4h131v-4q-29 -10 -53 -69l-263 -627h-127v4q53 17 83 38.5t46 59.5zM422 600h-296v60h296v-60z" />
    <glyph glyph-name="endash" unicode="&#x2013;" horiz-adv-x="460" 
d="M440 330h-420v60h420v-60z" />
    <glyph glyph-name="emdash" unicode="&#x2014;" horiz-adv-x="680" 
d="M660 330h-640v60h640v-60z" />
    <glyph glyph-name="quoteleft" unicode="&#x2018;" horiz-adv-x="196" 
d="M41 465q-11 35 -11 64q0 71 45 126t121 70v-4q-25 -23 -43.5 -70t-18.5 -94q0 -26 7 -47z" />
    <glyph glyph-name="quoteright" unicode="&#x2019;" horiz-adv-x="196" 
d="M185 725q11 -35 11 -64q0 -71 -45 -126t-121 -70v4q25 23 43.5 70t18.5 94q0 26 -7 47z" />
    <glyph glyph-name="quotesinglbase" unicode="&#x201a;" horiz-adv-x="196" 
d="M155 160q11 -35 11 -64q0 -71 -45 -126t-121 -70v4q25 23 43.5 70t18.5 94q0 26 -7 47z" />
    <glyph glyph-name="quotedblleft" unicode="&#x201c;" horiz-adv-x="366" 
d="M41 465q-11 35 -11 64q0 71 45 126t121 70v-4q-25 -23 -43.5 -70t-18.5 -94q0 -26 7 -47zM211 465q-11 35 -11 64q0 71 45 126t121 70v-4q-25 -23 -43.5 -70t-18.5 -94q0 -26 7 -47z" />
    <glyph glyph-name="quotedblright" unicode="&#x201d;" horiz-adv-x="366" 
d="M185 725q11 -35 11 -64q0 -71 -45 -126t-121 -70v4q25 23 43.5 70t18.5 94q0 26 -7 47zM355 725q11 -35 11 -64q0 -71 -45 -126t-121 -70v4q25 23 43.5 70t18.5 94q0 26 -7 47z" />
    <glyph glyph-name="quotedblbase" unicode="&#x201e;" horiz-adv-x="356" 
d="M155 160q11 -35 11 -64q0 -71 -45 -126t-121 -70v4q25 23 43.5 70t18.5 94q0 26 -7 47zM315 160q11 -35 11 -64q0 -71 -45 -126t-121 -70v4q25 23 43.5 70t18.5 94q0 26 -7 47z" />
    <glyph glyph-name="dagger" unicode="&#x2020;" horiz-adv-x="425" 
d="M242 375l-13 -175h-31l-16 175l14 153l-116 -15v63l114 -13l-13 152h62l-12 -152l114 13v-63l-114 15z" />
    <glyph glyph-name="daggerdbl" unicode="&#x2021;" horiz-adv-x="425" 
d="M241 457l-10 -70l114 15v-63l-114 13l12 -152h-62l13 152l-114 -13v63l116 -15l-10 69l10 72l-116 -15v63l114 -13l-13 152h62l-12 -152l114 13v-63l-114 15z" />
    <glyph glyph-name="bullet" unicode="&#x2022;" horiz-adv-x="380" 
d="M50 300q0 58 41 99t99 41t99 -41t41 -99t-41 -99t-99 -41t-99 41t-41 99z" />
    <glyph glyph-name="ellipsis" unicode="&#x2026;" horiz-adv-x="696" 
d="M30 68q0 28 20 48t48 20t48 -20t20 -48t-20 -48t-48 -20t-48 20t-20 48zM280 68q0 28 20 48t48 20t48 -20t20 -48t-20 -48t-48 -20t-48 20t-20 48zM530 68q0 28 20 48t48 20t48 -20t20 -48t-20 -48t-48 -20t-48 20t-20 48z" />
    <glyph glyph-name="perthousand" unicode="&#x2030;" horiz-adv-x="1000" 
d="M660 125q0 58 41 99t99 41t99 -41t41 -99t-41 -99t-99 -41t-99 41t-41 99zM705 125q0 -39 28 -67t67 -28t67 28t28 67t-28 67t-67 28t-67 -28t-28 -67zM560 700l-410 -700h-50l410 700h50zM60 575q0 58 41 99t99 41t99 -41t41 -99t-41 -99t-99 -41t-99 41t-41 99z
M105 575q0 -39 28 -67t67 -28t67 28t28 67t-28 67t-67 28t-67 -28t-28 -67zM320 125q0 58 41 99t99 41t99 -41t41 -99t-41 -99t-99 -41t-99 41t-41 99zM365 125q0 -39 28 -67t67 -28t67 28t28 67t-28 67t-67 28t-67 -28t-28 -67z" />
    <glyph glyph-name="guilsinglleft" unicode="&#x2039;" horiz-adv-x="348" 
d="M149 271v-2l149 -179h-8l-240 178v4l240 178h8z" />
    <glyph glyph-name="guilsinglright" unicode="&#x203a;" horiz-adv-x="348" 
d="M199 269v2l-149 179h8l240 -178v-4l-240 -178h-8z" />
    <glyph glyph-name="fraction" unicode="&#x2044;" horiz-adv-x="680" 
d="M570 700l-410 -700h-50l410 700h50z" />
    <glyph glyph-name="Euro" unicode="&#x20ac;" horiz-adv-x="540" 
d="M360 30q45 0 78 45.5t69 149.5h3l-16 -183q-36 -29 -67 -40.5t-84 -11.5q-111 0 -187.5 73t-92.5 217h-63l13 40h47v30q0 27 1 40h-61l13 40h52q19 133 92 206.5t170 73.5q81 0 148 -42l17 -183h-4q-36 96 -71.5 140.5t-97.5 44.5q-55 0 -86.5 -65.5t-36.5 -174.5h188
l-13 -40h-176q0 -24 2 -70h151l-13 -40h-134q13 -113 53 -181.5t106 -68.5z" />
    <glyph glyph-name="uni20BD" unicode="&#x20bd;" horiz-adv-x="540" 
d="M20 310v40h73v268q0 22 -24 44.5t-49 33.5v4h297q98 0 155.5 -50t57.5 -130q0 -93 -52 -151.5t-161 -58.5h-84v-70h180v-40h-180v-120q0 -22 23 -43t50 -33v-4h-286v4q27 12 50 33t23 43v120h-73v40h73v70h-73zM243 660h-10v-310h40q62 0 90 42t28 108q0 61 -43 110.5
t-105 49.5z" />
    <glyph glyph-name="afii61352" unicode="&#x2116;" horiz-adv-x="1121" 
d="M641 40h360v-40h-360v40zM138 510v-510h-118v4q27 12 50 33t23 43v538q0 22 -24 44.5t-49 33.5v4h191l283 -397h2v397h118v-4q-27 -12 -50 -33.5t-23 -44.5v-633h-8l-393 525h-2zM827 140q-84 0 -135 53t-51 157q0 99 50 154.5t125 55.5q83 0 134 -53t51 -157
q0 -99 -49.5 -154.5t-124.5 -55.5zM804 530q-29 0 -42 -37t-13 -120q0 -86 28 -144.5t64 -58.5q31 0 42.5 34.5t11.5 122.5t-24.5 145.5t-66.5 57.5z" />
    <glyph glyph-name="trademark" unicode="&#x2122;" horiz-adv-x="512" 
d="M26 700h180l6 -58h-1q-14 40 -44 40h-24v-159q0 -14 21 -21v-2h-96v2q21 7 21 21v159h-24q-30 0 -44 -40h-1zM416 654l-72 -154h-2l-74 154h-2l-6 -131q0 -13 21 -21v-2h-59v2q21 7 21 21l6 153q1 13 -21 23v1h72l58 -121h2l60 121h62v-1q-18 -8 -17 -23l6 -153
q0 -14 21 -21v-2h-90v2q21 7 21 21l-5 131h-2z" />
    <glyph glyph-name="onethird" unicode="&#x2153;" horiz-adv-x="683" 
d="M182 715v-349q0 -13 8.5 -25.5t20.5 -18.5v-2h-148v2q12 4 19.5 17.5t7.5 26.5v218q0 22 -13 30.5t-47 8.5v8q65 17 150 84h2zM520 700l-350 -700h-50l350 700h50zM505 389q58 0 93 -24t35 -67q0 -27 -19.5 -52.5t-48.5 -39.5q35 -9 61.5 -37t26.5 -62q0 -52 -36.5 -85
t-110.5 -33q-58 0 -103 28l-11 90h4q40 -92 100 -92q46 0 46 81q0 42 -20.5 67.5t-50.5 25.5h-19v25h19q27 0 42 20.5t15 52.5q0 76 -36 76q-28 0 -45.5 -18t-40.5 -70h-4l11 90q41 24 92 24z" />
    <glyph glyph-name="twothirds" unicode="&#x2154;" horiz-adv-x="683" 
d="M555 700l-350 -700h-50l350 700h50zM505 389q58 0 93 -24t35 -67q0 -27 -19.5 -52.5t-48.5 -39.5q35 -9 61.5 -37t26.5 -62q0 -52 -36.5 -85t-110.5 -33q-58 0 -103 28l-11 90h4q40 -92 100 -92q46 0 46 81q0 42 -20.5 67.5t-50.5 25.5h-19v25h19q27 0 42 20.5t15 52.5
q0 76 -36 76q-28 0 -45.5 -18t-40.5 -70h-4l11 90q41 24 92 24zM291 592q0 -41 -28.5 -69.5t-64.5 -42.5t-72 -36.5t-46 -51.5l-4 -11h128h7q35 0 48.5 6t27.5 34h4l-11 -101h-250l3 22q7 47 26 83t40.5 56t42.5 36.5t34.5 36t13.5 43.5q0 87 -60 87q-28 0 -45.5 -18
t-40.5 -70h-4l11 90q42 24 86 24q80 0 117 -33t37 -85z" />
    <glyph glyph-name="arrowleft" unicode="&#x2190;" horiz-adv-x="800" 
d="M423 82h-2l-371 247v2l371 248h2l-162 -229h489v-40h-489z" />
    <glyph glyph-name="arrowright" unicode="&#x2192;" horiz-adv-x="800" 
d="M379 82h-2l162 228h-489v40h489l-162 229h2l371 -248v-2z" />
    <glyph glyph-name="minus" unicode="&#x2212;" horiz-adv-x="460" 
d="M410 265h-360v60h360v-60z" />
    <glyph glyph-name="approxequal" unicode="&#x2248;" horiz-adv-x="460" 
d="M372 280h38q-3 -60 -33 -85t-70 -25q-32 0 -88.5 28.5t-83.5 28.5q-39 0 -47 -47h-38q6 56 30 83.5t75 27.5q29 0 82 -27.5t83 -27.5q38 0 52 44zM372 450h38q-3 -60 -33 -85t-70 -25q-32 0 -88.5 28.5t-83.5 28.5q-39 0 -47 -47h-38q6 56 30 83.5t75 27.5q29 0 82 -27.5
t83 -27.5q38 0 52 44z" />
    <glyph glyph-name="lessequal" unicode="&#x2264;" horiz-adv-x="460" 
d="M179 296v-2l231 -114v-65l-360 178v4l360 178v-65zM410 0h-360v60h360v-60z" />
    <glyph glyph-name="greaterequal" unicode="&#x2265;" horiz-adv-x="460" 
d="M281 294v2l-231 114v65l360 -178v-4l-360 -178v65zM410 0h-360v60h360v-60z" />
    <glyph glyph-name="commaaccent" unicode="&#xf6c3;" horiz-adv-x="172" 
d="M130 -55q17 -20 17 -47q0 -40 -33.5 -69.5t-83.5 -38.5v2q43 41 43 89q0 21 -14 37z" />
    <glyph glyph-name="zero.slash" horiz-adv-x="537" 
d="M268 710q108 0 173.5 -99.5t65.5 -260.5q0 -167 -67 -263.5t-172 -96.5q-109 0 -173.5 95.5t-64.5 264.5q0 159 67 259.5t171 100.5zM166 390q0 -122 28 -229l127 436q-32 78 -68 78q-20 0 -34.5 -10t-24 -30.5t-15.5 -43.5t-8.5 -59t-3.5 -66.5t-1 -75.5zM281 25
q29 0 47.5 20.5t26.5 64.5t10.5 87t2.5 114q0 112 -27 220l-126 -435q30 -71 66 -71z" />
    <glyph glyph-name="questiondown.uc" horiz-adv-x="449" 
d="M269 30q46 0 79 34.5t67 125.5h4l-20 -160q-79 -40 -144 -40q-225 0 -225 180q0 41 32 87t70.5 79.5t72 68.5t36.5 55l5 50h65l5 -68q3 -31 -10.5 -60t-35.5 -53t-45 -47.5t-39 -52.5t-16 -59q0 -62 29 -101t70 -39zM340 632q0 -28 -20 -48t-48 -20t-48 20t-20 48t20 48
t48 20t48 -20t20 -48z" />
    <glyph glyph-name="exclamdown.uc" horiz-adv-x="263" 
d="M20 -15l30 525h80l30 -428q0 -24 15.5 -46.5t37.5 -31.5v-4q-97 -2 -193 -15zM158 632q0 -28 -20 -48t-48 -20t-48 20t-20 48t20 48t48 20t48 -20t20 -48z" />
    <glyph glyph-name="parenleft.uc" horiz-adv-x="342" 
d="M30 350q0 147 76 246t196 119v-8q-71 -25 -111 -117.5t-40 -239.5t40 -239.5t111 -117.5v-8q-120 20 -196 119t-76 246z" />
    <glyph glyph-name="parenright.uc" horiz-adv-x="342" 
d="M302 350q0 -147 -76 -246t-196 -119v8q71 25 111 117.5t40 239.5t-40 239.5t-111 117.5v8q120 -20 196 -119t76 -246z" />
    <glyph glyph-name="bracketleft.uc" horiz-adv-x="313" 
d="M160 608v-518q0 -21 7.5 -39.5t17 -30t26 -22.5t26.5 -15.5t27 -11t19 -7.5v-4h-223v780h223v-4q-2 -1 -19 -7.5t-26.5 -11t-26.5 -15.5t-26.5 -23t-17 -30.5t-7.5 -40.5z" />
    <glyph glyph-name="bracketright.uc" horiz-adv-x="313" 
d="M183 90v518q0 22 -7.5 40.5t-17 30.5t-26.5 23t-26.5 15.5t-26.5 11t-19 7.5v4h223v-780h-223v4q2 1 19 7.5t27 11t26.5 15.5t26 22.5t17 30t7.5 39.5z" />
    <glyph glyph-name="grave.uc" horiz-adv-x="282" 
d="M30 895h106q15 -51 48 -96.5t68 -61.5v-2q-67 2 -136.5 60.5t-85.5 99.5z" />
    <glyph glyph-name="acute.uc" horiz-adv-x="282" 
d="M252 895q-16 -41 -85.5 -99.5t-136.5 -60.5v2q35 16 68 61.5t48 96.5h106z" />
    <glyph glyph-name="dieresis.uc" horiz-adv-x="396" 
d="M30 813q0 29 20 48.5t48 19.5t48 -19.5t20 -48.5t-20 -48.5t-48 -19.5t-48 19.5t-20 48.5zM230 813q0 29 20 48.5t48 19.5t48 -19.5t20 -48.5t-20 -48.5t-48 -19.5t-48 19.5t-20 48.5z" />
    <glyph glyph-name="circumflex.uc" horiz-adv-x="398" 
d="M146 895h106q15 -51 48 -96.5t68 -61.5v-2q-80 3 -168 91h-2q-91 -88 -168 -91v2q35 16 68 61.5t48 96.5z" />
    <glyph glyph-name="tilde.uc" horiz-adv-x="372" 
d="M334 875h8q-7 -130 -100 -130q-34 0 -83 22t-64 22q-47 0 -57 -54h-8q6 72 31 101t69 29q32 0 82 -23t68 -23q39 0 54 56z" />
    <glyph glyph-name="macron.uc" horiz-adv-x="380" 
d="M350 765h-320v60h320v-60z" />
    <glyph glyph-name="breve.uc" horiz-adv-x="352" 
d="M30 895h4q37 -80 142 -80q97 0 142 80h4q-22 -150 -146 -150q-125 0 -146 150z" />
    <glyph glyph-name="dotaccent.uc" horiz-adv-x="210" 
d="M30 820q0 31 22 53t53 22t53 -22t22 -53t-22 -53t-53 -22t-53 22t-22 53z" />
    <glyph glyph-name="ring.uc" horiz-adv-x="240" 
d="M30 815q0 37 26 63.5t64 26.5t64 -26.5t26 -63.5t-26 -63.5t-64 -26.5t-64 26.5t-26 63.5zM70 815q0 -21 14.5 -35.5t35.5 -14.5t35.5 14.5t14.5 35.5t-14.5 35.5t-35.5 14.5t-35.5 -14.5t-14.5 -35.5z" />
    <glyph glyph-name="hungarumlaut.uc" horiz-adv-x="442" 
d="M252 895q-16 -41 -85.5 -99.5t-136.5 -60.5v2q35 16 68 61.5t48 96.5h106zM412 895q-16 -41 -85.5 -99.5t-136.5 -60.5v2q35 16 68 61.5t48 96.5h106z" />
    <glyph glyph-name="caron.uc" horiz-adv-x="398" 
d="M252 745h-106q-15 51 -48 96.5t-68 61.5v2q77 -3 168 -91h2q88 88 168 91v-2q-35 -16 -68 -61.5t-48 -96.5z" />
    <glyph glyph-name="square" horiz-adv-x="380" 
d="M50 160v280h280v-280h-280z" />
    <glyph glyph-name="Zeacute" horiz-adv-x="542" 
d="M217 675q-87 0 -170 -185h-4l20 183q82 42 174 42q110 0 176 -50.5t66 -124.5q0 -110 -147 -160v-2q74 -11 132 -63.5t58 -124.5q0 -205 -275 -205q-128 0 -207 52l-20 183h4q83 -195 204 -195q59 0 94 37.5t35 107.5q0 78 -56 129t-127 51h-24v40h24q67 0 108.5 40
t41.5 100q0 145 -107 145zM382 895q-16 -41 -85.5 -99.5t-136.5 -60.5v2q35 16 68 61.5t48 96.5h106z" />
    <glyph glyph-name="zeacute" horiz-adv-x="441" 
d="M190 30q36 0 58 25t22 70q0 51 -37 85t-83 34h-32v40h32q43 0 69 26t26 65q0 95 -64 95q-40 0 -81.5 -34.5t-65.5 -85.5h-4l20 130q57 30 146 30q87 0 139.5 -36.5t52.5 -91.5q0 -39 -24.5 -64.5t-70.5 -44.5v-2q53 -14 90.5 -49t37.5 -83q0 -149 -217 -149
q-107 0 -164 30l-20 130h4q27 -57 64.5 -88.5t101.5 -31.5zM352 700q-16 -41 -85.5 -99.5t-136.5 -60.5v2q35 16 68 61.5t48 96.5h106z" />
    <glyph glyph-name="Esacute" horiz-adv-x="638" 
d="M410 25q121 0 204 195h4l-20 -183q-79 -52 -208 -52q-73 0 -138.5 22.5t-117.5 66t-83 115t-31 161.5q0 86 30.5 156.5t81 115t112 69t126.5 24.5q123 0 205 -42l20 -183h-4q-83 185 -231 185q-79 0 -127 -70.5t-48 -214.5q0 -162 61 -263.5t164 -101.5zM512 895
q-16 -41 -85.5 -99.5t-136.5 -60.5v2q35 16 68 61.5t48 96.5h106z" />
    <glyph glyph-name="esacute" horiz-adv-x="456" 
d="M290 30q40 0 79 34t63 86h4l-20 -130q-57 -30 -146 -30q-107 0 -178.5 67t-71.5 193q0 120 70.5 190t165.5 70q89 0 146 -30l20 -130h-4q-23 50 -67 85t-85 35q-46 0 -74 -45.5t-28 -144.5q0 -125 34.5 -187.5t91.5 -62.5zM382 700q-16 -41 -85.5 -99.5t-136.5 -60.5v2
q35 16 68 61.5t48 96.5h106z" />
    </font>
</defs>
</svg>
