<?xml version="1.0" encoding="UTF-8" standalone="no"?>
<!DOCTYPE svg  PUBLIC '-//W3C//DTD SVG 1.1//EN'  'http://www.w3.org/Graphics/SVG/1.1/DTD/svg11.dtd'>
<svg version="1.1" xmlns="http://www.w3.org/2000/svg">
<defs>
<font id="DINPro-CondensedMedium" horiz-adv-x="375">
<font-face font-stretch="condensed" units-per-em="1000" font-weight="500" underline-thickness="61" cap-height="712" stemv="81" panose-1="2 11 6 6 2 1 1 1 1 2" ascent="800" underline-position="-113" x-height="518" bbox="-70 -216 1030 1093" font-family="o" descent="-200" unicode-range="U+000D-FEFF" stemh="77"/>
<missing-glyph horiz-adv-x="395" d="M57 0v712h281v-712h-281zM118 61h159v590h-159v-590z"/>
<glyph horiz-adv-x="395" d="M57 0v712h281v-712h-281zM118 61h159v590h-159v-590z" glyph-name=".notdef"/>
<glyph horiz-adv-x="0" glyph-name=".null"/>
<glyph horiz-adv-x="0" glyph-name=".null"/>
<glyph horiz-adv-x="187" unicode="" glyph-name="CR"/>
<glyph horiz-adv-x="187" unicode=" " glyph-name="space"/>
<glyph horiz-adv-x="242" d="M174 193h-81v519h81v-519zM183 0h-99v99h99v-99z" unicode="!" glyph-name="exclam"/>
<glyph horiz-adv-x="395" d="M327 520h-83v192h83v-192zM150 520h-83v192h83v-192z" unicode='&quot;' glyph-name="quotedbl"/>
<glyph horiz-adv-x="554" d="M503 436h-82l-19 -145h72v-76h-84l-29 -215h-82l29 215h-105l-29 -215h-82l29 215h-70v76h82l19 145h-72v76h83l27 200h83l-27 -200h104l27 200h83l-28 -200h71v-76zM339 436h-105l-19 -145h104z" unicode="#" glyph-name="numbersign"/>
<glyph horiz-adv-x="434" d="M391 191c0 -74 -11 -121 -45 -155c-21 -21 -51 -36 -91 -41v-109h-77v108c-41 5 -73 19 -96 42c-33 33 -44 74 -44 150h86c0 -47 5 -73 24 -93c7 -8 17 -14 30 -18v262l-38 16c-73 30 -97 70 -97 178c0 62 18 113 54 146c22 20 48 33 81 39v90h77v-90 c37 -5 66 -18 87 -39c36 -35 47 -81 47 -146h-86c0 38 -4 64 -22 86c-7 8 -15 14 -26 19v-235l36 -15c81 -33 100 -83 100 -195zM305 189c0 71 -10 99 -50 121v-234c11 4 20 10 27 18c19 21 23 48 23 95zM178 428v208c-10 -4 -18 -10 -24 -17c-17 -19 -25 -48 -25 -85 c0 -61 8 -85 49 -106z" unicode="$" glyph-name="dollar"/>
<glyph horiz-adv-x="675" d="M624 102c0 -70 -50 -110 -113 -110s-113 40 -113 110v154c0 70 50 110 113 110s113 -40 113 -110v-154zM276 456c0 -70 -50 -110 -113 -110s-112 40 -112 110v154c0 70 49 110 112 110s113 -40 113 -110v-154zM494 712l-248 -712h-65l248 712h65zM556 103v151 c0 33 -17 51 -45 51s-45 -18 -45 -51v-151c0 -33 17 -51 45 -51s45 18 45 51zM208 458v151c0 33 -17 51 -45 51s-44 -18 -44 -51v-151c0 -33 16 -51 44 -51s45 18 45 51z" unicode="%" glyph-name="percent"/>
<glyph horiz-adv-x="492" d="M489 0h-87l-48 73c-42 -49 -83 -81 -155 -81c-92 0 -163 66 -163 177c0 84 38 147 115 220c-57 79 -82 120 -82 179c0 91 54 151 137 151c93 0 139 -61 139 -142c0 -84 -33 -135 -100 -200l109 -165c20 38 34 98 38 150h72c-5 -81 -30 -164 -65 -221zM313 137l-122 187 c-53 -53 -77 -98 -77 -148c0 -62 35 -110 92 -110c42 0 75 28 107 71zM270 575c0 42 -26 71 -63 71c-43 0 -63 -37 -63 -76c0 -35 16 -67 60 -128c42 43 66 75 66 133z" unicode="&amp;" glyph-name="ampersand"/>
<glyph horiz-adv-x="218" d="M151 520h-84v192h84v-192z" unicode="&apos;" glyph-name="quotesingle"/>
<glyph horiz-adv-x="244" d="M203 -39l-55 -55c-29 29 -56 57 -73 88c-19 34 -22 71 -22 108v508c0 37 3 74 22 108c18 33 44 59 73 88l55 -55c-21 -21 -41 -39 -54 -64c-10 -20 -15 -49 -15 -83v-496c0 -34 5 -63 15 -83c13 -25 33 -43 54 -64z" unicode="(" glyph-name="parenleft"/>
<glyph horiz-adv-x="244" d="M191 102c0 -37 -3 -74 -22 -108c-17 -31 -44 -59 -73 -88l-55 55c21 21 41 39 54 64c10 20 15 49 15 83v496c0 34 -5 63 -15 83c-13 25 -33 43 -54 64l55 55c29 -29 55 -55 73 -88c19 -34 22 -71 22 -108v-508z" unicode=")" glyph-name="parenright"/>
<glyph horiz-adv-x="393" d="M346 492l-30 -52l-92 56l3 -126h-61l4 126l-93 -56l-30 52l95 51l-95 50l30 53l93 -57l-4 126h61l-3 -126l92 57l30 -53l-96 -50z" unicode="*" glyph-name="asterisk"/>
<glyph horiz-adv-x="444" d="M398 244h-137v-137h-77v137h-138v77h138v138h77v-138h137v-77z" unicode="+" glyph-name="plus"/>
<glyph horiz-adv-x="207" d="M149 -56l-92 -68v224h92v-156z" unicode="," glyph-name="comma"/>
<glyph horiz-adv-x="298" d="M247 244h-196v77h196v-77z" unicode="-" glyph-name="hyphen"/>
<glyph horiz-adv-x="216" d="M158 0h-99v99h99v-99z" unicode="." glyph-name="period"/>
<glyph horiz-adv-x="272" d="M268 786l-185 -860h-79l185 860h79z" unicode="/" glyph-name="slash"/>
<glyph horiz-adv-x="381" d="M333 140c0 -53 -15 -85 -40 -110c-25 -24 -64 -38 -103 -38s-77 14 -102 38c-25 25 -40 57 -40 110v432c0 53 15 85 40 110c25 24 63 38 102 38s78 -14 103 -38c25 -25 40 -57 40 -110v-432zM252 137v438c0 48 -28 72 -62 72s-61 -24 -61 -72v-438c0 -48 27 -72 61 -72 s62 24 62 72z" unicode="0" glyph-name="zero"/>
<glyph horiz-adv-x="381" d="M252 0h-81v617l-104 -85v94l104 86h81v-712z" unicode="1" glyph-name="one"/>
<glyph horiz-adv-x="381" d="M336 0h-287v68l174 369c16 35 32 81 32 138c0 48 -27 72 -61 72s-62 -24 -62 -72v-48h-81v46c0 52 15 84 40 109c25 24 64 38 103 38s75 -12 100 -36s42 -59 42 -112s-19 -114 -41 -161l-159 -338h200v-73z" unicode="2" glyph-name="two"/>
<glyph horiz-adv-x="381" d="M334 200c0 -93 -7 -135 -43 -170c-25 -24 -63 -38 -103 -38c-39 0 -78 13 -102 38c-26 24 -41 56 -41 110v45h81v-48c0 -48 28 -72 62 -72c17 0 32 5 43 19c15 17 22 43 22 116c0 87 -5 106 -21 125c-10 12 -25 19 -44 19h-38v70h38c17 0 31 5 39 15c16 18 20 42 20 102 s-5 83 -18 99c-10 11 -23 17 -41 17c-33 0 -57 -23 -57 -70v-50h-81v46c0 52 14 85 39 110c25 24 60 37 99 37c42 0 76 -13 99 -36c29 -29 41 -71 41 -148c0 -59 -3 -89 -18 -117c-9 -16 -23 -30 -40 -40c17 -11 31 -24 41 -39c19 -31 23 -61 23 -140z" unicode="3" glyph-name="three"/>
<glyph horiz-adv-x="381" d="M353 117h-50v-117h-81v117h-193v73l182 522h78l-177 -522h110v163h81v-163h50v-73z" unicode="4" glyph-name="four"/>
<glyph horiz-adv-x="381" d="M337 228c0 -101 -4 -149 -44 -194c-24 -27 -63 -42 -102 -42c-40 0 -78 13 -103 37c-25 25 -41 57 -41 111v40h81v-40c0 -52 28 -75 63 -75c17 0 32 6 44 21c15 20 20 47 20 142c0 88 -4 119 -19 141c-11 16 -27 24 -45 24c-35 0 -63 -27 -63 -72v-24h-77v415h277v-73 h-202v-221c8 13 20 24 35 33c16 10 34 14 52 14c41 0 68 -15 89 -41c26 -31 35 -74 35 -196z" unicode="5" glyph-name="five"/>
<glyph horiz-adv-x="381" d="M336 213c0 -101 -9 -140 -35 -173c-25 -33 -67 -48 -111 -48c-48 0 -86 18 -109 48c-29 38 -36 77 -36 173c0 72 10 129 29 179l120 320h83l-115 -297c14 11 32 17 51 17c35 0 66 -14 87 -41c26 -31 36 -64 36 -178zM255 214c0 71 -3 109 -20 131c-10 13 -26 19 -44 19 s-34 -6 -44 -19c-18 -21 -21 -60 -21 -131s3 -109 21 -130c10 -13 26 -19 44 -19s33 7 44 19c18 21 20 59 20 130z" unicode="6" glyph-name="six"/>
<glyph horiz-adv-x="381" d="M339 645l-188 -645h-82l188 639h-138v-105h-79v178h299v-67z" unicode="7" glyph-name="seven"/>
<glyph horiz-adv-x="381" d="M336 199c0 -88 -6 -130 -43 -168c-24 -25 -63 -39 -102 -39c-40 0 -78 14 -103 39c-37 38 -43 80 -43 168c0 79 5 108 23 137c10 16 24 29 41 40c-16 11 -30 25 -39 41c-15 28 -20 57 -20 116c0 77 10 118 42 150c25 25 59 37 98 37s75 -12 99 -37c32 -32 42 -73 42 -150 c0 -59 -5 -88 -20 -116c-9 -16 -23 -30 -39 -41c17 -11 31 -24 41 -40c18 -29 23 -58 23 -137zM255 202c0 77 -4 101 -21 121c-11 13 -25 19 -43 19s-33 -6 -44 -19c-17 -20 -21 -44 -21 -121c0 -70 5 -99 21 -118c10 -13 26 -19 44 -19s32 6 43 19c16 19 21 48 21 118z M250 529c0 67 -6 87 -21 103c-10 10 -23 15 -38 15c-16 0 -29 -5 -39 -15c-15 -16 -21 -36 -21 -103s6 -88 21 -104c10 -10 23 -14 39 -14c15 0 28 4 38 14c15 16 21 37 21 104z" unicode="8" glyph-name="eight"/>
<glyph horiz-adv-x="381" d="M336 499c0 -72 -10 -129 -29 -179l-120 -320h-83l116 297c-15 -11 -33 -17 -51 -17c-36 0 -66 14 -88 41c-26 31 -36 64 -36 178c0 101 9 140 36 173c24 33 66 48 110 48c48 0 86 -18 109 -48c29 -38 36 -77 36 -173zM255 498c0 70 -2 109 -20 130c-11 12 -27 19 -44 19 c-18 0 -34 -6 -44 -19c-18 -21 -21 -60 -21 -130s3 -110 21 -131c10 -13 26 -19 44 -19c17 0 33 7 44 19c18 21 20 60 20 131z" unicode="9" glyph-name="nine"/>
<glyph horiz-adv-x="242" d="M183 326h-99v99h99v-99zM183 0h-99v99h99v-99z" unicode=":" glyph-name="colon"/>
<glyph horiz-adv-x="242" d="M180 -56l-92 -68v224h92v-156zM183 326h-99v99h99v-99z" unicode=";" glyph-name="semicolon"/>
<glyph horiz-adv-x="381" d="M347 75l-313 182v61l313 183v-90l-216 -123l216 -123v-90z" unicode="&lt;" glyph-name="less"/>
<glyph horiz-adv-x="444" d="M398 320h-352v77h352v-77zM398 158h-352v77h352v-77z" unicode="=" glyph-name="equal"/>
<glyph horiz-adv-x="381" d="M347 257l-313 -182v90l216 123l-216 123v90l313 -183v-61z" unicode="&gt;" glyph-name="greater"/>
<glyph horiz-adv-x="400" d="M362 535c0 -51 -7 -84 -31 -119l-59 -85c-15 -22 -22 -45 -22 -70v-68h-81v78c0 31 12 60 28 84l58 85c22 32 26 57 26 97c0 44 -6 69 -23 88c-12 13 -28 20 -50 20c-21 0 -36 -7 -48 -19c-20 -21 -22 -53 -22 -82h-81c0 55 11 101 43 132c26 25 61 42 108 42 s83 -14 110 -41c31 -31 44 -70 44 -142zM259 0h-99v99h99v-99z" unicode="?" glyph-name="question"/>
<glyph horiz-adv-x="562" d="M504 0h-78v40c-7 -12 -21 -25 -32 -32c-16 -10 -35 -16 -56 -16c-39 0 -66 13 -88 38c-21 23 -31 51 -31 107v205c0 56 10 85 31 108c22 25 49 37 88 37c23 0 39 -5 56 -15c9 -6 22 -17 29 -28v106c0 62 -32 93 -86 93h-119c-53 0 -86 -31 -86 -93v-431 c0 -34 9 -55 28 -73l-58 -57c-38 35 -51 72 -51 128v441c0 55 17 88 43 114c25 25 61 40 108 40h151c47 0 83 -15 108 -40c26 -26 43 -59 43 -114v-558zM423 137v206c0 48 -27 72 -61 72s-62 -24 -62 -72v-206c0 -48 28 -72 62 -72s61 24 61 72z" unicode="@" glyph-name="at"/>
<glyph horiz-adv-x="424" d="M419 0h-91l-34 168h-165l-34 -168h-90l166 712h83zM278 245l-66 328l-67 -328h133z" unicode="A" glyph-name="A"/>
<glyph horiz-adv-x="444" d="M394 200c0 -86 -14 -124 -46 -157c-29 -30 -68 -43 -131 -43h-153v712h153c63 0 101 -13 130 -43c31 -32 42 -67 42 -144c0 -51 -7 -93 -42 -127c-12 -12 -26 -21 -40 -27c16 -5 32 -15 44 -26c37 -36 43 -84 43 -145zM308 205c0 92 -32 128 -96 128h-62v-256h62 c65 0 96 30 96 128zM303 521c0 86 -28 114 -90 114h-63v-228h63c61 0 90 33 90 114z" unicode="B" glyph-name="B"/>
<glyph horiz-adv-x="423" d="M385 176c-1 -60 -19 -113 -54 -145c-28 -25 -63 -39 -110 -39c-56 0 -95 21 -122 52c-47 54 -52 115 -52 312s5 258 52 312c27 31 66 52 122 52c50 0 85 -15 113 -42c33 -32 50 -83 51 -141h-85c-1 30 -6 60 -23 81c-11 14 -29 25 -56 25c-28 0 -47 -11 -59 -27 c-25 -34 -29 -91 -29 -260s4 -226 29 -260c12 -16 31 -27 59 -27c27 0 45 11 56 25c16 21 22 52 23 82h85z" unicode="C" glyph-name="C"/>
<glyph horiz-adv-x="448" d="M401 356c0 -193 -5 -257 -51 -306c-26 -29 -64 -50 -122 -50h-164v712h164c58 0 96 -21 122 -50c46 -49 51 -113 51 -306zM315 356c0 164 -2 219 -29 252c-13 16 -33 27 -61 27h-75v-558h75c28 0 48 11 61 27c27 33 29 88 29 252z" unicode="D" glyph-name="D"/>
<glyph horiz-adv-x="380" d="M339 0h-275v712h275v-77h-189v-239h163v-77h-163v-242h189v-77z" unicode="E" glyph-name="E"/>
<glyph d="M339 635h-189v-239h163v-77h-163v-319h-86v712h275v-77z" unicode="F" glyph-name="F"/>
<glyph horiz-adv-x="434" d="M386 171c-1 -119 -72 -179 -165 -179c-56 0 -95 22 -122 52c-46 51 -52 115 -52 312s6 261 52 312c27 30 66 52 122 52c50 0 88 -17 115 -44c33 -33 48 -83 49 -140h-85c-1 48 -13 107 -79 107c-28 0 -47 -11 -59 -27c-25 -34 -29 -91 -29 -260s4 -226 29 -260 c12 -16 31 -27 59 -27c50 0 79 41 79 99v143h-79v71h165v-211z" unicode="G" glyph-name="G"/>
<glyph horiz-adv-x="458" d="M394 0h-86v324h-158v-324h-86v712h86v-311h158v311h86v-712z" unicode="H" glyph-name="H"/>
<glyph horiz-adv-x="215" d="M150 0h-86v712h86v-712z" unicode="I" glyph-name="I"/>
<glyph horiz-adv-x="361" d="M303 170c0 -54 -15 -99 -45 -130c-31 -32 -73 -48 -126 -48s-96 20 -127 54l61 57c14 -19 39 -34 66 -34c48 0 85 35 85 101v542h86v-542z" unicode="J" glyph-name="J"/>
<glyph horiz-adv-x="439" d="M431 0h-93l-126 322l-62 -123v-199h-86v712h86v-361l172 361h88l-144 -294z" unicode="K" glyph-name="K"/>
<glyph horiz-adv-x="361" d="M339 0h-275v712h86v-635h189v-77z" unicode="L" glyph-name="L"/>
<glyph horiz-adv-x="578" d="M513 0h-86v507l-113 -333h-53l-111 325v-499h-86v712h81l144 -396l143 396h81v-712z" unicode="M" glyph-name="M"/>
<glyph horiz-adv-x="477" d="M412 0h-78l-184 487v-487h-86v712h80l182 -487v487h86v-712z" unicode="N" glyph-name="N"/>
<glyph horiz-adv-x="442" d="M395 356c0 -197 -6 -261 -52 -312c-28 -31 -66 -52 -122 -52s-94 21 -122 52c-46 51 -52 115 -52 312s6 261 52 312c28 31 66 52 122 52s94 -21 122 -52c46 -51 52 -115 52 -312zM309 356c0 169 -5 226 -30 260c-12 16 -30 27 -58 27s-47 -11 -59 -27 c-25 -34 -29 -91 -29 -260s4 -226 29 -260c12 -16 31 -27 59 -27s46 11 58 27c25 34 30 91 30 260z" unicode="O" glyph-name="O"/>
<glyph horiz-adv-x="435" d="M393 504c0 -156 -63 -207 -169 -207h-74v-297h-86v712h160c108 0 169 -50 169 -208zM307 504c0 96 -28 131 -86 131h-71v-261h71c58 0 86 35 86 130z" unicode="P" glyph-name="P"/>
<glyph horiz-adv-x="442" d="M421 25l-41 -49l-57 48c-25 -20 -59 -32 -102 -32c-56 0 -96 21 -122 52c-44 53 -52 115 -52 312s8 259 52 312c26 31 66 52 122 52s96 -21 122 -52c44 -53 52 -115 52 -312c0 -178 -6 -238 -31 -283zM309 356c0 170 -5 226 -30 261c-11 16 -30 26 -58 26 s-47 -10 -59 -26c-25 -35 -29 -91 -29 -261s4 -226 29 -261c12 -16 31 -26 59 -26c15 0 27 3 37 9l-47 40l41 48l41 -35c14 38 16 92 16 225z" unicode="Q" glyph-name="Q"/>
<glyph horiz-adv-x="455" d="M416 0h-91l-98 306h-77v-306h-86v712h161c108 0 168 -47 168 -203c0 -99 -24 -157 -86 -186zM307 509c0 76 -15 126 -81 126h-76v-253h76c66 0 81 51 81 127z" unicode="R" glyph-name="R"/>
<glyph horiz-adv-x="420" d="M377 191c0 -74 -10 -121 -44 -155c-27 -26 -69 -43 -126 -43c-55 0 -97 15 -125 43c-33 33 -44 74 -44 150h86c0 -47 5 -73 24 -93c12 -13 32 -22 59 -22c29 0 48 9 61 23c19 21 23 48 23 95c0 82 -12 107 -70 131l-81 33c-73 30 -97 70 -97 178c0 62 18 113 54 146 c28 26 66 41 113 41c52 0 91 -15 118 -41c36 -35 47 -81 47 -146h-86c0 38 -4 64 -22 86c-12 15 -31 24 -58 24c-25 0 -43 -9 -55 -22c-17 -19 -25 -48 -25 -85c0 -70 11 -91 68 -115l80 -33c81 -33 100 -83 100 -195z" unicode="S" glyph-name="S"/>
<glyph horiz-adv-x="367" d="M346 635h-119v-635h-86v635h-120v77h325v-77z" unicode="T" glyph-name="T"/>
<glyph horiz-adv-x="445" d="M387 162c0 -52 -17 -94 -46 -123c-31 -31 -73 -47 -119 -47s-87 16 -118 47c-29 29 -46 71 -46 123v550h86v-555c0 -56 35 -88 78 -88s79 32 79 88v555h86v-550z" unicode="U" glyph-name="U"/>
<glyph horiz-adv-x="404" d="M400 712l-154 -712h-88l-154 712h95l103 -573l104 573h94z" unicode="V" glyph-name="V"/>
<glyph horiz-adv-x="652" d="M648 712l-122 -712h-89l-111 573l-110 -573h-89l-123 712h95l73 -573l106 573h96l108 -573l72 573h94z" unicode="W" glyph-name="W"/>
<glyph horiz-adv-x="403" d="M388 0h-94l-93 282l-92 -282h-94l136 370l-125 342h94l81 -260l82 260h94l-129 -342z" unicode="X" glyph-name="X"/>
<glyph horiz-adv-x="353" d="M351 712l-132 -424v-288h-86v288l-131 424h94l80 -304l80 304h95z" unicode="Y" glyph-name="Y"/>
<glyph horiz-adv-x="349" d="M318 0h-287v65l198 570h-185v77h274v-65l-197 -570h197v-77z" unicode="Z" glyph-name="Z"/>
<glyph horiz-adv-x="259" d="M230 -74h-172v860h172v-71h-91v-718h91v-71z" unicode="[" glyph-name="bracketleft"/>
<glyph horiz-adv-x="272" d="M268 -74h-79l-185 860h79z" unicode="\" glyph-name="backslash"/>
<glyph horiz-adv-x="259" d="M201 -74h-172v71h91v718h-91v71h172v-860z" unicode="]" glyph-name="bracketright"/>
<glyph horiz-adv-x="455" d="M398 436h-80l-90 199l-90 -199h-81l134 281h73z" unicode="^" glyph-name="asciicircum"/>
<glyph horiz-adv-x="444" d="M444 -144h-444v61h444v-61z" unicode="_" glyph-name="underscore"/>
<glyph horiz-adv-x="377" d="M225 586h-62l-81 135h74z" unicode="`" glyph-name="grave"/>
<glyph d="M322 0h-77v46c-8 -14 -20 -27 -30 -35c-16 -12 -33 -19 -61 -19c-38 0 -65 12 -89 39c-20 23 -33 62 -33 116c0 48 16 90 46 117c26 23 56 35 110 35h53v82c0 48 -21 74 -61 74c-18 0 -30 -7 -40 -17c-14 -15 -19 -32 -19 -60h-81c0 40 9 79 40 110c23 23 60 38 100 38 c42 0 77 -12 101 -36c25 -26 41 -61 41 -114v-376zM241 144v96h-46c-25 0 -42 -4 -58 -19c-15 -14 -24 -43 -24 -71c0 -54 21 -87 63 -87c39 0 65 33 65 81z" unicode="a" glyph-name="a"/>
<glyph horiz-adv-x="387" d="M347 259c0 -122 -4 -189 -38 -228c-23 -27 -50 -39 -86 -39c-22 0 -40 6 -56 16c-10 7 -25 21 -31 32v-40h-79v712h81v-230c8 11 19 21 29 28c16 11 34 16 56 16c36 0 63 -11 86 -38c34 -39 38 -107 38 -229zM265 259c0 107 -3 151 -21 173c-10 13 -25 21 -44 21 c-17 0 -31 -5 -42 -16c-13 -13 -20 -31 -20 -59v-237c0 -28 7 -47 20 -60c11 -11 25 -16 42 -16c19 0 34 8 44 21c18 22 21 66 21 173z" unicode="b" glyph-name="b"/>
<glyph horiz-adv-x="362" d="M330 145c-2 -49 -14 -89 -41 -117c-25 -25 -60 -36 -102 -36c-44 0 -83 13 -109 48c-32 41 -38 115 -38 219c0 105 6 178 38 219c26 35 65 48 109 48c42 0 74 -9 101 -35c32 -30 40 -73 42 -117h-81c0 21 -2 43 -16 60c-11 13 -25 19 -45 19c-19 0 -36 -8 -46 -22 c-19 -25 -20 -78 -20 -172c0 -93 1 -146 20 -172c10 -14 27 -22 46 -22c18 0 34 7 44 19c14 16 17 37 17 61h81z" unicode="c" glyph-name="c"/>
<glyph horiz-adv-x="387" d="M330 0h-79v40c-5 -10 -22 -27 -31 -32c-17 -10 -36 -16 -56 -16c-36 0 -63 12 -86 39c-33 38 -38 108 -38 228s5 190 38 229c21 25 48 38 86 38c21 0 39 -5 56 -15c10 -6 21 -18 29 -29v230h81v-712zM249 141v237c0 28 -7 46 -20 59c-11 11 -25 16 -42 16 c-19 0 -34 -8 -44 -21c-18 -22 -21 -66 -21 -173s3 -151 21 -173c10 -13 25 -21 44 -21c17 0 31 5 42 16c13 13 20 32 20 60z" unicode="d" glyph-name="d"/>
<glyph horiz-adv-x="372" d="M335 240h-213c0 -82 3 -130 21 -153c9 -13 25 -22 46 -22c18 0 33 5 46 20s17 35 17 60h81c-1 -48 -13 -84 -42 -115c-25 -26 -60 -38 -102 -38c-44 0 -76 11 -103 40c-39 41 -46 119 -46 227c0 109 7 186 45 227c27 29 60 40 102 40s75 -11 102 -40 c39 -41 46 -118 46 -246zM253 301c0 75 -4 112 -20 131c-10 13 -24 21 -46 21s-35 -8 -45 -21c-16 -19 -20 -56 -20 -131h131z" unicode="e" glyph-name="e"/>
<glyph horiz-adv-x="254" d="M237 455h-80v-455h-81v455h-59v63h59v50c0 54 16 91 45 115c32 27 72 33 116 33v-73c-53 0 -80 -26 -80 -78v-47h80v-63z" unicode="f" glyph-name="f"/>
<glyph horiz-adv-x="387" d="M330 518v-530c0 -77 -13 -115 -42 -145c-24 -25 -62 -40 -102 -40s-78 12 -104 37c-29 29 -39 67 -39 112h81c0 -25 3 -46 17 -62c11 -11 27 -17 44 -17c19 0 34 8 44 19c15 16 20 43 20 91v79c-8 -11 -18 -22 -29 -29c-15 -11 -33 -16 -54 -16c-35 0 -63 12 -85 38 c-33 37 -41 95 -41 217s8 179 41 217c22 25 49 37 85 37c22 0 40 -5 56 -16c11 -7 22 -18 29 -28v36h79zM249 164v214c0 28 -7 46 -20 59c-11 11 -25 16 -42 16c-19 0 -34 -8 -44 -21c-18 -22 -21 -62 -21 -161s3 -139 21 -162c10 -12 25 -21 44 -21c17 0 31 6 42 17 c13 13 20 31 20 59z" unicode="g" glyph-name="g"/>
<glyph horiz-adv-x="395" d="M342 0h-81v381c0 48 -28 72 -62 72s-61 -24 -61 -72v-381h-81v712h81v-231c7 11 19 23 29 29c16 10 35 16 56 16c39 0 66 -13 88 -38c21 -23 31 -51 31 -107v-381z" unicode="h" glyph-name="h"/>
<glyph horiz-adv-x="195" d="M138 0h-81v518h81v-518zM145 610h-95v94h95v-94z" unicode="i" glyph-name="i"/>
<glyph horiz-adv-x="195" d="M138 -46c0 -57 -18 -93 -46 -116c-31 -26 -69 -32 -113 -32v73c50 0 78 20 78 78v561h81v-564zM145 610h-95v94h95v-94z" unicode="j" glyph-name="j"/>
<glyph horiz-adv-x="395" d="M383 0h-90l-99 244l-56 -89v-155h-81v712h81v-440l147 246h86l-126 -202z" unicode="k" glyph-name="k"/>
<glyph horiz-adv-x="228" d="M211 0c-44 0 -81 6 -112 32c-28 23 -46 59 -46 116v564h81v-561c0 -51 24 -78 77 -78v-73z" unicode="l" glyph-name="l"/>
<glyph horiz-adv-x="599" d="M545 0h-81v381c0 47 -27 71 -61 71s-61 -24 -61 -71v-381h-81v381c0 47 -28 71 -62 71s-61 -24 -61 -71v-381h-81v518h78v-40c7 12 21 25 32 32c16 10 35 16 56 16c40 0 78 -22 99 -54c11 14 26 29 41 38c16 10 40 16 59 16c45 0 71 -13 93 -38c21 -23 30 -51 30 -107 v-381z" unicode="m" glyph-name="m"/>
<glyph horiz-adv-x="395" d="M342 0h-81v381c0 47 -28 71 -62 71s-61 -24 -61 -71v-381h-81v518h78v-40c7 12 21 25 32 32c16 10 35 16 56 16c39 0 66 -13 88 -38c21 -23 31 -51 31 -107v-381z" unicode="n" glyph-name="n"/>
<glyph horiz-adv-x="376" d="M335 259c0 -105 -5 -178 -37 -219c-26 -35 -64 -48 -110 -48s-83 13 -109 48c-32 41 -38 114 -38 219s6 178 38 219c26 35 63 48 109 48s84 -13 110 -48c32 -41 37 -114 37 -219zM254 259c0 93 -1 146 -20 172c-10 14 -27 22 -46 22s-35 -8 -45 -22 c-19 -26 -21 -79 -21 -172s2 -146 21 -172c10 -14 26 -22 45 -22s36 8 46 22c19 26 20 79 20 172z" unicode="o" glyph-name="o"/>
<glyph horiz-adv-x="387" d="M347 259c0 -120 -5 -189 -38 -228c-23 -27 -48 -39 -86 -39c-21 0 -39 5 -56 15c-10 7 -21 18 -29 29v-230h-81v712h79v-40c5 11 22 25 31 32c17 11 36 16 56 16c36 0 63 -11 86 -38c33 -39 38 -109 38 -229zM265 259c0 107 -3 151 -21 173c-10 13 -25 21 -44 21 c-17 0 -31 -5 -42 -16c-13 -13 -20 -31 -20 -59v-237c0 -28 7 -47 20 -60c11 -11 25 -16 42 -16c19 0 34 8 44 21c18 22 21 66 21 173z" unicode="p" glyph-name="p"/>
<glyph horiz-adv-x="387" d="M330 -194h-81v230c-8 -11 -19 -22 -29 -29c-17 -10 -35 -15 -56 -15c-38 0 -63 12 -86 39c-33 39 -38 108 -38 228s5 190 38 229c23 27 50 38 86 38c20 0 39 -5 56 -16c9 -7 26 -21 31 -32v40h79v-712zM249 141v237c0 28 -7 46 -20 59c-11 11 -25 16 -42 16 c-19 0 -34 -8 -44 -21c-18 -22 -21 -66 -21 -173s3 -151 21 -173c10 -13 25 -21 44 -21c17 0 31 5 42 16c13 13 20 32 20 60z" unicode="q" glyph-name="q"/>
<glyph horiz-adv-x="272" d="M256 448h-24c-55 0 -94 -36 -94 -95v-353h-81v518h78v-55c8 14 23 28 36 37c24 17 52 26 85 26v-78z" unicode="r" glyph-name="r"/>
<glyph horiz-adv-x="359" d="M328 141c0 -46 -18 -82 -44 -108c-28 -29 -64 -41 -106 -41s-79 14 -104 40c-30 31 -44 67 -44 114h80c0 -27 7 -47 22 -63c12 -12 30 -18 46 -18c21 0 36 6 49 19c12 12 20 31 20 52c0 18 -4 33 -13 47c-10 15 -25 26 -46 37l-67 34c-34 17 -58 38 -71 60 c-11 19 -16 41 -16 68c0 45 17 79 43 105s62 39 102 39c41 0 76 -12 101 -37c27 -26 42 -63 42 -114h-80c0 30 -6 48 -19 62c-12 13 -28 18 -44 18c-19 0 -34 -6 -45 -17c-13 -13 -19 -31 -19 -50c0 -15 3 -27 9 -38c7 -12 22 -24 43 -34l66 -33c35 -17 58 -35 73 -59 c14 -21 22 -50 22 -83z" unicode="s" glyph-name="s"/>
<glyph horiz-adv-x="260" d="M240 0c-46 0 -86 4 -119 32c-29 24 -45 62 -45 116v307h-59v63h59v142h81v-142h80v-63h-80v-304c0 -55 29 -78 83 -78v-73z" unicode="t" glyph-name="t"/>
<glyph horiz-adv-x="395" d="M338 0h-78v40c-7 -12 -21 -25 -32 -32c-16 -10 -35 -16 -56 -16c-39 0 -66 13 -88 38c-21 23 -31 51 -31 107v381h81v-381c0 -48 28 -72 62 -72s61 24 61 72v381h81v-518z" unicode="u" glyph-name="u"/>
<glyph horiz-adv-x="343" d="M339 518l-124 -518h-86l-125 518h89l79 -390l78 390h89z" unicode="v" glyph-name="v"/>
<glyph horiz-adv-x="526" d="M522 518l-109 -518h-82l-70 379l-68 -379h-82l-107 518h92l59 -390l69 390h73l73 -390l60 390h92z" unicode="w" glyph-name="w"/>
<glyph horiz-adv-x="356" d="M343 0h-90l-75 187l-75 -187h-90l118 264l-112 254h90l69 -181l69 181h90l-114 -254z" unicode="x" glyph-name="x"/>
<glyph horiz-adv-x="345" d="M339 518l-146 -601c-22 -93 -86 -111 -172 -111v72c50 0 81 13 93 60l16 63l-126 517h89l79 -389l78 389h89z" unicode="y" glyph-name="y"/>
<glyph horiz-adv-x="301" d="M277 0h-253v62l163 384h-152v72h242v-62l-163 -383h163v-73z" unicode="z" glyph-name="z"/>
<glyph horiz-adv-x="311" d="M282 -74h-42c-34 0 -68 13 -90 35c-21 21 -35 52 -35 100v192c0 42 -24 67 -57 67h-29v72h29c33 0 57 25 57 67v192c0 48 14 79 35 100c22 22 56 35 90 35h42v-73h-28c-33 0 -58 -24 -58 -66v-186c0 -42 -12 -68 -29 -85c-10 -10 -21 -16 -33 -20c13 -4 24 -11 33 -20 c17 -16 29 -43 29 -85v-186c0 -42 25 -66 58 -66h28v-73z" unicode="{" glyph-name="braceleft"/>
<glyph horiz-adv-x="290" d="M186 -74h-81v860h81v-860z" unicode="|" glyph-name="bar"/>
<glyph horiz-adv-x="311" d="M282 320h-28c-33 0 -57 -25 -57 -67v-192c0 -48 -14 -79 -36 -100c-22 -22 -56 -35 -90 -35h-42v73h29c33 0 58 24 58 66v186c0 42 12 69 28 85c10 10 21 16 34 20c-13 4 -25 10 -34 20c-17 17 -28 43 -28 85v186c0 42 -25 66 -58 66h-29v73h42c34 0 68 -13 90 -35 c22 -21 36 -52 36 -100v-192c0 -42 24 -67 57 -67h28v-72z" unicode="}" glyph-name="braceright"/>
<glyph horiz-adv-x="444" d="M410 285c-33 -33 -65 -60 -113 -60c-61 0 -96 44 -147 44c-29 0 -46 -13 -66 -33l-49 48c32 32 64 60 112 60c62 0 98 -44 148 -44c29 0 45 14 65 34z" unicode="~" glyph-name="asciitilde"/>
<glyph horiz-adv-x="187" unicode=" " glyph-name="uni00A0"/>
<glyph horiz-adv-x="242" d="M149 -194h-81v519h81v-519zM158 419h-99v99h99v-99z" unicode="¡" glyph-name="exclamdown"/>
<glyph horiz-adv-x="367" d="M332 250c-1 -47 -13 -84 -40 -110c-18 -17 -41 -27 -69 -32v-108h-64v107c-31 5 -58 19 -78 44c-32 39 -37 109 -37 209s5 170 37 209c20 25 47 39 78 44v99h64v-99c27 -4 49 -13 68 -31c31 -29 40 -72 41 -113h-80c0 20 -2 42 -16 58c-4 4 -8 8 -13 11v-355 c4 3 8 6 12 10c14 15 17 34 17 57h80zM159 183v354c-6 -3 -10 -8 -14 -13c-19 -25 -20 -75 -20 -164s1 -139 20 -164c4 -5 8 -10 14 -13z" unicode="¢" glyph-name="cent"/>
<glyph horiz-adv-x="427" d="M395 0h-298v338h-64v62h64v144c0 111 77 176 171 176c50 0 95 -19 127 -53l-60 -57c-15 19 -36 33 -67 33c-47 0 -85 -36 -85 -97v-146h85v-62h-85v-261h212v-77z" unicode="£" glyph-name="sterling"/>
<glyph horiz-adv-x="493" d="M449 127l-51 -51l-56 57c-27 -18 -60 -30 -95 -30c-36 0 -69 12 -96 30l-56 -57l-51 51l57 56c-18 27 -29 60 -29 95c0 36 11 69 29 96l-57 56l51 51l56 -56c27 18 60 28 96 28c35 0 68 -10 95 -28l56 56l51 -51l-57 -56c18 -27 30 -60 30 -96c0 -35 -12 -68 -30 -95z M350 278c0 58 -46 104 -103 104c-58 0 -104 -46 -104 -104c0 -57 46 -103 104 -103c57 0 103 46 103 103z" unicode="¤" glyph-name="currency"/>
<glyph horiz-adv-x="353" d="M345 712l-92 -307h55v-62h-74l-17 -55v-40h91v-62h-91v-186h-82v186h-91v62h91v40l-16 55h-75v62h55l-92 307h91l78 -304l79 304h90z" unicode="¥" glyph-name="yen"/>
<glyph horiz-adv-x="290" d="M186 437h-81v348h81v-348zM186 -73h-81v348h81v-348z" unicode="¦" glyph-name="brokenbar"/>
<glyph horiz-adv-x="409" d="M357 271c0 -82 -6 -121 -44 -154c-9 -8 -26 -18 -40 -20c24 -16 43 -29 57 -53c13 -21 19 -50 19 -77c0 -46 -14 -80 -41 -107c-27 -28 -65 -40 -106 -40s-79 15 -104 40c-27 28 -41 64 -42 105h83c0 -20 6 -39 19 -54c11 -12 28 -18 44 -18c20 0 35 5 47 18 c11 12 17 29 17 51c0 17 -4 34 -12 45c-10 16 -27 27 -45 36l-69 34c-16 8 -32 18 -44 29c-41 40 -44 85 -44 165c0 81 7 117 45 151c8 8 26 18 40 20c-24 15 -46 33 -59 55c-11 19 -17 42 -17 73c0 43 16 77 42 103c25 26 63 39 103 39c39 0 70 -11 96 -33 c29 -25 45 -65 46 -109h-82c0 20 -5 38 -18 53c-12 12 -27 17 -42 17c-19 0 -33 -6 -43 -16c-13 -12 -19 -30 -19 -48c0 -19 4 -33 10 -43c7 -12 23 -25 41 -34l69 -34c18 -8 40 -21 52 -33c36 -37 41 -69 41 -161zM276 271c0 71 -5 94 -25 113c-12 12 -28 18 -46 18 s-34 -6 -47 -17c-18 -17 -25 -39 -25 -114c0 -71 7 -97 25 -114c13 -12 29 -18 47 -18s34 6 46 18c19 18 25 43 25 114z" unicode="§" glyph-name="section"/>
<glyph horiz-adv-x="377" d="M151 601h-82v82h82v-82zM307 601h-81v82h81v-82z" unicode="¨" glyph-name="dieresis"/>
<glyph horiz-adv-x="853" d="M788 356c0 -200 -162 -362 -362 -362s-362 162 -362 362s162 362 362 362s362 -162 362 -362zM730 356c0 173 -134 309 -304 309c-169 0 -303 -136 -303 -309s134 -309 303 -309c170 0 304 136 304 309zM526 265c-1 -39 -10 -66 -30 -86c-18 -18 -40 -27 -68 -27 c-31 0 -55 11 -74 33c-24 28 -29 78 -29 171s5 142 29 170c19 22 43 33 74 33c28 0 50 -9 68 -27c19 -19 29 -47 30 -86h-54c0 20 -2 38 -13 50c-7 9 -18 13 -31 13c-16 0 -26 -7 -33 -16c-15 -20 -16 -65 -16 -137s1 -118 16 -138c7 -9 17 -16 33 -16c13 0 24 4 31 13 c11 12 13 30 13 50h54z" unicode="©" glyph-name="copyright"/>
<glyph horiz-adv-x="314" d="M268 307h-64v33c-8 -12 -19 -21 -26 -25c-12 -8 -29 -13 -48 -13c-31 0 -54 9 -74 31c-17 18 -27 47 -27 89c0 39 14 70 40 92c20 18 47 27 89 27h42v60c0 33 -16 56 -49 56c-15 0 -26 -6 -34 -15c-12 -12 -14 -28 -14 -46h-68c0 33 8 64 34 89c19 19 49 31 82 31 c32 0 62 -9 83 -30c21 -20 34 -49 34 -91v-288zM200 426v65h-37c-18 0 -34 -4 -45 -14c-13 -11 -21 -31 -21 -52c0 -36 15 -65 51 -65c30 0 52 27 52 66z" unicode="ª" glyph-name="ordfeminine"/>
<glyph horiz-adv-x="392" d="M174 42l-148 230l148 229v-127l-68 -102l68 -103v-127zM341 42l-148 230l148 229v-127l-69 -102l69 -103v-127z" unicode="«" glyph-name="guillemotleft"/>
<glyph horiz-adv-x="444" d="M394 146h-77v107h-267v77h344v-184z" unicode="¬" glyph-name="logicalnot"/>
<glyph horiz-adv-x="298" d="M247 244h-196v77h196v-77z" unicode="­" glyph-name="uni00AD"/>
<glyph horiz-adv-x="853" d="M788 356c0 -200 -162 -362 -362 -362s-362 162 -362 362s162 362 362 362s362 -162 362 -362zM730 356c0 173 -134 309 -304 309s-303 -136 -303 -309s133 -309 303 -309s304 136 304 309zM544 157h-56l-52 168h-47v-168h-54v397h102c30 0 52 -8 68 -24 c21 -21 27 -48 27 -91s-5 -67 -26 -88c-6 -6 -13 -11 -20 -15zM478 439c0 26 -1 42 -12 54c-7 7 -17 11 -29 11h-48v-130h48c12 0 21 4 28 11c11 12 13 28 13 54z" unicode="®" glyph-name="registered"/>
<glyph horiz-adv-x="377" d="M303 612h-229v57h229v-57z" unicode="¯" glyph-name="macron"/>
<glyph horiz-adv-x="396" d="M347 575c0 -82 -67 -149 -149 -149s-149 67 -149 149s67 148 149 148s149 -66 149 -148zM275 575c0 44 -33 78 -77 78s-77 -33 -77 -78s33 -79 77 -79s77 34 77 79z" unicode="°" glyph-name="degree"/>
<glyph horiz-adv-x="444" d="M398 301h-137v-137h-77v137h-138v77h138v137h77v-137h137v-77zM398 24h-352v77h352v-77z" unicode="±" glyph-name="plusminus"/>
<glyph horiz-adv-x="299" d="M261 285h-218v47l135 210c15 23 23 44 23 76c0 30 -21 50 -51 50c-33 0 -49 -20 -49 -56v-24h-61v22c0 38 9 61 30 80c20 17 48 27 80 27c33 0 56 -7 78 -24c20 -16 33 -43 33 -77c0 -32 -11 -65 -30 -95l-121 -187h151v-49z" unicode="²" glyph-name="twosuperior"/>
<glyph horiz-adv-x="299" d="M263 402c0 -47 -4 -72 -31 -96c-19 -16 -49 -26 -80 -26c-33 0 -62 9 -82 27c-18 17 -28 38 -28 83v15h61v-16c0 -26 3 -38 13 -47c9 -8 21 -13 36 -13s28 5 35 13c10 11 16 26 16 63c0 39 -4 51 -13 63c-10 11 -22 16 -39 16h-26v47h26c15 0 25 4 34 12 c15 14 15 35 15 61c0 25 -3 42 -15 52c-8 8 -18 12 -33 12c-14 0 -27 -4 -35 -13c-9 -9 -12 -24 -12 -42v-19h-61v17c0 40 9 62 28 79c20 17 46 27 80 27c36 0 61 -10 78 -26c21 -20 31 -50 31 -86c0 -30 -4 -51 -17 -70c-9 -12 -20 -21 -35 -28c16 -6 29 -17 38 -30 c11 -17 16 -36 16 -75z" unicode="³" glyph-name="threesuperior"/>
<glyph horiz-adv-x="377" d="M294 721l-81 -135h-61l68 135h74z" unicode="´" glyph-name="acute"/>
<glyph horiz-adv-x="399" d="M341 0h-79v40c-7 -12 -20 -25 -31 -32c-16 -10 -35 -16 -58 -16c-17 0 -34 7 -39 14v-200h-78v712h81v-381c0 -48 27 -72 61 -72s62 24 62 72v381h81v-518z" unicode="µ" glyph-name="mu"/>
<glyph horiz-adv-x="570" d="M512 -194h-81v830h-111v-830h-81v490h-54c-90 0 -144 59 -144 208s54 208 144 208h327v-906z" unicode="¶" glyph-name="paragraph"/>
<glyph horiz-adv-x="266" d="M203 233h-141v141h141v-141z" unicode="·" glyph-name="periodcentered"/>
<glyph horiz-adv-x="377" d="M226 -38l-50 -144h-64l57 144h57z" unicode="¸" glyph-name="cedilla"/>
<glyph horiz-adv-x="300" d="M199 285h-60v364l-72 -47v61l72 49h60v-427z" unicode="¹" glyph-name="onesuperior"/>
<glyph horiz-adv-x="313" d="M276 508c0 -80 -6 -138 -31 -170c-22 -28 -51 -37 -89 -37c-37 0 -67 9 -89 37c-25 32 -30 90 -30 170s5 138 30 170c22 28 52 38 89 38c38 0 67 -10 89 -38c25 -32 31 -90 31 -170zM208 508c0 73 -3 112 -17 131c-8 11 -20 17 -35 17s-27 -6 -35 -17 c-14 -19 -16 -58 -16 -131s2 -112 16 -131c8 -11 20 -16 35 -16s27 5 35 16c14 19 17 58 17 131z" unicode="º" glyph-name="ordmasculine"/>
<glyph horiz-adv-x="392" d="M366 272l-148 -230v127l68 103l-68 102v127zM199 272l-148 -230v127l69 103l-69 102v127z" unicode="»" glyph-name="guillemotright"/>
<glyph horiz-adv-x="771" d="M199 285h-60v364l-72 -47v61l72 49h60v-427zM541 712l-247 -712h-64l246 712h65zM739 63h-32v-63h-60v63h-148v49l117 315h59l-115 -315h87v87h60v-87h32v-49z" unicode="¼" glyph-name="onequarter"/>
<glyph horiz-adv-x="770" d="M199 285h-60v364l-72 -47v61l72 49h60v-427zM541 712l-247 -712h-64l246 712h65zM732 0h-218v47l135 210c15 23 23 44 23 76c0 30 -21 50 -51 50c-33 0 -49 -20 -49 -56v-24h-61v22c0 38 9 61 30 80c20 17 48 27 80 27c33 0 56 -7 78 -24c20 -16 33 -43 33 -77 c0 -32 -11 -65 -30 -95l-121 -187h151v-49z" unicode="½" glyph-name="onehalf"/>
<glyph horiz-adv-x="770" d="M263 402c0 -47 -4 -72 -31 -96c-19 -16 -49 -26 -80 -26c-33 0 -62 9 -82 27c-18 17 -28 38 -28 83v15h61v-16c0 -26 3 -38 13 -47c9 -8 21 -13 36 -13s28 5 35 13c10 11 16 26 16 63c0 39 -4 51 -13 63c-10 11 -22 16 -39 16h-26v47h26c15 0 25 4 34 12 c15 14 15 35 15 61c0 25 -3 42 -15 52c-8 8 -18 12 -33 12c-14 0 -27 -4 -35 -13c-9 -9 -12 -24 -12 -42v-19h-61v17c0 40 9 62 28 79c20 17 46 27 80 27c36 0 61 -10 78 -26c21 -20 31 -50 31 -86c0 -30 -4 -51 -17 -70c-9 -12 -20 -21 -35 -28c16 -6 29 -17 38 -30 c11 -17 16 -36 16 -75zM540 712l-247 -712h-64l246 712h65zM738 63h-32v-63h-60v63h-148v49l117 315h59l-115 -315h87v87h60v-87h32v-49z" unicode="¾" glyph-name="threequarters"/>
<glyph horiz-adv-x="400" d="M344 -26c0 -55 -11 -101 -43 -132c-26 -25 -62 -42 -109 -42s-83 14 -110 41c-31 31 -44 70 -44 142c0 51 7 84 31 119l59 85c15 22 22 45 22 70v68h81v-78c0 -31 -12 -60 -28 -84l-58 -85c-22 -32 -26 -57 -26 -97c0 -44 7 -69 24 -88c12 -13 27 -20 49 -20 c21 0 36 7 48 19c20 21 23 53 23 82h81zM240 419h-99v99h99v-99z" unicode="¿" glyph-name="questiondown"/>
<glyph horiz-adv-x="424" d="M419 0h-91l-34 168h-165l-34 -168h-90l166 712h83zM278 245l-66 328l-67 -328h133zM251 762h-62l-81 135h74z" unicode="À" glyph-name="Agrave"/>
<glyph horiz-adv-x="424" d="M419 0h-91l-34 168h-165l-34 -168h-90l166 712h83zM278 245l-66 328l-67 -328h133zM320 897l-81 -135h-62l69 135h74z" unicode="Á" glyph-name="Aacute"/>
<glyph horiz-adv-x="424" d="M419 0h-91l-34 168h-165l-34 -168h-90l166 712h83zM278 245l-66 328l-67 -328h133zM340 762h-66l-60 87l-60 -87h-66l93 135h66z" unicode="Â" glyph-name="Acircumflex"/>
<glyph horiz-adv-x="424" d="M419 0h-91l-34 168h-165l-34 -168h-90l166 712h83zM278 245l-66 328l-67 -328h133zM347 814c-22 -22 -47 -42 -80 -42c-52 0 -67 32 -101 32c-19 0 -32 -11 -45 -23l-36 37c28 29 50 43 79 43c53 0 62 -33 101 -33c20 0 32 11 44 23z" unicode="Ã" glyph-name="Atilde"/>
<glyph horiz-adv-x="424" d="M419 0h-91l-34 168h-165l-34 -168h-90l166 712h83zM278 245l-66 328l-67 -328h133zM333 777h-82v81h82v-81zM177 777h-82v81h82v-81z" unicode="Ä" glyph-name="Adieresis"/>
<glyph horiz-adv-x="424" d="M419 0h-91l-34 168h-165l-34 -168h-90l166 712h83zM278 245l-66 328l-67 -328h133zM312 850c0 -54 -44 -98 -98 -98s-98 44 -98 98s44 98 98 98s98 -44 98 -98zM263 850c0 27 -22 49 -49 49s-49 -22 -49 -49s22 -49 49 -49s49 22 49 49z" unicode="Å" glyph-name="Aring"/>
<glyph horiz-adv-x="640" d="M598 0h-274v172h-163l-61 -172h-95l263 712h330v-77h-188v-239h162v-77h-162v-242h188v-77zM324 250v385l-136 -385h136z" unicode="Æ" glyph-name="AE"/>
<glyph horiz-adv-x="423" d="M385 176c-1 -60 -19 -113 -54 -145c-28 -25 -63 -39 -110 -39c-56 0 -95 21 -122 52c-47 54 -52 115 -52 312s5 258 52 312c27 31 66 52 122 52c50 0 85 -15 113 -42c33 -32 50 -83 51 -141h-85c-1 30 -6 60 -23 81c-11 14 -29 25 -56 25c-28 0 -47 -11 -59 -27 c-25 -34 -29 -91 -29 -260s4 -226 29 -260c12 -16 31 -27 59 -27c27 0 45 11 56 25c16 21 22 52 23 82h85zM251 -38l-50 -144h-64l57 144h57z" unicode="Ç" glyph-name="Ccedilla"/>
<glyph horiz-adv-x="380" d="M339 0h-275v712h275v-77h-189v-239h163v-77h-163v-242h189v-77zM242 762h-62l-81 135h74z" unicode="È" glyph-name="Egrave"/>
<glyph horiz-adv-x="380" d="M339 0h-275v712h275v-77h-189v-239h163v-77h-163v-242h189v-77zM311 897l-81 -135h-62l69 135h74z" unicode="É" glyph-name="Eacute"/>
<glyph horiz-adv-x="380" d="M339 0h-275v712h275v-77h-189v-239h163v-77h-163v-242h189v-77zM331 762h-66l-60 87l-60 -87h-66l93 135h66z" unicode="Ê" glyph-name="Ecircumflex"/>
<glyph horiz-adv-x="380" d="M339 0h-275v712h275v-77h-189v-239h163v-77h-163v-242h189v-77zM324 777h-82v81h82v-81zM168 777h-82v81h82v-81z" unicode="Ë" glyph-name="Edieresis"/>
<glyph horiz-adv-x="215" d="M150 0h-86v712h86v-712zM145 762h-62l-81 135h74z" unicode="Ì" glyph-name="Igrave"/>
<glyph horiz-adv-x="215" d="M150 0h-86v712h86v-712zM214 897l-81 -135h-62l69 135h74z" unicode="Í" glyph-name="Iacute"/>
<glyph horiz-adv-x="215" d="M150 0h-86v712h86v-712zM234 762h-66l-60 87l-60 -87h-66l93 135h66z" unicode="Î" glyph-name="Icircumflex"/>
<glyph horiz-adv-x="215" d="M150 0h-86v712h86v-712zM227 777h-82v81h82v-81zM71 777h-82v81h82v-81z" unicode="Ï" glyph-name="Idieresis"/>
<glyph horiz-adv-x="459" d="M412 356c0 -175 -2 -253 -51 -306c-27 -29 -65 -50 -122 -50h-164v323h-52v69h52v320h164c57 0 95 -21 122 -50c49 -53 51 -131 51 -306zM326 356c0 163 -3 218 -29 252c-12 16 -33 27 -61 27h-75v-243h81v-69h-81v-246h75c28 0 49 11 61 27c26 34 29 89 29 252z" unicode="Ð" glyph-name="Eth"/>
<glyph horiz-adv-x="477" d="M412 0h-78l-184 487v-487h-86v712h80l182 -487v487h86v-712zM371 814c-22 -22 -47 -42 -80 -42c-52 0 -67 32 -101 32c-19 0 -32 -11 -45 -23l-36 37c28 29 50 43 79 43c53 0 62 -33 101 -33c20 0 32 11 44 23z" unicode="Ñ" glyph-name="Ntilde"/>
<glyph horiz-adv-x="442" d="M395 356c0 -197 -6 -261 -52 -312c-28 -31 -66 -52 -122 -52s-94 21 -122 52c-46 51 -52 115 -52 312s6 261 52 312c28 31 66 52 122 52s94 -21 122 -52c46 -51 52 -115 52 -312zM309 356c0 169 -5 226 -30 260c-12 16 -30 27 -58 27s-47 -11 -59 -27 c-25 -34 -29 -91 -29 -260s4 -226 29 -260c12 -16 31 -27 59 -27s46 11 58 27c25 34 30 91 30 260zM258 762h-62l-81 135h74z" unicode="Ò" glyph-name="Ograve"/>
<glyph horiz-adv-x="442" d="M395 356c0 -197 -6 -261 -52 -312c-28 -31 -66 -52 -122 -52s-94 21 -122 52c-46 51 -52 115 -52 312s6 261 52 312c28 31 66 52 122 52s94 -21 122 -52c46 -51 52 -115 52 -312zM309 356c0 169 -5 226 -30 260c-12 16 -30 27 -58 27s-47 -11 -59 -27 c-25 -34 -29 -91 -29 -260s4 -226 29 -260c12 -16 31 -27 59 -27s46 11 58 27c25 34 30 91 30 260zM327 897l-81 -135h-62l69 135h74z" unicode="Ó" glyph-name="Oacute"/>
<glyph horiz-adv-x="442" d="M395 356c0 -197 -6 -261 -52 -312c-28 -31 -66 -52 -122 -52s-94 21 -122 52c-46 51 -52 115 -52 312s6 261 52 312c28 31 66 52 122 52s94 -21 122 -52c46 -51 52 -115 52 -312zM309 356c0 169 -5 226 -30 260c-12 16 -30 27 -58 27s-47 -11 -59 -27 c-25 -34 -29 -91 -29 -260s4 -226 29 -260c12 -16 31 -27 59 -27s46 11 58 27c25 34 30 91 30 260zM347 762h-66l-60 87l-60 -87h-66l93 135h66z" unicode="Ô" glyph-name="Ocircumflex"/>
<glyph horiz-adv-x="442" d="M395 356c0 -197 -6 -261 -52 -312c-28 -31 -66 -52 -122 -52s-94 21 -122 52c-46 51 -52 115 -52 312s6 261 52 312c28 31 66 52 122 52s94 -21 122 -52c46 -51 52 -115 52 -312zM309 356c0 169 -5 226 -30 260c-12 16 -30 27 -58 27s-47 -11 -59 -27 c-25 -34 -29 -91 -29 -260s4 -226 29 -260c12 -16 31 -27 59 -27s46 11 58 27c25 34 30 91 30 260zM354 814c-22 -22 -47 -42 -80 -42c-52 0 -67 32 -101 32c-19 0 -32 -11 -45 -23l-36 37c28 29 50 43 79 43c53 0 62 -33 101 -33c20 0 32 11 44 23z" unicode="Õ" glyph-name="Otilde"/>
<glyph horiz-adv-x="442" d="M395 356c0 -197 -6 -261 -52 -312c-28 -31 -66 -52 -122 -52s-94 21 -122 52c-46 51 -52 115 -52 312s6 261 52 312c28 31 66 52 122 52s94 -21 122 -52c46 -51 52 -115 52 -312zM309 356c0 169 -5 226 -30 260c-12 16 -30 27 -58 27s-47 -11 -59 -27 c-25 -34 -29 -91 -29 -260s4 -226 29 -260c12 -16 31 -27 59 -27s46 11 58 27c25 34 30 91 30 260zM340 777h-82v81h82v-81zM184 777h-82v81h82v-81z" unicode="Ö" glyph-name="Odieresis"/>
<glyph horiz-adv-x="444" d="M391 161l-52 -52l-117 116l-116 -116l-53 52l117 117l-117 116l53 53l116 -117l117 117l52 -53l-116 -116z" unicode="×" glyph-name="multiply"/>
<glyph horiz-adv-x="431" d="M395 356c0 -197 -6 -261 -52 -312c-28 -31 -66 -52 -122 -52c-34 0 -61 7 -83 20l-19 -56h-62l34 96c-39 50 -44 123 -44 304c0 197 6 261 52 312c28 31 66 52 122 52c32 0 60 -7 83 -20l18 56h62l-32 -97c38 -50 43 -123 43 -303zM277 621c-13 14 -32 22 -56 22 c-28 0 -47 -11 -59 -27c-25 -34 -29 -91 -29 -260c0 -99 2 -145 8 -176zM309 356c0 96 -2 145 -8 175l-136 -440c12 -14 30 -22 56 -22c28 0 46 11 58 27c26 34 30 91 30 260z" unicode="Ø" glyph-name="Oslash"/>
<glyph horiz-adv-x="445" d="M387 162c0 -52 -17 -94 -46 -123c-31 -31 -73 -47 -119 -47s-87 16 -118 47c-29 29 -46 71 -46 123v550h86v-555c0 -56 35 -88 78 -88s79 32 79 88v555h86v-550zM259 762h-62l-81 135h74z" unicode="Ù" glyph-name="Ugrave"/>
<glyph horiz-adv-x="445" d="M387 162c0 -52 -17 -94 -46 -123c-31 -31 -73 -47 -119 -47s-87 16 -118 47c-29 29 -46 71 -46 123v550h86v-555c0 -56 35 -88 78 -88s79 32 79 88v555h86v-550zM328 897l-81 -135h-62l69 135h74z" unicode="Ú" glyph-name="Uacute"/>
<glyph horiz-adv-x="445" d="M387 162c0 -52 -17 -94 -46 -123c-31 -31 -73 -47 -119 -47s-87 16 -118 47c-29 29 -46 71 -46 123v550h86v-555c0 -56 35 -88 78 -88s79 32 79 88v555h86v-550zM348 762h-66l-60 87l-60 -87h-66l93 135h66z" unicode="Û" glyph-name="Ucircumflex"/>
<glyph horiz-adv-x="445" d="M387 162c0 -52 -17 -94 -46 -123c-31 -31 -73 -47 -119 -47s-87 16 -118 47c-29 29 -46 71 -46 123v550h86v-555c0 -56 35 -88 78 -88s79 32 79 88v555h86v-550zM341 777h-82v81h82v-81zM185 777h-82v81h82v-81z" unicode="Ü" glyph-name="Udieresis"/>
<glyph horiz-adv-x="353" d="M351 712l-132 -424v-288h-86v288l-131 424h94l80 -304l80 304h95zM285 897l-81 -135h-62l69 135h74z" unicode="Ý" glyph-name="Yacute"/>
<glyph horiz-adv-x="435" d="M393 360c0 -158 -61 -208 -169 -208h-74v-152h-86v712h86v-144h74c108 0 169 -50 169 -208zM307 360c0 96 -28 130 -84 130h-73v-261h73c56 0 84 35 84 131z" unicode="Þ" glyph-name="Thorn"/>
<glyph horiz-adv-x="394" d="M355 219c0 -83 -2 -141 -44 -182c-30 -30 -70 -37 -110 -37v73c20 0 39 5 52 19c17 20 21 52 21 133c0 75 -5 108 -20 129c-10 14 -25 21 -45 21h-8v69h7c17 0 29 7 38 17c17 21 19 47 19 84c0 48 -6 66 -19 82c-10 13 -26 20 -45 20c-35 0 -63 -24 -63 -74v-573h-81v571 c0 54 15 85 41 110c25 25 63 39 102 39c40 0 78 -12 104 -38c36 -36 42 -75 42 -131c0 -34 -1 -70 -18 -100c-8 -15 -21 -29 -36 -40c15 -8 26 -20 35 -33c23 -31 28 -69 28 -159z" unicode="ß" glyph-name="germandbls"/>
<glyph d="M322 0h-77v46c-8 -14 -20 -27 -30 -35c-16 -12 -33 -19 -61 -19c-38 0 -65 12 -89 39c-20 23 -33 62 -33 116c0 48 16 90 46 117c26 23 56 35 110 35h53v82c0 48 -21 74 -61 74c-18 0 -30 -7 -40 -17c-14 -15 -19 -32 -19 -60h-81c0 40 9 79 40 110c23 23 60 38 100 38 c42 0 77 -12 101 -36c25 -26 41 -61 41 -114v-376zM241 144v96h-46c-25 0 -42 -4 -58 -19c-15 -14 -24 -43 -24 -71c0 -54 21 -87 63 -87c39 0 65 33 65 81zM222 586h-62l-81 135h74z" unicode="à" glyph-name="agrave"/>
<glyph d="M322 0h-77v46c-8 -14 -20 -27 -30 -35c-16 -12 -33 -19 -61 -19c-38 0 -65 12 -89 39c-20 23 -33 62 -33 116c0 48 16 90 46 117c26 23 56 35 110 35h53v82c0 48 -21 74 -61 74c-18 0 -30 -7 -40 -17c-14 -15 -19 -32 -19 -60h-81c0 40 9 79 40 110c23 23 60 38 100 38 c42 0 77 -12 101 -36c25 -26 41 -61 41 -114v-376zM241 144v96h-46c-25 0 -42 -4 -58 -19c-15 -14 -24 -43 -24 -71c0 -54 21 -87 63 -87c39 0 65 33 65 81zM290 721l-81 -135h-61l68 135h74z" unicode="á" glyph-name="aacute"/>
<glyph d="M322 0h-77v46c-8 -14 -20 -27 -30 -35c-16 -12 -33 -19 -61 -19c-38 0 -65 12 -89 39c-20 23 -33 62 -33 116c0 48 16 90 46 117c26 23 56 35 110 35h53v82c0 48 -21 74 -61 74c-18 0 -30 -7 -40 -17c-14 -15 -19 -32 -19 -60h-81c0 40 9 79 40 110c23 23 60 38 100 38 c42 0 77 -12 101 -36c25 -26 41 -61 41 -114v-376zM241 144v96h-46c-25 0 -42 -4 -58 -19c-15 -14 -24 -43 -24 -71c0 -54 21 -87 63 -87c39 0 65 33 65 81zM310 586h-67l-60 87l-59 -87h-67l93 135h67z" unicode="â" glyph-name="acircumflex"/>
<glyph d="M322 0h-77v46c-8 -14 -20 -27 -30 -35c-16 -12 -33 -19 -61 -19c-38 0 -65 12 -89 39c-20 23 -33 62 -33 116c0 48 16 90 46 117c26 23 56 35 110 35h53v82c0 48 -21 74 -61 74c-18 0 -30 -7 -40 -17c-14 -15 -19 -32 -19 -60h-81c0 40 9 79 40 110c23 23 60 38 100 38 c42 0 77 -12 101 -36c25 -26 41 -61 41 -114v-376zM241 144v96h-46c-25 0 -42 -4 -58 -19c-15 -14 -24 -43 -24 -71c0 -54 21 -87 63 -87c39 0 65 33 65 81zM317 638c-34 -33 -56 -42 -80 -42c-22 0 -38 6 -58 17c-15 9 -27 15 -43 15c-13 0 -23 -1 -45 -23l-36 38 c33 33 54 42 79 42c23 0 38 -5 58 -17c15 -9 27 -15 43 -15c12 0 23 2 44 23z" unicode="ã" glyph-name="atilde"/>
<glyph d="M322 0h-77v46c-8 -14 -20 -27 -30 -35c-16 -12 -33 -19 -61 -19c-38 0 -65 12 -89 39c-20 23 -33 62 -33 116c0 48 16 90 46 117c26 23 56 35 110 35h53v82c0 48 -21 74 -61 74c-18 0 -30 -7 -40 -17c-14 -15 -19 -32 -19 -60h-81c0 40 9 79 40 110c23 23 60 38 100 38 c42 0 77 -12 101 -36c25 -26 41 -61 41 -114v-376zM241 144v96h-46c-25 0 -42 -4 -58 -19c-15 -14 -24 -43 -24 -71c0 -54 21 -87 63 -87c39 0 65 33 65 81zM302 601h-81v82h81v-82zM146 601h-82v82h82v-82z" unicode="ä" glyph-name="adieresis"/>
<glyph d="M322 0h-77v46c-8 -14 -20 -27 -30 -35c-16 -12 -33 -19 -61 -19c-38 0 -65 12 -89 39c-20 23 -33 62 -33 116c0 48 16 90 46 117c26 23 56 35 110 35h53v82c0 48 -21 74 -61 74c-18 0 -30 -7 -40 -17c-14 -15 -19 -32 -19 -60h-81c0 40 9 79 40 110c23 23 60 38 100 38 c42 0 77 -12 101 -36c25 -26 41 -61 41 -114v-376zM241 144v96h-46c-25 0 -42 -4 -58 -19c-15 -14 -24 -43 -24 -71c0 -54 21 -87 63 -87c39 0 65 33 65 81zM281 681c0 -54 -44 -98 -98 -98c-53 0 -97 44 -97 98s44 98 97 98c54 0 98 -44 98 -98zM233 681 c0 27 -23 49 -50 49c-26 0 -49 -22 -49 -49s23 -49 49 -49c27 0 50 22 50 49z" unicode="å" glyph-name="aring"/>
<glyph horiz-adv-x="573" d="M535 240h-213c0 -82 3 -130 21 -153c10 -13 25 -22 46 -22c19 0 34 7 46 20s18 36 18 60h80c-1 -47 -13 -84 -41 -115c-25 -26 -62 -38 -103 -38c-35 0 -63 10 -86 28c-14 11 -27 28 -36 44c-11 -20 -24 -38 -39 -49c-18 -14 -41 -23 -74 -23c-38 0 -65 12 -89 39 c-21 23 -33 63 -33 116c0 49 16 90 46 117c26 23 56 35 110 35h53v82c0 48 -22 74 -60 74c-19 0 -32 -7 -42 -18c-13 -14 -18 -32 -18 -59h-81c0 40 11 81 40 110c22 22 60 38 100 38c35 0 65 -9 86 -26c6 -5 13 -14 19 -22c4 7 10 12 15 17c23 20 53 31 88 31 c42 0 74 -11 102 -40c39 -41 45 -118 45 -246zM241 144v96h-46c-24 0 -41 -4 -58 -19c-15 -15 -24 -43 -24 -71c0 -54 21 -87 63 -87c38 0 65 34 65 81zM453 301c0 75 -4 112 -20 131c-10 13 -24 21 -46 21s-35 -8 -45 -21c-16 -19 -20 -56 -20 -131h131z" unicode="æ" glyph-name="ae"/>
<glyph horiz-adv-x="362" d="M330 145c-2 -49 -14 -89 -41 -117c-25 -25 -60 -36 -102 -36c-44 0 -83 13 -109 48c-32 41 -38 115 -38 219c0 105 6 178 38 219c26 35 65 48 109 48c42 0 74 -9 101 -35c32 -30 40 -73 42 -117h-81c0 21 -2 43 -16 60c-11 13 -25 19 -45 19c-19 0 -36 -8 -46 -22 c-19 -25 -20 -78 -20 -172c0 -93 1 -146 20 -172c10 -14 27 -22 46 -22c18 0 34 7 44 19c14 16 17 37 17 61h81zM226 -38l-50 -144h-64l57 144h57z" unicode="ç" glyph-name="ccedilla"/>
<glyph horiz-adv-x="372" d="M335 240h-213c0 -82 3 -130 21 -153c9 -13 25 -22 46 -22c18 0 33 5 46 20s17 35 17 60h81c-1 -48 -13 -84 -42 -115c-25 -26 -60 -38 -102 -38c-44 0 -76 11 -103 40c-39 41 -46 119 -46 227c0 109 7 186 45 227c27 29 60 40 102 40s75 -11 102 -40 c39 -41 46 -118 46 -246zM253 301c0 75 -4 112 -20 131c-10 13 -24 21 -46 21s-35 -8 -45 -21c-16 -19 -20 -56 -20 -131h131zM226 586h-62l-81 135h74z" unicode="è" glyph-name="egrave"/>
<glyph horiz-adv-x="372" d="M335 240h-213c0 -82 3 -130 21 -153c9 -13 25 -22 46 -22c18 0 33 5 46 20s17 35 17 60h81c-1 -48 -13 -84 -42 -115c-25 -26 -60 -38 -102 -38c-44 0 -76 11 -103 40c-39 41 -46 119 -46 227c0 109 7 186 45 227c27 29 60 40 102 40s75 -11 102 -40 c39 -41 46 -118 46 -246zM253 301c0 75 -4 112 -20 131c-10 13 -24 21 -46 21s-35 -8 -45 -21c-16 -19 -20 -56 -20 -131h131zM294 721l-81 -135h-61l68 135h74z" unicode="é" glyph-name="eacute"/>
<glyph horiz-adv-x="372" d="M335 240h-213c0 -82 3 -130 21 -153c9 -13 25 -22 46 -22c18 0 33 5 46 20s17 35 17 60h81c-1 -48 -13 -84 -42 -115c-25 -26 -60 -38 -102 -38c-44 0 -76 11 -103 40c-39 41 -46 119 -46 227c0 109 7 186 45 227c27 29 60 40 102 40s75 -11 102 -40 c39 -41 46 -118 46 -246zM253 301c0 75 -4 112 -20 131c-10 13 -24 21 -46 21s-35 -8 -45 -21c-16 -19 -20 -56 -20 -131h131zM314 586h-67l-60 87l-59 -87h-67l93 135h67z" unicode="ê" glyph-name="ecircumflex"/>
<glyph horiz-adv-x="372" d="M335 240h-213c0 -82 3 -130 21 -153c9 -13 25 -22 46 -22c18 0 33 5 46 20s17 35 17 60h81c-1 -48 -13 -84 -42 -115c-25 -26 -60 -38 -102 -38c-44 0 -76 11 -103 40c-39 41 -46 119 -46 227c0 109 7 186 45 227c27 29 60 40 102 40s75 -11 102 -40 c39 -41 46 -118 46 -246zM253 301c0 75 -4 112 -20 131c-10 13 -24 21 -46 21s-35 -8 -45 -21c-16 -19 -20 -56 -20 -131h131zM306 601h-81v82h81v-82zM150 601h-82v82h82v-82z" unicode="ë" glyph-name="edieresis"/>
<glyph horiz-adv-x="195" d="M138 0h-81v518h81v-518zM135 586h-62l-81 135h74z" unicode="ì" glyph-name="igrave"/>
<glyph horiz-adv-x="195" d="M138 0h-81v518h81v-518zM205 721l-81 -135h-61l68 135h74z" unicode="í" glyph-name="iacute"/>
<glyph horiz-adv-x="195" d="M138 0h-81v518h81v-518zM225 586h-67l-60 87l-59 -87h-67l93 135h67z" unicode="î" glyph-name="icircumflex"/>
<glyph horiz-adv-x="195" d="M138 0h-81v518h81v-518zM218 601h-81v82h81v-82zM62 601h-82v82h82v-82z" unicode="ï" glyph-name="idieresis"/>
<glyph horiz-adv-x="378" d="M335 246c0 -101 -6 -170 -38 -209c-26 -32 -63 -45 -109 -45s-82 13 -108 45c-32 39 -39 108 -39 209c0 115 5 180 38 217c21 24 50 37 89 37c19 0 42 -6 58 -16l-31 91h-78v61h58l-27 76h82l27 -76h71v-61h-52l35 -108c17 -54 24 -108 24 -221zM254 247 c0 89 -1 138 -20 162c-10 13 -27 21 -46 21s-35 -8 -45 -21c-19 -24 -21 -73 -21 -162s2 -137 21 -161c10 -13 26 -21 45 -21s36 8 46 21c19 24 20 72 20 161z" unicode="ð" glyph-name="eth"/>
<glyph horiz-adv-x="395" d="M342 0h-81v381c0 47 -28 71 -62 71s-61 -24 -61 -71v-381h-81v518h78v-40c7 12 21 25 32 32c16 10 35 16 56 16c39 0 66 -13 88 -38c21 -23 31 -51 31 -107v-381zM334 638c-34 -33 -56 -42 -80 -42c-22 0 -38 6 -58 17c-15 9 -27 15 -43 15c-13 0 -23 -1 -45 -23l-36 38 c33 33 54 42 79 42c23 0 38 -5 58 -17c15 -9 27 -15 43 -15c12 0 23 2 44 23z" unicode="ñ" glyph-name="ntilde"/>
<glyph horiz-adv-x="376" d="M335 259c0 -105 -5 -178 -37 -219c-26 -35 -64 -48 -110 -48s-83 13 -109 48c-32 41 -38 114 -38 219s6 178 38 219c26 35 63 48 109 48s84 -13 110 -48c32 -41 37 -114 37 -219zM254 259c0 93 -1 146 -20 172c-10 14 -27 22 -46 22s-35 -8 -45 -22 c-19 -26 -21 -79 -21 -172s2 -146 21 -172c10 -14 26 -22 45 -22s36 8 46 22c19 26 20 79 20 172zM227 586h-62l-81 135h74z" unicode="ò" glyph-name="ograve"/>
<glyph horiz-adv-x="376" d="M335 259c0 -105 -5 -178 -37 -219c-26 -35 -64 -48 -110 -48s-83 13 -109 48c-32 41 -38 114 -38 219s6 178 38 219c26 35 63 48 109 48s84 -13 110 -48c32 -41 37 -114 37 -219zM254 259c0 93 -1 146 -20 172c-10 14 -27 22 -46 22s-35 -8 -45 -22 c-19 -26 -21 -79 -21 -172s2 -146 21 -172c10 -14 26 -22 45 -22s36 8 46 22c19 26 20 79 20 172zM295 721l-81 -135h-61l68 135h74z" unicode="ó" glyph-name="oacute"/>
<glyph horiz-adv-x="376" d="M335 259c0 -105 -5 -178 -37 -219c-26 -35 -64 -48 -110 -48s-83 13 -109 48c-32 41 -38 114 -38 219s6 178 38 219c26 35 63 48 109 48s84 -13 110 -48c32 -41 37 -114 37 -219zM254 259c0 93 -1 146 -20 172c-10 14 -27 22 -46 22s-35 -8 -45 -22 c-19 -26 -21 -79 -21 -172s2 -146 21 -172c10 -14 26 -22 45 -22s36 8 46 22c19 26 20 79 20 172zM315 586h-67l-60 87l-59 -87h-67l93 135h67z" unicode="ô" glyph-name="ocircumflex"/>
<glyph horiz-adv-x="376" d="M335 259c0 -105 -5 -178 -37 -219c-26 -35 -64 -48 -110 -48s-83 13 -109 48c-32 41 -38 114 -38 219s6 178 38 219c26 35 63 48 109 48s84 -13 110 -48c32 -41 37 -114 37 -219zM254 259c0 93 -1 146 -20 172c-10 14 -27 22 -46 22s-35 -8 -45 -22 c-19 -26 -21 -79 -21 -172s2 -146 21 -172c10 -14 26 -22 45 -22s36 8 46 22c19 26 20 79 20 172zM322 638c-34 -33 -56 -42 -80 -42c-22 0 -38 6 -58 17c-15 9 -27 15 -43 15c-13 0 -23 -1 -45 -23l-36 38c33 33 54 42 79 42c23 0 38 -5 58 -17c15 -9 27 -15 43 -15 c12 0 23 2 44 23z" unicode="õ" glyph-name="otilde"/>
<glyph horiz-adv-x="376" d="M335 259c0 -105 -5 -178 -37 -219c-26 -35 -64 -48 -110 -48s-83 13 -109 48c-32 41 -38 114 -38 219s6 178 38 219c26 35 63 48 109 48s84 -13 110 -48c32 -41 37 -114 37 -219zM254 259c0 93 -1 146 -20 172c-10 14 -27 22 -46 22s-35 -8 -45 -22 c-19 -26 -21 -79 -21 -172s2 -146 21 -172c10 -14 26 -22 45 -22s36 8 46 22c19 26 20 79 20 172zM307 601h-81v82h81v-82zM151 601h-82v82h82v-82z" unicode="ö" glyph-name="odieresis"/>
<glyph horiz-adv-x="444" d="M398 238h-352v78h352v-78zM273 394h-100v99h100v-99zM273 60h-100v100h100v-100z" unicode="÷" glyph-name="divide"/>
<glyph horiz-adv-x="370" d="M339 562l-37 -91c28 -42 32 -116 32 -212c0 -105 -5 -178 -37 -219c-26 -35 -64 -48 -110 -48c-28 0 -53 6 -73 17l-20 -53h-58l36 91c-27 42 -32 116 -32 212c0 105 6 178 38 219c26 35 63 48 109 48c28 0 53 -6 73 -17l21 53h58zM254 259c0 44 -1 80 -6 98l-103 -277 c10 -11 24 -18 42 -18c19 0 36 8 46 22c19 26 21 80 21 175zM230 438c-10 11 -25 18 -43 18c-19 0 -35 -8 -45 -22c-19 -26 -21 -80 -21 -175c0 -44 0 -80 5 -98z" unicode="ø" glyph-name="oslash"/>
<glyph horiz-adv-x="395" d="M338 0h-78v40c-7 -12 -21 -25 -32 -32c-16 -10 -35 -16 -56 -16c-39 0 -66 13 -88 38c-21 23 -31 51 -31 107v381h81v-381c0 -48 28 -72 62 -72s61 24 61 72v381h81v-518zM234 586h-62l-81 135h74z" unicode="ù" glyph-name="ugrave"/>
<glyph horiz-adv-x="395" d="M338 0h-78v40c-7 -12 -21 -25 -32 -32c-16 -10 -35 -16 -56 -16c-39 0 -66 13 -88 38c-21 23 -31 51 -31 107v381h81v-381c0 -48 28 -72 62 -72s61 24 61 72v381h81v-518zM302 721l-81 -135h-61l68 135h74z" unicode="ú" glyph-name="uacute"/>
<glyph horiz-adv-x="395" d="M338 0h-78v40c-7 -12 -21 -25 -32 -32c-16 -10 -35 -16 -56 -16c-39 0 -66 13 -88 38c-21 23 -31 51 -31 107v381h81v-381c0 -48 28 -72 62 -72s61 24 61 72v381h81v-518zM322 586h-67l-60 87l-59 -87h-67l93 135h67z" unicode="û" glyph-name="ucircumflex"/>
<glyph horiz-adv-x="395" d="M338 0h-78v40c-7 -12 -21 -25 -32 -32c-16 -10 -35 -16 -56 -16c-39 0 -66 13 -88 38c-21 23 -31 51 -31 107v381h81v-381c0 -48 28 -72 62 -72s61 24 61 72v381h81v-518zM314 601h-81v82h81v-82zM158 601h-82v82h82v-82z" unicode="ü" glyph-name="udieresis"/>
<glyph horiz-adv-x="345" d="M339 518l-146 -601c-22 -93 -86 -111 -172 -111v72c50 0 81 13 93 60l16 63l-126 517h89l79 -389l78 389h89zM282 721l-81 -135h-61l68 135h74z" unicode="ý" glyph-name="yacute"/>
<glyph horiz-adv-x="389" d="M139 712v-230c8 11 19 22 29 29c16 10 35 15 56 15c35 0 63 -11 86 -38c33 -39 38 -109 38 -229s-5 -189 -38 -228c-23 -27 -48 -39 -86 -39c-21 0 -40 5 -56 15c-10 7 -21 18 -29 29v-230h-81v906h81zM266 259c0 107 -3 151 -21 173c-10 13 -26 21 -44 21 c-17 0 -31 -5 -42 -16c-13 -13 -20 -31 -20 -59v-237c0 -28 7 -47 20 -60c11 -11 25 -16 42 -16c18 0 34 8 44 21c18 22 21 66 21 173z" unicode="þ" glyph-name="thorn"/>
<glyph horiz-adv-x="345" d="M339 518l-146 -601c-22 -93 -86 -111 -172 -111v72c50 0 81 13 93 60l16 63l-126 517h89l79 -389l78 389h89zM294 601h-81v82h81v-82zM138 601h-82v82h82v-82z" unicode="ÿ" glyph-name="ydieresis"/>
<glyph horiz-adv-x="424" d="M419 0h-91l-34 168h-165l-34 -168h-90l166 712h83zM278 245l-66 328l-67 -328h133zM327 780h-228v58h228v-58z" unicode="Ā" glyph-name="Amacron"/>
<glyph d="M322 0h-77v46c-8 -14 -20 -27 -30 -35c-16 -12 -33 -19 -61 -19c-38 0 -65 12 -89 39c-20 23 -33 62 -33 116c0 48 16 90 46 117c26 23 56 35 110 35h53v82c0 48 -21 74 -61 74c-18 0 -30 -7 -40 -17c-14 -15 -19 -32 -19 -60h-81c0 40 9 79 40 110c23 23 60 38 100 38 c42 0 77 -12 101 -36c25 -26 41 -61 41 -114v-376zM241 144v96h-46c-25 0 -42 -4 -58 -19c-15 -14 -24 -43 -24 -71c0 -54 21 -87 63 -87c39 0 65 33 65 81zM298 608h-229v57h229v-57z" unicode="ā" glyph-name="amacron"/>
<glyph horiz-adv-x="424" d="M419 0h-91l-34 168h-165l-34 -168h-90l166 712h83zM278 245l-66 328l-67 -328h133zM331 866c-5 -78 -52 -111 -118 -111s-113 33 -118 111h59c4 -36 27 -52 59 -52s55 16 59 52h59z" unicode="Ă" glyph-name="Abreve"/>
<glyph d="M322 0h-77v46c-8 -14 -20 -27 -30 -35c-16 -12 -33 -19 -61 -19c-38 0 -65 12 -89 39c-20 23 -33 62 -33 116c0 48 16 90 46 117c26 23 56 35 110 35h53v82c0 48 -21 74 -61 74c-18 0 -30 -7 -40 -17c-14 -15 -19 -32 -19 -60h-81c0 40 9 79 40 110c23 23 60 38 100 38 c42 0 77 -12 101 -36c25 -26 41 -61 41 -114v-376zM241 144v96h-46c-25 0 -42 -4 -58 -19c-15 -14 -24 -43 -24 -71c0 -54 21 -87 63 -87c39 0 65 33 65 81zM301 694c-5 -79 -51 -112 -118 -112c-66 0 -112 33 -117 112h58c5 -37 27 -53 59 -53c33 0 55 16 60 53h58z" unicode="ă" glyph-name="abreve"/>
<glyph horiz-adv-x="424" d="M419 0h-91l-34 168h-165l-34 -168h-90l166 712h83zM278 245l-66 328l-67 -328h133zM407 -38l-50 -144h-64l57 144h57z" unicode="Ą" glyph-name="Aogonek"/>
<glyph d="M322 0h-77v46c-8 -14 -20 -27 -30 -35c-16 -12 -33 -19 -61 -19c-38 0 -65 12 -89 39c-20 23 -33 62 -33 116c0 48 16 90 46 117c26 23 56 35 110 35h53v82c0 48 -21 74 -61 74c-18 0 -30 -7 -40 -17c-14 -15 -19 -32 -19 -60h-81c0 40 9 79 40 110c23 23 60 38 100 38 c42 0 77 -12 101 -36c25 -26 41 -61 41 -114v-376zM241 144v96h-46c-25 0 -42 -4 -58 -19c-15 -14 -24 -43 -24 -71c0 -54 21 -87 63 -87c39 0 65 33 65 81zM312 -38l-50 -144h-64l57 144h57z" unicode="ą" glyph-name="aogonek"/>
<glyph horiz-adv-x="423" d="M385 176c-1 -60 -19 -113 -54 -145c-28 -25 -63 -39 -110 -39c-56 0 -95 21 -122 52c-47 54 -52 115 -52 312s5 258 52 312c27 31 66 52 122 52c50 0 85 -15 113 -42c33 -32 50 -83 51 -141h-85c-1 30 -6 60 -23 81c-11 14 -29 25 -56 25c-28 0 -47 -11 -59 -27 c-25 -34 -29 -91 -29 -260s4 -226 29 -260c12 -16 31 -27 59 -27c27 0 45 11 56 25c16 21 22 52 23 82h85zM327 897l-81 -135h-62l69 135h74z" unicode="Ć" glyph-name="Cacute"/>
<glyph horiz-adv-x="362" d="M330 145c-2 -49 -14 -89 -41 -117c-25 -25 -60 -36 -102 -36c-44 0 -83 13 -109 48c-32 41 -38 115 -38 219c0 105 6 178 38 219c26 35 65 48 109 48c42 0 74 -9 101 -35c32 -30 40 -73 42 -117h-81c0 21 -2 43 -16 60c-11 13 -25 19 -45 19c-19 0 -36 -8 -46 -22 c-19 -25 -20 -78 -20 -172c0 -93 1 -146 20 -172c10 -14 27 -22 46 -22c18 0 34 7 44 19c14 16 17 37 17 61h81zM294 721l-81 -135h-61l68 135h74z" unicode="ć" glyph-name="cacute"/>
<glyph horiz-adv-x="423" d="M385 176c-1 -60 -19 -113 -54 -145c-28 -25 -63 -39 -110 -39c-56 0 -95 21 -122 52c-47 54 -52 115 -52 312s5 258 52 312c27 31 66 52 122 52c50 0 85 -15 113 -42c33 -32 50 -83 51 -141h-85c-1 30 -6 60 -23 81c-11 14 -29 25 -56 25c-28 0 -47 -11 -59 -27 c-25 -34 -29 -91 -29 -260s4 -226 29 -260c12 -16 31 -27 59 -27c27 0 45 11 56 25c16 21 22 52 23 82h85zM347 762h-66l-60 87l-60 -87h-66l93 135h66z" unicode="Ĉ" glyph-name="Ccircumflex"/>
<glyph horiz-adv-x="362" d="M330 145c-2 -49 -14 -89 -41 -117c-25 -25 -60 -36 -102 -36c-44 0 -83 13 -109 48c-32 41 -38 115 -38 219c0 105 6 178 38 219c26 35 65 48 109 48c42 0 74 -9 101 -35c32 -30 40 -73 42 -117h-81c0 21 -2 43 -16 60c-11 13 -25 19 -45 19c-19 0 -36 -8 -46 -22 c-19 -25 -20 -78 -20 -172c0 -93 1 -146 20 -172c10 -14 27 -22 46 -22c18 0 34 7 44 19c14 16 17 37 17 61h81zM314 586h-67l-60 87l-59 -87h-67l93 135h67z" unicode="ĉ" glyph-name="ccircumflex"/>
<glyph horiz-adv-x="423" d="M385 176c-1 -60 -19 -113 -54 -145c-28 -25 -63 -39 -110 -39c-56 0 -95 21 -122 52c-47 54 -52 115 -52 312s5 258 52 312c27 31 66 52 122 52c50 0 85 -15 113 -42c33 -32 50 -83 51 -141h-85c-1 30 -6 60 -23 81c-11 14 -29 25 -56 25c-28 0 -47 -11 -59 -27 c-25 -34 -29 -91 -29 -260s4 -226 29 -260c12 -16 31 -27 59 -27c27 0 45 11 56 25c16 21 22 52 23 82h85zM262 777h-82v81h82v-81z" unicode="Ċ" glyph-name="Cdotaccent"/>
<glyph horiz-adv-x="362" d="M330 145c-2 -49 -14 -89 -41 -117c-25 -25 -60 -36 -102 -36c-44 0 -83 13 -109 48c-32 41 -38 115 -38 219c0 105 6 178 38 219c26 35 65 48 109 48c42 0 74 -9 101 -35c32 -30 40 -73 42 -117h-81c0 21 -2 43 -16 60c-11 13 -25 19 -45 19c-19 0 -36 -8 -46 -22 c-19 -25 -20 -78 -20 -172c0 -93 1 -146 20 -172c10 -14 27 -22 46 -22c18 0 34 7 44 19c14 16 17 37 17 61h81zM228 604h-81v82h81v-82z" unicode="ċ" glyph-name="cdotaccent"/>
<glyph horiz-adv-x="423" d="M385 176c-1 -60 -19 -113 -54 -145c-28 -25 -63 -39 -110 -39c-56 0 -95 21 -122 52c-47 54 -52 115 -52 312s5 258 52 312c27 31 66 52 122 52c50 0 85 -15 113 -42c33 -32 50 -83 51 -141h-85c-1 30 -6 60 -23 81c-11 14 -29 25 -56 25c-28 0 -47 -11 -59 -27 c-25 -34 -29 -91 -29 -260s4 -226 29 -260c12 -16 31 -27 59 -27c27 0 45 11 56 25c16 21 22 52 23 82h85zM347 892l-93 -134h-66l-93 134h66l60 -87l60 87h66z" unicode="Č" glyph-name="Ccaron"/>
<glyph horiz-adv-x="362" d="M330 145c-2 -49 -14 -89 -41 -117c-25 -25 -60 -36 -102 -36c-44 0 -83 13 -109 48c-32 41 -38 115 -38 219c0 105 6 178 38 219c26 35 65 48 109 48c42 0 74 -9 101 -35c32 -30 40 -73 42 -117h-81c0 21 -2 43 -16 60c-11 13 -25 19 -45 19c-19 0 -36 -8 -46 -22 c-19 -25 -20 -78 -20 -172c0 -93 1 -146 20 -172c10 -14 27 -22 46 -22c18 0 34 7 44 19c14 16 17 37 17 61h81zM314 717l-93 -135h-67l-93 135h67l59 -87l60 87h67z" unicode="č" glyph-name="ccaron"/>
<glyph horiz-adv-x="448" d="M401 356c0 -193 -5 -257 -51 -306c-26 -29 -64 -50 -122 -50h-164v712h164c58 0 96 -21 122 -50c46 -49 51 -113 51 -306zM315 356c0 164 -2 219 -29 252c-13 16 -33 27 -61 27h-75v-558h75c28 0 48 11 61 27c27 33 29 88 29 252zM348 892l-93 -134h-66l-93 134h66 l60 -87l60 87h66z" unicode="Ď" glyph-name="Dcaron"/>
<glyph horiz-adv-x="387" d="M330 0h-79v40c-5 -10 -22 -27 -31 -32c-17 -10 -36 -16 -56 -16c-36 0 -63 12 -86 39c-33 38 -38 108 -38 228s5 190 38 229c21 25 48 38 86 38c21 0 39 -5 56 -15c10 -6 21 -18 29 -29v230h81v-712zM249 141v237c0 28 -7 46 -20 59c-11 11 -25 16 -42 16 c-19 0 -34 -8 -44 -21c-18 -22 -21 -66 -21 -173s3 -151 21 -173c10 -13 25 -21 44 -21c17 0 31 5 42 16c13 13 20 32 20 60zM461 730l-34 -144h-55l23 144h66z" unicode="ď" glyph-name="dcaron"/>
<glyph horiz-adv-x="459" d="M412 356c0 -175 -2 -253 -51 -306c-26 -29 -64 -50 -122 -50h-164v323h-52v69h52v320h164c58 0 96 -21 122 -50c49 -53 51 -131 51 -306zM326 356c0 164 -3 218 -29 252c-12 16 -33 27 -61 27h-75v-243h81v-69h-81v-246h75c28 0 49 11 61 27c26 34 29 89 29 252z" unicode="Đ" glyph-name="Dcroat"/>
<glyph horiz-adv-x="408" d="M330 0h-79v40c-5 -10 -22 -27 -31 -32c-17 -10 -36 -16 -56 -16c-36 0 -63 12 -86 39c-33 38 -38 108 -38 228s5 190 38 229c21 25 48 38 86 38c21 0 39 -5 56 -15c10 -6 21 -18 29 -29v100h-88v54h88v76h81v-76h53v-54h-53v-582zM249 141v237c0 28 -7 46 -20 59 c-11 11 -25 16 -42 16c-19 0 -34 -8 -44 -21c-18 -22 -21 -66 -21 -173s3 -151 21 -173c10 -13 25 -21 44 -21c17 0 31 5 42 16c13 13 20 32 20 60z" unicode="đ" glyph-name="dcroat"/>
<glyph horiz-adv-x="380" d="M339 0h-275v712h275v-77h-189v-239h163v-77h-163v-242h189v-77zM319 780h-228v58h228v-58z" unicode="Ē" glyph-name="Emacron"/>
<glyph horiz-adv-x="372" d="M335 240h-213c0 -82 3 -130 21 -153c9 -13 25 -22 46 -22c18 0 33 5 46 20s17 35 17 60h81c-1 -48 -13 -84 -42 -115c-25 -26 -60 -38 -102 -38c-44 0 -76 11 -103 40c-39 41 -46 119 -46 227c0 109 7 186 45 227c27 29 60 40 102 40s75 -11 102 -40 c39 -41 46 -118 46 -246zM253 301c0 75 -4 112 -20 131c-10 13 -24 21 -46 21s-35 -8 -45 -21c-16 -19 -20 -56 -20 -131h131zM302 608h-229v57h229v-57z" unicode="ē" glyph-name="emacron"/>
<glyph horiz-adv-x="380" d="M339 0h-275v712h275v-77h-189v-239h163v-77h-163v-242h189v-77zM326 865c-5 -79 -54 -109 -121 -109s-116 30 -121 109h62c4 -37 26 -53 59 -53s55 16 59 53h62z" unicode="Ĕ" glyph-name="Ebreve"/>
<glyph horiz-adv-x="372" d="M335 240h-213c0 -82 3 -130 21 -153c9 -13 25 -22 46 -22c18 0 33 5 46 20s17 35 17 60h81c-1 -48 -13 -84 -42 -115c-25 -26 -60 -38 -102 -38c-44 0 -76 11 -103 40c-39 41 -46 119 -46 227c0 109 7 186 45 227c27 29 60 40 102 40s75 -11 102 -40 c39 -41 46 -118 46 -246zM253 301c0 75 -4 112 -20 131c-10 13 -24 21 -46 21s-35 -8 -45 -21c-16 -19 -20 -56 -20 -131h131zM305 694c-5 -79 -51 -112 -118 -112c-66 0 -112 33 -117 112h58c5 -37 27 -53 59 -53c33 0 55 16 60 53h58z" unicode="ĕ" glyph-name="ebreve"/>
<glyph horiz-adv-x="380" d="M339 0h-275v712h275v-77h-189v-239h163v-77h-163v-242h189v-77zM246 777h-82v81h82v-81z" unicode="Ė" glyph-name="Edotaccent"/>
<glyph horiz-adv-x="372" d="M335 240h-213c0 -82 3 -130 21 -153c9 -13 25 -22 46 -22c18 0 33 5 46 20s17 35 17 60h81c-1 -48 -13 -84 -42 -115c-25 -26 -60 -38 -102 -38c-44 0 -76 11 -103 40c-39 41 -46 119 -46 227c0 109 7 186 45 227c27 29 60 40 102 40s75 -11 102 -40 c39 -41 46 -118 46 -246zM253 301c0 75 -4 112 -20 131c-10 13 -24 21 -46 21s-35 -8 -45 -21c-16 -19 -20 -56 -20 -131h131zM228 604h-81v82h81v-82z" unicode="ė" glyph-name="edotaccent"/>
<glyph horiz-adv-x="380" d="M339 0h-275v712h275v-77h-189v-239h163v-77h-163v-242h189v-77zM327 -38l-50 -144h-64l57 144h57z" unicode="Ę" glyph-name="Eogonek"/>
<glyph horiz-adv-x="372" d="M335 240h-213c0 -82 3 -130 21 -153c9 -13 25 -22 46 -22c18 0 33 5 46 20s17 35 17 60h81c-1 -48 -13 -84 -42 -115c-25 -26 -60 -38 -102 -38c-44 0 -76 11 -103 40c-39 41 -46 119 -46 227c0 109 7 186 45 227c27 29 60 40 102 40s75 -11 102 -40 c39 -41 46 -118 46 -246zM253 301c0 75 -4 112 -20 131c-10 13 -24 21 -46 21s-35 -8 -45 -21c-16 -19 -20 -56 -20 -131h131zM267 -38l-50 -144h-64l57 144h57z" unicode="ę" glyph-name="eogonek"/>
<glyph horiz-adv-x="380" d="M339 0h-275v712h275v-77h-189v-239h163v-77h-163v-242h189v-77zM331 892l-93 -134h-66l-93 134h66l60 -87l60 87h66z" unicode="Ě" glyph-name="Ecaron"/>
<glyph horiz-adv-x="372" d="M335 240h-213c0 -82 3 -130 21 -153c9 -13 25 -22 46 -22c18 0 33 5 46 20s17 35 17 60h81c-1 -48 -13 -84 -42 -115c-25 -26 -60 -38 -102 -38c-44 0 -76 11 -103 40c-39 41 -46 119 -46 227c0 109 7 186 45 227c27 29 60 40 102 40s75 -11 102 -40 c39 -41 46 -118 46 -246zM253 301c0 75 -4 112 -20 131c-10 13 -24 21 -46 21s-35 -8 -45 -21c-16 -19 -20 -56 -20 -131h131zM314 717l-93 -135h-67l-93 135h67l59 -87l60 87h67z" unicode="ě" glyph-name="ecaron"/>
<glyph horiz-adv-x="434" d="M386 171c-1 -119 -72 -179 -165 -179c-56 0 -95 22 -122 52c-46 51 -52 115 -52 312s6 261 52 312c27 30 66 52 122 52c50 0 88 -17 115 -44c33 -33 48 -83 49 -140h-85c-1 48 -13 107 -79 107c-28 0 -47 -11 -59 -27c-25 -34 -29 -91 -29 -260s4 -226 29 -260 c12 -16 31 -27 59 -27c50 0 79 41 79 99v143h-79v71h165v-211zM347 762h-66l-60 87l-60 -87h-66l93 135h66z" unicode="Ĝ" glyph-name="Gcircumflex"/>
<glyph horiz-adv-x="387" d="M330 518v-530c0 -77 -13 -115 -42 -145c-24 -25 -62 -40 -102 -40s-78 12 -104 37c-29 29 -39 67 -39 112h81c0 -25 3 -46 17 -62c11 -11 27 -17 44 -17c19 0 34 8 44 19c15 16 20 43 20 91v79c-8 -11 -18 -22 -29 -29c-15 -11 -33 -16 -54 -16c-35 0 -63 12 -85 38 c-33 37 -41 95 -41 217s8 179 41 217c22 25 49 37 85 37c22 0 40 -5 56 -16c11 -7 22 -18 29 -28v36h79zM249 164v214c0 28 -7 46 -20 59c-11 11 -25 16 -42 16c-19 0 -34 -8 -44 -21c-18 -22 -21 -62 -21 -161s3 -139 21 -162c10 -12 25 -21 44 -21c17 0 31 6 42 17 c13 13 20 31 20 59zM314 586h-67l-60 87l-59 -87h-67l93 135h67z" unicode="ĝ" glyph-name="gcircumflex"/>
<glyph horiz-adv-x="434" d="M386 171c-1 -119 -72 -179 -165 -179c-56 0 -95 22 -122 52c-46 51 -52 115 -52 312s6 261 52 312c27 30 66 52 122 52c50 0 88 -17 115 -44c33 -33 48 -83 49 -140h-85c-1 48 -13 107 -79 107c-28 0 -47 -11 -59 -27c-25 -34 -29 -91 -29 -260s4 -226 29 -260 c12 -16 31 -27 59 -27c50 0 79 41 79 99v143h-79v71h165v-211zM339 866c-5 -78 -52 -111 -118 -111s-113 33 -118 111h59c4 -36 27 -52 59 -52s55 16 59 52h59z" unicode="Ğ" glyph-name="Gbreve"/>
<glyph horiz-adv-x="387" d="M330 518v-530c0 -77 -13 -115 -42 -145c-24 -25 -62 -40 -102 -40s-78 12 -104 37c-29 29 -39 67 -39 112h81c0 -25 3 -46 17 -62c11 -11 27 -17 44 -17c19 0 34 8 44 19c15 16 20 43 20 91v79c-8 -11 -18 -22 -29 -29c-15 -11 -33 -16 -54 -16c-35 0 -63 12 -85 38 c-33 37 -41 95 -41 217s8 179 41 217c22 25 49 37 85 37c22 0 40 -5 56 -16c11 -7 22 -18 29 -28v36h79zM249 164v214c0 28 -7 46 -20 59c-11 11 -25 16 -42 16c-19 0 -34 -8 -44 -21c-18 -22 -21 -62 -21 -161s3 -139 21 -162c10 -12 25 -21 44 -21c17 0 31 6 42 17 c13 13 20 31 20 59zM305 694c-5 -79 -51 -112 -118 -112c-66 0 -112 33 -117 112h58c5 -37 27 -53 59 -53c33 0 55 16 60 53h58z" unicode="ğ" glyph-name="gbreve"/>
<glyph horiz-adv-x="434" d="M386 171c-1 -119 -72 -179 -165 -179c-56 0 -95 22 -122 52c-46 51 -52 115 -52 312s6 261 52 312c27 30 66 52 122 52c50 0 88 -17 115 -44c33 -33 48 -83 49 -140h-85c-1 48 -13 107 -79 107c-28 0 -47 -11 -59 -27c-25 -34 -29 -91 -29 -260s4 -226 29 -260 c12 -16 31 -27 59 -27c50 0 79 41 79 99v143h-79v71h165v-211zM262 777h-82v81h82v-81z" unicode="Ġ" glyph-name="Gdotaccent"/>
<glyph horiz-adv-x="387" d="M330 518v-530c0 -77 -13 -115 -42 -145c-24 -25 -62 -40 -102 -40s-78 12 -104 37c-29 29 -39 67 -39 112h81c0 -25 3 -46 17 -62c11 -11 27 -17 44 -17c19 0 34 8 44 19c15 16 20 43 20 91v79c-8 -11 -18 -22 -29 -29c-15 -11 -33 -16 -54 -16c-35 0 -63 12 -85 38 c-33 37 -41 95 -41 217s8 179 41 217c22 25 49 37 85 37c22 0 40 -5 56 -16c11 -7 22 -18 29 -28v36h79zM249 164v214c0 28 -7 46 -20 59c-11 11 -25 16 -42 16c-19 0 -34 -8 -44 -21c-18 -22 -21 -62 -21 -161s3 -139 21 -162c10 -12 25 -21 44 -21c17 0 31 6 42 17 c13 13 20 31 20 59zM228 604h-81v82h81v-82z" unicode="ġ" glyph-name="gdotaccent"/>
<glyph horiz-adv-x="434" d="M386 171c-1 -119 -72 -179 -165 -179c-56 0 -95 22 -122 52c-46 51 -52 115 -52 312s6 261 52 312c27 30 66 52 122 52c50 0 88 -17 115 -44c33 -33 48 -83 49 -140h-85c-1 48 -13 107 -79 107c-28 0 -47 -11 -59 -27c-25 -34 -29 -91 -29 -260s4 -226 29 -260 c12 -16 31 -27 59 -27c50 0 79 41 79 99v143h-79v71h165v-211zM251 -38l-50 -144h-64l57 144h57z" unicode="Ģ" glyph-name="Gcommaaccent"/>
<glyph horiz-adv-x="387" d="M330 518v-530c0 -77 -13 -115 -42 -145c-24 -25 -62 -40 -102 -40s-78 12 -104 37c-29 29 -39 67 -39 112h81c0 -25 3 -46 17 -62c11 -11 27 -17 44 -17c19 0 34 8 44 19c15 16 20 43 20 91v79c-8 -11 -18 -22 -29 -29c-15 -11 -33 -16 -54 -16c-35 0 -63 12 -85 38 c-33 37 -41 95 -41 217s8 179 41 217c22 25 49 37 85 37c22 0 40 -5 56 -16c11 -7 22 -18 29 -28v36h79zM249 164v214c0 28 -7 46 -20 59c-11 11 -25 16 -42 16c-19 0 -34 -8 -44 -21c-18 -22 -21 -62 -21 -161s3 -139 21 -162c10 -12 25 -21 44 -21c17 0 31 6 42 17 c13 13 20 31 20 59zM161 586l49 144h65l-57 -144h-57z" unicode="ģ" glyph-name="gcommaaccent"/>
<glyph horiz-adv-x="458" d="M394 0h-86v324h-158v-324h-86v712h86v-311h158v311h86v-712zM355 762h-66l-60 87l-60 -87h-66l93 135h66z" unicode="Ĥ" glyph-name="Hcircumflex"/>
<glyph horiz-adv-x="395" d="M342 0h-81v381c0 48 -28 72 -62 72s-61 -24 -61 -72v-381h-81v712h81v-231c7 11 19 23 29 29c16 10 35 16 56 16c39 0 66 -13 88 -38c21 -23 31 -51 31 -107v-381zM226 761h-67l-60 87l-59 -87h-67l93 135h67z" unicode="ĥ" glyph-name="hcircumflex"/>
<glyph horiz-adv-x="480" d="M455 519h-50v-519h-86v323h-158v-323h-86v519h-50v68h50v125h86v-125h158v125h86v-125h50v-68zM319 401v118h-158v-118h158z" unicode="Ħ" glyph-name="Hbar"/>
<glyph horiz-adv-x="419" d="M365 0h-81v381c0 48 -28 72 -62 72s-61 -24 -61 -72v-381h-81v582h-55v54h55v76h81v-76h86v-54h-86v-101c7 11 19 23 29 29c16 10 35 16 56 16c39 0 66 -13 88 -38c21 -23 31 -51 31 -107v-381z" unicode="ħ" glyph-name="hbar"/>
<glyph horiz-adv-x="215" d="M150 0h-86v712h86v-712zM239 814c-22 -22 -47 -42 -80 -42c-52 0 -67 32 -101 32c-19 0 -32 -11 -45 -23l-36 37c28 29 50 43 79 43c53 0 62 -33 101 -33c20 0 32 11 44 23z" unicode="Ĩ" glyph-name="Itilde"/>
<glyph horiz-adv-x="195" d="M138 0h-81v518h81v-518zM231 638c-34 -33 -56 -42 -80 -42c-22 0 -38 6 -58 17c-15 9 -27 15 -43 15c-13 0 -23 -1 -45 -23l-36 38c33 33 54 42 79 42c23 0 38 -5 58 -17c15 -9 27 -15 43 -15c12 0 23 2 44 23z" unicode="ĩ" glyph-name="itilde"/>
<glyph horiz-adv-x="215" d="M150 0h-86v712h86v-712zM222 780h-228v58h228v-58z" unicode="Ī" glyph-name="Imacron"/>
<glyph horiz-adv-x="195" d="M138 0h-81v518h81v-518zM214 608h-229v57h229v-57z" unicode="ī" glyph-name="imacron"/>
<glyph horiz-adv-x="215" d="M150 0h-86v712h86v-712zM226 866c-5 -78 -52 -111 -118 -111s-113 33 -118 111h59c4 -36 27 -52 59 -52s55 16 59 52h59z" unicode="Ĭ" glyph-name="Ibreve"/>
<glyph horiz-adv-x="195" d="M138 0h-81v518h81v-518zM215 694c-5 -79 -51 -112 -118 -112c-66 0 -112 33 -117 112h58c5 -37 27 -53 59 -53c33 0 55 16 60 53h58z" unicode="ĭ" glyph-name="ibreve"/>
<glyph horiz-adv-x="215" d="M150 0h-86v712h86v-712zM143 -38l-50 -144h-64l57 144h57z" unicode="Į" glyph-name="Iogonek"/>
<glyph horiz-adv-x="195" d="M138 0h-81v518h81v-518zM145 610h-95v94h95v-94zM133 -38l-50 -144h-64l57 144h57z" unicode="į" glyph-name="iogonek"/>
<glyph horiz-adv-x="215" d="M150 0h-86v712h86v-712zM149 777h-82v81h82v-81z" unicode="İ" glyph-name="Idotaccent"/>
<glyph horiz-adv-x="195" d="M138 0h-81v518h81v-518z" unicode="ı" glyph-name="dotlessi"/>
<glyph horiz-adv-x="576" d="M150 0h-86v712h86v-712zM518 170c0 -54 -15 -99 -45 -130c-31 -32 -73 -48 -126 -48s-96 20 -127 54l61 57c14 -19 39 -34 66 -34c48 0 85 35 85 101v542h86v-542z" unicode="Ĳ" glyph-name="IJ"/>
<glyph horiz-adv-x="390" d="M138 0h-81v518h81v-518zM145 610h-95v94h95v-94zM333 -46c0 -57 -18 -93 -46 -116c-31 -26 -69 -32 -113 -32v73c50 0 78 20 78 78v561h81v-564zM340 610h-95v94h95v-94z" unicode="ĳ" glyph-name="ij"/>
<glyph horiz-adv-x="361" d="M303 170c0 -54 -15 -99 -45 -130c-31 -32 -73 -48 -126 -48s-96 20 -127 54l61 57c14 -19 39 -34 66 -34c48 0 85 35 85 101v542h86v-542zM386 762h-66l-60 87l-60 -87h-66l93 135h66z" unicode="Ĵ" glyph-name="Jcircumflex"/>
<glyph horiz-adv-x="195" d="M138 -46c0 -57 -18 -92 -46 -115c-31 -27 -69 -33 -113 -33v73c50 0 78 20 78 78v561h81v-564zM225 586h-67l-60 87l-59 -87h-67l93 135h67z" unicode="ĵ" glyph-name="jcircumflex"/>
<glyph horiz-adv-x="439" d="M431 0h-93l-126 322l-62 -123v-199h-86v712h86v-361l172 361h88l-144 -294zM265 -38l-50 -144h-64l57 144h57z" unicode="Ķ" glyph-name="Kcommaaccent"/>
<glyph horiz-adv-x="395" d="M383 0h-90l-99 244l-56 -89v-155h-81v712h81v-440l147 246h86l-126 -202zM242 -38l-50 -144h-64l57 144h57z" unicode="ķ" glyph-name="kcommaaccent"/>
<glyph horiz-adv-x="395" d="M383 0h-90l-99 244l-56 -89v-155h-81v518h81v-246l147 246h86l-126 -202z" unicode="ĸ" glyph-name="kgreenlandic"/>
<glyph horiz-adv-x="361" d="M339 0h-275v712h86v-635h189v-77zM214 897l-81 -135h-62l69 135h74z" unicode="Ĺ" glyph-name="Lacute"/>
<glyph horiz-adv-x="228" d="M211 0c-44 0 -81 6 -112 32c-28 23 -46 59 -46 116v564h81v-561c0 -51 24 -78 77 -78v-73zM196 895l-81 -135h-61l68 135h74z" unicode="ĺ" glyph-name="lacute"/>
<glyph horiz-adv-x="361" d="M339 0h-275v712h86v-635h189v-77zM241 -38l-50 -144h-64l57 144h57z" unicode="Ļ" glyph-name="Lcommaaccent"/>
<glyph horiz-adv-x="228" d="M211 0c-44 0 -81 6 -112 32c-28 23 -46 59 -46 116v564h81v-561c0 -51 24 -78 77 -78v-73zM172 -38l-50 -144h-64l57 144h57z" unicode="ļ" glyph-name="lcommaaccent"/>
<glyph horiz-adv-x="361" d="M339 0h-275v712h86v-635h189v-77zM301 712l-34 -144h-55l23 144h66z" unicode="Ľ" glyph-name="Lcaron"/>
<glyph horiz-adv-x="228" d="M211 0c-44 0 -81 6 -112 32c-28 23 -46 59 -46 116v564h81v-561c0 -51 24 -78 77 -78v-73zM266 730l-34 -144h-55l23 144h66z" unicode="ľ" glyph-name="lcaron"/>
<glyph horiz-adv-x="361" d="M339 0h-275v712h86v-635h189v-77zM328 316h-81v82h81v-82z" unicode="Ŀ" glyph-name="Ldot"/>
<glyph horiz-adv-x="245" d="M216 0c-44 0 -81 6 -112 32c-28 23 -46 59 -46 116v564h81v-561c0 -51 24 -78 77 -78v-73zM259 262h-81v82h81v-82z" unicode="ŀ" glyph-name="ldot"/>
<glyph horiz-adv-x="370" d="M347 0h-274v276l-48 -44v85l48 44v351h86v-280l94 84v-85l-94 -84v-270h188v-77z" unicode="Ł" glyph-name="Lslash"/>
<glyph horiz-adv-x="255" d="M235 0c-37 0 -72 5 -100 24c-8 6 -15 13 -22 21c-14 16 -24 36 -29 64c-5 25 -8 52 -8 82v117l-57 -55v81l57 56v322h81v-253l58 57v-82l-58 -56v-223c0 -49 19 -83 78 -83v-72z" unicode="ł" glyph-name="lslash"/>
<glyph horiz-adv-x="477" d="M412 0h-78l-184 487v-487h-86v712h80l182 -487v487h86v-712zM344 897l-81 -135h-62l69 135h74z" unicode="Ń" glyph-name="Nacute"/>
<glyph horiz-adv-x="395" d="M342 0h-81v381c0 47 -28 71 -62 71s-61 -24 -61 -71v-381h-81v518h78v-40c7 12 21 25 32 32c16 10 35 16 56 16c39 0 66 -13 88 -38c21 -23 31 -51 31 -107v-381zM307 721l-81 -135h-61l68 135h74z" unicode="ń" glyph-name="nacute"/>
<glyph horiz-adv-x="477" d="M412 0h-78l-184 487v-487h-86v712h80l182 -487v487h86v-712zM265 -38l-50 -144h-64l57 144h57z" unicode="Ņ" glyph-name="Ncommaaccent"/>
<glyph horiz-adv-x="395" d="M342 0h-81v381c0 47 -28 71 -62 71s-61 -24 -61 -71v-381h-81v518h78v-40c7 12 21 25 32 32c16 10 35 16 56 16c39 0 66 -13 88 -38c21 -23 31 -51 31 -107v-381zM233 -38l-50 -144h-64l57 144h57z" unicode="ņ" glyph-name="ncommaaccent"/>
<glyph horiz-adv-x="477" d="M412 0h-78l-184 487v-487h-86v712h80l182 -487v487h86v-712zM364 892l-93 -134h-66l-93 134h66l60 -87l60 87h66z" unicode="Ň" glyph-name="Ncaron"/>
<glyph horiz-adv-x="395" d="M342 0h-81v381c0 47 -28 71 -62 71s-61 -24 -61 -71v-381h-81v518h78v-40c7 12 21 25 32 32c16 10 35 16 56 16c39 0 66 -13 88 -38c21 -23 31 -51 31 -107v-381zM327 717l-93 -135h-67l-93 135h67l59 -87l60 87h67z" unicode="ň" glyph-name="ncaron"/>
<glyph horiz-adv-x="415" d="M362 0h-81v381c0 47 -28 71 -62 71s-61 -24 -61 -71v-381h-81v518h78v-40c7 12 21 25 32 32c16 10 35 16 56 16c39 0 66 -13 88 -38c21 -23 31 -51 31 -107v-381zM66 606l-66 -49v173h66v-124z" unicode="ŉ" glyph-name="napostrophe"/>
<glyph horiz-adv-x="477" d="M412 -34c0 -57 -18 -92 -46 -115c-31 -27 -69 -33 -113 -33v73c54 0 81 20 81 78v31l-184 487v-487h-86v712h80l182 -487v487h86v-746z" unicode="Ŋ" glyph-name="Eng"/>
<glyph horiz-adv-x="395" d="M342 -34c0 -57 -18 -92 -46 -115c-31 -27 -69 -33 -113 -33v73c50 0 78 20 78 78v412c0 48 -28 72 -62 72s-61 -24 -61 -72v-381h-81v518h78v-40c7 12 21 25 32 32c16 10 35 16 56 16c39 0 66 -13 88 -38c21 -23 31 -51 31 -107v-415z" unicode="ŋ" glyph-name="eng"/>
<glyph horiz-adv-x="442" d="M395 356c0 -197 -6 -261 -52 -312c-28 -31 -66 -52 -122 -52s-94 21 -122 52c-46 51 -52 115 -52 312s6 261 52 312c28 31 66 52 122 52s94 -21 122 -52c46 -51 52 -115 52 -312zM309 356c0 169 -5 226 -30 260c-12 16 -30 27 -58 27s-47 -11 -59 -27 c-25 -34 -29 -91 -29 -260s4 -226 29 -260c12 -16 31 -27 59 -27s46 11 58 27c25 34 30 91 30 260zM335 780h-228v58h228v-58z" unicode="Ō" glyph-name="Omacron"/>
<glyph horiz-adv-x="376" d="M335 259c0 -105 -5 -178 -37 -219c-26 -35 -64 -48 -110 -48s-83 13 -109 48c-32 41 -38 114 -38 219s6 178 38 219c26 35 63 48 109 48s84 -13 110 -48c32 -41 37 -114 37 -219zM254 259c0 93 -1 146 -20 172c-10 14 -27 22 -46 22s-35 -8 -45 -22 c-19 -26 -21 -79 -21 -172s2 -146 21 -172c10 -14 26 -22 45 -22s36 8 46 22c19 26 20 79 20 172zM303 608h-229v57h229v-57z" unicode="ō" glyph-name="omacron"/>
<glyph horiz-adv-x="442" d="M395 356c0 -197 -6 -261 -52 -312c-28 -31 -66 -52 -122 -52s-94 21 -122 52c-46 51 -52 115 -52 312s6 261 52 312c28 31 66 52 122 52s94 -21 122 -52c46 -51 52 -115 52 -312zM309 356c0 169 -5 226 -30 260c-12 16 -30 27 -58 27s-47 -11 -59 -27 c-25 -34 -29 -91 -29 -260s4 -226 29 -260c12 -16 31 -27 59 -27s46 11 58 27c25 34 30 91 30 260zM339 870c-5 -78 -52 -111 -118 -111s-113 33 -118 111h59c4 -36 27 -52 59 -52s55 16 59 52h59z" unicode="Ŏ" glyph-name="Obreve"/>
<glyph horiz-adv-x="376" d="M335 259c0 -105 -5 -178 -37 -219c-26 -35 -64 -48 -110 -48s-83 13 -109 48c-32 41 -38 114 -38 219s6 178 38 219c26 35 63 48 109 48s84 -13 110 -48c32 -41 37 -114 37 -219zM254 259c0 93 -1 146 -20 172c-10 14 -27 22 -46 22s-35 -8 -45 -22 c-19 -26 -21 -79 -21 -172s2 -146 21 -172c10 -14 26 -22 45 -22s36 8 46 22c19 26 20 79 20 172zM306 694c-5 -79 -51 -112 -118 -112c-66 0 -112 33 -117 112h58c5 -37 27 -53 59 -53c33 0 55 16 60 53h58z" unicode="ŏ" glyph-name="obreve"/>
<glyph horiz-adv-x="442" d="M395 356c0 -197 -6 -261 -52 -312c-28 -31 -66 -52 -122 -52s-94 21 -122 52c-46 51 -52 115 -52 312s6 261 52 312c28 31 66 52 122 52s94 -21 122 -52c46 -51 52 -115 52 -312zM309 356c0 169 -5 226 -30 260c-12 16 -30 27 -58 27s-47 -11 -59 -27 c-25 -34 -29 -91 -29 -260s4 -226 29 -260c12 -16 31 -27 59 -27s46 11 58 27c25 34 30 91 30 260zM248 897l-68 -135h-59l53 135h74zM385 897l-68 -135h-58l52 135h74z" unicode="Ő" glyph-name="Ohungarumlaut"/>
<glyph horiz-adv-x="376" d="M335 259c0 -105 -5 -178 -37 -219c-26 -35 -64 -48 -110 -48s-83 13 -109 48c-32 41 -38 114 -38 219s6 178 38 219c26 35 63 48 109 48s84 -13 110 -48c32 -41 37 -114 37 -219zM254 259c0 93 -1 146 -20 172c-10 14 -27 22 -46 22s-35 -8 -45 -22 c-19 -26 -21 -79 -21 -172s2 -146 21 -172c10 -14 26 -22 45 -22s36 8 46 22c19 26 20 79 20 172zM215 721l-68 -135h-59l53 135h74zM352 721l-68 -135h-58l52 135h74z" unicode="ő" glyph-name="ohungarumlaut"/>
<glyph horiz-adv-x="622" d="M580 0h-267v33c-21 -26 -56 -41 -96 -41c-53 0 -93 20 -118 51c-45 53 -52 135 -52 313s6 261 52 313c26 31 65 51 118 51c40 0 77 -16 96 -41v33h267v-77h-188v-239h162v-77h-162v-242h188v-77zM309 356c0 169 -4 226 -30 260c-11 16 -31 27 -58 27 c-28 0 -47 -11 -58 -27c-26 -34 -30 -91 -30 -260s4 -226 30 -260c11 -16 30 -27 58 -27c27 0 47 11 58 27c26 34 30 91 30 260z" unicode="Œ" glyph-name="OE"/>
<glyph horiz-adv-x="586" d="M548 240h-213c0 -82 3 -130 21 -153c9 -13 25 -22 46 -22c18 0 34 6 46 20c13 15 17 35 17 60h81c-1 -48 -13 -84 -42 -115c-25 -26 -60 -38 -102 -38c-37 0 -68 13 -89 32c-7 7 -13 15 -18 25c-5 -11 -10 -18 -18 -25c-22 -19 -53 -32 -90 -32c-46 0 -83 13 -109 48 c-32 41 -38 115 -38 219c0 105 6 178 38 219c26 35 63 48 109 48c37 0 69 -12 91 -33c7 -6 12 -14 17 -23c4 9 11 18 18 24c24 20 53 32 88 32c41 0 74 -11 101 -40c39 -41 46 -118 46 -246zM466 301c0 75 -4 112 -20 131c-10 13 -24 21 -46 21s-35 -8 -45 -21 c-16 -19 -20 -56 -20 -131h131zM254 259c0 93 -1 146 -20 172c-10 14 -27 22 -46 22s-35 -8 -45 -22c-19 -26 -21 -79 -21 -172s2 -146 21 -172c10 -14 26 -22 45 -22s36 8 46 22c19 26 20 79 20 172z" unicode="œ" glyph-name="oe"/>
<glyph horiz-adv-x="455" d="M416 0h-91l-98 306h-77v-306h-86v712h161c108 0 168 -47 168 -203c0 -99 -24 -157 -86 -186zM307 509c0 76 -15 126 -81 126h-76v-253h76c66 0 81 51 81 127zM322 897l-81 -135h-62l69 135h74z" unicode="Ŕ" glyph-name="Racute"/>
<glyph horiz-adv-x="272" d="M256 448h-24c-55 0 -94 -36 -94 -95v-353h-81v518h78v-55c8 14 23 28 36 37c24 17 52 26 85 26v-78zM248 721l-81 -135h-61l68 135h74z" unicode="ŕ" glyph-name="racute"/>
<glyph horiz-adv-x="455" d="M416 0h-91l-98 306h-77v-306h-86v712h161c108 0 168 -47 168 -203c0 -99 -24 -157 -86 -186zM307 509c0 76 -15 126 -81 126h-76v-253h76c66 0 81 51 81 127zM263 -38l-50 -144h-64l57 144h57z" unicode="Ŗ" glyph-name="Rcommaaccent"/>
<glyph horiz-adv-x="272" d="M256 448h-24c-55 0 -94 -36 -94 -95v-353h-81v518h78v-55c8 14 23 28 36 37c24 17 52 26 85 26v-78zM133 -38l-50 -144h-64l57 144h57z" unicode="ŗ" glyph-name="rcommaaccent"/>
<glyph horiz-adv-x="455" d="M416 0h-91l-98 306h-77v-306h-86v712h161c108 0 168 -47 168 -203c0 -99 -24 -157 -86 -186zM307 509c0 76 -15 126 -81 126h-76v-253h76c66 0 81 51 81 127zM342 892l-93 -134h-66l-93 134h66l60 -87l60 87h66z" unicode="Ř" glyph-name="Rcaron"/>
<glyph horiz-adv-x="272" d="M256 448h-24c-55 0 -94 -36 -94 -95v-353h-81v518h78v-55c8 14 23 28 36 37c24 17 52 26 85 26v-78zM269 717l-93 -135h-67l-93 135h67l59 -87l60 87h67z" unicode="ř" glyph-name="rcaron"/>
<glyph horiz-adv-x="420" d="M377 191c0 -74 -10 -121 -44 -155c-27 -26 -69 -43 -126 -43c-55 0 -97 15 -125 43c-33 33 -44 74 -44 150h86c0 -47 5 -73 24 -93c12 -13 32 -22 59 -22c29 0 48 9 61 23c19 21 23 48 23 95c0 82 -12 107 -70 131l-81 33c-73 30 -97 70 -97 178c0 62 18 113 54 146 c28 26 66 41 113 41c52 0 91 -15 118 -41c36 -35 47 -81 47 -146h-86c0 38 -4 64 -22 86c-12 15 -31 24 -58 24c-25 0 -43 -9 -55 -22c-17 -19 -25 -48 -25 -85c0 -70 11 -91 68 -115l80 -33c81 -33 100 -83 100 -195zM320 897l-81 -135h-62l69 135h74z" unicode="Ś" glyph-name="Sacute"/>
<glyph horiz-adv-x="359" d="M328 141c0 -46 -18 -82 -44 -108c-28 -29 -64 -41 -106 -41s-79 14 -104 40c-30 31 -44 67 -44 114h80c0 -27 7 -47 22 -63c12 -12 30 -18 46 -18c21 0 36 6 49 19c12 12 20 31 20 52c0 18 -4 33 -13 47c-10 15 -25 26 -46 37l-67 34c-34 17 -58 38 -71 60 c-11 19 -16 41 -16 68c0 45 17 79 43 105s62 39 102 39c41 0 76 -12 101 -37c27 -26 42 -63 42 -114h-80c0 30 -6 48 -19 62c-12 13 -28 18 -44 18c-19 0 -34 -6 -45 -17c-13 -13 -19 -31 -19 -50c0 -15 3 -27 9 -38c7 -12 22 -24 43 -34l66 -33c35 -17 58 -35 73 -59 c14 -21 22 -50 22 -83zM289 721l-81 -135h-61l68 135h74z" unicode="ś" glyph-name="sacute"/>
<glyph horiz-adv-x="420" d="M377 191c0 -74 -10 -121 -44 -155c-27 -26 -69 -43 -126 -43c-55 0 -97 15 -125 43c-33 33 -44 74 -44 150h86c0 -47 5 -73 24 -93c12 -13 32 -22 59 -22c29 0 48 9 61 23c19 21 23 48 23 95c0 82 -12 107 -70 131l-81 33c-73 30 -97 70 -97 178c0 62 18 113 54 146 c28 26 66 41 113 41c52 0 91 -15 118 -41c36 -35 47 -81 47 -146h-86c0 38 -4 64 -22 86c-12 15 -31 24 -58 24c-25 0 -43 -9 -55 -22c-17 -19 -25 -48 -25 -85c0 -70 11 -91 68 -115l80 -33c81 -33 100 -83 100 -195zM341 762h-66l-60 87l-60 -87h-66l93 135h66z" unicode="Ŝ" glyph-name="Scircumflex"/>
<glyph horiz-adv-x="359" d="M328 141c0 -46 -18 -82 -44 -108c-28 -29 -64 -41 -106 -41s-79 14 -104 40c-30 31 -44 67 -44 114h80c0 -27 7 -47 22 -63c12 -12 30 -18 46 -18c21 0 36 6 49 19c12 12 20 31 20 52c0 18 -4 33 -13 47c-10 15 -25 26 -46 37l-67 34c-34 17 -58 38 -71 60 c-11 19 -16 41 -16 68c0 45 17 79 43 105s62 39 102 39c41 0 76 -12 101 -37c27 -26 42 -63 42 -114h-80c0 30 -6 48 -19 62c-12 13 -28 18 -44 18c-19 0 -34 -6 -45 -17c-13 -13 -19 -31 -19 -50c0 -15 3 -27 9 -38c7 -12 22 -24 43 -34l66 -33c35 -17 58 -35 73 -59 c14 -21 22 -50 22 -83zM310 586h-67l-60 87l-59 -87h-67l93 135h67z" unicode="ŝ" glyph-name="scircumflex"/>
<glyph horiz-adv-x="420" d="M377 191c0 -74 -10 -121 -44 -155c-27 -26 -69 -43 -126 -43c-55 0 -97 15 -125 43c-33 33 -44 74 -44 150h86c0 -47 5 -73 24 -93c12 -13 32 -22 59 -22c29 0 48 9 61 23c19 21 23 48 23 95c0 82 -12 107 -70 131l-81 33c-73 30 -97 70 -97 178c0 62 18 113 54 146 c28 26 66 41 113 41c52 0 91 -15 118 -41c36 -35 47 -81 47 -146h-86c0 38 -4 64 -22 86c-12 15 -31 24 -58 24c-25 0 -43 -9 -55 -22c-17 -19 -25 -48 -25 -85c0 -70 11 -91 68 -115l80 -33c81 -33 100 -83 100 -195zM235 -38l-50 -144h-64l57 144h57z" unicode="Ş" glyph-name="Scedilla"/>
<glyph horiz-adv-x="359" d="M328 141c0 -46 -18 -82 -44 -108c-28 -29 -64 -41 -106 -41s-79 14 -104 40c-30 31 -44 67 -44 114h80c0 -27 7 -47 22 -63c12 -12 30 -18 46 -18c21 0 36 6 49 19c12 12 20 31 20 52c0 18 -4 33 -13 47c-10 15 -25 26 -46 37l-67 34c-34 17 -58 38 -71 60 c-11 19 -16 41 -16 68c0 45 17 79 43 105s62 39 102 39c41 0 76 -12 101 -37c27 -26 42 -63 42 -114h-80c0 30 -6 48 -19 62c-12 13 -28 18 -44 18c-19 0 -34 -6 -45 -17c-13 -13 -19 -31 -19 -50c0 -15 3 -27 9 -38c7 -12 22 -24 43 -34l66 -33c35 -17 58 -35 73 -59 c14 -21 22 -50 22 -83zM207 -38l-50 -144h-64l57 144h57z" unicode="ş" glyph-name="scedilla"/>
<glyph horiz-adv-x="420" d="M377 191c0 -74 -10 -121 -44 -155c-27 -26 -69 -43 -126 -43c-55 0 -97 15 -125 43c-33 33 -44 74 -44 150h86c0 -47 5 -73 24 -93c12 -13 32 -22 59 -22c29 0 48 9 61 23c19 21 23 48 23 95c0 82 -12 107 -70 131l-81 33c-73 30 -97 70 -97 178c0 62 18 113 54 146 c28 26 66 41 113 41c52 0 91 -15 118 -41c36 -35 47 -81 47 -146h-86c0 38 -4 64 -22 86c-12 15 -31 24 -58 24c-25 0 -43 -9 -55 -22c-17 -19 -25 -48 -25 -85c0 -70 11 -91 68 -115l80 -33c81 -33 100 -83 100 -195zM344 892l-93 -134h-66l-93 134h66l60 -87l60 87h66z " unicode="Š" glyph-name="Scaron"/>
<glyph horiz-adv-x="359" d="M328 141c0 -46 -18 -82 -44 -108c-28 -29 -64 -41 -106 -41s-79 14 -104 40c-30 31 -44 67 -44 114h80c0 -27 7 -47 22 -63c12 -12 30 -18 46 -18c21 0 36 6 49 19c12 12 20 31 20 52c0 18 -4 33 -13 47c-10 15 -25 26 -46 37l-67 34c-34 17 -58 38 -71 60 c-11 19 -16 41 -16 68c0 45 17 79 43 105s62 39 102 39c41 0 76 -12 101 -37c27 -26 42 -63 42 -114h-80c0 30 -6 48 -19 62c-12 13 -28 18 -44 18c-19 0 -34 -6 -45 -17c-13 -13 -19 -31 -19 -50c0 -15 3 -27 9 -38c7 -12 22 -24 43 -34l66 -33c35 -17 58 -35 73 -59 c14 -21 22 -50 22 -83zM310 717l-93 -135h-67l-93 135h67l59 -87l60 87h67z" unicode="š" glyph-name="scaron"/>
<glyph horiz-adv-x="367" d="M346 635h-119v-635h-86v635h-120v77h325v-77zM212 -38l-50 -144h-64l57 144h57z" unicode="Ţ" glyph-name="Tcommaaccent"/>
<glyph horiz-adv-x="260" d="M240 0c-46 0 -86 4 -119 32c-29 24 -45 62 -45 116v307h-59v63h59v142h81v-142h80v-63h-80v-304c0 -55 29 -78 83 -78v-73zM194 -38l-50 -144h-64l57 144h57z" unicode="ţ" glyph-name="tcommaaccent"/>
<glyph horiz-adv-x="367" d="M346 635h-119v-635h-86v635h-120v77h325v-77zM308 892l-93 -134h-66l-93 134h66l60 -87l60 87h66z" unicode="Ť" glyph-name="Tcaron"/>
<glyph horiz-adv-x="260" d="M240 0c-46 0 -86 4 -119 32c-29 24 -45 62 -45 116v307h-59v63h59v142h81v-142h80v-63h-80v-304c0 -55 29 -78 83 -78v-73zM286 730l-34 -144h-55l23 144h66z" unicode="ť" glyph-name="tcaron"/>
<glyph horiz-adv-x="367" d="M293 323h-66v-323h-86v323h-67v69h67v243h-120v77h325v-77h-119v-243h66v-69z" unicode="Ŧ" glyph-name="Tbar"/>
<glyph horiz-adv-x="260" d="M240 0c-46 0 -86 4 -119 32c-29 24 -45 62 -45 116v124h-59v63h59v120h-59v63h59v142h81v-142h80v-63h-80v-120h80v-63h-80v-121c0 -55 29 -78 83 -78v-73z" unicode="ŧ" glyph-name="tbar"/>
<glyph horiz-adv-x="445" d="M387 162c0 -52 -17 -94 -46 -123c-31 -31 -73 -47 -119 -47s-87 16 -118 47c-29 29 -46 71 -46 123v550h86v-555c0 -56 35 -88 78 -88s79 32 79 88v555h86v-550zM354 814c-22 -22 -47 -42 -80 -42c-52 0 -67 32 -101 32c-19 0 -32 -11 -45 -23l-36 37c28 29 50 43 79 43 c53 0 62 -33 101 -33c20 0 32 11 44 23z" unicode="Ũ" glyph-name="Utilde"/>
<glyph horiz-adv-x="395" d="M338 0h-78v40c-7 -12 -21 -25 -32 -32c-16 -10 -35 -16 -56 -16c-39 0 -66 13 -88 38c-21 23 -31 51 -31 107v381h81v-381c0 -48 28 -72 62 -72s61 24 61 72v381h81v-518zM329 638c-34 -33 -56 -42 -80 -42c-22 0 -38 6 -58 17c-15 9 -27 15 -43 15c-13 0 -23 -1 -45 -23 l-36 38c33 33 54 42 79 42c23 0 38 -5 58 -17c15 -9 27 -15 43 -15c12 0 23 2 44 23z" unicode="ũ" glyph-name="utilde"/>
<glyph horiz-adv-x="445" d="M387 162c0 -52 -17 -94 -46 -123c-31 -31 -73 -47 -119 -47s-87 16 -118 47c-29 29 -46 71 -46 123v550h86v-555c0 -56 35 -88 78 -88s79 32 79 88v555h86v-550zM336 780h-228v58h228v-58z" unicode="Ū" glyph-name="Umacron"/>
<glyph horiz-adv-x="395" d="M338 0h-78v40c-7 -12 -21 -25 -32 -32c-16 -10 -35 -16 -56 -16c-39 0 -66 13 -88 38c-21 23 -31 51 -31 107v381h81v-381c0 -48 28 -72 62 -72s61 24 61 72v381h81v-518zM310 608h-229v57h229v-57z" unicode="ū" glyph-name="umacron"/>
<glyph horiz-adv-x="445" d="M387 162c0 -52 -17 -94 -46 -123c-31 -31 -73 -47 -119 -47s-87 16 -118 47c-29 29 -46 71 -46 123v550h86v-555c0 -56 35 -88 78 -88s79 32 79 88v555h86v-550zM340 866c-5 -78 -52 -111 -118 -111s-113 33 -118 111h59c4 -36 27 -52 59 -52s55 16 59 52h59z" unicode="Ŭ" glyph-name="Ubreve"/>
<glyph horiz-adv-x="395" d="M338 0h-78v40c-7 -12 -21 -25 -32 -32c-16 -10 -35 -16 -56 -16c-39 0 -66 13 -88 38c-21 23 -31 51 -31 107v381h81v-381c0 -48 28 -72 62 -72s61 24 61 72v381h81v-518zM313 694c-5 -79 -51 -112 -118 -112c-66 0 -112 33 -117 112h58c5 -37 27 -53 59 -53 c33 0 55 16 60 53h58z" unicode="ŭ" glyph-name="ubreve"/>
<glyph horiz-adv-x="445" d="M387 162c0 -52 -17 -94 -46 -123c-31 -31 -73 -47 -119 -47s-87 16 -118 47c-29 29 -46 71 -46 123v550h86v-555c0 -56 35 -88 78 -88s79 32 79 88v555h86v-550zM320 850c0 -54 -44 -98 -98 -98s-98 44 -98 98s44 98 98 98s98 -44 98 -98zM271 850c0 27 -22 49 -49 49 s-49 -22 -49 -49s22 -49 49 -49s49 22 49 49z" unicode="Ů" glyph-name="Uring"/>
<glyph horiz-adv-x="395" d="M338 0h-78v40c-7 -12 -21 -25 -32 -32c-16 -10 -35 -16 -56 -16c-39 0 -66 13 -88 38c-21 23 -31 51 -31 107v381h81v-381c0 -48 28 -72 62 -72s61 24 61 72v381h81v-518zM293 681c0 -54 -44 -98 -98 -98c-53 0 -97 44 -97 98s44 98 97 98c54 0 98 -44 98 -98zM245 681 c0 27 -23 49 -50 49c-26 0 -49 -22 -49 -49s23 -49 49 -49c27 0 50 22 50 49z" unicode="ů" glyph-name="uring"/>
<glyph horiz-adv-x="445" d="M387 162c0 -52 -17 -94 -46 -123c-31 -31 -73 -47 -119 -47s-87 16 -118 47c-29 29 -46 71 -46 123v550h86v-555c0 -56 35 -88 78 -88s79 32 79 88v555h86v-550zM249 897l-68 -135h-59l53 135h74zM386 897l-68 -135h-58l52 135h74z" unicode="Ű" glyph-name="Uhungarumlaut"/>
<glyph horiz-adv-x="395" d="M338 0h-78v40c-7 -12 -21 -25 -32 -32c-16 -10 -35 -16 -56 -16c-39 0 -66 13 -88 38c-21 23 -31 51 -31 107v381h81v-381c0 -48 28 -72 62 -72s61 24 61 72v381h81v-518zM222 721l-68 -135h-59l53 135h74zM359 721l-68 -135h-58l52 135h74z" unicode="ű" glyph-name="uhungarumlaut"/>
<glyph horiz-adv-x="445" d="M387 162c0 -52 -17 -94 -46 -123c-31 -31 -73 -47 -119 -47s-87 16 -118 47c-29 29 -46 71 -46 123v550h86v-555c0 -56 35 -88 78 -88s79 32 79 88v555h86v-550zM326 -38l-50 -144h-64l57 144h57z" unicode="Ų" glyph-name="Uogonek"/>
<glyph horiz-adv-x="395" d="M338 0h-78v40c-7 -12 -21 -25 -32 -32c-16 -10 -35 -16 -56 -16c-39 0 -66 13 -88 38c-21 23 -31 51 -31 107v381h81v-381c0 -48 28 -72 62 -72s61 24 61 72v381h81v-518zM332 -38l-50 -144h-64l57 144h57z" unicode="ų" glyph-name="uogonek"/>
<glyph horiz-adv-x="652" d="M648 712l-122 -712h-89l-111 573l-110 -573h-89l-123 712h95l73 -573l106 573h96l108 -573l72 573h94zM452 762h-66l-60 87l-60 -87h-66l93 135h66z" unicode="Ŵ" glyph-name="Wcircumflex"/>
<glyph horiz-adv-x="526" d="M522 518l-109 -518h-82l-70 379l-68 -379h-82l-107 518h92l59 -390l69 390h73l73 -390l60 390h92zM390 586h-67l-60 87l-59 -87h-67l93 135h67z" unicode="ŵ" glyph-name="wcircumflex"/>
<glyph horiz-adv-x="353" d="M351 712l-132 -424v-288h-86v288l-131 424h94l80 -304l80 304h95zM302 762h-66l-60 87l-60 -87h-66l93 135h66z" unicode="Ŷ" glyph-name="Ycircumflex"/>
<glyph horiz-adv-x="345" d="M339 518l-146 -601c-22 -93 -86 -111 -172 -111v72c50 0 81 13 93 60l16 63l-126 517h89l79 -389l78 389h89zM298 586h-67l-60 87l-59 -87h-67l93 135h67z" unicode="ŷ" glyph-name="ycircumflex"/>
<glyph horiz-adv-x="353" d="M351 712l-132 -424v-288h-86v288l-131 424h94l80 -304l80 304h95zM296 777h-82v81h82v-81zM140 777h-82v81h82v-81z" unicode="Ÿ" glyph-name="Ydieresis"/>
<glyph horiz-adv-x="349" d="M318 0h-287v65l198 570h-185v77h274v-65l-197 -570h197v-77zM287 897l-81 -135h-62l69 135h74z" unicode="Ź" glyph-name="Zacute"/>
<glyph horiz-adv-x="301" d="M277 0h-253v62l163 384h-152v72h242v-62l-163 -383h163v-73zM264 721l-81 -135h-61l68 135h74z" unicode="ź" glyph-name="zacute"/>
<glyph horiz-adv-x="349" d="M318 0h-287v65l198 570h-185v77h274v-65l-197 -570h197v-77zM222 777h-82v81h82v-81z" unicode="Ż" glyph-name="Zdotaccent"/>
<glyph horiz-adv-x="301" d="M277 0h-253v62l163 384h-152v72h242v-62l-163 -383h163v-73zM198 604h-81v82h81v-82z" unicode="ż" glyph-name="zdotaccent"/>
<glyph horiz-adv-x="349" d="M318 0h-287v65l198 570h-185v77h274v-65l-197 -570h197v-77zM307 892l-93 -134h-66l-93 134h66l60 -87l60 87h66z" unicode="Ž" glyph-name="Zcaron"/>
<glyph horiz-adv-x="301" d="M277 0h-253v62l163 384h-152v72h242v-62l-163 -383h163v-73zM284 717l-93 -135h-67l-93 135h67l59 -87l60 87h67z" unicode="ž" glyph-name="zcaron"/>
<glyph horiz-adv-x="195" d="M138 565v-565h-81v568c0 54 16 91 45 115c32 27 72 33 116 33v-73c-53 0 -80 -26 -80 -78z" unicode="ſ" glyph-name="longs"/>
<glyph horiz-adv-x="434" d="M47 171v211h253c-1 148 -6 202 -30 234c-12 16 -30 27 -58 27c-66 0 -78 -59 -79 -108h-86c2 58 17 108 50 141c27 27 65 44 115 44c56 0 95 -22 122 -52c46 -51 52 -115 52 -312s-6 -261 -52 -312c-27 -30 -66 -52 -122 -52c-93 0 -165 61 -165 179zM133 311v-143 c0 -58 29 -99 79 -99c28 0 46 11 58 27c23 30 29 81 30 215h-167z" unicode="Ə" glyph-name="uni018F"/>
<glyph horiz-adv-x="351" d="M329 644h-30c-38 0 -68 -24 -76 -66l-35 -193h79v-62h-90l-97 -517h-80l96 517h-54v62h66l35 197c16 91 80 134 156 134h30v-72z" unicode="ƒ" glyph-name="florin"/>
<glyph horiz-adv-x="349" d="M318 0h-287v65l90 258h-55v69h79l84 243h-185v77h274v-65l-88 -255h55v-69h-79l-85 -246h197v-77z" unicode="Ƶ" glyph-name="uni01B5"/>
<glyph horiz-adv-x="301" d="M277 0h-253v62l72 169h-51v57h75l67 158h-152v72h242v-62l-72 -168h52v-57h-76l-67 -158h163v-73z" unicode="ƶ" glyph-name="uni01B6"/>
<glyph horiz-adv-x="797" d="M401 356c0 -193 -5 -257 -51 -306c-26 -29 -64 -50 -122 -50h-164v712h164c58 0 96 -21 122 -50c46 -49 51 -113 51 -306zM315 356c0 164 -2 219 -29 252c-13 16 -33 27 -61 27h-75v-558h75c28 0 48 11 61 27c27 33 29 88 29 252zM766 0h-287v65l198 570h-185v77h274v-65 l-197 -570h197v-77zM755 892l-93 -134h-66l-93 134h66l60 -87l60 87h66z" unicode="Ǆ" glyph-name="uni01C4"/>
<glyph horiz-adv-x="749" d="M401 356c0 -193 -5 -257 -51 -306c-26 -29 -64 -50 -122 -50h-164v712h164c58 0 96 -21 122 -50c46 -49 51 -113 51 -306zM315 356c0 164 -2 219 -29 252c-13 16 -33 27 -61 27h-75v-558h75c28 0 48 11 61 27c27 33 29 88 29 252zM725 0h-253v62l163 384h-152v72h242v-62 l-163 -383h163v-73zM732 717l-93 -135h-67l-93 135h67l59 -87l60 87h67z" unicode="ǅ" glyph-name="uni01C5"/>
<glyph horiz-adv-x="688" d="M330 0h-79v40c-5 -10 -22 -27 -31 -32c-17 -10 -36 -16 -56 -16c-36 0 -63 12 -86 39c-33 38 -38 108 -38 228s5 190 38 229c21 25 48 38 86 38c21 0 39 -5 56 -15c10 -6 21 -18 29 -29v230h81v-712zM249 141v237c0 28 -7 46 -20 59c-11 11 -25 16 -42 16 c-19 0 -34 -8 -44 -21c-18 -22 -21 -66 -21 -173s3 -151 21 -173c10 -13 25 -21 44 -21c17 0 31 5 42 16c13 13 20 32 20 60zM664 0h-253v62l163 384h-152v72h242v-62l-163 -383h163v-73zM671 717l-93 -135h-67l-93 135h67l59 -87l60 87h67z" unicode="ǆ" glyph-name="uni01C6"/>
<glyph horiz-adv-x="722" d="M339 0h-275v712h86v-635h189v-77zM664 170c0 -54 -15 -99 -45 -130c-31 -32 -73 -48 -126 -48s-96 20 -127 54l61 57c14 -19 39 -34 66 -34c48 0 85 35 85 101v542h86v-542z" unicode="Ǉ" glyph-name="uni01C7"/>
<glyph horiz-adv-x="556" d="M339 0h-275v712h86v-635h189v-77zM499 -46c0 -57 -18 -93 -46 -116c-31 -26 -69 -32 -113 -32v73c50 0 78 20 78 78v561h81v-564zM506 610h-95v94h95v-94z" unicode="ǈ" glyph-name="uni01C8"/>
<glyph horiz-adv-x="423" d="M216 0c-44 0 -81 6 -112 32c-28 23 -46 59 -46 116v564h81v-561c0 -51 24 -78 77 -78v-73zM366 -46c0 -57 -18 -93 -46 -116c-31 -26 -69 -32 -113 -32v73c50 0 78 20 78 78v561h81v-564zM373 610h-95v94h95v-94z" unicode="ǉ" glyph-name="uni01C9"/>
<glyph horiz-adv-x="838" d="M412 0h-78l-184 487v-487h-86v712h80l182 -487v487h86v-712zM780 170c0 -54 -15 -99 -45 -130c-31 -32 -73 -48 -126 -48s-96 20 -127 54l61 57c14 -19 39 -34 66 -34c48 0 85 35 85 101v542h86v-542z" unicode="Ǌ" glyph-name="uni01CA"/>
<glyph horiz-adv-x="672" d="M412 0h-78l-184 487v-487h-86v712h80l182 -487v487h86v-712zM615 -46c0 -57 -18 -93 -46 -116c-31 -26 -69 -32 -113 -32v73c50 0 78 20 78 78v561h81v-564zM622 610h-95v94h95v-94z" unicode="ǋ" glyph-name="uni01CB"/>
<glyph horiz-adv-x="590" d="M342 0h-81v381c0 47 -28 71 -62 71s-61 -24 -61 -71v-381h-81v518h78v-40c7 12 21 25 32 32c16 10 35 16 56 16c39 0 66 -13 88 -38c21 -23 31 -51 31 -107v-381zM533 -46c0 -57 -18 -93 -46 -116c-31 -26 -69 -32 -113 -32v73c50 0 78 20 78 78v561h81v-564zM540 610 h-95v94h95v-94z" unicode="ǌ" glyph-name="uni01CC"/>
<glyph horiz-adv-x="797" d="M401 356c0 -193 -5 -257 -51 -306c-26 -29 -64 -50 -122 -50h-164v712h164c58 0 96 -21 122 -50c46 -49 51 -113 51 -306zM315 356c0 164 -2 219 -29 252c-13 16 -33 27 -61 27h-75v-558h75c28 0 48 11 61 27c27 33 29 88 29 252zM766 0h-287v65l198 570h-185v77h274v-65 l-197 -570h197v-77z" unicode="Ǳ" glyph-name="uni01F1"/>
<glyph horiz-adv-x="749" d="M401 356c0 -193 -5 -257 -51 -306c-26 -29 -64 -50 -122 -50h-164v712h164c58 0 96 -21 122 -50c46 -49 51 -113 51 -306zM315 356c0 164 -2 219 -29 252c-13 16 -33 27 -61 27h-75v-558h75c28 0 48 11 61 27c27 33 29 88 29 252zM725 0h-253v62l163 384h-152v72h242v-62 l-163 -383h163v-73z" unicode="ǲ" glyph-name="uni01F2"/>
<glyph horiz-adv-x="688" d="M330 0h-79v40c-5 -10 -22 -27 -31 -32c-17 -10 -36 -16 -56 -16c-36 0 -63 12 -86 39c-33 38 -38 108 -38 228s5 190 38 229c21 25 48 38 86 38c21 0 39 -5 56 -15c10 -6 21 -18 29 -29v230h81v-712zM249 141v237c0 28 -7 46 -20 59c-11 11 -25 16 -42 16 c-19 0 -34 -8 -44 -21c-18 -22 -21 -66 -21 -173s3 -151 21 -173c10 -13 25 -21 44 -21c17 0 31 5 42 16c13 13 20 32 20 60zM664 0h-253v62l163 384h-152v72h242v-62l-163 -383h163v-73z" unicode="ǳ" glyph-name="uni01F3"/>
<glyph horiz-adv-x="424" d="M419 0h-91l-34 168h-165l-34 -168h-90l166 712h83zM278 245l-66 328l-67 -328h133zM312 850c0 -54 -44 -98 -98 -98s-98 44 -98 98s44 98 98 98s98 -44 98 -98zM263 850c0 27 -22 49 -49 49s-49 -22 -49 -49s22 -49 49 -49s49 22 49 49zM320 1093l-81 -135h-62l69 135h74 z" unicode="Ǻ" glyph-name="Aringacute"/>
<glyph d="M322 0h-77v46c-8 -14 -20 -27 -30 -35c-16 -12 -33 -19 -61 -19c-38 0 -65 12 -89 39c-20 23 -33 62 -33 116c0 48 16 90 46 117c26 23 56 35 110 35h53v82c0 48 -21 74 -61 74c-18 0 -30 -7 -40 -17c-14 -15 -19 -32 -19 -60h-81c0 40 9 79 40 110c23 23 60 38 100 38 c42 0 77 -12 101 -36c25 -26 41 -61 41 -114v-376zM241 144v96h-46c-25 0 -42 -4 -58 -19c-15 -14 -24 -43 -24 -71c0 -54 21 -87 63 -87c39 0 65 33 65 81zM281 681c0 -54 -44 -98 -98 -98c-53 0 -97 44 -97 98s44 98 97 98c54 0 98 -44 98 -98zM233 681 c0 27 -23 49 -50 49c-26 0 -49 -22 -49 -49s23 -49 49 -49c27 0 50 22 50 49zM290 924l-81 -135h-61l68 135h74z" unicode="ǻ" glyph-name="aringacute"/>
<glyph horiz-adv-x="640" d="M598 0h-274v172h-163l-61 -172h-95l263 712h330v-77h-188v-239h162v-77h-162v-242h188v-77zM324 250v385l-136 -385h136zM474 897l-81 -135h-62l69 135h74z" unicode="Ǽ" glyph-name="AEacute"/>
<glyph horiz-adv-x="573" d="M535 240h-213c0 -82 3 -130 21 -153c10 -13 25 -22 46 -22c19 0 34 7 46 20s18 36 18 60h80c-1 -47 -13 -84 -41 -115c-25 -26 -62 -38 -103 -38c-35 0 -63 10 -86 28c-14 11 -27 28 -36 44c-11 -20 -24 -38 -39 -49c-18 -14 -41 -23 -74 -23c-38 0 -65 12 -89 39 c-21 23 -33 63 -33 116c0 49 16 90 46 117c26 23 56 35 110 35h53v82c0 48 -22 74 -60 74c-19 0 -32 -7 -42 -18c-13 -14 -18 -32 -18 -59h-81c0 40 11 81 40 110c22 22 60 38 100 38c35 0 65 -9 86 -26c6 -5 13 -14 19 -22c4 7 10 12 15 17c23 20 53 31 88 31 c42 0 74 -11 102 -40c39 -41 45 -118 45 -246zM241 144v96h-46c-24 0 -41 -4 -58 -19c-15 -15 -24 -43 -24 -71c0 -54 21 -87 63 -87c38 0 65 34 65 81zM453 301c0 75 -4 112 -20 131c-10 13 -24 21 -46 21s-35 -8 -45 -21c-16 -19 -20 -56 -20 -131h131zM389 721l-81 -135 h-61l68 135h74z" unicode="ǽ" glyph-name="aeacute"/>
<glyph horiz-adv-x="431" d="M395 356c0 -197 -6 -261 -52 -312c-28 -31 -66 -52 -122 -52c-34 0 -61 7 -83 20l-19 -56h-62l34 96c-39 50 -44 123 -44 304c0 197 6 261 52 312c28 31 66 52 122 52c32 0 60 -7 83 -20l18 56h62l-32 -97c38 -50 43 -123 43 -303zM277 621c-13 14 -32 22 -56 22 c-28 0 -47 -11 -59 -27c-25 -34 -29 -91 -29 -260c0 -99 2 -145 8 -176zM309 356c0 96 -2 145 -8 175l-136 -440c12 -14 30 -22 56 -22c28 0 46 11 58 27c26 34 30 91 30 260zM327 897l-81 -135h-62l69 135h74z" unicode="Ǿ" glyph-name="Oslashacute"/>
<glyph horiz-adv-x="370" d="M339 562l-37 -91c28 -42 32 -116 32 -212c0 -105 -5 -178 -37 -219c-26 -35 -64 -48 -110 -48c-28 0 -53 6 -73 17l-20 -53h-58l36 91c-27 42 -32 116 -32 212c0 105 6 178 38 219c26 35 63 48 109 48c28 0 53 -6 73 -17l21 53h58zM254 259c0 44 -1 80 -6 98l-103 -277 c10 -11 24 -18 42 -18c19 0 36 8 46 22c19 26 21 80 21 175zM230 438c-10 11 -25 18 -43 18c-19 0 -35 -8 -45 -22c-19 -26 -21 -80 -21 -175c0 -44 0 -80 5 -98zM295 721l-81 -135h-61l68 135h74z" unicode="ǿ" glyph-name="oslashacute"/>
<glyph horiz-adv-x="420" d="M377 191c0 -74 -10 -121 -44 -155c-27 -26 -69 -43 -126 -43c-55 0 -97 15 -125 43c-33 33 -44 74 -44 150h86c0 -47 5 -73 24 -93c12 -13 32 -22 59 -22c29 0 48 9 61 23c19 21 23 48 23 95c0 82 -12 107 -70 131l-81 33c-73 30 -97 70 -97 178c0 62 18 113 54 146 c28 26 66 41 113 41c52 0 91 -15 118 -41c36 -35 47 -81 47 -146h-86c0 38 -4 64 -22 86c-12 15 -31 24 -58 24c-25 0 -43 -9 -55 -22c-17 -19 -25 -48 -25 -85c0 -70 11 -91 68 -115l80 -33c81 -33 100 -83 100 -195zM235 -38l-50 -144h-64l57 144h57z" unicode="Ș" glyph-name="Scommaaccent"/>
<glyph horiz-adv-x="359" d="M328 141c0 -46 -18 -82 -44 -108c-28 -29 -64 -41 -106 -41s-79 14 -104 40c-30 31 -44 67 -44 114h80c0 -27 7 -47 22 -63c12 -12 30 -18 46 -18c21 0 36 6 49 19c12 12 20 31 20 52c0 18 -4 33 -13 47c-10 15 -25 26 -46 37l-67 34c-34 17 -58 38 -71 60 c-11 19 -16 41 -16 68c0 45 17 79 43 105s62 39 102 39c41 0 76 -12 101 -37c27 -26 42 -63 42 -114h-80c0 30 -6 48 -19 62c-12 13 -28 18 -44 18c-19 0 -34 -6 -45 -17c-13 -13 -19 -31 -19 -50c0 -15 3 -27 9 -38c7 -12 22 -24 43 -34l66 -33c35 -17 58 -35 73 -59 c14 -21 22 -50 22 -83zM207 -38l-50 -144h-64l57 144h57z" unicode="ș" glyph-name="scommaaccent"/>
<glyph horiz-adv-x="367" d="M346 635h-119v-635h-86v635h-120v77h325v-77zM212 -38l-50 -144h-64l57 144h57z" unicode="Ț" glyph-name="uni021A"/>
<glyph horiz-adv-x="260" d="M240 0c-46 0 -86 4 -119 32c-29 24 -45 62 -45 116v307h-59v63h59v142h81v-142h80v-63h-80v-304c0 -55 29 -78 83 -78v-73zM194 -38l-50 -144h-64l57 144h57z" unicode="ț" glyph-name="uni021B"/>
<glyph horiz-adv-x="195" d="M138 -46c0 -57 -18 -92 -46 -115c-31 -27 -69 -33 -113 -33v73c50 0 78 20 78 78v561h81v-564z" unicode="ȷ" glyph-name="uni0237"/>
<glyph horiz-adv-x="372" d="M39 278h213c0 82 -3 130 -21 153c-9 13 -25 22 -46 22c-18 0 -33 -5 -46 -20s-17 -35 -17 -60h-81c1 48 13 84 42 115c25 26 60 38 102 38c44 0 76 -11 103 -40c39 -41 46 -119 46 -227c0 -109 -7 -186 -45 -227c-27 -29 -60 -40 -102 -40s-75 11 -102 40 c-39 41 -46 118 -46 246zM121 217c0 -75 4 -112 20 -131c10 -13 24 -21 46 -21s35 8 45 21c16 19 20 56 20 131h-131z" unicode="ə" glyph-name="uni0259"/>
<glyph horiz-adv-x="207" d="M150 604h-93v108l93 68v-176z" unicode="ʻ" glyph-name="uni02BB"/>
<glyph horiz-adv-x="207" d="M150 604l-93 -68v176h93v-108z" unicode="ʼ" glyph-name="afii57929"/>
<glyph d="M314 586h-67l-60 87l-59 -87h-67l93 135h67z" unicode="ˆ" glyph-name="circumflex"/>
<glyph d="M314 717l-93 -135h-67l-93 135h67l59 -87l60 87h67z" unicode="ˇ" glyph-name="caron"/>
<glyph d="M305 694c-5 -79 -51 -112 -118 -112c-66 0 -112 33 -117 112h58c5 -37 27 -53 59 -53c33 0 55 16 60 53h58z" unicode="˘" glyph-name="breve"/>
<glyph d="M228 604h-81v82h81v-82z" unicode="˙" glyph-name="dotaccent"/>
<glyph d="M285 681c0 -54 -44 -98 -98 -98c-53 0 -97 44 -97 98s44 98 97 98c54 0 98 -44 98 -98zM237 681c0 27 -23 49 -50 49c-26 0 -49 -22 -49 -49s23 -49 49 -49c27 0 50 22 50 49z" unicode="˚" glyph-name="ring"/>
<glyph d="M226 -38l-50 -144h-64l57 144h57z" unicode="˛" glyph-name="ogonek"/>
<glyph d="M321 638c-34 -33 -56 -42 -80 -42c-22 0 -38 6 -58 17c-15 9 -27 15 -43 15c-13 0 -23 -1 -45 -23l-36 38c33 33 54 42 79 42c23 0 38 -5 58 -17c15 -9 27 -15 43 -15c12 0 23 2 44 23z" unicode="˜" glyph-name="tilde"/>
<glyph d="M214 721l-68 -135h-59l53 135h74zM351 721l-68 -135h-58l52 135h74z" unicode="˝" glyph-name="hungarumlaut"/>
<glyph horiz-adv-x="424" d="M419 0h-414l166 712h83zM312 77l-100 496l-100 -496h200z" unicode="Δ" glyph-name="uni0394"/>
<glyph horiz-adv-x="460" d="M408 0h-153v64c22 11 42 29 50 58c11 41 12 110 12 234c0 182 -5 229 -29 260c-12 16 -31 27 -58 27s-46 -11 -58 -27c-24 -31 -30 -78 -30 -260c0 -124 1 -193 12 -234c8 -29 29 -47 50 -58v-64h-152v72h64c-16 10 -30 23 -39 46c-18 42 -20 119 -20 238 c0 192 5 261 51 313c27 30 65 51 122 51s95 -21 122 -51c46 -52 51 -121 51 -313c0 -119 -2 -196 -20 -238c-9 -23 -24 -36 -40 -46h65v-72z" unicode="Ω" glyph-name="uni03A9"/>
<glyph horiz-adv-x="399" d="M341 0h-79v40c-7 -12 -20 -25 -31 -32c-16 -10 -35 -16 -58 -16c-17 0 -34 7 -39 14v-200h-78v712h81v-381c0 -48 27 -72 61 -72s62 24 62 72v381h81v-518z" unicode="μ" glyph-name="uni03BC"/>
<glyph horiz-adv-x="399" d="M342 518v-518h-81v450h-123v-450h-81v518h285z" unicode="π" glyph-name="pi"/>
<glyph horiz-adv-x="380" d="M339 0h-275v712h275v-77h-189v-239h163v-77h-163v-242h189v-77zM242 762h-62l-81 135h74z" unicode="Ѐ" glyph-name="uni0400"/>
<glyph horiz-adv-x="380" d="M339 0h-275v712h275v-77h-189v-239h163v-77h-163v-242h189v-77zM324 777h-82v81h82v-81zM168 777h-82v81h82v-81z" unicode="Ё" glyph-name="afii10023"/>
<glyph horiz-adv-x="494" d="M453 213c0 -149 -52 -213 -169 -213h-14v77h13c65 0 84 50 84 136s-19 136 -84 136h-72v-349h-86v635h-104v77h324v-77h-134v-209h73c118 0 169 -62 169 -213z" unicode="Ђ" glyph-name="afii10051"/>
<glyph horiz-adv-x="357" d="M333 635h-183v-635h-86v712h269v-77zM286 897l-81 -135h-62l69 135h74z" unicode="Ѓ" glyph-name="afii10052"/>
<glyph horiz-adv-x="423" d="M221 69c26 0 43 9 56 25c16 19 22 51 23 82h86c-2 -60 -20 -113 -55 -145c-28 -25 -63 -39 -110 -39c-56 0 -95 21 -122 52c-45 52 -52 111 -52 312c0 197 5 257 52 312c27 31 66 52 122 52c50 0 85 -15 113 -42c33 -32 50 -83 52 -142h-86c-1 31 -5 59 -23 82 c-13 16 -29 25 -56 25c-28 0 -47 -11 -58 -27c-23 -30 -30 -72 -30 -220h141v-77h-141c0 -150 7 -193 30 -223c11 -16 30 -27 58 -27z" unicode="Є" glyph-name="afii10053"/>
<glyph horiz-adv-x="420" d="M377 191c0 -74 -10 -121 -44 -155c-27 -26 -69 -43 -126 -43c-55 0 -97 15 -125 43c-33 33 -44 74 -44 150h86c0 -47 5 -73 24 -93c12 -13 32 -22 59 -22c29 0 48 9 61 23c19 21 23 48 23 95c0 82 -12 107 -70 131l-81 33c-73 30 -97 70 -97 178c0 62 18 113 54 146 c28 26 66 41 113 41c52 0 91 -15 118 -41c36 -35 47 -81 47 -146h-86c0 38 -4 64 -22 86c-12 15 -31 24 -58 24c-25 0 -43 -9 -55 -22c-17 -19 -25 -48 -25 -85c0 -70 11 -91 68 -115l80 -33c81 -33 100 -83 100 -195z" unicode="Ѕ" glyph-name="afii10054"/>
<glyph horiz-adv-x="215" d="M150 0h-86v712h86v-712z" unicode="І" glyph-name="afii10055"/>
<glyph horiz-adv-x="215" d="M150 0h-86v712h86v-712zM227 777h-82v81h82v-81zM71 777h-82v81h82v-81z" unicode="Ї" glyph-name="afii10056"/>
<glyph horiz-adv-x="361" d="M303 170c0 -54 -15 -99 -45 -130c-31 -32 -73 -48 -126 -48s-96 20 -127 54l61 57c14 -19 39 -34 66 -34c48 0 85 35 85 101v542h86v-542z" unicode="Ј" glyph-name="afii10057"/>
<glyph horiz-adv-x="705" d="M663 208c0 -157 -61 -208 -169 -208h-160v635h-129v-315c0 -292 -76 -320 -166 -320h-25v76h9c52 0 100 15 100 257v379h297v-297h74c108 0 169 -50 169 -207zM577 208c0 95 -28 130 -84 130h-73v-261h73c56 0 84 36 84 131z" unicode="Љ" glyph-name="afii10058"/>
<glyph horiz-adv-x="678" d="M637 208c0 -157 -63 -208 -169 -208h-160v338h-158v-338h-86v712h86v-296h158v296h86v-297h74c107 0 169 -50 169 -207zM551 208c0 95 -28 130 -85 130h-72v-261h72c57 0 85 35 85 131z" unicode="Њ" glyph-name="afii10059"/>
<glyph horiz-adv-x="497" d="M451 0h-86v232c0 85 -26 118 -94 118h-60v-350h-86v635h-104v77h324v-77h-134v-208h72c123 0 168 -61 168 -182v-245z" unicode="Ћ" glyph-name="afii10060"/>
<glyph horiz-adv-x="450" d="M150 0h-86v712h86v-712zM442 0h-97l-193 371l179 341h93l-183 -337zM339 897l-81 -135h-62l69 135h74z" unicode="Ќ" glyph-name="afii10061"/>
<glyph horiz-adv-x="468" d="M404 0h-86v494l-174 -494h-80v712h86v-495l175 495h79v-712zM269 762h-62l-81 135h74z" unicode="Ѝ" glyph-name="uni040D"/>
<glyph horiz-adv-x="392" d="M388 712l-185 -599c-29 -94 -69 -113 -167 -113v77c58 0 80 15 97 74l23 79l-152 482h94l99 -363l97 363h94zM318 865c-5 -79 -54 -109 -121 -109s-116 30 -121 109h62c4 -37 26 -53 59 -53s55 16 59 53h62z" unicode="Ў" glyph-name="afii10062"/>
<glyph horiz-adv-x="458" d="M394 0h-124v-142h-82v142h-124v712h86v-635h158v635h86v-712z" unicode="Џ" glyph-name="afii10145"/>
<glyph horiz-adv-x="424" d="M419 0h-91l-34 168h-165l-34 -168h-90l166 712h83zM278 245l-66 328l-67 -328h133z" unicode="А" glyph-name="afii10017"/>
<glyph horiz-adv-x="439" d="M397 209c0 -157 -64 -209 -171 -209h-162v712h301v-77h-215v-217h76c108 0 171 -51 171 -209zM311 209c0 96 -30 131 -86 131h-75v-263h75c56 0 86 36 86 132z" unicode="Б" glyph-name="afii10018"/>
<glyph horiz-adv-x="444" d="M394 200c0 -86 -14 -124 -46 -157c-29 -30 -68 -43 -131 -43h-153v712h153c63 0 101 -13 130 -43c31 -32 42 -67 42 -144c0 -51 -7 -93 -42 -127c-12 -12 -26 -21 -40 -27c16 -5 32 -15 44 -26c37 -36 43 -84 43 -145zM308 205c0 92 -32 128 -96 128h-62v-256h62 c65 0 96 30 96 128zM303 521c0 86 -28 114 -90 114h-63v-228h63c61 0 90 33 90 114z" unicode="В" glyph-name="afii10019"/>
<glyph horiz-adv-x="357" d="M333 635h-183v-635h-86v712h269v-77z" unicode="Г" glyph-name="afii10020"/>
<glyph horiz-adv-x="498" d="M471 -127h-82v127h-293v-127h-82v204h45c36 96 58 209 58 349v286h298v-635h56v-204zM329 77v558h-129v-228c0 -129 -18 -236 -53 -330h182z" unicode="Д" glyph-name="afii10021"/>
<glyph horiz-adv-x="380" d="M339 0h-275v712h275v-77h-189v-239h163v-77h-163v-242h189v-77z" unicode="Е" glyph-name="afii10022"/>
<glyph horiz-adv-x="675" d="M667 0h-95l-187 371l173 341h93l-176 -337zM383 0h-86v712h86v-712zM295 371l-193 -371h-94l196 375l-180 337h92z" unicode="Ж" glyph-name="afii10024"/>
<glyph horiz-adv-x="421" d="M371 192c0 -72 -10 -114 -46 -153c-28 -32 -70 -47 -122 -47c-50 0 -88 13 -115 39c-34 33 -49 83 -50 145h86c0 -34 7 -65 24 -85c13 -14 30 -22 55 -22c24 0 43 8 56 22c20 24 26 56 26 104c0 61 -9 86 -28 106c-15 15 -32 21 -53 21h-57v74h57c20 0 38 6 51 20 c18 20 27 43 27 103c0 48 -3 78 -24 102c-13 14 -31 22 -55 22c-25 0 -42 -9 -54 -22c-18 -20 -25 -52 -25 -85h-86c1 60 17 109 48 141c28 28 66 43 117 43s92 -15 120 -45c38 -39 45 -86 45 -153c0 -66 -10 -94 -31 -122c-13 -16 -28 -29 -47 -39c20 -10 36 -23 48 -38 c22 -27 33 -58 33 -131z" unicode="З" glyph-name="afii10025"/>
<glyph horiz-adv-x="468" d="M404 0h-86v494l-174 -494h-80v712h86v-495l175 495h79v-712z" unicode="И" glyph-name="afii10026"/>
<glyph horiz-adv-x="468" d="M404 0h-86v494l-174 -494h-80v712h86v-495l175 495h79v-712zM358 865c-5 -79 -54 -109 -121 -109s-116 30 -121 109h62c4 -37 26 -53 59 -53s55 16 59 53h62z" unicode="Й" glyph-name="afii10027"/>
<glyph horiz-adv-x="450" d="M150 0h-86v712h86v-712zM442 0h-97l-193 371l179 341h93l-183 -337z" unicode="К" glyph-name="afii10028"/>
<glyph horiz-adv-x="483" d="M419 0h-86v635h-128v-315c0 -292 -76 -320 -166 -320h-25v77h9c52 0 100 14 100 256v379h296v-712z" unicode="Л" glyph-name="afii10029"/>
<glyph horiz-adv-x="578" d="M513 0h-86v507l-113 -333h-53l-111 325v-499h-86v712h81l144 -396l143 396h81v-712z" unicode="М" glyph-name="afii10030"/>
<glyph horiz-adv-x="458" d="M394 0h-86v323h-158v-323h-86v712h86v-311h158v311h86v-712z" unicode="Н" glyph-name="afii10031"/>
<glyph horiz-adv-x="442" d="M395 356c0 -197 -6 -261 -52 -312c-28 -31 -66 -52 -122 -52s-94 21 -122 52c-46 51 -52 115 -52 312s6 261 52 312c28 31 66 52 122 52s94 -21 122 -52c46 -51 52 -115 52 -312zM309 356c0 169 -5 226 -30 260c-12 16 -30 27 -58 27s-47 -11 -59 -27 c-25 -34 -29 -91 -29 -260s4 -226 29 -260c12 -16 31 -27 59 -27s46 11 58 27c25 34 30 91 30 260z" unicode="О" glyph-name="afii10032"/>
<glyph horiz-adv-x="458" d="M394 0h-86v635h-158v-635h-86v712h330v-712z" unicode="П" glyph-name="afii10033"/>
<glyph horiz-adv-x="435" d="M393 504c0 -156 -63 -207 -169 -207h-74v-297h-86v712h160c108 0 169 -50 169 -208zM307 504c0 96 -28 131 -86 131h-71v-261h71c58 0 86 35 86 130z" unicode="Р" glyph-name="afii10034"/>
<glyph horiz-adv-x="423" d="M385 176c-1 -60 -19 -113 -54 -145c-28 -25 -63 -39 -110 -39c-56 0 -95 21 -122 52c-47 54 -52 115 -52 312s5 258 52 312c27 31 66 52 122 52c50 0 85 -15 113 -42c33 -32 50 -83 51 -141h-85c-1 30 -6 60 -23 81c-11 14 -29 25 -56 25c-28 0 -47 -11 -59 -27 c-25 -34 -29 -91 -29 -260s4 -226 29 -260c12 -16 31 -27 59 -27c27 0 45 11 56 25c16 21 22 52 23 82h85z" unicode="С" glyph-name="afii10035"/>
<glyph horiz-adv-x="367" d="M346 635h-119v-635h-86v635h-120v77h325v-77z" unicode="Т" glyph-name="afii10036"/>
<glyph horiz-adv-x="392" d="M388 712l-185 -599c-29 -94 -69 -113 -167 -113v77c58 0 80 15 97 74l23 79l-152 482h94l99 -363l97 363h94z" unicode="У" glyph-name="afii10037"/>
<glyph horiz-adv-x="572" d="M528 378c0 -185 -31 -291 -200 -298v-84h-85v84c-169 7 -200 113 -200 298s31 291 200 298v65h85v-65c169 -7 200 -113 200 -298zM443 378c0 153 -17 218 -116 223v-445c99 5 116 69 116 222zM244 156v445c-99 -5 -116 -70 -116 -223s17 -217 116 -222z" unicode="Ф" glyph-name="afii10038"/>
<glyph horiz-adv-x="403" d="M388 0h-94l-93 282l-92 -282h-94l136 370l-125 342h94l81 -260l82 260h94l-129 -342z" unicode="Х" glyph-name="afii10039"/>
<glyph horiz-adv-x="477" d="M450 -142h-83v142h-303v712h86v-635h158v635h86v-635h56v-219z" unicode="Ц" glyph-name="afii10040"/>
<glyph horiz-adv-x="449" d="M385 0h-86v256c-32 -5 -60 -7 -89 -7c-98 0 -150 40 -150 162v301h86v-292c0 -77 30 -94 77 -94c28 0 50 2 76 6v380h86v-712z" unicode="Ч" glyph-name="afii10041"/>
<glyph horiz-adv-x="674" d="M610 0h-546v712h86v-635h144v635h86v-635h144v635h86v-712z" unicode="Ш" glyph-name="afii10042"/>
<glyph horiz-adv-x="693" d="M666 -142h-82v142h-520v712h86v-635h144v635h86v-635h144v635h86v-635h56v-219z" unicode="Щ" glyph-name="afii10043"/>
<glyph horiz-adv-x="498" d="M456 208c0 -157 -62 -208 -169 -208h-160v635h-106v77h192v-297h74c108 0 169 -50 169 -207zM370 208c0 95 -28 130 -84 130h-73v-261h73c56 0 84 35 84 131z" unicode="Ъ" glyph-name="afii10044"/>
<glyph horiz-adv-x="608" d="M544 0h-86v712h86v-712zM393 208c0 -157 -62 -208 -169 -208h-160v712h86v-297h74c108 0 169 -50 169 -207zM307 208c0 95 -28 130 -84 130h-73v-261h73c56 0 84 35 84 131z" unicode="Ы" glyph-name="afii10045"/>
<glyph horiz-adv-x="435" d="M393 208c0 -157 -62 -208 -169 -208h-160v712h86v-297h74c108 0 169 -50 169 -207zM307 208c0 95 -28 130 -84 130h-73v-261h73c56 0 84 35 84 131z" unicode="Ь" glyph-name="afii10046"/>
<glyph horiz-adv-x="423" d="M376 356c0 -197 -6 -261 -51 -312c-27 -31 -67 -52 -123 -52c-47 0 -82 14 -110 39c-34 32 -53 85 -54 145h85c1 -31 6 -62 23 -82c12 -15 29 -25 56 -25c28 0 47 11 59 27c23 30 29 73 29 223h-144v77h144c0 148 -6 190 -29 220c-12 16 -31 27 -59 27 c-27 0 -44 -10 -56 -25c-17 -20 -22 -51 -23 -81h-85c1 58 18 109 51 141c28 27 64 42 113 42c56 0 96 -21 123 -52c45 -51 51 -115 51 -312z" unicode="Э" glyph-name="afii10047"/>
<glyph horiz-adv-x="629" d="M150 0h-86v712h86v-311h84c1 161 10 218 52 267c27 31 66 52 122 52s95 -21 122 -52c47 -55 52 -115 52 -312s-6 -259 -52 -312c-28 -32 -66 -52 -122 -52s-95 21 -122 52c-43 50 -51 108 -52 279h-84v-323zM496 356c0 169 -4 226 -30 260c-12 16 -30 27 -58 27 s-46 -11 -58 -27c-26 -34 -30 -91 -30 -260s4 -226 30 -260c12 -16 30 -27 58 -27s46 11 58 27c26 34 30 91 30 260z" unicode="Ю" glyph-name="afii10048"/>
<glyph horiz-adv-x="455" d="M391 0h-86v306h-77l-98 -306h-91l109 323c-62 29 -86 87 -86 186c0 156 60 203 168 203h161v-712zM305 382v253h-76c-66 0 -81 -51 -81 -126c0 -76 15 -127 81 -127h76z" unicode="Я" glyph-name="afii10049"/>
<glyph d="M322 0h-77v46c-8 -14 -20 -27 -30 -35c-16 -12 -33 -19 -61 -19c-38 0 -65 12 -89 39c-20 23 -33 62 -33 116c0 48 16 90 46 117c26 23 56 35 110 35h53v82c0 48 -21 74 -61 74c-18 0 -30 -7 -40 -17c-14 -15 -19 -32 -19 -60h-81c0 40 9 79 40 110c23 23 60 38 100 38 c42 0 77 -12 101 -36c25 -26 41 -61 41 -114v-376zM241 144v96h-46c-25 0 -42 -4 -58 -19c-15 -14 -24 -43 -24 -71c0 -54 21 -87 63 -87c39 0 65 33 65 81z" unicode="а" glyph-name="afii10065"/>
<glyph horiz-adv-x="380" d="M340 259c0 -104 -6 -178 -38 -219c-26 -35 -63 -48 -110 -48c-46 0 -83 13 -109 48c-32 41 -38 116 -38 219c0 262 6 311 41 367c39 64 115 87 231 90v-73c-79 -1 -131 -11 -158 -47c-22 -30 -28 -67 -33 -119c19 28 51 44 87 44c32 0 61 -9 87 -39 c34 -38 40 -104 40 -223zM258 259c0 94 -1 147 -20 172c-10 14 -26 22 -46 22c-19 0 -35 -8 -45 -22c-19 -25 -20 -78 -20 -172s1 -147 20 -172c10 -14 26 -22 45 -22c20 0 36 8 46 22c19 25 20 78 20 172z" unicode="б" glyph-name="afii10066"/>
<glyph horiz-adv-x="384" d="M344 148c0 -60 -11 -89 -38 -114c-23 -22 -57 -34 -111 -34h-138v518h138c51 0 85 -8 109 -31c26 -25 36 -54 36 -106c0 -42 -12 -71 -34 -91c-8 -7 -21 -16 -31 -20c11 -4 26 -12 34 -19c25 -22 35 -55 35 -103zM263 153c0 60 -25 83 -74 83h-53v-167h53 c49 0 74 18 74 84zM259 374c0 57 -24 75 -68 75h-55v-149h55c44 0 68 20 68 74z" unicode="в" glyph-name="afii10067"/>
<glyph horiz-adv-x="314" d="M298 518v-72h-160v-446h-81v518h241z" unicode="г" glyph-name="afii10068"/>
<glyph horiz-adv-x="436" d="M413 -129h-79v129h-242v-129h-78v201h44c30 75 45 144 45 279v167h263v-446h47v-201zM284 72v374h-102v-107c0 -132 -12 -195 -40 -267h142z" unicode="д" glyph-name="afii10069"/>
<glyph horiz-adv-x="372" d="M335 240h-213c0 -82 3 -130 21 -153c9 -13 25 -22 46 -22c18 0 33 5 46 20s17 35 17 60h81c-1 -48 -13 -84 -42 -115c-25 -26 -60 -38 -102 -38c-44 0 -76 11 -103 40c-39 41 -46 119 -46 227c0 109 7 186 45 227c27 29 60 40 102 40s75 -11 102 -40 c39 -41 46 -118 46 -246zM253 301c0 75 -4 112 -20 131c-10 13 -24 21 -46 21s-35 -8 -45 -21c-16 -19 -20 -56 -20 -131h131z" unicode="е" glyph-name="afii10070"/>
<glyph horiz-adv-x="578" d="M571 0h-92l-148 269l138 249h89l-142 -246zM329 0h-81v518h81v-518zM246 269l-148 -269h-92l155 272l-142 246h89z" unicode="ж" glyph-name="afii10072"/>
<glyph horiz-adv-x="360" d="M322 141c0 -60 -13 -89 -44 -118c-22 -20 -55 -31 -102 -31c-45 0 -77 11 -101 34c-29 26 -43 67 -44 117h81c0 -27 6 -50 21 -65c9 -9 25 -14 43 -14c20 0 34 6 44 15c14 13 20 33 20 67c0 40 -7 57 -22 70c-12 10 -24 14 -45 14h-38v67h37c20 0 34 5 44 14 c13 13 20 30 20 65c0 31 -5 50 -19 64c-9 9 -22 14 -41 14s-35 -6 -44 -15c-15 -15 -20 -37 -20 -64h-81c1 48 14 86 41 113c24 23 58 38 104 38c47 0 78 -8 102 -32c28 -26 40 -58 40 -112c0 -44 -10 -65 -27 -87c-9 -11 -22 -21 -36 -28c14 -7 26 -16 36 -25 c22 -22 31 -46 31 -101z" unicode="з" glyph-name="afii10073"/>
<glyph horiz-adv-x="408" d="M351 0h-82v343l-138 -343h-74v518h81v-343l139 343h74v-518z" unicode="и" glyph-name="afii10074"/>
<glyph horiz-adv-x="408" d="M351 0h-82v343l-138 -343h-74v518h81v-343l139 343h74v-518zM324 692c-5 -79 -54 -109 -121 -109s-116 30 -121 109h62c4 -37 26 -53 59 -53s55 16 59 53h62z" unicode="й" glyph-name="afii10075"/>
<glyph horiz-adv-x="389" d="M380 0h-91l-149 269l138 249h89l-142 -245zM139 0h-82v518h82v-518z" unicode="к" glyph-name="afii10076"/>
<glyph horiz-adv-x="415" d="M358 0h-82v446h-98v-239c0 -164 -51 -207 -139 -207h-25v72h12c34 0 73 10 73 150v296h259v-518z" unicode="л" glyph-name="afii10077"/>
<glyph horiz-adv-x="493" d="M436 0h-80v344l-86 -207h-48l-86 207v-344h-79v519h73l116 -279l116 279h74v-519z" unicode="м" glyph-name="afii10078"/>
<glyph horiz-adv-x="395" d="M338 0h-81v229h-119v-229h-81v518h81v-216h119v216h81v-518z" unicode="н" glyph-name="afii10079"/>
<glyph horiz-adv-x="376" d="M335 259c0 -105 -5 -178 -37 -219c-26 -35 -64 -48 -110 -48s-83 13 -109 48c-32 41 -38 114 -38 219s6 178 38 219c26 35 63 48 109 48s84 -13 110 -48c32 -41 37 -114 37 -219zM254 259c0 93 -1 147 -20 173c-10 14 -27 22 -46 22s-35 -8 -45 -22 c-19 -26 -21 -80 -21 -173s2 -146 21 -172c10 -14 26 -22 45 -22s36 8 46 22c19 26 20 79 20 172z" unicode="о" glyph-name="afii10080"/>
<glyph horiz-adv-x="395" d="M338 0h-81v446h-119v-446h-81v518h281v-518z" unicode="п" glyph-name="afii10081"/>
<glyph horiz-adv-x="387" d="M347 259c0 -120 -5 -189 -38 -228c-23 -27 -48 -39 -86 -39c-21 0 -39 5 -56 15c-10 7 -21 18 -29 29v-230h-81v712h79v-40c5 11 22 25 31 32c17 11 36 16 56 16c36 0 63 -11 86 -38c33 -39 38 -109 38 -229zM265 259c0 107 -3 151 -21 173c-10 13 -25 21 -44 21 c-17 0 -31 -5 -42 -16c-13 -13 -20 -31 -20 -59v-237c0 -28 7 -47 20 -60c11 -11 25 -16 42 -16c19 0 34 8 44 21c18 22 21 66 21 173z" unicode="р" glyph-name="afii10082"/>
<glyph horiz-adv-x="362" d="M330 145c-2 -49 -14 -89 -41 -117c-25 -25 -60 -36 -102 -36c-44 0 -83 13 -109 48c-32 41 -38 115 -38 219c0 105 6 178 38 219c26 35 65 48 109 48c42 0 74 -9 101 -35c32 -30 40 -73 42 -117h-81c0 21 -2 43 -16 60c-11 13 -25 19 -45 19c-19 0 -36 -8 -46 -22 c-19 -25 -20 -78 -20 -172c0 -93 1 -146 20 -172c10 -14 27 -22 46 -22c18 0 34 7 44 19c14 16 17 37 17 61h81z" unicode="с" glyph-name="afii10083"/>
<glyph horiz-adv-x="311" d="M295 446h-99v-446h-81v446h-99v72h279v-72z" unicode="т" glyph-name="afii10084"/>
<glyph horiz-adv-x="345" d="M339 518l-146 -601c-22 -93 -86 -111 -172 -111v72c50 0 81 13 93 60l16 63l-126 517h89l79 -389l78 389h89z" unicode="у" glyph-name="afii10085"/>
<glyph horiz-adv-x="517" d="M476 259c0 -103 -8 -169 -47 -211c-34 -37 -76 -51 -130 -53v-189h-81v189c-54 2 -99 17 -129 53c-39 42 -49 108 -49 211s9 168 48 211c31 35 76 51 130 53v189h81v-189c54 -2 99 -17 130 -52c39 -43 47 -109 47 -212zM395 259c0 92 -6 139 -32 166 c-14 14 -38 25 -65 25v-382c27 0 51 11 65 25c26 27 32 74 32 166zM219 68v382c-28 0 -52 -11 -65 -25c-26 -27 -32 -74 -32 -166s6 -139 32 -166c13 -14 37 -25 65 -25z" unicode="ф" glyph-name="afii10086"/>
<glyph horiz-adv-x="356" d="M343 0h-90l-75 187l-75 -187h-90l118 264l-112 254h90l69 -181l69 181h90l-114 -254z" unicode="х" glyph-name="afii10087"/>
<glyph horiz-adv-x="408" d="M385 -129h-75v129h-253v518h81v-446h119v446h81v-446h47v-201z" unicode="ц" glyph-name="afii10088"/>
<glyph horiz-adv-x="366" d="M309 0h-81v175c-22 -4 -44 -5 -66 -5c-76 0 -124 31 -124 123v225h82v-213c0 -51 21 -63 54 -63c18 0 35 1 54 5v271h81v-518z" unicode="ч" glyph-name="afii10089"/>
<glyph horiz-adv-x="562" d="M505 0h-448v518h81v-446h102v446h81v-446h103v446h81v-518z" unicode="ш" glyph-name="afii10090"/>
<glyph horiz-adv-x="575" d="M552 -129h-75v129h-420v518h81v-446h102v446h81v-446h103v446h81v-446h47v-201z" unicode="щ" glyph-name="afii10091"/>
<glyph horiz-adv-x="416" d="M385 158c0 -107 -39 -158 -143 -158h-141v446h-85v72h166v-201h60c104 0 143 -51 143 -159zM304 158c0 61 -20 87 -66 87h-56v-173h56c46 0 66 26 66 86z" unicode="ъ" glyph-name="afii10092"/>
<glyph horiz-adv-x="536" d="M479 0h-81v518h81v-518zM341 158c0 -107 -39 -158 -143 -158h-141v518h81v-201h60c104 0 143 -51 143 -159zM260 158c0 61 -20 87 -66 87h-56v-173h56c46 0 66 26 66 86z" unicode="ы" glyph-name="afii10093"/>
<glyph horiz-adv-x="372" d="M341 158c0 -107 -39 -158 -143 -158h-141v518h81v-201h60c104 0 143 -51 143 -159zM260 158c0 61 -20 87 -66 87h-56v-173h56c46 0 66 26 66 86z" unicode="ь" glyph-name="afii10094"/>
<glyph horiz-adv-x="364" d="M324 259c0 -104 -6 -178 -37 -219c-27 -35 -66 -48 -111 -48c-39 0 -68 6 -98 32c-31 27 -44 72 -45 117h78c1 -25 8 -48 20 -61c9 -10 26 -17 45 -17c22 0 38 9 49 23c17 22 20 63 20 144h-118v69h118c0 71 -3 111 -20 133c-11 15 -27 23 -49 23c-20 0 -37 -7 -46 -18 c-13 -14 -18 -35 -19 -60h-78c1 44 14 86 43 114c26 25 59 35 100 35c45 0 84 -13 111 -48c31 -41 37 -114 37 -219z" unicode="э" glyph-name="afii10095"/>
<glyph horiz-adv-x="548" d="M138 0h-81v518h81v-216h76c2 82 11 141 38 176s63 48 109 48s84 -13 110 -48c32 -41 37 -114 37 -219s-5 -178 -37 -219c-26 -35 -64 -48 -110 -48s-83 13 -109 48c-29 37 -37 100 -38 189h-76v-229zM427 259c0 93 -1 146 -20 172c-10 14 -27 22 -46 22s-35 -8 -45 -22 c-19 -26 -21 -79 -21 -172s2 -146 21 -172c10 -14 26 -22 45 -22s36 8 46 22c19 26 20 79 20 172z" unicode="ю" glyph-name="afii10096"/>
<glyph d="M318 0h-81v210h-54l-72 -210h-86l83 226c-49 24 -67 74 -67 138c0 99 37 154 141 154h136v-518zM237 281v166h-54c-46 0 -60 -31 -60 -83c0 -51 15 -83 60 -83h54z" unicode="я" glyph-name="afii10097"/>
<glyph horiz-adv-x="372" d="M226 586h-62l-81 135h74zM335 240h-213c0 -82 3 -130 21 -153c9 -13 25 -22 46 -22c18 0 33 5 46 20s17 35 17 60h81c-1 -48 -13 -84 -42 -115c-25 -26 -60 -38 -102 -38c-44 0 -76 11 -103 40c-39 41 -46 119 -46 227c0 109 7 186 45 227c27 29 60 40 102 40 s75 -11 102 -40c39 -41 46 -118 46 -246zM253 301c0 75 -4 112 -20 131c-10 13 -24 21 -46 21s-35 -8 -45 -21c-16 -19 -20 -56 -20 -131h131z" unicode="ѐ" glyph-name="uni0450"/>
<glyph horiz-adv-x="372" d="M306 601h-81v82h81v-82zM150 601h-82v82h82v-82zM335 240h-213c0 -82 3 -130 21 -153c9 -13 25 -22 46 -22c18 0 33 5 46 20s17 35 17 60h81c-1 -48 -13 -84 -42 -115c-25 -26 -60 -38 -102 -38c-44 0 -76 11 -103 40c-39 41 -46 119 -46 227c0 109 7 186 45 227 c27 29 60 40 102 40s75 -11 102 -40c39 -41 46 -118 46 -246zM253 301c0 75 -4 112 -20 131c-10 13 -24 21 -46 21s-35 -8 -45 -21c-16 -19 -20 -56 -20 -131h131z" unicode="ё" glyph-name="afii10071"/>
<glyph horiz-adv-x="409" d="M355 -38c0 -56 -17 -89 -44 -111c-30 -26 -67 -31 -109 -31v73c47 0 72 18 72 72v416c0 48 -27 72 -61 72c-35 0 -61 -24 -61 -72v-381h-81v586h-52v55h52v71h81v-71h147v-55h-147v-105c7 11 19 22 29 29c15 10 34 16 56 16c39 0 66 -13 88 -38c20 -22 30 -51 30 -107 v-419z" unicode="ђ" glyph-name="afii10099"/>
<glyph horiz-adv-x="314" d="M298 518v-72h-160v-446h-81v518h241zM270 721l-81 -135h-61l68 135h74z" unicode="ѓ" glyph-name="afii10100"/>
<glyph horiz-adv-x="364" d="M332 141c-2 -45 -15 -90 -45 -117c-27 -25 -59 -32 -99 -32c-45 0 -84 13 -110 48c-32 41 -38 115 -38 219c0 105 6 178 38 219c26 35 65 48 110 48c41 0 76 -11 101 -35c24 -23 41 -65 43 -114h-79c0 25 -6 46 -19 60c-9 11 -26 18 -46 18c-21 0 -38 -8 -48 -23 c-18 -22 -20 -62 -20 -133h118v-69h-118c0 -81 2 -122 20 -144c10 -14 27 -23 48 -23c19 0 36 7 45 17c12 13 20 36 20 61h79z" unicode="є" glyph-name="afii10101"/>
<glyph horiz-adv-x="359" d="M328 141c0 -46 -18 -82 -44 -108c-28 -29 -64 -41 -106 -41s-79 14 -104 40c-30 31 -44 67 -44 114h80c0 -27 7 -47 22 -63c12 -12 30 -18 46 -18c21 0 36 6 49 19c12 12 20 31 20 52c0 18 -4 33 -13 47c-10 15 -25 26 -46 37l-67 34c-34 17 -58 38 -71 60 c-11 19 -16 41 -16 68c0 45 17 79 43 105s62 39 102 39c41 0 76 -12 101 -37c27 -26 42 -63 42 -114h-80c0 30 -6 48 -19 62c-12 13 -28 18 -44 18c-19 0 -34 -6 -45 -17c-13 -13 -19 -31 -19 -50c0 -15 3 -27 9 -38c7 -12 22 -24 43 -34l66 -33c35 -17 58 -35 73 -59 c14 -21 22 -50 22 -83z" unicode="ѕ" glyph-name="afii10102"/>
<glyph horiz-adv-x="195" d="M138 0h-81v518h81v-518zM145 610h-95v94h95v-94z" unicode="і" glyph-name="afii10103"/>
<glyph horiz-adv-x="195" d="M138 0h-81v518h81v-518zM217 601h-81v82h81v-82zM61 601h-82v82h82v-82z" unicode="ї" glyph-name="afii10104"/>
<glyph horiz-adv-x="195" d="M138 -46c0 -57 -18 -93 -46 -116c-31 -26 -69 -32 -113 -32v73c50 0 78 20 78 78v561h81v-564zM145 610h-95v94h95v-94z" unicode="ј" glyph-name="afii10105"/>
<glyph horiz-adv-x="591" d="M560 158c0 -107 -39 -158 -143 -158h-141v446h-98v-239c0 -164 -51 -207 -139 -207h-25v70h12c34 0 73 11 73 151v297h258v-201h60c104 0 143 -51 143 -159zM479 158c0 61 -21 87 -67 87h-55v-173h55c46 0 67 26 67 86z" unicode="љ" glyph-name="afii10106"/>
<glyph horiz-adv-x="572" d="M541 158c0 -107 -39 -158 -143 -158h-141v245h-119v-245h-81v518h81v-201h119v201h81v-201h60c104 0 143 -51 143 -159zM460 158c0 61 -20 87 -67 87h-55v-173h55c47 0 67 26 67 86z" unicode="њ" glyph-name="afii10107"/>
<glyph horiz-adv-x="409" d="M355 0h-81v381c0 48 -27 72 -61 72c-35 0 -61 -24 -61 -72v-381h-81v586h-52v55h52v71h81v-71h147v-55h-147v-105c7 11 19 22 29 29c15 10 34 16 56 16c39 0 66 -13 88 -38c20 -22 30 -51 30 -107v-381z" unicode="ћ" glyph-name="afii10108"/>
<glyph horiz-adv-x="389" d="M380 0h-91l-149 269l138 249h89l-142 -245zM139 0h-82v518h82v-518zM311 721l-81 -135h-61l68 135h74z" unicode="ќ" glyph-name="afii10109"/>
<glyph horiz-adv-x="408" d="M351 0h-82v343l-138 -343h-74v518h81v-343l139 343h74v-518zM238 586h-62l-81 135h74z" unicode="ѝ" glyph-name="uni045D"/>
<glyph horiz-adv-x="345" d="M339 518l-146 -601c-22 -93 -86 -111 -172 -111v72c50 0 81 13 93 60l16 63l-126 517h89l79 -389l78 389h89zM293 692c-5 -79 -54 -109 -121 -109s-116 30 -121 109h62c4 -37 26 -53 59 -53s55 16 59 53h62z" unicode="ў" glyph-name="afii10110"/>
<glyph horiz-adv-x="395" d="M338 0h-103v-129h-75v129h-103v518h81v-446h119v446h81v-518z" unicode="џ" glyph-name="afii10193"/>
<glyph horiz-adv-x="445" d="M74 548h-51v69h51v95h86v-95h82v-69h-82v-133h74c106 0 169 -51 169 -207c0 -158 -61 -208 -169 -208h-160v548zM317 208c0 95 -28 130 -86 130h-71v-261h71c58 0 86 35 86 131z" unicode="Ѣ" glyph-name="afii10146"/>
<glyph horiz-adv-x="393" d="M247 411h-88v-94h60c104 0 143 -51 143 -159c0 -107 -39 -158 -143 -158h-141v411h-53v54h53v53h81v-53h88v-54zM281 158c0 61 -20 87 -66 87h-56v-173h56c46 0 66 26 66 86z" unicode="ѣ" glyph-name="afii10194"/>
<glyph horiz-adv-x="442" d="M395 356c0 -197 -6 -259 -52 -312c-28 -32 -66 -52 -122 -52s-95 21 -122 52c-46 53 -52 115 -52 312s6 259 52 312c27 31 66 52 122 52s95 -21 122 -52c47 -55 52 -115 52 -312zM279 96c24 31 29 83 30 223h-176c0 -140 6 -192 30 -223c12 -16 30 -27 58 -27 s46 11 58 27zM163 616c-24 -31 -30 -83 -30 -220h176c-1 137 -6 189 -30 220c-12 16 -30 27 -58 27s-46 -11 -58 -27z" unicode="Ѳ" glyph-name="afii10147"/>
<glyph horiz-adv-x="376" d="M335 259c0 -105 -5 -178 -37 -219c-26 -35 -64 -48 -110 -48s-83 13 -109 48c-32 41 -38 114 -38 219s6 178 38 219c26 35 63 48 109 48s84 -13 110 -48c32 -41 37 -114 37 -219zM234 87c17 24 20 72 20 153h-132c0 -81 3 -129 21 -153c10 -14 26 -22 45 -22s36 8 46 22z M143 431c-16 -22 -20 -63 -21 -130h132c-1 67 -4 108 -20 130c-10 14 -27 22 -46 22s-35 -8 -45 -22z" unicode="ѳ" glyph-name="afii10195"/>
<glyph horiz-adv-x="467" d="M367 561l-121 -561h-88l-154 712h95l103 -573l83 456c16 85 57 117 168 117v-77c-46 -1 -75 -22 -86 -74z" unicode="Ѵ" glyph-name="afii10148"/>
<glyph horiz-adv-x="416" d="M307 386l-92 -386h-86l-125 518h89l79 -390l56 279c17 82 69 111 172 111v-72c-50 0 -82 -13 -93 -60z" unicode="ѵ" glyph-name="afii10196"/>
<glyph horiz-adv-x="357" d="M333 635h-183v-635h-86v712h187v107h82v-184z" unicode="Ґ" glyph-name="afii10050"/>
<glyph horiz-adv-x="314" d="M298 446h-160v-446h-81v518h166v125h75v-197z" unicode="ґ" glyph-name="afii10098"/>
<glyph horiz-adv-x="368" d="M344 635h-183v-243h81v-69h-81v-323h-86v323h-52v69h52v320h269v-77z" unicode="Ғ" glyph-name="uni0492"/>
<glyph horiz-adv-x="335" d="M319 446h-160v-116h88v-54h-88v-276h-81v276h-53v54h53v188h241v-72z" unicode="ғ" glyph-name="uni0493"/>
<glyph horiz-adv-x="675" d="M651 712l-176 -337l153 -298h39v-219h-82v142h-13l-187 371l173 341h93zM295 371l-193 -371h-94l196 375l-180 337h92zM383 0h-86v712h86v-712z" unicode="Җ" glyph-name="uni0496"/>
<glyph horiz-adv-x="578" d="M558 518l-142 -246l114 -200h41v-201h-75v129h-17l-148 269l138 249h89zM246 269l-148 -269h-92l155 272l-142 246h89zM329 0h-81v518h81v-518z" unicode="җ" glyph-name="uni0497"/>
<glyph horiz-adv-x="450" d="M424 712l-183 -337l160 -298h41v-219h-82v142h-15l-193 371l179 341h93zM150 0h-86v712h86v-712z" unicode="Қ" glyph-name="uni049A"/>
<glyph horiz-adv-x="389" d="M367 518l-142 -245l114 -201h41v-201h-75v129h-16l-149 269l138 249h89zM139 0h-82v518h82v-518z" unicode="қ" glyph-name="uni049B"/>
<glyph horiz-adv-x="519" d="M511 0h-97l-140 334h-27v-105h-63v105h-34v-334h-86v712h86v-301h34v105h63v-105h29l124 301h93l-144 -337z" unicode="Ҝ" glyph-name="uni049C"/>
<glyph horiz-adv-x="449" d="M440 0h-92l-100 234h-25v-110h-54v110h-30v-234h-82v518h82v-213h30v110h54v-110h24l91 213h89l-107 -245z" unicode="ҝ" glyph-name="uni049D"/>
<glyph horiz-adv-x="458" d="M394 712v-635h39v-219h-82v142h-43v323h-158v-323h-86v712h86v-311h158v311h86z" unicode="Ң" glyph-name="uni04A2"/>
<glyph horiz-adv-x="395" d="M338 518v-446h34v-201h-75v129h-40v229h-119v-229h-81v518h81v-216h119v216h81z" unicode="ң" glyph-name="uni04A3"/>
<glyph horiz-adv-x="353" d="M351 712l-132 -424v-288h-86v288l-131 424h94l80 -304l80 304h95z" unicode="Ү" glyph-name="uni04AE"/>
<glyph horiz-adv-x="345" d="M213 -3v-191h-82v191l-127 521h89l79 -389l78 389h89z" unicode="ү" glyph-name="uni04AF"/>
<glyph horiz-adv-x="353" d="M351 712l-132 -424h68v-54h-68v-234h-86v234h-68v54h68l-131 424h94l80 -304l80 304h95z" unicode="Ұ" glyph-name="uni04B0"/>
<glyph horiz-adv-x="345" d="M213 -3h70v-54h-70v-137h-82v137h-70v54h70l-127 521h89l79 -389l78 389h89z" unicode="ұ" glyph-name="uni04B1"/>
<glyph horiz-adv-x="403" d="M377 712l-129 -342l111 -293h29v-219h-82v142h-12l-93 282l-92 -282h-94l136 370l-125 342h94l81 -260l82 260h94z" unicode="Ҳ" glyph-name="uni04B2"/>
<glyph horiz-adv-x="356" d="M337 518l-114 -254l87 -192h33v-201h-75v129h-15l-75 187l-75 -187h-90l118 264l-112 254h90l69 -181l69 181h90z" unicode="ҳ" glyph-name="uni04B3"/>
<glyph horiz-adv-x="449" d="M385 712v-635h39v-219h-82v142h-43v256c-32 -5 -60 -7 -89 -7c-98 0 -150 40 -150 162v301h86v-292c0 -77 30 -94 77 -94c28 0 50 2 76 6v380h86z" unicode="Ҷ" glyph-name="uni04B6"/>
<glyph horiz-adv-x="366" d="M309 518v-446h34v-201h-75v129h-40v175c-22 -4 -44 -5 -66 -5c-76 0 -124 31 -124 123v225h82v-213c0 -51 21 -63 54 -63c18 0 35 1 54 5v271h81z" unicode="ҷ" glyph-name="uni04B7"/>
<glyph horiz-adv-x="471" d="M265 143h-63v107c-94 7 -142 50 -142 161v301h85v-292c0 -58 20 -82 57 -90v100h63v-104c19 0 36 3 56 6v380h86v-712h-86v256c-20 -3 -38 -5 -56 -6v-107z" unicode="Ҹ" glyph-name="uni04B8"/>
<glyph horiz-adv-x="388" d="M212 60h-54v110c-76 5 -120 40 -120 123v225h83v-213c0 -36 12 -52 37 -59v105h54v-109c13 1 25 2 38 5v271h81v-518h-81v175c-13 -3 -25 -4 -38 -5v-110z" unicode="ҹ" glyph-name="uni04B9"/>
<glyph horiz-adv-x="449" d="M60 712h86v-256c32 5 60 7 89 7c98 0 150 -40 150 -162v-301h-86v292c0 77 -30 94 -77 94c-28 0 -50 -2 -76 -6v-380h-86v712z" unicode="Һ" glyph-name="uni04BA"/>
<glyph horiz-adv-x="366" d="M57 518h81v-175c22 4 44 5 66 5c76 0 124 -31 124 -123v-225h-82v213c0 51 -21 63 -54 63c-18 0 -35 -1 -54 -5v-271h-81v518z" unicode="һ" glyph-name="uni04BB"/>
<glyph horiz-adv-x="215" d="M150 0h-86v712h86v-712z" unicode="Ӏ" glyph-name="uni04C0"/>
<glyph horiz-adv-x="187" d="M134 0h-81v712h81v-712z" unicode="ӏ" glyph-name="uni04CF"/>
<glyph horiz-adv-x="434" d="M47 171v211h253c-1 148 -6 202 -30 234c-12 16 -30 27 -58 27c-66 0 -78 -59 -79 -108h-86c2 58 17 108 50 141c27 27 65 44 115 44c56 0 95 -22 122 -52c46 -51 52 -115 52 -312s-6 -261 -52 -312c-27 -30 -66 -52 -122 -52c-93 0 -165 61 -165 179zM133 311v-143 c0 -58 29 -99 79 -99c28 0 46 11 58 27c23 30 29 81 30 215h-167z" unicode="Ә" glyph-name="uni04D8"/>
<glyph horiz-adv-x="372" d="M39 278h213c0 82 -3 130 -21 153c-9 13 -25 22 -46 22c-18 0 -33 -5 -46 -20s-17 -35 -17 -60h-81c1 48 13 84 42 115c25 26 60 38 102 38c44 0 76 -11 103 -40c39 -41 46 -119 46 -227c0 -109 -7 -186 -45 -227c-27 -29 -60 -40 -102 -40s-75 11 -102 40 c-39 41 -46 118 -46 246zM121 217c0 -75 4 -112 20 -131c10 -13 24 -21 46 -21s35 8 45 21c16 19 20 56 20 131h-131z" unicode="ә" glyph-name="afii10846"/>
<glyph horiz-adv-x="468" d="M404 0h-86v494l-174 -494h-80v712h86v-495l175 495h79v-712zM349 780h-228v58h228v-58z" unicode="Ӣ" glyph-name="uni04E2"/>
<glyph horiz-adv-x="408" d="M351 0h-82v343l-138 -343h-74v518h81v-343l139 343h74v-518zM319 608h-229v57h229v-57z" unicode="ӣ" glyph-name="uni04E3"/>
<glyph horiz-adv-x="442" d="M395 356c0 -197 -6 -259 -52 -312c-28 -32 -66 -52 -122 -52s-95 21 -122 52c-46 53 -52 115 -52 312s6 259 52 312c27 31 66 52 122 52s95 -21 122 -52c47 -55 52 -115 52 -312zM279 96c24 31 29 83 30 223h-176c0 -140 6 -192 30 -223c12 -16 30 -27 58 -27 s46 11 58 27zM163 616c-24 -31 -30 -83 -30 -220h176c-1 137 -6 189 -30 220c-12 16 -30 27 -58 27s-46 -11 -58 -27z" unicode="Ө" glyph-name="uni04E8"/>
<glyph horiz-adv-x="376" d="M335 259c0 -105 -5 -178 -37 -219c-26 -35 -64 -48 -110 -48s-83 13 -109 48c-32 41 -38 114 -38 219s6 178 38 219c26 35 63 48 109 48s84 -13 110 -48c32 -41 37 -114 37 -219zM234 87c17 24 20 72 20 153h-132c0 -81 3 -129 21 -153c10 -14 26 -22 45 -22s36 8 46 22z M143 431c-16 -22 -20 -63 -21 -130h132c-1 67 -4 108 -20 130c-10 14 -27 22 -46 22s-35 -8 -45 -22z" unicode="ө" glyph-name="uni04E9"/>
<glyph horiz-adv-x="392" d="M388 712l-185 -599c-29 -94 -69 -113 -167 -113v77c58 0 80 15 97 74l23 79l-152 482h94l99 -363l97 363h94zM312 780h-228v58h228v-58z" unicode="Ӯ" glyph-name="uni04EE"/>
<glyph horiz-adv-x="345" d="M339 518l-146 -601c-22 -93 -86 -111 -172 -111v72c50 0 81 13 93 60l16 63l-126 517h89l79 -389l78 389h89zM287 608h-229v57h229v-57z" unicode="ӯ" glyph-name="uni04EF"/>
<glyph horiz-adv-x="652" d="M648 712l-122 -712h-89l-111 573l-110 -573h-89l-123 712h95l73 -573l106 573h96l108 -573l72 573h94zM363 762h-62l-81 135h74z" unicode="Ẁ" glyph-name="Wgrave"/>
<glyph horiz-adv-x="526" d="M522 518l-109 -518h-82l-70 379l-68 -379h-82l-107 518h92l59 -390l69 390h73l73 -390l60 390h92zM302 586h-62l-81 135h74z" unicode="ẁ" glyph-name="wgrave"/>
<glyph horiz-adv-x="652" d="M648 712l-122 -712h-89l-111 573l-110 -573h-89l-123 712h95l73 -573l106 573h96l108 -573l72 573h94zM432 897l-81 -135h-62l69 135h74z" unicode="Ẃ" glyph-name="Wacute"/>
<glyph horiz-adv-x="526" d="M522 518l-109 -518h-82l-70 379l-68 -379h-82l-107 518h92l59 -390l69 390h73l73 -390l60 390h92zM370 721l-81 -135h-61l68 135h74z" unicode="ẃ" glyph-name="wacute"/>
<glyph horiz-adv-x="652" d="M648 712l-122 -712h-89l-111 573l-110 -573h-89l-123 712h95l73 -573l106 573h96l108 -573l72 573h94zM445 777h-82v81h82v-81zM289 777h-82v81h82v-81z" unicode="Ẅ" glyph-name="Wdieresis"/>
<glyph horiz-adv-x="526" d="M522 518l-109 -518h-82l-70 379l-68 -379h-82l-107 518h92l59 -390l69 390h73l73 -390l60 390h92zM382 601h-81v82h81v-82zM226 601h-82v82h82v-82z" unicode="ẅ" glyph-name="wdieresis"/>
<glyph horiz-adv-x="403" d="M388 0h-94l-93 282l-92 -282h-94l136 370l-125 342h94l81 -260l82 260h94l-129 -342zM242 777h-82v81h82v-81z" unicode="Ẋ" glyph-name="uni1E8A"/>
<glyph horiz-adv-x="356" d="M343 0h-90l-75 187l-75 -187h-90l118 264l-112 254h90l69 -181l69 181h90l-114 -254zM219 604h-81v82h81v-82z" unicode="ẋ" glyph-name="uni1E8B"/>
<glyph horiz-adv-x="353" d="M351 712l-132 -424v-288h-86v288l-131 424h94l80 -304l80 304h95zM213 762h-62l-81 135h74z" unicode="Ỳ" glyph-name="Ygrave"/>
<glyph horiz-adv-x="345" d="M339 518l-146 -601c-22 -93 -86 -111 -172 -111v72c50 0 81 13 93 60l16 63l-126 517h89l79 -389l78 389h89zM210 586h-62l-81 135h74z" unicode="ỳ" glyph-name="ygrave"/>
<glyph horiz-adv-x="381" unicode=" " glyph-name="uni2007"/>
<glyph horiz-adv-x="216" unicode=" " glyph-name="uni2008"/>
<glyph horiz-adv-x="0" unicode="​" glyph-name="uni200B"/>
<glyph horiz-adv-x="0" unicode="﻿" glyph-name="uniFEFF"/>
<glyph horiz-adv-x="445" d="M398 244h-352v78h352v-78z" unicode="–" glyph-name="endash"/>
<glyph horiz-adv-x="691" d="M640 244h-589v78h589v-78z" unicode="—" glyph-name="emdash"/>
<glyph horiz-adv-x="691" d="M640 244h-589v78h589v-78z" unicode="―" glyph-name="afii00208"/>
<glyph horiz-adv-x="207" d="M150 604h-93v108l93 68v-176z" unicode="‘" glyph-name="quoteleft"/>
<glyph horiz-adv-x="207" d="M150 604l-93 -68v176h93v-108z" unicode="’" glyph-name="quoteright"/>
<glyph horiz-adv-x="207" d="M150 0l-93 -68v176h93v-108z" unicode="‚" glyph-name="quotesinglbase"/>
<glyph horiz-adv-x="373" d="M316 604h-92v108l92 68v-176zM150 604h-93v108l93 68v-176z" unicode="“" glyph-name="quotedblleft"/>
<glyph horiz-adv-x="373" d="M316 604l-92 -68v176h92v-108zM150 604l-93 -68v176h93v-108z" unicode="”" glyph-name="quotedblright"/>
<glyph horiz-adv-x="373" d="M316 -11l-92 -68v176h92v-108zM150 -11l-93 -68v176h93v-108z" unicode="„" glyph-name="quotedblbase"/>
<glyph horiz-adv-x="443" d="M396 450h-136v-450h-77v450h-137v68h137v194h77v-194h136v-68z" unicode="†" glyph-name="dagger"/>
<glyph horiz-adv-x="443" d="M396 0h-136v-194h-77v194h-137v69h137v381h-137v68h137v194h77v-194h136v-68h-136v-381h136v-69z" unicode="‡" glyph-name="daggerdbl"/>
<glyph horiz-adv-x="455" d="M390 334c0 -90 -73 -163 -163 -163s-163 73 -163 163s73 163 163 163s163 -73 163 -163z" unicode="•" glyph-name="bullet"/>
<glyph horiz-adv-x="602" d="M543 0h-99v99h99v-99zM158 0h-99v99h99v-99zM351 0h-100v99h100v-99z" unicode="…" glyph-name="ellipsis"/>
<glyph horiz-adv-x="970" d="M624 102c0 -70 -50 -110 -113 -110s-113 40 -113 110v154c0 70 50 110 113 110s113 -40 113 -110v-154zM919 102c0 -70 -50 -110 -113 -110s-112 40 -112 110v154c0 70 49 110 112 110s113 -40 113 -110v-154zM276 456c0 -70 -50 -110 -113 -110s-112 40 -112 110v154 c0 70 49 110 112 110s113 -40 113 -110v-154zM494 712l-248 -712h-65l248 712h65zM556 103v151c0 33 -17 51 -45 51s-45 -18 -45 -51v-151c0 -33 17 -51 45 -51s45 18 45 51zM851 103v151c0 33 -17 51 -45 51s-44 -18 -44 -51v-151c0 -33 16 -51 44 -51s45 18 45 51z M208 458v151c0 33 -17 51 -45 51s-44 -18 -44 -51v-151c0 -33 16 -51 44 -51s45 18 45 51z" unicode="‰" glyph-name="perthousand"/>
<glyph horiz-adv-x="225" d="M175 42l-149 230l149 229v-127l-68 -102l68 -103v-127z" unicode="‹" glyph-name="guilsinglleft"/>
<glyph horiz-adv-x="225" d="M199 272l-148 -230v127l68 103l-68 102v127z" unicode="›" glyph-name="guilsinglright"/>
<glyph horiz-adv-x="171" d="M241 712l-247 -712h-64l246 712h65z" unicode="⁄" glyph-name="fraction"/>
<glyph horiz-adv-x="301" d="M259 377c0 -32 -11 -55 -30 -72c-17 -16 -50 -25 -79 -25c-28 0 -62 9 -79 25c-18 17 -29 40 -29 72v243c0 33 11 56 29 72c17 16 48 25 79 25c32 0 62 -9 80 -25s29 -39 29 -72v-243zM199 375v247c0 32 -20 46 -49 46c-28 0 -48 -14 -48 -46v-247c0 -32 21 -46 49 -46 s48 14 48 46z" unicode="⁰" glyph-name="uni2070"/>
<glyph horiz-adv-x="300" d="M268 348h-32v-63h-60v63h-148v49l117 315h59l-115 -315h87v87h60v-87h32v-49z" unicode="⁴" glyph-name="uni2074"/>
<glyph horiz-adv-x="300" d="M260 424c0 -60 -5 -93 -33 -118c-18 -16 -47 -26 -76 -26s-56 8 -75 25c-19 16 -29 36 -29 71v21h66v-22c0 -31 17 -46 38 -46c17 0 28 5 34 13c11 12 15 31 15 82s-5 69 -15 81c-7 8 -16 12 -33 12c-22 0 -39 -15 -39 -40v-11h-63v246h203v-49h-143v-122 c7 7 16 14 26 20c9 5 23 8 36 8c31 0 49 -10 64 -26c17 -18 24 -45 24 -119z" unicode="⁵" glyph-name="uni2075"/>
<glyph horiz-adv-x="300" d="M253 414c0 -56 -7 -79 -23 -100c-18 -24 -48 -34 -83 -34c-37 0 -65 13 -81 34c-18 24 -23 49 -23 100c0 39 7 74 18 102l78 196h67l-73 -174c9 6 17 8 32 8c25 0 47 -8 63 -26c17 -20 25 -42 25 -106zM193 416c0 42 -4 65 -14 76c-6 6 -17 11 -31 11s-25 -5 -31 -11 c-11 -11 -14 -34 -14 -76s3 -65 14 -76c6 -6 17 -11 31 -11s25 5 31 11c10 11 14 34 14 76z" unicode="⁶" glyph-name="uni2076"/>
<glyph horiz-adv-x="300" d="M260 662l-104 -377h-62l104 378h-103v-65h-57v114h222v-50z" unicode="⁷" glyph-name="uni2077"/>
<glyph horiz-adv-x="300" d="M254 406c0 -47 -4 -76 -31 -100c-18 -17 -45 -26 -74 -26c-28 0 -57 9 -74 26c-28 24 -31 53 -31 100c0 36 2 57 14 76c7 10 16 19 28 27c-11 7 -20 15 -26 26c-11 18 -13 37 -13 67c0 42 7 69 30 91c19 16 43 24 72 24c28 0 54 -8 72 -24c24 -22 30 -49 30 -91 c0 -30 -2 -49 -13 -67c-6 -11 -14 -19 -25 -26c12 -8 23 -17 29 -27c11 -19 12 -40 12 -76zM194 406c0 39 -3 56 -12 66c-8 7 -18 11 -33 11c-14 0 -25 -4 -33 -11c-10 -10 -12 -25 -12 -66s2 -55 12 -65c8 -8 19 -12 33 -12c15 0 25 4 33 12c9 10 12 24 12 65zM191 600 c0 37 -4 50 -12 58c-6 6 -16 10 -30 10c-13 0 -23 -4 -29 -10c-9 -8 -12 -21 -12 -58c0 -36 3 -49 12 -57c6 -7 16 -10 29 -10c14 0 24 3 30 10c8 8 12 21 12 57z" unicode="⁸" glyph-name="uni2078"/>
<glyph horiz-adv-x="300" d="M254 583c0 -39 -7 -74 -18 -102l-78 -196h-67l73 174c-9 -6 -18 -8 -32 -8c-26 0 -48 8 -63 26c-18 20 -26 42 -26 106c0 56 8 79 23 100c19 24 49 34 83 34c37 0 66 -13 81 -34c18 -24 24 -49 24 -100zM194 581c0 42 -4 65 -15 76c-5 6 -16 11 -31 11 c-14 0 -24 -5 -30 -11c-11 -11 -15 -34 -15 -76s4 -65 15 -76c6 -6 16 -11 30 -11c15 0 26 5 31 11c11 11 15 34 15 76z" unicode="⁹" glyph-name="uni2079"/>
<glyph horiz-adv-x="301" d="M259 -58c0 -32 -11 -55 -30 -72c-17 -16 -50 -25 -79 -25c-28 0 -62 9 -79 25c-18 17 -29 40 -29 72v243c0 33 11 56 29 72c17 16 48 25 79 25c32 0 62 -9 80 -25s29 -39 29 -72v-243zM199 -60v247c0 32 -20 46 -49 46c-28 0 -48 -14 -48 -46v-247c0 -32 21 -46 49 -46 s48 14 48 46z" unicode="₀" glyph-name="uni2080"/>
<glyph horiz-adv-x="300" d="M199 -150h-60v364l-72 -47v61l72 49h60v-427z" unicode="₁" glyph-name="uni2081"/>
<glyph horiz-adv-x="299" d="M261 -150h-218v47l135 210c15 23 23 44 23 76c0 30 -21 50 -51 50c-33 0 -49 -20 -49 -56v-24h-61v22c0 38 9 61 30 80c20 17 48 27 80 27c33 0 56 -7 78 -24c20 -16 33 -43 33 -77c0 -32 -11 -65 -30 -95l-121 -187h151v-49z" unicode="₂" glyph-name="uni2082"/>
<glyph horiz-adv-x="299" d="M263 -33c0 -47 -4 -72 -31 -96c-19 -16 -49 -26 -80 -26c-33 0 -62 9 -82 27c-18 17 -28 38 -28 83v15h61v-16c0 -26 3 -38 13 -47c9 -8 21 -13 36 -13s28 5 35 13c10 11 16 26 16 63c0 39 -4 51 -13 63c-10 11 -22 16 -39 16h-26v47h26c15 0 25 4 34 12 c15 14 15 35 15 61c0 25 -3 42 -15 52c-8 8 -18 12 -33 12c-14 0 -27 -4 -35 -13c-9 -9 -12 -24 -12 -42v-19h-61v17c0 40 9 62 28 79c20 17 46 27 80 27c36 0 61 -10 78 -26c21 -20 31 -50 31 -86c0 -30 -4 -51 -17 -70c-9 -12 -20 -21 -35 -28c16 -6 29 -17 38 -30 c11 -17 16 -36 16 -75z" unicode="₃" glyph-name="uni2083"/>
<glyph horiz-adv-x="300" d="M268 -87h-32v-63h-60v63h-148v49l117 315h59l-115 -315h87v87h60v-87h32v-49z" unicode="₄" glyph-name="uni2084"/>
<glyph horiz-adv-x="300" d="M260 -11c0 -60 -5 -93 -33 -118c-18 -16 -47 -26 -76 -26s-56 8 -75 25c-19 16 -29 36 -29 71v21h66v-22c0 -31 17 -46 38 -46c17 0 28 5 34 13c11 12 15 31 15 82s-5 69 -15 81c-7 8 -16 12 -33 12c-22 0 -39 -15 -39 -40v-11h-63v246h203v-49h-143v-122 c7 7 16 14 26 20c9 5 23 8 36 8c31 0 49 -10 64 -26c17 -18 24 -45 24 -119z" unicode="₅" glyph-name="uni2085"/>
<glyph horiz-adv-x="300" d="M253 -21c0 -56 -7 -79 -23 -100c-18 -24 -48 -34 -83 -34c-37 0 -65 13 -81 34c-18 24 -23 49 -23 100c0 39 7 74 18 102l78 196h67l-73 -174c9 6 17 8 32 8c25 0 47 -8 63 -26c17 -20 25 -42 25 -106zM193 -19c0 42 -4 65 -14 76c-6 6 -17 11 -31 11s-25 -5 -31 -11 c-11 -11 -14 -34 -14 -76s3 -65 14 -76c6 -6 17 -11 31 -11s25 5 31 11c10 11 14 34 14 76z" unicode="₆" glyph-name="uni2086"/>
<glyph horiz-adv-x="300" d="M260 227l-104 -377h-62l104 378h-103v-65h-57v114h222v-50z" unicode="₇" glyph-name="uni2087"/>
<glyph horiz-adv-x="300" d="M254 -29c0 -47 -4 -76 -31 -100c-18 -17 -45 -26 -74 -26c-28 0 -57 9 -74 26c-28 24 -31 53 -31 100c0 36 2 57 14 76c7 10 16 19 28 27c-11 7 -20 15 -26 26c-11 18 -13 37 -13 67c0 42 7 69 30 91c19 16 43 24 72 24c28 0 54 -8 72 -24c24 -22 30 -49 30 -91 c0 -30 -2 -49 -13 -67c-6 -11 -14 -19 -25 -26c12 -8 23 -17 29 -27c11 -19 12 -40 12 -76zM194 -29c0 39 -3 56 -12 66c-8 7 -18 11 -33 11c-14 0 -25 -4 -33 -11c-10 -10 -12 -25 -12 -66s2 -55 12 -65c8 -8 19 -12 33 -12c15 0 25 4 33 12c9 10 12 24 12 65zM191 165 c0 37 -4 50 -12 58c-6 6 -16 10 -30 10c-13 0 -23 -4 -29 -10c-9 -8 -12 -21 -12 -58c0 -36 3 -49 12 -57c6 -7 16 -10 29 -10c14 0 24 3 30 10c8 8 12 21 12 57z" unicode="₈" glyph-name="uni2088"/>
<glyph horiz-adv-x="300" d="M254 148c0 -39 -7 -74 -18 -102l-78 -196h-67l73 174c-9 -6 -18 -8 -32 -8c-26 0 -48 8 -63 26c-18 20 -26 42 -26 106c0 56 8 79 23 100c19 24 49 34 83 34c37 0 66 -13 81 -34c18 -24 24 -49 24 -100zM194 146c0 42 -4 65 -15 76c-5 6 -16 11 -31 11 c-14 0 -24 -5 -30 -11c-11 -11 -15 -34 -15 -76s4 -65 15 -76c6 -6 16 -11 30 -11c15 0 26 5 31 11c11 11 15 34 15 76z" unicode="₉" glyph-name="uni2089"/>
<glyph horiz-adv-x="474" d="M431 176c-1 -60 -20 -113 -55 -145c-28 -26 -62 -39 -110 -39c-57 0 -95 21 -122 51c-35 38 -48 87 -50 206h-61v62h59v90h-59v62h61c2 119 15 168 50 206c27 30 65 51 122 51c49 0 85 -15 113 -42c33 -32 51 -83 52 -142h-86c-1 53 -15 107 -79 107 c-28 0 -47 -11 -59 -27c-19 -25 -26 -52 -27 -153h120v-62h-121v-90h121v-62h-120c1 -101 8 -128 27 -153c12 -15 31 -27 59 -27c64 0 78 55 79 107h86z" unicode="€" glyph-name="Euro"/>
<glyph horiz-adv-x="420" d="M174 401h-166v62h267c9 16 11 38 11 71c0 37 -8 66 -25 85c-12 13 -30 22 -55 22c-27 0 -46 -9 -58 -24c-18 -22 -22 -48 -22 -86h-86c0 65 11 111 47 146c27 26 66 41 118 41c47 0 85 -15 113 -41c36 -33 54 -84 54 -146c0 -27 -2 -49 -5 -68h35v-62h-59 c-15 -21 -37 -36 -68 -48l-81 -33c-8 -3 -14 -6 -19 -9h227v-62h-274c-3 -16 -4 -36 -4 -60c0 -47 4 -74 23 -95c13 -14 32 -23 61 -23c27 0 47 9 59 22c19 20 24 46 24 93h86c0 -76 -11 -117 -44 -150c-28 -28 -70 -43 -125 -43c-57 0 -99 17 -126 43 c-34 34 -44 81 -44 155c0 21 1 40 2 58h-32v62h46c15 34 40 57 84 75z" unicode="₴" glyph-name="uni20B4"/>
<glyph horiz-adv-x="706" d="M653 541c0 -69 -3 -114 -25 -142c-18 -23 -45 -34 -77 -34c-33 0 -59 11 -77 34c-22 28 -26 73 -26 142c0 68 4 114 26 142c18 23 44 33 77 33c32 0 59 -10 77 -33c22 -28 25 -74 25 -142zM590 541c0 54 -2 92 -13 109c-6 10 -16 15 -26 15c-11 0 -21 -5 -27 -15 c-11 -17 -12 -55 -12 -109s1 -92 12 -110c6 -10 16 -14 27 -14c10 0 19 4 25 14c11 18 14 56 14 110zM650 277h-194v53h194v-53zM396 0h-76l-172 488v-488h-84v712h77l171 -488v488h84v-712z" unicode="№" glyph-name="afii61352"/>
<glyph horiz-adv-x="616" d="M563 279h-57v292l-65 -188h-35l-64 184v-288h-57v433h53l86 -233l86 233h53v-433zM231 660h-73v-381h-56v381h-73v52h202v-52z" unicode="™" glyph-name="trademark"/>
<glyph horiz-adv-x="460" d="M408 0h-153v64c22 11 42 29 50 58c11 41 12 110 12 234c0 182 -5 229 -29 260c-12 16 -31 27 -58 27s-46 -11 -58 -27c-24 -31 -30 -78 -30 -260c0 -124 1 -193 12 -234c8 -29 29 -47 50 -58v-64h-152v72h64c-16 10 -30 23 -39 46c-18 42 -20 119 -20 238 c0 192 5 261 51 313c27 30 65 51 122 51s95 -21 122 -51c46 -52 51 -121 51 -313c0 -119 -2 -196 -20 -238c-9 -23 -24 -36 -40 -46h65v-72z" unicode="Ω" glyph-name="Omega"/>
<glyph horiz-adv-x="771" d="M199 285h-60v364l-72 -47v61l72 49h60v-427zM541 712l-247 -712h-64l246 712h65zM731 377l-104 -377h-62l104 378h-103v-65h-57v114h222v-50z" unicode="⅐" glyph-name="uni2150"/>
<glyph horiz-adv-x="771" d="M199 285h-60v364l-72 -47v61l72 49h60v-427zM541 712l-247 -712h-64l246 712h65zM725 298c0 -39 -7 -74 -18 -102l-78 -196h-67l73 174c-9 -6 -18 -8 -32 -8c-26 0 -48 8 -63 26c-18 20 -26 42 -26 106c0 56 8 79 23 100c19 24 49 34 83 34c37 0 66 -13 81 -34 c18 -24 24 -49 24 -100zM665 296c0 42 -4 65 -15 76c-5 6 -16 11 -31 11c-14 0 -24 -5 -30 -11c-11 -11 -15 -34 -15 -76s4 -65 15 -76c6 -6 16 -11 30 -11c15 0 26 5 31 11c11 11 15 34 15 76z" unicode="⅑" glyph-name="uni2151"/>
<glyph horiz-adv-x="1072" d="M199 285h-60v364l-72 -47v61l72 49h60v-427zM541 712l-247 -712h-64l246 712h65zM670 0h-60v364l-72 -47v61l72 49h60v-427zM1030 92c0 -32 -11 -55 -30 -72c-17 -16 -50 -25 -79 -25c-28 0 -62 9 -79 25c-18 17 -29 40 -29 72v243c0 33 11 56 29 72c17 16 48 25 79 25 c32 0 62 -9 80 -25s29 -39 29 -72v-243zM970 90v247c0 32 -20 46 -49 46c-28 0 -48 -14 -48 -46v-247c0 -32 21 -46 49 -46s48 14 48 46z" unicode="⅒" glyph-name="uni2152"/>
<glyph horiz-adv-x="770" d="M199 285h-60v364l-72 -47v61l72 49h60v-427zM541 712l-247 -712h-64l246 712h65zM734 117c0 -47 -4 -72 -31 -96c-19 -16 -49 -26 -80 -26c-33 0 -62 9 -82 27c-18 17 -28 38 -28 83v15h61v-16c0 -26 3 -38 13 -47c9 -8 21 -13 36 -13s28 5 35 13c10 11 16 26 16 63 c0 39 -4 51 -13 63c-10 11 -22 16 -39 16h-26v47h26c15 0 25 4 34 12c15 14 15 35 15 61c0 25 -3 42 -15 52c-8 8 -18 12 -33 12c-14 0 -27 -4 -35 -13c-9 -9 -12 -24 -12 -42v-19h-61v17c0 40 9 62 28 79c20 17 46 27 80 27c36 0 61 -10 78 -26c21 -20 31 -50 31 -86 c0 -30 -4 -51 -17 -70c-9 -12 -20 -21 -35 -28c16 -6 29 -17 38 -30c11 -17 16 -36 16 -75z" unicode="⅓" glyph-name="onethird"/>
<glyph horiz-adv-x="769" d="M261 285h-218v47l135 210c15 23 23 44 23 76c0 30 -21 50 -51 50c-33 0 -49 -20 -49 -56v-24h-61v22c0 38 9 61 30 80c20 17 48 27 80 27c33 0 56 -7 78 -24c20 -16 33 -43 33 -77c0 -32 -11 -65 -30 -95l-121 -187h151v-49zM540 712l-247 -712h-64l246 712h65zM733 117 c0 -47 -4 -72 -31 -96c-19 -16 -49 -26 -80 -26c-33 0 -62 9 -82 27c-18 17 -28 38 -28 83v15h61v-16c0 -26 3 -38 13 -47c9 -8 21 -13 36 -13s28 5 35 13c10 11 16 26 16 63c0 39 -4 51 -13 63c-10 11 -22 16 -39 16h-26v47h26c15 0 25 4 34 12c15 14 15 35 15 61 c0 25 -3 42 -15 52c-8 8 -18 12 -33 12c-14 0 -27 -4 -35 -13c-9 -9 -12 -24 -12 -42v-19h-61v17c0 40 9 62 28 79c20 17 46 27 80 27c36 0 61 -10 78 -26c21 -20 31 -50 31 -86c0 -30 -4 -51 -17 -70c-9 -12 -20 -21 -35 -28c16 -6 29 -17 38 -30c11 -17 16 -36 16 -75z " unicode="⅔" glyph-name="twothirds"/>
<glyph horiz-adv-x="771" d="M199 285h-60v364l-72 -47v61l72 49h60v-427zM541 712l-247 -712h-64l246 712h65zM731 139c0 -60 -5 -93 -33 -118c-18 -16 -47 -26 -76 -26s-56 8 -75 25c-19 16 -29 36 -29 71v21h66v-22c0 -31 17 -46 38 -46c17 0 28 5 34 13c11 12 15 31 15 82s-5 69 -15 81 c-7 8 -16 12 -33 12c-22 0 -39 -15 -39 -40v-11h-63v246h203v-49h-143v-122c7 7 16 14 26 20c9 5 23 8 36 8c31 0 49 -10 64 -26c17 -18 24 -45 24 -119z" unicode="⅕" glyph-name="uni2155"/>
<glyph horiz-adv-x="770" d="M261 285h-218v47l135 210c15 23 23 44 23 76c0 30 -21 50 -51 50c-33 0 -49 -20 -49 -56v-24h-61v22c0 38 9 61 30 80c20 17 48 27 80 27c33 0 56 -7 78 -24c20 -16 33 -43 33 -77c0 -32 -11 -65 -30 -95l-121 -187h151v-49zM540 712l-247 -712h-64l246 712h65zM730 139 c0 -60 -5 -93 -33 -118c-18 -16 -47 -26 -76 -26s-56 8 -75 25c-19 16 -29 36 -29 71v21h66v-22c0 -31 17 -46 38 -46c17 0 28 5 34 13c11 12 15 31 15 82s-5 69 -15 81c-7 8 -16 12 -33 12c-22 0 -39 -15 -39 -40v-11h-63v246h203v-49h-143v-122c7 7 16 14 26 20 c9 5 23 8 36 8c31 0 49 -10 64 -26c17 -18 24 -45 24 -119z" unicode="⅖" glyph-name="uni2156"/>
<glyph horiz-adv-x="770" d="M263 402c0 -47 -4 -72 -31 -96c-19 -16 -49 -26 -80 -26c-33 0 -62 9 -82 27c-18 17 -28 38 -28 83v15h61v-16c0 -26 3 -38 13 -47c9 -8 21 -13 36 -13s28 5 35 13c10 11 16 26 16 63c0 39 -4 51 -13 63c-10 11 -22 16 -39 16h-26v47h26c15 0 25 4 34 12 c15 14 15 35 15 61c0 25 -3 42 -15 52c-8 8 -18 12 -33 12c-14 0 -27 -4 -35 -13c-9 -9 -12 -24 -12 -42v-19h-61v17c0 40 9 62 28 79c20 17 46 27 80 27c36 0 61 -10 78 -26c21 -20 31 -50 31 -86c0 -30 -4 -51 -17 -70c-9 -12 -20 -21 -35 -28c16 -6 29 -17 38 -30 c11 -17 16 -36 16 -75zM540 712l-247 -712h-64l246 712h65zM730 139c0 -60 -5 -93 -33 -118c-18 -16 -47 -26 -76 -26s-56 8 -75 25c-19 16 -29 36 -29 71v21h66v-22c0 -31 17 -46 38 -46c17 0 28 5 34 13c11 12 15 31 15 82s-5 69 -15 81c-7 8 -16 12 -33 12 c-22 0 -39 -15 -39 -40v-11h-63v246h203v-49h-143v-122c7 7 16 14 26 20c9 5 23 8 36 8c31 0 49 -10 64 -26c17 -18 24 -45 24 -119z" unicode="⅗" glyph-name="uni2157"/>
<glyph horiz-adv-x="771" d="M268 348h-32v-63h-60v63h-148v49l117 315h59l-115 -315h87v87h60v-87h32v-49zM541 712l-247 -712h-64l246 712h65zM731 139c0 -60 -5 -93 -33 -118c-18 -16 -47 -26 -76 -26s-56 8 -75 25c-19 16 -29 36 -29 71v21h66v-22c0 -31 17 -46 38 -46c17 0 28 5 34 13 c11 12 15 31 15 82s-5 69 -15 81c-7 8 -16 12 -33 12c-22 0 -39 -15 -39 -40v-11h-63v246h203v-49h-143v-122c7 7 16 14 26 20c9 5 23 8 36 8c31 0 49 -10 64 -26c17 -18 24 -45 24 -119z" unicode="⅘" glyph-name="uni2158"/>
<glyph horiz-adv-x="771" d="M199 285h-60v364l-72 -47v61l72 49h60v-427zM541 712l-247 -712h-64l246 712h65zM724 129c0 -56 -7 -79 -23 -100c-18 -24 -48 -34 -83 -34c-37 0 -65 13 -81 34c-18 24 -23 49 -23 100c0 39 7 74 18 102l78 196h67l-73 -174c9 6 17 8 32 8c25 0 47 -8 63 -26 c17 -20 25 -42 25 -106zM664 131c0 42 -4 65 -14 76c-6 6 -17 11 -31 11s-25 -5 -31 -11c-11 -11 -14 -34 -14 -76s3 -65 14 -76c6 -6 17 -11 31 -11s25 5 31 11c10 11 14 34 14 76z" unicode="⅙" glyph-name="uni2159"/>
<glyph horiz-adv-x="771" d="M260 424c0 -60 -5 -93 -33 -118c-18 -16 -47 -26 -76 -26s-56 8 -75 25c-19 16 -29 36 -29 71v21h66v-22c0 -31 17 -46 38 -46c17 0 28 5 34 13c11 12 15 31 15 82s-5 69 -15 81c-7 8 -16 12 -33 12c-22 0 -39 -15 -39 -40v-11h-63v246h203v-49h-143v-122 c7 7 16 14 26 20c9 5 23 8 36 8c31 0 49 -10 64 -26c17 -18 24 -45 24 -119zM541 712l-247 -712h-64l246 712h65zM724 129c0 -56 -7 -79 -23 -100c-18 -24 -48 -34 -83 -34c-37 0 -65 13 -81 34c-18 24 -23 49 -23 100c0 39 7 74 18 102l78 196h67l-73 -174c9 6 17 8 32 8 c25 0 47 -8 63 -26c17 -20 25 -42 25 -106zM664 131c0 42 -4 65 -14 76c-6 6 -17 11 -31 11s-25 -5 -31 -11c-11 -11 -14 -34 -14 -76s3 -65 14 -76c6 -6 17 -11 31 -11s25 5 31 11c10 11 14 34 14 76z" unicode="⅚" glyph-name="uni215A"/>
<glyph horiz-adv-x="771" d="M199 285h-60v364l-72 -47v61l72 49h60v-427zM541 712l-247 -712h-64l246 712h65zM725 121c0 -47 -4 -76 -31 -100c-18 -17 -45 -26 -74 -26c-28 0 -57 9 -74 26c-28 24 -31 53 -31 100c0 36 2 57 14 76c7 10 16 19 28 27c-11 7 -20 15 -26 26c-11 18 -13 37 -13 67 c0 42 7 69 30 91c19 16 43 24 72 24c28 0 54 -8 72 -24c24 -22 30 -49 30 -91c0 -30 -2 -49 -13 -67c-6 -11 -14 -19 -25 -26c12 -8 23 -17 29 -27c11 -19 12 -40 12 -76zM665 121c0 39 -3 56 -12 66c-8 7 -18 11 -33 11c-14 0 -25 -4 -33 -11c-10 -10 -12 -25 -12 -66 s2 -55 12 -65c8 -8 19 -12 33 -12c15 0 25 4 33 12c9 10 12 24 12 65zM662 315c0 37 -4 50 -12 58c-6 6 -16 10 -30 10c-13 0 -23 -4 -29 -10c-9 -8 -12 -21 -12 -58c0 -36 3 -49 12 -57c6 -7 16 -10 29 -10c14 0 24 3 30 10c8 8 12 21 12 57z" unicode="⅛" glyph-name="oneeighth"/>
<glyph horiz-adv-x="770" d="M263 402c0 -47 -4 -72 -31 -96c-19 -16 -49 -26 -80 -26c-33 0 -62 9 -82 27c-18 17 -28 38 -28 83v15h61v-16c0 -26 3 -38 13 -47c9 -8 21 -13 36 -13s28 5 35 13c10 11 16 26 16 63c0 39 -4 51 -13 63c-10 11 -22 16 -39 16h-26v47h26c15 0 25 4 34 12 c15 14 15 35 15 61c0 25 -3 42 -15 52c-8 8 -18 12 -33 12c-14 0 -27 -4 -35 -13c-9 -9 -12 -24 -12 -42v-19h-61v17c0 40 9 62 28 79c20 17 46 27 80 27c36 0 61 -10 78 -26c21 -20 31 -50 31 -86c0 -30 -4 -51 -17 -70c-9 -12 -20 -21 -35 -28c16 -6 29 -17 38 -30 c11 -17 16 -36 16 -75zM540 712l-247 -712h-64l246 712h65zM724 121c0 -47 -4 -76 -31 -100c-18 -17 -45 -26 -74 -26c-28 0 -57 9 -74 26c-28 24 -31 53 -31 100c0 36 2 57 14 76c7 10 16 19 28 27c-11 7 -20 15 -26 26c-11 18 -13 37 -13 67c0 42 7 69 30 91 c19 16 43 24 72 24c28 0 54 -8 72 -24c24 -22 30 -49 30 -91c0 -30 -2 -49 -13 -67c-6 -11 -14 -19 -25 -26c12 -8 23 -17 29 -27c11 -19 12 -40 12 -76zM664 121c0 39 -3 56 -12 66c-8 7 -18 11 -33 11c-14 0 -25 -4 -33 -11c-10 -10 -12 -25 -12 -66s2 -55 12 -65 c8 -8 19 -12 33 -12c15 0 25 4 33 12c9 10 12 24 12 65zM661 315c0 37 -4 50 -12 58c-6 6 -16 10 -30 10c-13 0 -23 -4 -29 -10c-9 -8 -12 -21 -12 -58c0 -36 3 -49 12 -57c6 -7 16 -10 29 -10c14 0 24 3 30 10c8 8 12 21 12 57z" unicode="⅜" glyph-name="threeeighths"/>
<glyph horiz-adv-x="771" d="M260 424c0 -60 -5 -93 -33 -118c-18 -16 -47 -26 -76 -26s-56 8 -75 25c-19 16 -29 36 -29 71v21h66v-22c0 -31 17 -46 38 -46c17 0 28 5 34 13c11 12 15 31 15 82s-5 69 -15 81c-7 8 -16 12 -33 12c-22 0 -39 -15 -39 -40v-11h-63v246h203v-49h-143v-122 c7 7 16 14 26 20c9 5 23 8 36 8c31 0 49 -10 64 -26c17 -18 24 -45 24 -119zM541 712l-247 -712h-64l246 712h65zM725 121c0 -47 -4 -76 -31 -100c-18 -17 -45 -26 -74 -26c-28 0 -57 9 -74 26c-28 24 -31 53 -31 100c0 36 2 57 14 76c7 10 16 19 28 27c-11 7 -20 15 -26 26 c-11 18 -13 37 -13 67c0 42 7 69 30 91c19 16 43 24 72 24c28 0 54 -8 72 -24c24 -22 30 -49 30 -91c0 -30 -2 -49 -13 -67c-6 -11 -14 -19 -25 -26c12 -8 23 -17 29 -27c11 -19 12 -40 12 -76zM665 121c0 39 -3 56 -12 66c-8 7 -18 11 -33 11c-14 0 -25 -4 -33 -11 c-10 -10 -12 -25 -12 -66s2 -55 12 -65c8 -8 19 -12 33 -12c15 0 25 4 33 12c9 10 12 24 12 65zM662 315c0 37 -4 50 -12 58c-6 6 -16 10 -30 10c-13 0 -23 -4 -29 -10c-9 -8 -12 -21 -12 -58c0 -36 3 -49 12 -57c6 -7 16 -10 29 -10c14 0 24 3 30 10c8 8 12 21 12 57z" unicode="⅝" glyph-name="fiveeighths"/>
<glyph horiz-adv-x="771" d="M260 662l-104 -377h-62l104 378h-103v-65h-57v114h222v-50zM541 712l-247 -712h-64l246 712h65zM725 121c0 -47 -4 -76 -31 -100c-18 -17 -45 -26 -74 -26c-28 0 -57 9 -74 26c-28 24 -31 53 -31 100c0 36 2 57 14 76c7 10 16 19 28 27c-11 7 -20 15 -26 26 c-11 18 -13 37 -13 67c0 42 7 69 30 91c19 16 43 24 72 24c28 0 54 -8 72 -24c24 -22 30 -49 30 -91c0 -30 -2 -49 -13 -67c-6 -11 -14 -19 -25 -26c12 -8 23 -17 29 -27c11 -19 12 -40 12 -76zM665 121c0 39 -3 56 -12 66c-8 7 -18 11 -33 11c-14 0 -25 -4 -33 -11 c-10 -10 -12 -25 -12 -66s2 -55 12 -65c8 -8 19 -12 33 -12c15 0 25 4 33 12c9 10 12 24 12 65zM662 315c0 37 -4 50 -12 58c-6 6 -16 10 -30 10c-13 0 -23 -4 -29 -10c-9 -8 -12 -21 -12 -58c0 -36 3 -49 12 -57c6 -7 16 -10 29 -10c14 0 24 3 30 10c8 8 12 21 12 57z" unicode="⅞" glyph-name="seveneighths"/>
<glyph horiz-adv-x="471" d="M199 285h-60v364l-72 -47v61l72 49h60v-427zM541 712l-247 -712h-64l246 712h65z" unicode="⅟" glyph-name="uni215F"/>
<glyph horiz-adv-x="771" d="M259 377c0 -32 -11 -55 -30 -72c-17 -16 -50 -25 -79 -25c-28 0 -62 9 -79 25c-18 17 -29 40 -29 72v243c0 33 11 56 29 72c17 16 48 25 79 25c32 0 62 -9 80 -25s29 -39 29 -72v-243zM199 375v247c0 32 -20 46 -49 46c-28 0 -48 -14 -48 -46v-247c0 -32 21 -46 49 -46 s48 14 48 46zM542 712l-247 -712h-64l246 712h65zM735 117c0 -47 -4 -72 -31 -96c-19 -16 -49 -26 -80 -26c-33 0 -62 9 -82 27c-18 17 -28 38 -28 83v15h61v-16c0 -26 3 -38 13 -47c9 -8 21 -13 36 -13s28 5 35 13c10 11 16 26 16 63c0 39 -4 51 -13 63 c-10 11 -22 16 -39 16h-26v47h26c15 0 25 4 34 12c15 14 15 35 15 61c0 25 -3 42 -15 52c-8 8 -18 12 -33 12c-14 0 -27 -4 -35 -13c-9 -9 -12 -24 -12 -42v-19h-61v17c0 40 9 62 28 79c20 17 46 27 80 27c36 0 61 -10 78 -26c21 -20 31 -50 31 -86c0 -30 -4 -51 -17 -70 c-9 -12 -20 -21 -35 -28c16 -6 29 -17 38 -30c11 -17 16 -36 16 -75z" unicode="↉" glyph-name="uni2189"/>
<glyph horiz-adv-x="676" d="M624 238h-454l212 -211h-106l-250 250l250 249h106l-212 -210h454v-78z" unicode="←" glyph-name="arrowleft"/>
<glyph horiz-adv-x="676" d="M587 230l-210 212v-454h-78v454l-210 -212v106l249 250l249 -250v-106z" unicode="↑" glyph-name="arrowup"/>
<glyph horiz-adv-x="676" d="M649 277l-250 -250h-105l212 211h-455v78h455l-212 210h105z" unicode="→" glyph-name="arrowright"/>
<glyph horiz-adv-x="676" d="M587 217l-249 -249l-249 249v106l210 -212v455h78v-455l210 212v-106z" unicode="↓" glyph-name="arrowdown"/>
<glyph horiz-adv-x="676" d="M554 423l-299 1l322 -321l-56 -56l-321 322l1 -299l-75 75v352h353z" unicode="↖" glyph-name="uni2196"/>
<glyph horiz-adv-x="676" d="M475 70l1 299l-322 -322l-55 56l321 321l-298 -1l74 75h353v-353z" unicode="↗" glyph-name="uni2197"/>
<glyph horiz-adv-x="676" d="M549 408l-1 -353h-352l-75 76l299 -2l-321 322l55 54l321 -320l-1 298z" unicode="↘" glyph-name="uni2198"/>
<glyph horiz-adv-x="676" d="M479 55h-352v353l75 75l-2 -298l322 320l55 -54l-321 -322l298 1z" unicode="↙" glyph-name="uni2199"/>
<glyph horiz-adv-x="387" d="M332 259c0 -104 -5 -178 -38 -219c-26 -34 -63 -48 -107 -48c-45 0 -81 14 -107 46c-33 39 -39 108 -39 209c0 116 5 182 38 219c22 26 51 37 87 37c20 0 38 -5 54 -15c11 -6 26 -20 31 -28v87c0 42 -6 62 -17 77c-12 15 -28 22 -49 22c-26 0 -48 -11 -65 -30l-54 51 c31 34 70 52 122 52c43 0 79 -12 103 -35c26 -25 41 -54 41 -144v-281zM251 247c0 89 -2 138 -20 162c-10 13 -27 21 -44 21c-18 0 -34 -8 -44 -21c-19 -24 -21 -73 -21 -162c0 -88 2 -137 21 -161c10 -13 26 -21 44 -21c17 0 34 8 44 21c18 24 20 73 20 161z" unicode="∂" glyph-name="partialdiff"/>
<glyph horiz-adv-x="424" d="M419 0h-414l166 712h83zM312 77l-100 496l-100 -496h200z" unicode="∆" glyph-name="Delta"/>
<glyph horiz-adv-x="458" d="M394 -205h-86v888h-158v-888h-86v965h330v-965z" unicode="∏" glyph-name="product"/>
<glyph horiz-adv-x="373" d="M327 -206h-296v65l141 431l-133 405v65h288v-77h-196l110 -355v-80l-118 -376h204v-78z" unicode="∑" glyph-name="summation"/>
<glyph horiz-adv-x="444" d="M398 244h-352v78h352v-78z" unicode="−" glyph-name="minus"/>
<glyph horiz-adv-x="444" d="M385 283c0 -90 -73 -163 -163 -163s-163 73 -163 163s73 163 163 163s163 -73 163 -163z" unicode="∙" glyph-name="uni2219"/>
<glyph horiz-adv-x="467" d="M441 635h-80l-148 -635h-89l-120 507h93l71 -380l117 585h156v-77z" unicode="√" glyph-name="radical"/>
<glyph horiz-adv-x="635" d="M588 281c0 -75 -49 -132 -134 -132c-53 0 -95 26 -136 75c-42 -49 -84 -76 -137 -76c-84 0 -134 58 -134 133s50 134 134 134c52 0 95 -27 137 -76c41 49 82 76 136 76c85 0 134 -59 134 -134zM513 279c0 37 -27 60 -60 60c-32 0 -55 -25 -84 -60c29 -34 52 -59 84 -59 c33 0 60 23 60 59zM266 279c-29 35 -51 62 -83 62c-34 0 -61 -25 -61 -62c0 -36 27 -59 61 -59c32 0 54 25 83 59z" unicode="∞" glyph-name="infinity"/>
<glyph horiz-adv-x="296" d="M266 644h-23c-31 0 -54 -23 -54 -62v-638c0 -48 -15 -79 -36 -100c-22 -23 -56 -35 -90 -35h-33v73h24c30 0 54 22 54 62v637c0 48 14 79 35 101c22 22 56 35 90 35h33v-73z" unicode="∫" glyph-name="integral"/>
<glyph horiz-adv-x="444" d="M410 359c-33 -33 -65 -60 -113 -60c-61 0 -96 44 -147 44c-29 0 -46 -13 -66 -33l-49 49c33 33 64 59 112 59c67 0 97 -43 148 -43c29 0 45 13 65 33zM410 196c-33 -33 -65 -60 -113 -60c-60 0 -98 44 -147 44c-29 0 -45 -14 -65 -34l-50 49c32 32 64 60 112 60 c62 0 98 -44 148 -44c29 0 45 14 65 34z" unicode="≈" glyph-name="approxequal"/>
<glyph horiz-adv-x="444" d="M405 163h-225l-76 -102l-58 41l46 61h-52v77h106l66 86h-172v77h225l75 102l59 -41l-46 -61h52v-77h-105l-66 -86h171v-77z" unicode="≠" glyph-name="notequal"/>
<glyph horiz-adv-x="381" d="M347 174l-313 183v61l313 182v-90l-216 -123l216 -123v-90zM347 -7l-313 182v87l313 -182v-87z" unicode="≤" glyph-name="lessequal"/>
<glyph horiz-adv-x="381" d="M347 357l-313 -183v90l216 123l-216 123v90l313 -182v-61zM347 175l-313 -182v87l313 182v-87z" unicode="≥" glyph-name="greaterequal"/>
<glyph horiz-adv-x="444" d="M292 213h-141v141h141v-141z" unicode="⋅" glyph-name="dotmath"/>
<glyph horiz-adv-x="497" d="M448 334l-200 -280l-199 280l199 280zM360 334l-112 159l-112 -159l112 -160z" unicode="◊" glyph-name="lozenge"/>
<glyph horiz-adv-x="431" d="M237 455h-80v-455h-81v455h-59v63h59v50c0 54 16 91 45 115c32 27 72 33 116 33v-73c-53 0 -80 -26 -80 -78v-47h80v-63zM374 0h-81v518h81v-518zM381 610h-95v94h95v-94z" unicode="ﬁ" glyph-name="fi"/>
<glyph horiz-adv-x="468" d="M237 455h-80v-455h-81v455h-59v63h59v50c0 54 16 91 45 115c32 27 72 33 116 33v-73c-53 0 -80 -26 -80 -78v-47h80v-63zM451 0c-44 0 -81 6 -112 32c-28 23 -46 59 -46 116v564h81v-561c0 -51 24 -78 77 -78v-73z" unicode="ﬂ" glyph-name="fl"/>
<glyph horiz-adv-x="195" d="M138 0h-81v518h81v-518zM145 610h-95v94h95v-94z" glyph-name="i.latn_TRK"/>
<glyph horiz-adv-x="361" d="M339 0h-275v712h86v-635h189v-77zM328 316h-81v82h81v-82z" glyph-name="Ldot.latn_CAT"/>
<glyph horiz-adv-x="245" d="M216 0c-44 0 -81 6 -112 32c-28 23 -46 59 -46 116v564h81v-561c0 -51 24 -78 77 -78v-73zM259 262h-81v82h81v-82z" glyph-name="ldot.latn_CAT"/>
<glyph horiz-adv-x="301" d="M259 377c0 -32 -11 -55 -30 -72c-17 -16 -50 -25 -79 -25c-28 0 -62 9 -79 25c-18 17 -29 40 -29 72v243c0 33 11 56 29 72c17 16 48 25 79 25c32 0 62 -9 80 -25s29 -39 29 -72v-243zM199 375v247c0 32 -20 46 -49 46c-28 0 -48 -14 -48 -46v-247c0 -32 21 -46 49 -46 s48 14 48 46z" glyph-name="zero.numr"/>
<glyph horiz-adv-x="300" d="M199 285h-60v364l-72 -47v61l72 49h60v-427z" glyph-name="one.numr"/>
<glyph horiz-adv-x="299" d="M261 285h-218v47l135 210c15 23 23 44 23 76c0 30 -21 50 -51 50c-33 0 -49 -20 -49 -56v-24h-61v22c0 38 9 61 30 80c20 17 48 27 80 27c33 0 56 -7 78 -24c20 -16 33 -43 33 -77c0 -32 -11 -65 -30 -95l-121 -187h151v-49z" glyph-name="two.numr"/>
<glyph horiz-adv-x="299" d="M263 402c0 -47 -4 -72 -31 -96c-19 -16 -49 -26 -80 -26c-33 0 -62 9 -82 27c-18 17 -28 38 -28 83v15h61v-16c0 -26 3 -38 13 -47c9 -8 21 -13 36 -13s28 5 35 13c10 11 16 26 16 63c0 39 -4 51 -13 63c-10 11 -22 16 -39 16h-26v47h26c15 0 25 4 34 12 c15 14 15 35 15 61c0 25 -3 42 -15 52c-8 8 -18 12 -33 12c-14 0 -27 -4 -35 -13c-9 -9 -12 -24 -12 -42v-19h-61v17c0 40 9 62 28 79c20 17 46 27 80 27c36 0 61 -10 78 -26c21 -20 31 -50 31 -86c0 -30 -4 -51 -17 -70c-9 -12 -20 -21 -35 -28c16 -6 29 -17 38 -30 c11 -17 16 -36 16 -75z" glyph-name="three.numr"/>
<glyph horiz-adv-x="300" d="M268 348h-32v-63h-60v63h-148v49l117 315h59l-115 -315h87v87h60v-87h32v-49z" glyph-name="four.numr"/>
<glyph horiz-adv-x="300" d="M260 424c0 -60 -5 -93 -33 -118c-18 -16 -47 -26 -76 -26s-56 8 -75 25c-19 16 -29 36 -29 71v21h66v-22c0 -31 17 -46 38 -46c17 0 28 5 34 13c11 12 15 31 15 82s-5 69 -15 81c-7 8 -16 12 -33 12c-22 0 -39 -15 -39 -40v-11h-63v246h203v-49h-143v-122 c7 7 16 14 26 20c9 5 23 8 36 8c31 0 49 -10 64 -26c17 -18 24 -45 24 -119z" glyph-name="five.numr"/>
<glyph horiz-adv-x="300" d="M253 414c0 -56 -7 -79 -23 -100c-18 -24 -48 -34 -83 -34c-37 0 -65 13 -81 34c-18 24 -23 49 -23 100c0 39 7 74 18 102l78 196h67l-73 -174c9 6 17 8 32 8c25 0 47 -8 63 -26c17 -20 25 -42 25 -106zM193 416c0 42 -4 65 -14 76c-6 6 -17 11 -31 11s-25 -5 -31 -11 c-11 -11 -14 -34 -14 -76s3 -65 14 -76c6 -6 17 -11 31 -11s25 5 31 11c10 11 14 34 14 76z" glyph-name="six.numr"/>
<glyph horiz-adv-x="300" d="M260 662l-104 -377h-62l104 378h-103v-65h-57v114h222v-50z" glyph-name="seven.numr"/>
<glyph horiz-adv-x="300" d="M254 406c0 -47 -4 -76 -31 -100c-18 -17 -45 -26 -74 -26c-28 0 -57 9 -74 26c-28 24 -31 53 -31 100c0 36 2 57 14 76c7 10 16 19 28 27c-11 7 -20 15 -26 26c-11 18 -13 37 -13 67c0 42 7 69 30 91c19 16 43 24 72 24c28 0 54 -8 72 -24c24 -22 30 -49 30 -91 c0 -30 -2 -49 -13 -67c-6 -11 -14 -19 -25 -26c12 -8 23 -17 29 -27c11 -19 12 -40 12 -76zM194 406c0 39 -3 56 -12 66c-8 7 -18 11 -33 11c-14 0 -25 -4 -33 -11c-10 -10 -12 -25 -12 -66s2 -55 12 -65c8 -8 19 -12 33 -12c15 0 25 4 33 12c9 10 12 24 12 65zM191 600 c0 37 -4 50 -12 58c-6 6 -16 10 -30 10c-13 0 -23 -4 -29 -10c-9 -8 -12 -21 -12 -58c0 -36 3 -49 12 -57c6 -7 16 -10 29 -10c14 0 24 3 30 10c8 8 12 21 12 57z" glyph-name="eight.numr"/>
<glyph horiz-adv-x="300" d="M254 583c0 -39 -7 -74 -18 -102l-78 -196h-67l73 174c-9 -6 -18 -8 -32 -8c-26 0 -48 8 -63 26c-18 20 -26 42 -26 106c0 56 8 79 23 100c19 24 49 34 83 34c37 0 66 -13 81 -34c18 -24 24 -49 24 -100zM194 581c0 42 -4 65 -15 76c-5 6 -16 11 -31 11 c-14 0 -24 -5 -30 -11c-11 -11 -15 -34 -15 -76s4 -65 15 -76c6 -6 16 -11 30 -11c15 0 26 5 31 11c11 11 15 34 15 76z" glyph-name="nine.numr"/>
<glyph horiz-adv-x="301" d="M259 92c0 -32 -11 -55 -30 -72c-17 -16 -50 -25 -79 -25c-28 0 -62 9 -79 25c-18 17 -29 40 -29 72v243c0 33 11 56 29 72c17 16 48 25 79 25c32 0 62 -9 80 -25s29 -39 29 -72v-243zM199 90v247c0 32 -20 46 -49 46c-28 0 -48 -14 -48 -46v-247c0 -32 21 -46 49 -46 s48 14 48 46z" glyph-name="zero.dnom"/>
<glyph horiz-adv-x="300" d="M199 0h-60v364l-72 -47v61l72 49h60v-427z" glyph-name="one.dnom"/>
<glyph horiz-adv-x="299" d="M261 0h-218v47l135 210c15 23 23 44 23 76c0 30 -21 50 -51 50c-33 0 -49 -20 -49 -56v-24h-61v22c0 38 9 61 30 80c20 17 48 27 80 27c33 0 56 -7 78 -24c20 -16 33 -43 33 -77c0 -32 -11 -65 -30 -95l-121 -187h151v-49z" glyph-name="two.dnom"/>
<glyph horiz-adv-x="299" d="M263 117c0 -47 -4 -72 -31 -96c-19 -16 -49 -26 -80 -26c-33 0 -62 9 -82 27c-18 17 -28 38 -28 83v15h61v-16c0 -26 3 -38 13 -47c9 -8 21 -13 36 -13s28 5 35 13c10 11 16 26 16 63c0 39 -4 51 -13 63c-10 11 -22 16 -39 16h-26v47h26c15 0 25 4 34 12 c15 14 15 35 15 61c0 25 -3 42 -15 52c-8 8 -18 12 -33 12c-14 0 -27 -4 -35 -13c-9 -9 -12 -24 -12 -42v-19h-61v17c0 40 9 62 28 79c20 17 46 27 80 27c36 0 61 -10 78 -26c21 -20 31 -50 31 -86c0 -30 -4 -51 -17 -70c-9 -12 -20 -21 -35 -28c16 -6 29 -17 38 -30 c11 -17 16 -36 16 -75z" glyph-name="three.dnom"/>
<glyph horiz-adv-x="300" d="M268 63h-32v-63h-60v63h-148v49l117 315h59l-115 -315h87v87h60v-87h32v-49z" glyph-name="four.dnom"/>
<glyph horiz-adv-x="300" d="M260 139c0 -60 -5 -93 -33 -118c-18 -16 -47 -26 -76 -26s-56 8 -75 25c-19 16 -29 36 -29 71v21h66v-22c0 -31 17 -46 38 -46c17 0 28 5 34 13c11 12 15 31 15 82s-5 69 -15 81c-7 8 -16 12 -33 12c-22 0 -39 -15 -39 -40v-11h-63v246h203v-49h-143v-122 c7 7 16 14 26 20c9 5 23 8 36 8c31 0 49 -10 64 -26c17 -18 24 -45 24 -119z" glyph-name="five.dnom"/>
<glyph horiz-adv-x="300" d="M253 129c0 -56 -7 -79 -23 -100c-18 -24 -48 -34 -83 -34c-37 0 -65 13 -81 34c-18 24 -23 49 -23 100c0 39 7 74 18 102l78 196h67l-73 -174c9 6 17 8 32 8c25 0 47 -8 63 -26c17 -20 25 -42 25 -106zM193 131c0 42 -4 65 -14 76c-6 6 -17 11 -31 11s-25 -5 -31 -11 c-11 -11 -14 -34 -14 -76s3 -65 14 -76c6 -6 17 -11 31 -11s25 5 31 11c10 11 14 34 14 76z" glyph-name="six.dnom"/>
<glyph horiz-adv-x="300" d="M260 377l-104 -377h-62l104 378h-103v-65h-57v114h222v-50z" glyph-name="seven.dnom"/>
<glyph horiz-adv-x="300" d="M254 121c0 -47 -4 -76 -31 -100c-18 -17 -45 -26 -74 -26c-28 0 -57 9 -74 26c-28 24 -31 53 -31 100c0 36 2 57 14 76c7 10 16 19 28 27c-11 7 -20 15 -26 26c-11 18 -13 37 -13 67c0 42 7 69 30 91c19 16 43 24 72 24c28 0 54 -8 72 -24c24 -22 30 -49 30 -91 c0 -30 -2 -49 -13 -67c-6 -11 -14 -19 -25 -26c12 -8 23 -17 29 -27c11 -19 12 -40 12 -76zM194 121c0 39 -3 56 -12 66c-8 7 -18 11 -33 11c-14 0 -25 -4 -33 -11c-10 -10 -12 -25 -12 -66s2 -55 12 -65c8 -8 19 -12 33 -12c15 0 25 4 33 12c9 10 12 24 12 65zM191 315 c0 37 -4 50 -12 58c-6 6 -16 10 -30 10c-13 0 -23 -4 -29 -10c-9 -8 -12 -21 -12 -58c0 -36 3 -49 12 -57c6 -7 16 -10 29 -10c14 0 24 3 30 10c8 8 12 21 12 57z" glyph-name="eight.dnom"/>
<glyph horiz-adv-x="300" d="M254 298c0 -39 -7 -74 -18 -102l-78 -196h-67l73 174c-9 -6 -18 -8 -32 -8c-26 0 -48 8 -63 26c-18 20 -26 42 -26 106c0 56 8 79 23 100c19 24 49 34 83 34c37 0 66 -13 81 -34c18 -24 24 -49 24 -100zM194 296c0 42 -4 65 -15 76c-5 6 -16 11 -31 11 c-14 0 -24 -5 -30 -11c-11 -11 -15 -34 -15 -76s4 -65 15 -76c6 -6 16 -11 30 -11c15 0 26 5 31 11c11 11 15 34 15 76z" glyph-name="nine.dnom"/>
<glyph horiz-adv-x="37" glyph-name="space.frac"/>
<glyph horiz-adv-x="369" d="M327 140c0 -54 -15 -85 -40 -110c-25 -24 -63 -38 -102 -38c-40 0 -78 14 -103 38c-25 25 -40 56 -40 110v314c0 54 15 85 40 110c25 24 63 38 103 38c39 0 77 -14 102 -38c25 -25 40 -56 40 -110v-314zM246 137v320c0 49 -27 72 -61 72c-35 0 -62 -23 -62 -72v-320 c0 -49 27 -72 62 -72c34 0 61 23 61 72z" glyph-name="zero.osf"/>
<glyph horiz-adv-x="311" d="M228 0h-81v499l-104 -85v94l104 86h81v-594z" glyph-name="one.osf"/>
<glyph horiz-adv-x="366" d="M328 0h-293v68l174 265c28 43 32 71 32 124c0 48 -26 72 -61 72c-34 0 -61 -23 -61 -72v-43h-81v41c0 52 14 84 40 109c25 24 63 38 102 38c40 0 75 -12 100 -36c25 -23 42 -58 42 -112c0 -63 -13 -105 -43 -150l-152 -231h201v-73z" glyph-name="two.osf"/>
<glyph horiz-adv-x="366" d="M323 82c0 -87 -4 -130 -44 -170c-24 -24 -63 -38 -102 -38s-78 13 -103 38c-25 24 -40 56 -40 110v45h81v-48c0 -48 28 -72 62 -72c19 0 34 8 44 19c17 21 21 58 21 120c0 70 -3 99 -21 121c-11 12 -25 19 -44 19h-38v70h38c17 0 30 5 39 15c17 19 20 51 20 102 s-4 81 -18 99c-10 11 -23 17 -41 17c-33 0 -57 -23 -57 -70v-50h-81v46c0 52 14 85 39 110c25 24 60 37 99 37c42 0 75 -13 99 -36c29 -29 41 -71 41 -148c0 -59 -4 -89 -18 -117c-9 -16 -24 -30 -40 -40c17 -11 31 -24 40 -39c20 -31 24 -61 24 -140z" glyph-name="three.osf"/>
<glyph horiz-adv-x="390" d="M360 30h-55v-153h-82v153h-193v73l182 526h79l-178 -526h110v163h82v-163h55v-73z" glyph-name="four.osf"/>
<glyph horiz-adv-x="374" d="M334 115c0 -103 -2 -157 -43 -200c-24 -26 -64 -41 -103 -41s-77 13 -102 37c-25 25 -41 57 -41 110v41h81v-48c0 -52 27 -75 62 -75c18 0 34 7 45 22c17 24 20 70 20 148s-3 118 -19 142c-11 16 -27 24 -46 24c-35 0 -62 -27 -62 -72v-24h-77v415h276v-73h-202v-221 c9 13 22 26 35 34c14 8 33 13 53 13c39 0 67 -14 89 -40c30 -37 34 -93 34 -192z" glyph-name="five.osf"/>
<glyph horiz-adv-x="369" d="M330 213c0 -101 -9 -140 -36 -173c-24 -33 -66 -48 -110 -48c-48 0 -86 18 -109 48c-29 38 -36 77 -36 173c0 72 10 129 29 179l120 320h83l-115 -297c14 11 32 17 51 17c35 0 66 -14 87 -41c26 -31 36 -64 36 -178zM249 214c0 62 -1 108 -20 131c-12 13 -27 19 -44 19 c-18 0 -34 -6 -45 -19c-18 -24 -20 -69 -20 -131s2 -107 20 -130c11 -13 27 -19 45 -19c17 0 33 6 44 19c19 23 20 68 20 130z" glyph-name="six.osf"/>
<glyph horiz-adv-x="364" d="M334 527l-190 -645h-81l189 639h-139v-105h-79v178h300v-67z" glyph-name="seven.osf"/>
<glyph d="M333 199c0 -88 -6 -130 -43 -168c-24 -25 -63 -39 -102 -39c-40 0 -78 14 -103 39c-37 38 -43 80 -43 168c0 79 5 108 23 137c10 16 24 29 41 40c-16 11 -30 25 -39 41c-15 28 -20 57 -20 116c0 77 10 118 42 150c25 25 59 37 98 37s75 -12 99 -37c32 -32 42 -73 42 -150 c0 -59 -5 -88 -20 -116c-9 -16 -23 -30 -39 -41c17 -11 31 -24 41 -40c18 -29 23 -58 23 -137zM252 202c0 77 -4 101 -21 121c-11 13 -25 19 -43 19s-33 -6 -44 -19c-17 -20 -21 -44 -21 -121c0 -70 5 -99 21 -118c10 -13 26 -19 44 -19s32 6 43 19c16 19 21 48 21 118z M247 529c0 67 -6 87 -21 103c-10 10 -23 15 -38 15c-16 0 -29 -5 -39 -15c-15 -16 -21 -36 -21 -103s6 -88 21 -104c10 -10 23 -14 39 -14c15 0 28 4 38 14c15 16 21 37 21 104z" glyph-name="eight.osf"/>
<glyph horiz-adv-x="369" d="M330 381c0 -72 -10 -129 -29 -179l-120 -320h-83l116 297c-15 -11 -33 -17 -51 -17c-36 0 -66 14 -88 41c-26 31 -36 64 -36 178c0 101 9 140 36 173c24 33 66 48 110 48c48 0 86 -18 109 -48c29 -38 36 -77 36 -173zM249 380c0 70 -2 109 -20 130c-11 12 -27 19 -44 19 c-18 0 -34 -6 -44 -19c-18 -21 -21 -60 -21 -130s3 -110 21 -131c10 -13 26 -19 44 -19c17 0 33 7 44 19c18 21 20 60 20 131z" glyph-name="nine.osf"/>
<glyph horiz-adv-x="381" d="M333 140c0 -54 -15 -85 -40 -110c-25 -24 -63 -38 -102 -38c-40 0 -78 14 -103 38c-25 25 -40 56 -40 110v432c0 54 15 85 40 110c25 24 63 38 103 38c39 0 77 -14 102 -38c25 -25 40 -56 40 -110v-432zM252 137v438c0 49 -27 72 -61 72c-35 0 -62 -23 -62 -72v-438 c0 -49 27 -72 62 -72c34 0 61 23 61 72z" glyph-name="zero.lf"/>
<glyph horiz-adv-x="285" d="M209 0h-81v617l-104 -85v94l104 86h81v-712z" glyph-name="one.lf"/>
<glyph horiz-adv-x="349" d="M319 0h-287v68l174 369c16 34 32 81 32 138c0 48 -27 72 -61 72c-35 0 -62 -23 -62 -72v-48h-81v46c0 52 15 84 40 109c25 24 64 38 103 38s75 -12 100 -36s42 -59 42 -113c0 -52 -18 -114 -40 -160l-160 -338h200v-73z" glyph-name="two.lf"/>
<glyph horiz-adv-x="356" d="M320 200c0 -93 -7 -135 -43 -170c-25 -24 -63 -38 -103 -38c-39 0 -78 13 -102 38c-26 24 -41 56 -41 110v45h81v-48c0 -48 28 -72 62 -72c17 0 32 5 43 19c15 17 22 43 22 116c0 87 -5 106 -21 125c-10 12 -25 19 -44 19h-38v70h38c17 0 31 5 39 15c16 18 20 42 20 102 s-5 83 -18 99c-10 11 -23 17 -41 17c-33 0 -57 -23 -57 -70v-50h-81v46c0 52 14 85 39 110c25 24 60 37 99 37c42 0 76 -13 99 -36c29 -29 41 -71 41 -148c0 -59 -3 -89 -18 -117c-9 -16 -23 -30 -40 -40c17 -11 31 -24 41 -39c19 -31 23 -61 23 -140z" glyph-name="three.lf"/>
<glyph horiz-adv-x="376" d="M347 117h-50v-117h-81v117h-193v73l182 522h78l-177 -522h110v163h81v-163h50v-73z" glyph-name="four.lf"/>
<glyph horiz-adv-x="374" d="M337 228c0 -101 -4 -149 -44 -194c-24 -27 -63 -42 -102 -42c-40 0 -78 13 -103 37c-25 25 -41 57 -41 111v40h81v-40c0 -52 28 -75 63 -75c17 0 32 6 44 21c15 20 20 47 20 142c0 88 -4 119 -19 141c-11 16 -27 24 -45 24c-35 0 -63 -27 -63 -72v-24h-77v415h277v-73 h-202v-221c8 13 20 24 35 33c16 10 34 14 52 14c41 0 68 -15 89 -41c26 -31 35 -74 35 -196z" glyph-name="five.lf"/>
<glyph horiz-adv-x="365" d="M328 213c0 -101 -9 -140 -35 -173c-25 -33 -67 -48 -111 -48c-48 0 -86 18 -109 48c-29 38 -36 77 -36 173c0 72 10 129 29 179l120 320h83l-115 -297c14 11 32 17 51 17c35 0 66 -14 87 -41c26 -31 36 -64 36 -178zM247 214c0 71 -3 109 -20 131c-10 13 -26 19 -44 19 s-34 -6 -44 -19c-18 -21 -21 -60 -21 -131s3 -109 21 -130c10 -13 26 -19 44 -19s33 7 44 19c18 21 20 59 20 130z" glyph-name="six.lf"/>
<glyph horiz-adv-x="355" d="M332 645l-177 -645h-83l178 639h-139v-105h-79v178h300v-67z" glyph-name="seven.lf"/>
<glyph horiz-adv-x="368" d="M330 199c0 -88 -7 -130 -44 -168c-24 -25 -63 -39 -102 -39s-78 14 -102 39c-37 38 -44 80 -44 168c0 79 6 108 24 137c9 16 23 29 41 40c-17 11 -31 25 -40 41c-14 28 -20 57 -20 116c0 79 11 118 43 150c24 25 58 37 98 37c39 0 74 -12 100 -39c32 -34 41 -71 41 -148 c0 -59 -6 -88 -21 -116c-9 -16 -22 -30 -39 -41c18 -11 32 -24 41 -40c18 -29 24 -58 24 -137zM248 202c0 68 -2 99 -20 121c-12 13 -27 19 -44 19s-33 -6 -44 -19c-18 -22 -20 -53 -20 -121c0 -61 3 -97 20 -118c11 -13 27 -19 44 -19s33 6 44 19c17 21 20 57 20 118z M243 530c0 49 -3 83 -19 101c-10 11 -24 16 -40 16s-30 -5 -40 -16c-16 -18 -19 -52 -19 -101c0 -50 2 -86 21 -105c10 -10 22 -14 38 -14c15 0 29 4 38 14c19 19 21 55 21 105z" glyph-name="eight.lf"/>
<glyph horiz-adv-x="365" d="M328 499c0 -72 -10 -129 -29 -179l-120 -320h-83l115 297c-14 -11 -32 -17 -51 -17c-35 0 -66 14 -87 41c-26 31 -36 64 -36 178c0 101 9 140 35 173c25 33 67 48 111 48c48 0 86 -18 109 -48c29 -38 36 -77 36 -173zM247 498c0 62 -2 107 -21 130c-10 13 -26 19 -44 19 c-17 0 -33 -6 -44 -19c-19 -23 -20 -68 -20 -130s1 -108 20 -131c12 -13 27 -19 44 -19c18 0 34 7 44 19c19 24 21 69 21 131z" glyph-name="nine.lf"/>
<glyph horiz-adv-x="381" d="M333 140c0 -54 -15 -85 -40 -110c-25 -24 -63 -38 -102 -38c-40 0 -78 14 -103 38c-25 25 -40 56 -40 110v314c0 54 15 85 40 110c25 24 63 38 103 38c39 0 77 -14 102 -38c25 -25 40 -56 40 -110v-314zM252 137v320c0 49 -27 72 -61 72c-35 0 -62 -23 -62 -72v-320 c0 -49 27 -72 62 -72c34 0 61 23 61 72z" glyph-name="zero.tosf"/>
<glyph horiz-adv-x="381" d="M253 0h-81v501l-104 -87v93l104 87h81v-594z" glyph-name="one.tosf"/>
<glyph horiz-adv-x="381" d="M336 0h-293v68l174 265c28 43 32 71 32 124c0 48 -26 72 -61 72c-34 0 -61 -23 -61 -72v-43h-81v41c0 52 14 84 40 109c25 24 63 38 102 38c40 0 75 -12 100 -36c25 -23 42 -58 42 -112c0 -63 -13 -105 -43 -150l-152 -231h201v-73z" glyph-name="two.tosf"/>
<glyph horiz-adv-x="381" d="M328 82c0 -87 -4 -130 -44 -170c-24 -24 -63 -38 -102 -38s-78 13 -103 38c-25 24 -40 56 -40 110v45h81v-48c0 -48 28 -72 62 -72c19 0 34 8 44 19c17 21 21 58 21 120c0 70 -3 99 -21 121c-11 12 -25 19 -44 19h-38v70h38c17 0 30 5 39 15c17 19 20 51 20 102 s-4 81 -18 99c-10 11 -23 17 -41 17c-33 0 -57 -23 -57 -70v-50h-81v46c0 52 14 85 39 110c25 24 60 37 99 37c42 0 75 -13 99 -36c29 -29 41 -71 41 -148c0 -59 -4 -89 -18 -117c-9 -16 -24 -30 -40 -40c17 -11 31 -24 40 -39c20 -31 24 -61 24 -140z" glyph-name="three.tosf"/>
<glyph horiz-adv-x="382" d="M355 30h-55v-153h-81v153h-193v73l182 526h79l-178 -526h110v163h81v-163h55v-73z" glyph-name="four.tosf"/>
<glyph horiz-adv-x="381" d="M337 115c0 -103 -3 -157 -44 -200c-24 -26 -63 -41 -102 -41s-77 13 -102 37c-25 25 -41 57 -41 110v41h81v-48c0 -52 27 -75 62 -75c18 0 34 7 45 22c17 24 20 70 20 148s-3 118 -19 142c-11 16 -28 24 -46 24c-35 0 -62 -27 -62 -72v-24h-77v415h276v-73h-202v-221 c9 13 22 26 35 34c14 8 33 13 53 13c39 0 66 -14 88 -40c30 -37 35 -93 35 -192z" glyph-name="five.tosf"/>
<glyph horiz-adv-x="381" d="M336 213c0 -101 -9 -140 -36 -173c-24 -33 -66 -48 -110 -48c-48 0 -86 18 -109 48c-29 38 -36 77 -36 173c0 72 10 129 29 179l120 320h83l-115 -297c14 11 32 17 51 17c35 0 66 -14 87 -41c26 -31 36 -64 36 -178zM255 214c0 62 -1 108 -20 131c-12 13 -27 19 -44 19 c-18 0 -34 -6 -45 -19c-18 -24 -20 -69 -20 -131s2 -107 20 -130c11 -13 27 -19 45 -19c17 0 33 6 44 19c19 23 20 68 20 130z" glyph-name="six.tosf"/>
<glyph horiz-adv-x="381" d="M345 527l-190 -645h-80l188 639h-144v-105h-79v178h305v-67z" glyph-name="seven.tosf"/>
<glyph horiz-adv-x="381" d="M336 199c0 -88 -6 -130 -43 -168c-24 -25 -63 -39 -102 -39c-40 0 -78 14 -103 39c-37 38 -43 80 -43 168c0 79 5 108 23 137c10 16 24 29 41 40c-16 11 -30 25 -39 41c-15 28 -20 57 -20 116c0 77 10 118 42 150c25 25 59 37 98 37s75 -12 99 -37c32 -32 42 -73 42 -150 c0 -59 -5 -88 -20 -116c-9 -16 -23 -30 -39 -41c17 -11 31 -24 41 -40c18 -29 23 -58 23 -137zM255 202c0 77 -4 101 -21 121c-11 13 -25 19 -43 19s-33 -6 -44 -19c-17 -20 -21 -44 -21 -121c0 -70 5 -99 21 -118c10 -13 26 -19 44 -19s32 6 43 19c16 19 21 48 21 118z M250 529c0 67 -6 87 -21 103c-10 10 -23 15 -38 15c-16 0 -29 -5 -39 -15c-15 -16 -21 -36 -21 -103s6 -88 21 -104c10 -10 23 -14 39 -14c15 0 28 4 38 14c15 16 21 37 21 104z" glyph-name="eight.tosf"/>
<glyph horiz-adv-x="381" d="M336 381c0 -72 -10 -129 -29 -179l-120 -320h-83l116 297c-15 -11 -33 -17 -51 -17c-36 0 -66 14 -88 41c-26 31 -36 64 -36 178c0 101 9 140 36 173c24 33 66 48 110 48c48 0 86 -18 109 -48c29 -38 36 -77 36 -173zM255 380c0 70 -2 109 -20 130c-11 12 -27 19 -44 19 c-18 0 -34 -6 -44 -19c-18 -21 -21 -60 -21 -130s3 -110 21 -131c10 -13 26 -19 44 -19c17 0 33 7 44 19c18 21 20 60 20 131z" glyph-name="nine.tosf"/>
<glyph horiz-adv-x="381" glyph-name="uni2007.tosf"/>
<glyph horiz-adv-x="298" d="M247 317h-196v77h196v-77z" glyph-name="hyphen.case"/>
<glyph horiz-adv-x="242" d="M149 0h-81v518h81v-518zM158 613h-99v99h99v-99z" glyph-name="exclamdown.case"/>
<glyph horiz-adv-x="392" d="M174 126l-148 230l148 229v-127l-68 -102l68 -103v-127zM341 126l-148 230l148 229v-127l-69 -102l69 -103v-127z" glyph-name="guillemotleft.case"/>
<glyph horiz-adv-x="298" d="M247 317h-196v77h196v-77z" glyph-name="uni00AD.case"/>
<glyph horiz-adv-x="392" d="M366 356l-148 -230v127l68 103l-68 102v127zM199 356l-148 -230v127l69 103l-69 102v127z" glyph-name="guillemotright.case"/>
<glyph horiz-adv-x="400" d="M344 168c0 -55 -11 -101 -43 -132c-26 -25 -62 -42 -109 -42s-83 14 -110 41c-31 31 -44 70 -44 142c0 51 7 84 31 119l59 85c15 22 22 45 22 70v68h81v-78c0 -31 -12 -60 -28 -84l-58 -85c-22 -32 -26 -57 -26 -97c0 -44 7 -69 24 -88c12 -13 27 -20 49 -20 c21 0 36 7 48 19c20 21 23 53 23 82h81zM240 613h-99v99h99v-99z" glyph-name="questiondown.case"/>
<glyph horiz-adv-x="444" d="M398 317h-352v78h352v-78z" glyph-name="endash.case"/>
<glyph horiz-adv-x="691" d="M640 317h-589v78h589v-78z" glyph-name="emdash.case"/>
<glyph horiz-adv-x="691" d="M640 317h-589v78h589v-78z" glyph-name="afii00208.case"/>
<glyph horiz-adv-x="225" d="M175 126l-149 230l149 229v-127l-68 -102l68 -103v-127z" glyph-name="guilsinglleft.case"/>
<glyph horiz-adv-x="225" d="M199 356l-148 -230v127l68 103l-68 102v127z" glyph-name="guilsinglright.case"/>
<glyph horiz-adv-x="500" d="M454 611l-66 -49v173h66v-124z" glyph-name="caroncomma.ss01"/>
<glyph d="M237 -123c0 -53 -39 -93 -100 -93v50c26 0 44 19 44 43s-18 43 -44 43v49c61 0 100 -40 100 -92z" glyph-name="commaaccent.ss01"/>
<glyph d="M239 567c-61 0 -100 40 -100 93c0 52 39 92 100 92v-49c-26 0 -44 -20 -44 -43c0 -24 18 -44 44 -44v-49z" glyph-name="commaturn.ss01"/>
<glyph horiz-adv-x="242" d="M174 193h-81v519h81v-519zM191 54c0 -32 -26 -58 -57 -58c-32 0 -58 26 -58 58c0 31 26 57 58 57c31 0 57 -26 57 -57z" glyph-name="exclam.ss01"/>
<glyph horiz-adv-x="217" d="M166 54c0 -32 -26 -57 -58 -57c-31 0 -57 25 -57 57s26 58 57 58c32 0 58 -26 58 -58z" glyph-name="period.ss01"/>
<glyph horiz-adv-x="242" d="M191 362c0 -32 -26 -58 -57 -58c-32 0 -58 26 -58 58c0 31 26 57 58 57c31 0 57 -26 57 -57zM191 54c0 -32 -26 -58 -57 -58c-32 0 -58 26 -58 58c0 31 26 57 58 57c31 0 57 -26 57 -57z" glyph-name="colon.ss01"/>
<glyph horiz-adv-x="242" d="M180 -56l-92 -69v226h92v-157zM191 362c0 -32 -26 -58 -57 -58c-32 0 -58 26 -58 58c0 31 26 57 58 57c31 0 57 -26 57 -57z" glyph-name="semicolon.ss01"/>
<glyph horiz-adv-x="400" d="M362 535c0 -51 -7 -84 -31 -119l-59 -85c-15 -22 -22 -45 -22 -70v-68h-81v78c0 31 12 60 28 84l58 85c22 32 26 57 26 97c0 44 -6 69 -23 88c-12 13 -28 20 -50 20c-21 0 -36 -7 -48 -19c-20 -21 -22 -53 -22 -82h-81c0 55 11 101 43 132c26 25 61 42 108 42 s83 -14 110 -41c31 -31 44 -70 44 -142zM267 53c0 -32 -25 -57 -57 -57s-58 25 -58 57s26 58 58 58s57 -26 57 -58z" glyph-name="question.ss01"/>
<glyph horiz-adv-x="775" d="M352 105c58 0 79 99 89 148c7 34 13 78 13 93c0 26 -6 67 -40 67c-21 0 -34 -11 -46 -27c-30 -41 -55 -166 -55 -217c0 -26 6 -64 39 -64zM721 364c0 -167 -96 -326 -258 -326h-60l10 48c-26 -33 -55 -54 -88 -54c-69 0 -94 56 -94 124c0 26 5 70 12 104 c20 97 42 152 71 184c28 32 58 42 87 42c40 0 66 -24 77 -54l10 49h80l-77 -383c95 5 165 124 165 265c0 164 -87 273 -218 273c-174 0 -305 -205 -305 -421c0 -209 104 -339 268 -339h50l-12 -59h-50c-197 0 -324 161 -324 399c0 263 169 480 375 480 c168 0 281 -135 281 -332z" glyph-name="at.ss01"/>
<glyph horiz-adv-x="195" d="M138 0h-81v518h81v-518zM152 660c0 -30 -25 -54 -54 -54c-30 0 -54 24 -54 54s24 54 54 54c29 0 54 -24 54 -54z" glyph-name="i.ss01"/>
<glyph horiz-adv-x="195" d="M138 -46c0 -57 -18 -92 -46 -115c-31 -27 -69 -33 -113 -33v73c50 0 78 20 78 78v561h81v-564zM152 660c0 -30 -25 -54 -54 -54c-30 0 -54 24 -54 54s24 54 54 54c29 0 54 -24 54 -54z" glyph-name="j.ss01"/>
<glyph horiz-adv-x="242" d="M149 -194h-81v519h81v-519zM166 465c0 -32 -26 -58 -58 -58c-31 0 -57 26 -57 58c0 31 26 57 57 57c32 0 58 -26 58 -57z" glyph-name="exclamdown.ss01"/>
<glyph horiz-adv-x="377" d="M312 642c0 -26 -21 -47 -47 -47c-25 0 -46 21 -46 47c0 25 21 46 46 46c26 0 47 -21 47 -46zM158 642c0 -26 -21 -47 -47 -47c-25 0 -46 21 -46 47c0 25 21 46 46 46c26 0 47 -21 47 -46z" glyph-name="dieresis.ss01"/>
<glyph horiz-adv-x="258" d="M200 303c0 -38 -32 -71 -71 -71s-71 33 -71 71c0 39 32 72 71 72s71 -33 71 -72z" glyph-name="periodcentered.ss01"/>
<glyph d="M237 -123c0 -53 -39 -93 -100 -93v50c26 0 44 19 44 43s-18 43 -44 43v49c61 0 100 -40 100 -92z" glyph-name="cedilla.ss01"/>
<glyph horiz-adv-x="400" d="M344 -26c0 -55 -11 -101 -43 -132c-26 -25 -62 -42 -109 -42s-83 14 -110 41c-31 31 -44 70 -44 142c0 51 7 84 31 119l59 85c15 22 22 45 22 70v68h81v-78c0 -31 -12 -60 -28 -84l-58 -85c-22 -32 -26 -57 -26 -97c0 -44 7 -69 24 -88c12 -13 27 -20 49 -20 c21 0 36 7 48 19c20 21 23 53 23 82h81zM248 465c0 -32 -25 -58 -57 -58s-58 26 -58 58s26 57 58 57s57 -25 57 -57z" glyph-name="questiondown.ss01"/>
<glyph horiz-adv-x="424" d="M419 0h-91l-34 168h-165l-34 -168h-90l166 712h83zM278 245l-66 328l-67 -328h133zM183 817c0 -25 -20 -46 -46 -46s-46 21 -46 46c0 26 20 46 46 46s46 -20 46 -46zM337 817c0 -25 -20 -46 -46 -46s-46 21 -46 46c0 26 20 46 46 46s46 -20 46 -46z" glyph-name="Adieresis.ss01"/>
<glyph horiz-adv-x="423" d="M385 176c-1 -60 -19 -113 -54 -145c-28 -25 -63 -39 -110 -39c-56 0 -95 21 -122 52c-47 54 -52 115 -52 312s5 258 52 312c27 31 66 52 122 52c50 0 85 -15 113 -42c33 -32 50 -83 51 -141h-85c-1 30 -6 60 -23 81c-11 14 -29 25 -56 25c-28 0 -47 -11 -59 -27 c-25 -34 -29 -91 -29 -260s4 -226 29 -260c12 -16 31 -27 59 -27c27 0 45 11 56 25c16 21 22 52 23 82h85zM269 -123c0 -53 -39 -93 -100 -93v50c26 0 44 19 44 43s-18 43 -44 43v49c61 0 100 -40 100 -92z" glyph-name="Ccedilla.ss01"/>
<glyph horiz-adv-x="380" d="M339 0h-275v712h275v-77h-189v-239h163v-77h-163v-242h189v-77zM174 817c0 -25 -20 -46 -46 -46s-46 21 -46 46c0 26 20 46 46 46s46 -20 46 -46zM328 817c0 -25 -20 -46 -46 -46s-46 21 -46 46c0 26 20 46 46 46s46 -20 46 -46z" glyph-name="Edieresis.ss01"/>
<glyph horiz-adv-x="215" d="M150 0h-86v712h86v-712zM77 817c0 -25 -20 -46 -46 -46s-46 21 -46 46c0 26 20 46 46 46s46 -20 46 -46zM231 817c0 -25 -20 -46 -46 -46s-46 21 -46 46c0 26 20 46 46 46s46 -20 46 -46z" glyph-name="Idieresis.ss01"/>
<glyph horiz-adv-x="442" d="M395 356c0 -197 -6 -261 -52 -312c-28 -31 -66 -52 -122 -52s-94 21 -122 52c-46 51 -52 115 -52 312s6 261 52 312c28 31 66 52 122 52s94 -21 122 -52c46 -51 52 -115 52 -312zM309 356c0 169 -5 226 -30 260c-12 16 -30 27 -58 27s-47 -11 -59 -27 c-25 -34 -29 -91 -29 -260s4 -226 29 -260c12 -16 31 -27 59 -27s46 11 58 27c25 34 30 91 30 260zM190 817c0 -25 -20 -46 -46 -46s-46 21 -46 46c0 26 20 46 46 46s46 -20 46 -46zM344 817c0 -25 -20 -46 -46 -46s-46 21 -46 46c0 26 20 46 46 46s46 -20 46 -46z" glyph-name="Odieresis.ss01"/>
<glyph horiz-adv-x="445" d="M387 162c0 -52 -17 -94 -46 -123c-31 -31 -73 -47 -119 -47s-87 16 -118 47c-29 29 -46 71 -46 123v550h86v-555c0 -56 35 -88 78 -88s79 32 79 88v555h86v-550zM191 817c0 -25 -20 -46 -46 -46s-46 21 -46 46c0 26 20 46 46 46s46 -20 46 -46zM345 817 c0 -25 -20 -46 -46 -46s-46 21 -46 46c0 26 20 46 46 46s46 -20 46 -46z" glyph-name="Udieresis.ss01"/>
<glyph d="M322 0h-77v46c-8 -14 -20 -27 -30 -35c-16 -12 -33 -19 -61 -19c-38 0 -65 12 -89 39c-20 23 -33 62 -33 116c0 48 16 90 46 117c26 23 56 35 110 35h53v82c0 48 -21 74 -61 74c-18 0 -30 -7 -40 -17c-14 -15 -19 -32 -19 -60h-81c0 40 9 79 40 110c23 23 60 38 100 38 c42 0 77 -12 101 -36c25 -26 41 -61 41 -114v-376zM241 144v96h-46c-25 0 -42 -4 -58 -19c-15 -14 -24 -43 -24 -71c0 -54 21 -87 63 -87c39 0 65 33 65 81zM307 642c0 -26 -21 -47 -47 -47c-25 0 -46 21 -46 47c0 25 21 46 46 46c26 0 47 -21 47 -46zM153 642 c0 -26 -21 -47 -46 -47c-26 0 -47 21 -47 47c0 25 21 46 47 46c25 0 46 -21 46 -46z" glyph-name="adieresis.ss01"/>
<glyph horiz-adv-x="362" d="M330 145c-2 -49 -14 -89 -41 -117c-25 -25 -60 -36 -102 -36c-44 0 -83 13 -109 48c-32 41 -38 115 -38 219c0 105 6 178 38 219c26 35 65 48 109 48c42 0 74 -9 101 -35c32 -30 40 -73 42 -117h-81c0 21 -2 43 -16 60c-11 13 -25 19 -45 19c-19 0 -36 -8 -46 -22 c-19 -25 -20 -78 -20 -172c0 -93 1 -146 20 -172c10 -14 27 -22 46 -22c18 0 34 7 44 19c14 16 17 37 17 61h81zM237 -123c0 -53 -39 -93 -100 -93v50c26 0 44 19 44 43s-18 43 -44 43v49c61 0 100 -40 100 -92z" glyph-name="ccedilla.ss01"/>
<glyph horiz-adv-x="372" d="M335 240h-213c0 -82 3 -130 21 -153c9 -13 25 -22 46 -22c18 0 33 5 46 20s17 35 17 60h81c-1 -48 -13 -84 -42 -115c-25 -26 -60 -38 -102 -38c-44 0 -76 11 -103 40c-39 41 -46 119 -46 227c0 109 7 186 45 227c27 29 60 40 102 40s75 -11 102 -40 c39 -41 46 -118 46 -246zM253 301c0 75 -4 112 -20 131c-10 13 -24 21 -46 21s-35 -8 -45 -21c-16 -19 -20 -56 -20 -131h131zM311 642c0 -26 -21 -47 -47 -47c-25 0 -46 21 -46 47c0 25 21 46 46 46c26 0 47 -21 47 -46zM157 642c0 -26 -21 -47 -46 -47 c-26 0 -47 21 -47 47c0 25 21 46 47 46c25 0 46 -21 46 -46z" glyph-name="edieresis.ss01"/>
<glyph horiz-adv-x="195" d="M138 0h-81v518h81v-518zM221 642c0 -26 -21 -47 -47 -47c-25 0 -46 21 -46 47c0 25 21 46 46 46c26 0 47 -21 47 -46zM67 642c0 -26 -21 -47 -46 -47c-26 0 -47 21 -47 47c0 25 21 46 47 46c25 0 46 -21 46 -46z" glyph-name="idieresis.ss01"/>
<glyph d="M334 259c0 -105 -5 -178 -37 -219c-26 -35 -64 -48 -110 -48s-83 13 -109 48c-32 41 -38 114 -38 219s6 178 38 219c26 35 63 48 109 48s84 -13 110 -48c32 -41 37 -114 37 -219zM253 259c0 93 -1 146 -20 172c-10 14 -27 22 -46 22s-35 -8 -45 -22 c-19 -26 -21 -79 -21 -172s2 -146 21 -172c10 -14 26 -22 45 -22s36 8 46 22c19 26 20 79 20 172zM311 642c0 -26 -21 -47 -47 -47c-25 0 -46 21 -46 47c0 25 21 46 46 46c26 0 47 -21 47 -46zM157 642c0 -26 -21 -47 -46 -47c-26 0 -47 21 -47 47c0 25 21 46 47 46 c25 0 46 -21 46 -46z" glyph-name="odieresis.ss01"/>
<glyph horiz-adv-x="444" d="M398 238h-352v78h352v-78zM280 112c0 -32 -27 -58 -58 -58s-57 26 -57 58c0 31 26 57 57 57s58 -26 58 -57zM280 442c0 -31 -27 -57 -58 -57s-57 26 -57 57c0 32 26 58 57 58s58 -26 58 -58z" glyph-name="divide.ss01"/>
<glyph horiz-adv-x="395" d="M338 0h-78v40c-7 -12 -21 -25 -32 -32c-16 -10 -35 -16 -56 -16c-39 0 -66 13 -88 38c-21 23 -31 51 -31 107v381h81v-381c0 -48 28 -72 62 -72s61 24 61 72v381h81v-518zM318 642c0 -26 -21 -47 -47 -47c-25 0 -46 21 -46 47c0 25 21 46 46 46c26 0 47 -21 47 -46z M164 642c0 -26 -21 -47 -46 -47c-26 0 -47 21 -47 47c0 25 21 46 47 46c25 0 46 -21 46 -46z" glyph-name="udieresis.ss01"/>
<glyph horiz-adv-x="345" d="M339 518l-146 -601c-22 -93 -86 -111 -172 -111v72c50 0 81 13 93 60l16 63l-126 517h89l79 -389l78 389h89zM299 642c0 -26 -21 -47 -47 -47c-25 0 -46 21 -46 47c0 25 21 46 46 46c26 0 47 -21 47 -46zM145 642c0 -26 -21 -47 -46 -47c-26 0 -47 21 -47 47 c0 25 21 46 47 46c25 0 46 -21 46 -46z" glyph-name="ydieresis.ss01"/>
<glyph horiz-adv-x="424" d="M419 0h-91l-34 168h-165l-34 -168h-90l166 712h83zM278 245l-66 328l-67 -328h133zM409 -216c-61 0 -100 40 -100 93c0 52 39 92 100 92v-49c-26 0 -45 -19 -45 -43s19 -43 45 -43v-50z" glyph-name="Aogonek.ss01"/>
<glyph d="M322 0h-77v46c-8 -14 -20 -27 -30 -35c-16 -12 -33 -19 -61 -19c-38 0 -65 12 -89 39c-20 23 -33 62 -33 116c0 48 16 90 46 117c26 23 56 35 110 35h53v82c0 48 -21 74 -61 74c-18 0 -30 -7 -40 -17c-14 -15 -19 -32 -19 -60h-81c0 40 9 79 40 110c23 23 60 38 100 38 c42 0 77 -12 101 -36c25 -26 41 -61 41 -114v-376zM241 144v96h-46c-25 0 -42 -4 -58 -19c-15 -14 -24 -43 -24 -71c0 -54 21 -87 63 -87c39 0 65 33 65 81zM313 -216c-61 0 -100 40 -100 93c0 52 39 92 100 92v-49c-26 0 -45 -19 -45 -43s19 -43 45 -43v-50z" glyph-name="aogonek.ss01"/>
<glyph horiz-adv-x="423" d="M385 176c-1 -60 -19 -113 -54 -145c-28 -25 -63 -39 -110 -39c-56 0 -95 21 -122 52c-47 54 -52 115 -52 312s5 258 52 312c27 31 66 52 122 52c50 0 85 -15 113 -42c33 -32 50 -83 51 -141h-85c-1 30 -6 60 -23 81c-11 14 -29 25 -56 25c-28 0 -47 -11 -59 -27 c-25 -34 -29 -91 -29 -260s4 -226 29 -260c12 -16 31 -27 59 -27c27 0 45 11 56 25c16 21 22 52 23 82h85zM267 814c0 -25 -20 -46 -46 -46s-46 21 -46 46c0 26 20 47 46 47s46 -21 46 -47z" glyph-name="Cdotaccent.ss01"/>
<glyph horiz-adv-x="362" d="M330 145c-2 -49 -14 -89 -41 -117c-25 -25 -60 -36 -102 -36c-44 0 -83 13 -109 48c-32 41 -38 115 -38 219c0 105 6 178 38 219c26 35 65 48 109 48c42 0 74 -9 101 -35c32 -30 40 -73 42 -117h-81c0 21 -2 43 -16 60c-11 13 -25 19 -45 19c-19 0 -36 -8 -46 -22 c-19 -25 -20 -78 -20 -172c0 -93 1 -146 20 -172c10 -14 27 -22 46 -22c18 0 34 7 44 19c14 16 17 37 17 61h81zM234 642c0 -26 -21 -47 -47 -47c-25 0 -46 21 -46 47c0 25 21 46 46 46c26 0 47 -21 47 -46z" glyph-name="cdotaccent.ss01"/>
<glyph horiz-adv-x="387" d="M330 0h-79v40c-5 -10 -22 -27 -31 -32c-17 -10 -36 -16 -56 -16c-36 0 -63 12 -86 39c-33 38 -38 108 -38 228s5 190 38 229c21 25 48 38 86 38c21 0 39 -5 56 -15c10 -6 21 -18 29 -29v230h81v-712zM249 141v237c0 28 -7 46 -20 59c-11 11 -25 16 -42 16 c-19 0 -34 -8 -44 -21c-18 -22 -21 -66 -21 -173s3 -151 21 -173c10 -13 25 -21 44 -21c17 0 31 5 42 16c13 13 20 32 20 60zM453 610l-66 -49v173h66v-124z" glyph-name="dcaron.ss01"/>
<glyph horiz-adv-x="380" d="M339 0h-275v712h275v-77h-189v-239h163v-77h-163v-242h189v-77zM239 814c0 -25 -20 -46 -46 -46s-46 21 -46 46c0 26 20 47 46 47s46 -21 46 -47z" glyph-name="Edotaccent.ss01"/>
<glyph horiz-adv-x="372" d="M335 240h-213c0 -82 3 -130 21 -153c9 -13 25 -22 46 -22c18 0 33 5 46 20s17 35 17 60h81c-1 -48 -13 -84 -42 -115c-25 -26 -60 -38 -102 -38c-44 0 -76 11 -103 40c-39 41 -46 119 -46 227c0 109 7 186 45 227c27 29 60 40 102 40s75 -11 102 -40 c39 -41 46 -118 46 -246zM253 301c0 75 -4 112 -20 131c-10 13 -24 21 -46 21s-35 -8 -45 -21c-16 -19 -20 -56 -20 -131h131zM234 642c0 -26 -21 -47 -47 -47c-25 0 -46 21 -46 47c0 25 21 46 46 46c26 0 47 -21 47 -46z" glyph-name="edotaccent.ss01"/>
<glyph horiz-adv-x="380" d="M339 0h-275v712h275v-77h-189v-239h163v-77h-163v-242h189v-77zM330 -216c-61 0 -100 40 -100 93c0 52 39 92 100 92v-49c-26 0 -45 -19 -45 -43s19 -43 45 -43v-50z" glyph-name="Eogonek.ss01"/>
<glyph horiz-adv-x="372" d="M335 240h-213c0 -82 3 -130 21 -153c9 -13 25 -22 46 -22c18 0 33 5 46 20s17 35 17 60h81c-1 -48 -13 -84 -42 -115c-25 -26 -60 -38 -102 -38c-44 0 -76 11 -103 40c-39 41 -46 119 -46 227c0 109 7 186 45 227c27 29 60 40 102 40s75 -11 102 -40 c39 -41 46 -118 46 -246zM253 301c0 75 -4 112 -20 131c-10 13 -24 21 -46 21s-35 -8 -45 -21c-16 -19 -20 -56 -20 -131h131zM289 -216c-61 0 -100 40 -100 93c0 52 39 92 100 92v-49c-26 0 -45 -19 -45 -43s19 -43 45 -43v-50z" glyph-name="eogonek.ss01"/>
<glyph horiz-adv-x="434" d="M386 171c-1 -119 -72 -179 -165 -179c-56 0 -95 22 -122 52c-46 51 -52 115 -52 312s6 261 52 312c27 30 66 52 122 52c50 0 88 -17 115 -44c33 -33 48 -83 49 -140h-85c-1 48 -13 107 -79 107c-28 0 -47 -11 -59 -27c-25 -34 -29 -91 -29 -260s4 -226 29 -260 c12 -16 31 -27 59 -27c50 0 79 41 79 99v143h-79v71h165v-211zM267 814c0 -25 -20 -46 -46 -46s-46 21 -46 46c0 26 20 47 46 47s46 -21 46 -47z" glyph-name="Gdotaccent.ss01"/>
<glyph horiz-adv-x="387" d="M330 518v-530c0 -77 -13 -115 -42 -145c-24 -25 -62 -40 -102 -40s-78 12 -104 37c-29 29 -39 67 -39 112h81c0 -25 3 -46 17 -62c11 -11 27 -17 44 -17c19 0 34 8 44 19c15 16 20 43 20 91v79c-8 -11 -18 -22 -29 -29c-15 -11 -33 -16 -54 -16c-35 0 -63 12 -85 38 c-33 37 -41 95 -41 217s8 179 41 217c22 25 49 37 85 37c22 0 40 -5 56 -16c11 -7 22 -18 29 -28v36h79zM249 164v214c0 28 -7 46 -20 59c-11 11 -25 16 -42 16c-19 0 -34 -8 -44 -21c-18 -22 -21 -62 -21 -161s3 -139 21 -162c10 -12 25 -21 44 -21c17 0 31 6 42 17 c13 13 20 31 20 59zM234 642c0 -26 -21 -47 -47 -47c-25 0 -46 21 -46 47c0 25 21 46 46 46c26 0 47 -21 47 -46z" glyph-name="gdotaccent.ss01"/>
<glyph horiz-adv-x="434" d="M386 171c-1 -119 -72 -179 -165 -179c-56 0 -95 22 -122 52c-46 51 -52 115 -52 312s6 261 52 312c27 30 66 52 122 52c50 0 88 -17 115 -44c33 -33 48 -83 49 -140h-85c-1 48 -13 107 -79 107c-28 0 -47 -11 -59 -27c-25 -34 -29 -91 -29 -260s4 -226 29 -260 c12 -16 31 -27 59 -27c50 0 79 41 79 99v143h-79v71h165v-211zM268 -123c0 -53 -39 -93 -100 -93v50c26 0 44 19 44 43s-18 43 -44 43v49c61 0 100 -40 100 -92z" glyph-name="Gcommaaccent.ss01"/>
<glyph horiz-adv-x="387" d="M330 518v-530c0 -77 -13 -115 -42 -145c-24 -25 -62 -40 -102 -40s-78 12 -104 37c-29 29 -39 67 -39 112h81c0 -25 3 -46 17 -62c11 -11 27 -17 44 -17c19 0 34 8 44 19c15 16 20 43 20 91v79c-8 -11 -18 -22 -29 -29c-15 -11 -33 -16 -54 -16c-35 0 -63 12 -85 38 c-33 37 -41 95 -41 217s8 179 41 217c22 25 49 37 85 37c22 0 40 -5 56 -16c11 -7 22 -18 29 -28v36h79zM249 164v214c0 28 -7 46 -20 59c-11 11 -25 16 -42 16c-19 0 -34 -8 -44 -21c-18 -22 -21 -62 -21 -161s3 -139 21 -162c10 -12 25 -21 44 -21c17 0 31 6 42 17 c13 13 20 31 20 59zM239 567c-61 0 -100 40 -100 93c0 52 39 92 100 92v-49c-26 0 -44 -20 -44 -43c0 -24 18 -44 44 -44v-49z" glyph-name="gcommaaccent.ss01"/>
<glyph horiz-adv-x="215" d="M150 0h-86v712h86v-712zM152 -216c-61 0 -100 40 -100 93c0 52 39 92 100 92v-49c-26 0 -45 -19 -45 -43s19 -43 45 -43v-50z" glyph-name="Iogonek.ss01"/>
<glyph horiz-adv-x="195" d="M138 0h-81v518h81v-518zM152 660c0 -30 -25 -54 -54 -54c-30 0 -54 24 -54 54s24 54 54 54c29 0 54 -24 54 -54zM142 -216c-61 0 -100 40 -100 93c0 52 39 92 100 92v-49c-26 0 -45 -19 -45 -43s19 -43 45 -43v-50z" glyph-name="iogonek.ss01"/>
<glyph horiz-adv-x="215" d="M150 0h-86v712h86v-712zM154 814c0 -25 -20 -46 -46 -46s-46 21 -46 46c0 26 20 47 46 47s46 -21 46 -47z" glyph-name="Idotaccent.ss01"/>
<glyph horiz-adv-x="390" d="M138 0h-81v518h81v-518zM152 660c0 -30 -25 -54 -54 -54c-30 0 -54 24 -54 54s24 54 54 54c29 0 54 -24 54 -54zM333 -46c0 -57 -18 -92 -46 -115c-31 -27 -69 -33 -113 -33v73c50 0 78 20 78 78v561h81v-564zM347 660c0 -30 -25 -54 -54 -54c-30 0 -54 24 -54 54 s24 54 54 54c29 0 54 -24 54 -54z" glyph-name="ij.ss01"/>
<glyph horiz-adv-x="439" d="M431 0h-93l-126 322l-62 -123v-199h-86v712h86v-361l172 361h88l-144 -294zM286 -123c0 -53 -39 -93 -100 -93v50c26 0 44 19 44 43s-18 43 -44 43v49c61 0 100 -40 100 -92z" glyph-name="Kcommaaccent.ss01"/>
<glyph horiz-adv-x="395" d="M383 0h-90l-99 244l-56 -89v-155h-81v712h81v-440l147 246h86l-126 -202zM252 -123c0 -53 -39 -93 -100 -93v50c26 0 44 19 44 43s-18 43 -44 43v49c61 0 100 -40 100 -92z" glyph-name="kcommaaccent.ss01"/>
<glyph horiz-adv-x="361" d="M339 0h-275v712h86v-635h189v-77zM247 -123c0 -53 -39 -93 -100 -93v50c26 0 44 19 44 43s-18 43 -44 43v49c61 0 100 -40 100 -92z" glyph-name="Lcommaaccent.ss01"/>
<glyph horiz-adv-x="228" d="M211 0c-44 0 -81 6 -112 32c-28 23 -46 59 -46 116v564h81v-561c0 -51 24 -78 77 -78v-73zM191 -123c0 -53 -39 -93 -100 -93v50c26 0 44 19 44 43s-18 43 -44 43v49c61 0 100 -40 100 -92z" glyph-name="lcommaaccent.ss01"/>
<glyph horiz-adv-x="361" d="M339 0h-275v712h86v-635h189v-77zM293 588l-66 -49v173h66v-124z" glyph-name="Lcaron.ss01"/>
<glyph horiz-adv-x="228" d="M211 0c-44 0 -81 6 -112 32c-28 23 -46 59 -46 116v564h81v-561c0 -51 24 -78 77 -78v-73zM249 611l-66 -49v173h66v-124z" glyph-name="lcaron.ss01"/>
<glyph horiz-adv-x="361" d="M334 357c0 -26 -21 -47 -47 -47c-25 0 -46 21 -46 47c0 25 21 46 46 46c26 0 47 -21 47 -46zM339 0h-275v712h86v-635h189v-77z" glyph-name="Ldot.ss01"/>
<glyph horiz-adv-x="255" d="M269 304c0 -26 -21 -47 -47 -47c-25 0 -46 21 -46 47c0 25 21 46 46 46c26 0 47 -21 47 -46zM216 0c-44 0 -81 6 -112 32c-28 23 -46 59 -46 116v564h81v-561c0 -51 24 -78 77 -78v-73z" glyph-name="ldot.ss01"/>
<glyph horiz-adv-x="477" d="M412 0h-78l-184 487v-487h-86v712h80l182 -487v487h86v-712zM289 -123c0 -53 -39 -93 -100 -93v50c26 0 44 19 44 43s-18 43 -44 43v49c61 0 100 -40 100 -92z" glyph-name="Ncommaaccent.ss01"/>
<glyph horiz-adv-x="395" d="M342 0h-81v381c0 47 -28 71 -62 71s-61 -24 -61 -71v-381h-81v518h78v-40c7 12 21 25 32 32c16 10 35 16 56 16c39 0 66 -13 88 -38c21 -23 31 -51 31 -107v-381zM249 -123c0 -53 -39 -93 -100 -93v50c26 0 44 19 44 43s-18 43 -44 43v49c61 0 100 -40 100 -92z" glyph-name="ncommaaccent.ss01"/>
<glyph horiz-adv-x="455" d="M416 0h-91l-98 306h-77v-306h-86v712h161c108 0 168 -47 168 -203c0 -99 -24 -157 -86 -186zM307 509c0 76 -15 126 -81 126h-76v-253h76c66 0 81 51 81 127zM285 -123c0 -53 -39 -93 -100 -93v50c26 0 44 19 44 43s-18 43 -44 43v49c61 0 100 -40 100 -92z" glyph-name="Rcommaaccent.ss01"/>
<glyph horiz-adv-x="272" d="M256 448h-24c-55 0 -94 -36 -94 -95v-353h-81v518h78v-55c8 14 23 28 36 37c24 17 52 26 85 26v-78zM156 -123c0 -53 -39 -93 -100 -93v50c26 0 44 19 44 43s-18 43 -44 43v49c61 0 100 -40 100 -92z" glyph-name="rcommaaccent.ss01"/>
</font>
</defs>
</svg>
