<svg width="37" height="37" viewBox="0 0 37 37" fill="none" xmlns="http://www.w3.org/2000/svg">
<mask id="mask0" mask-type="alpha" maskUnits="userSpaceOnUse" x="10" y="10" width="18" height="18">
<path d="M16.6857 10C18.4589 10 20.1594 10.7044 21.4132 11.9582C22.667 13.212 23.3714 14.9126 23.3714 16.6857C23.3714 18.3417 22.7646 19.864 21.7669 21.0366L22.0446 21.3143H22.8571L28 26.4571L26.4571 28L21.3143 22.8571V22.0446L21.0366 21.7669C19.864 22.7646 18.3417 23.3714 16.6857 23.3714C14.9126 23.3714 13.212 22.667 11.9582 21.4132C10.7044 20.1594 10 18.4589 10 16.6857C10 14.9126 10.7044 13.212 11.9582 11.9582C13.212 10.7044 14.9126 10 16.6857 10ZM16.6857 12.0571C14.1143 12.0571 12.0571 14.1143 12.0571 16.6857C12.0571 19.2571 14.1143 21.3143 16.6857 21.3143C19.2571 21.3143 21.3143 19.2571 21.3143 16.6857C21.3143 14.1143 19.2571 12.0571 16.6857 12.0571Z" fill="#9E9E9E"/>
</mask>
<g mask="url(#mask0)">
<rect width="37" height="37" fill="#676767"/>
</g>
</svg>
